<?xml version="1.0" encoding="utf-8"?>
<!-- Generator: Adobe Illustrator 23.0.1, SVG Export Plug-In . SVG Version: 6.00 Build 0)  -->
<svg version="1.1" id="Layer_1" xmlns="http://www.w3.org/2000/svg" xmlns:xlink="http://www.w3.org/1999/xlink" x="0px" y="0px"
	 viewBox="0 0 1073 977" style="enable-background:new 0 0 1073 977;" xml:space="preserve">
<style type="text/css">
	.st0{fill:#F280FF;stroke:#4B0082;stroke-width:5;stroke-miterlimit:10;}
	.st1{fill:#4B0082;}
	.st2{font-family:'AmericanTypewriter';}
	.st3{font-size:48px;}
</style>
<g>
	<path class="st0" d="M252.9,791.6c3.2,0,6.4,0,9.5,0.2c8.1,1.1,16.4,1.3,24.4,2.8c8.4,1.6,16.7,2.8,24.8,6
		c11.3,3.7,22.1,8.4,32.1,14.9c5.2,3.6,10.3,6.9,14.5,11.4c5.3,5.6,10.5,10.7,14.5,17.3c4.9,7.8,7.7,16.8,8.7,25.9
		c0.4,11.3-1.3,22.8-6.8,32.8c-7.5,13.9-19.6,25.5-33.2,33.4c-14.9,9.9-33.2,15.5-50.6,19.2c-5.6,1.2-11.3,1.1-16.9,2.1
		c-8.4,1.5-17.3,0.7-25.9,0.9c-5.9,0.3-11.2-1.8-17-2c-5.5-0.3-11.2-2.1-16.7-3.2c-19.4-4.4-37.7-13-53.4-25.1
		c-5.6-4.2-9.6-9.6-14.3-14.7c-5.5-6.2-8.4-14-11.2-21.6c-2-5-1.8-10.1-2.6-15.3c-0.7-4.9,0.8-9.4,1.8-14.3
		c1.6-7.9,5.1-15.3,10-21.7c4.5-6.6,9.9-12.6,16.2-17.6c8.9-6.6,18.4-13,28.7-17.3c9.7-3.8,19.1-7.4,29.4-9.3
		c6-1.1,12.2-2.7,18.2-2.8C242.4,793.4,247.5,792.2,252.9,791.6z"/>
	<g>
		<g>
			<path class="st1" d="M446.6,158c1.2,1.9,2,4,2.7,6.1c-1.8,6.4-3.5,12.9-5.2,19.3c-1.8,6.5-2.5,13-5.4,19.3
				c-0.8,0-1.7-0.1-2.5-0.1c-2.5-4.6-2.9-9.1-7-12.4c-4.4,4.7-8.2,9.8-12.8,14.3c-9,9.1-16.5,19.5-25.5,28.6
				c-7.2,7.9-13.8,16.2-21.1,23.9c-5.6,5.8-10.5,12.2-15.9,18c-9.7,10.7-19.1,21.6-28.7,32.4c-8.8,9.2-16.6,19.3-25.4,28.6
				c-4.4,4.4-8.1,9.3-12.1,13.9c-8.3,9.1-16.7,17.9-24.1,27.8c-2.8-0.2-5.6-0.2-8.5-0.3c0.2-1.1,0.4-2.2,0.7-3.3
				c2.9-5.5,7.2-9.2,11.1-13.9c9-10,18-20.1,26.5-30.5c5.6-6.1,10.9-12.4,16.7-18.2c4.5-5.2,9.5-10,13.5-15.6
				c3.2-4.4,7.4-7.8,10.9-12c7.7-9.9,16.7-18.6,24.8-28.2c9.4-10.9,19.1-21.6,28.7-32.3c3.5-4.4,7-8.8,11.1-12.7
				c8.2-8,14.7-17.2,22.4-25.6c-0.8-1.1-1.6-2.3-2.5-3.2c-2.5-0.9-5.4-1-7.8-1.7c-1.7-0.2-2.5-2.4-3.4-3.6
				c6.1-2.6,12.4-4.7,18.4-7.5c6.5-2.9,13.3-5,19.8-7.9C446.4,160,446.5,159,446.6,158z"/>
			<path class="st1" d="M630,160.3c7.7,3.4,15.9,5.8,23.5,9.4c5.1,2.4,10.2,4.5,15.6,6.2c-0.9,1.3-1.5,3.2-3.1,3.6
				c-3.5,1.2-7.2,1.7-10.8,2.5c1.1,3.3,2.3,5.6,4.9,8c6.6,6.2,11.7,13.6,18,20c6.2,6.2,11.5,13.1,17.5,19.5c4.1,4.9,8.3,9.7,13,14.1
				c6.1,5.8,10.6,12.6,16.2,18.8c3.4,3.9,7.2,7.5,10.7,11.3c5.3,5.7,10,11.9,15.6,17.4c6.3,6.8,12.7,13.4,18.3,20.8
				c5.2,5.8,10.4,11.6,15.8,17.2c4.5,4.8,8.4,10.2,13,15c2.5,2.6,5,5,7.5,7.5c4.9,4.8,8.7,10.5,13.5,15.5c2.9,3.1,5.3,6,5.5,10.5
				c-3.1-0.1-6.1,0.1-9.2,0.5c-4.3-9-11.4-15-18.3-22c-4.3-4.2-7.2-9.4-11.5-13.5c-7.6-7.3-14.4-15.7-21.5-23.5
				c-4-4-7.8-8.1-11.4-12.6c-5-6.3-11.1-11.6-16.2-17.8c-7.2-7.6-13.3-16-20.9-23.2c-8.7-9.3-16.5-19.5-25.5-28.5
				c-7.2-7.2-12.9-15.6-19.9-23.1c-3.1-3.6-6.3-7.1-9.6-10.4c-4.3-4.2-8.1-8.8-12.8-12.5c-2.2,3.2-3.6,6.7-5.2,10.1
				c-0.6,1.4-2.1,2.1-3.2,3c-3.5-7-4.1-14.1-6-21.6c-1.8-6.3-4.5-12-5.2-18.6C628.7,162.7,629.3,161.5,630,160.3z"/>
			<path class="st1" d="M347.5,518.2c6.8,1.9,13.6,0.9,20.5,1.9c5.4,0.6,10.7,0.1,16.1,0.5c2.2,0.1,4.2,1.4,6.1,2.3
				c-2.8,3.3-6.5,5.3-9.5,8.2l-0.3,1.9c2,2.2,4.9,3.8,7.5,5.3c16.5,9.1,32.7,18.6,49,28c7.8,4.1,15.2,8.9,23,13
				c4.9,2.6,9.6,5.6,14.5,8.4c21.4,11.8,42.4,24.5,63.8,36.3c16.7,10.1,33.9,19.2,50.7,29.3c16.4,9.3,32.8,18.4,48.9,28
				c18.3,9.9,36,20.9,54.3,30.8c11.2,6.8,22.7,13.2,34.1,19.8c13.1,7.1,25.7,15.1,38.9,22.2c8.3,5.1,17,9.6,25.4,14.6
				c8.3,5.3,17.3,9.4,25.5,14.8c0.8-0.3,1.7-0.7,2.6-1c1.3-5.8,0.9-11.6,0.9-17.5c0-55.3,0-110.7,0-166c0-6.4,0.5-12.5-1-18.8
				c-1.9,0.3-3.7,0.6-5.5,1c1.2,0.4,2.3,0.8,3.5,1.2c-4.1,0-8,0.9-12.1,1.4c1.5-7.1,6-13.7,9.1-20.3c2.9-5.3,4.9-11.4,8.6-16.1l2,0
				c1.9,2.1,3.2,4.9,4.4,7.4c3.1,6.5,6.4,12.9,9.6,19.3c1.3,2.6,2.8,5.4,3.6,8.2l-1.5,1.6c-4.8-1.2-8.3-4.4-13.5-4.5
				c-0.1,2.5-0.1,5.1-0.1,7.6c0,63,0,126,0,189c0,5.3,0.1,10.5-0.2,15.8c-5.7,1.5-11,0.6-16.8,0.1c-3.9-5.2-9.2-6.9-14.5-10.2
				c-5.7-3.4-11.3-6.8-17.2-9.9c-6.3-3.3-11.9-7.6-18.3-10.7c-9.8-5.4-19.2-11.7-29.4-16.6c-7.3-3.5-13.6-8.4-20.6-12.2
				c-6.6-3.7-13.1-7.6-19.8-11.3c-9.5-5.1-18.4-11.1-28-16c-7.6-4.5-15.3-8.8-23.1-12.9c-9.1-5.8-18.3-11.2-27.9-16.2
				c-13.9-8.2-27.8-16.5-42.2-23.8c-6.2-3.3-11.8-7.3-17.9-10.9c-10.2-5.8-20.7-11.1-30.6-17.4c-17-10.5-35.3-19.1-52.1-30
				c-5.8-3.7-12.2-6.1-17.9-10c-5.9-4-12.3-6.9-18.3-10.7c-8.6-5.3-17.7-9.6-26.4-14.7c-5.6-3.4-11.2-6.8-16.9-10
				c-4.7-2.6-8.3-5.7-13.8-6.3c-1.3,4.9-1.2,10-2.6,14.9c-1.6-1.3-3.2-2.5-4.5-4.3c-6.4-10-12.8-20.1-19.6-29.9
				C347.7,521.3,347.4,519.8,347.5,518.2z"/>
			<path class="st1" d="M256,547.1c3.5-0.1,4.2,2.9,5.6,5.4c3.4,7.4,6.9,14.8,11.1,21.9c2.1,3.5,3.8,7.2,5.1,11.1
				c-6.2-0.2-9.8-5.1-16.2-4.1c-0.2,66.2,0,132.4-0.1,198.6c-0.1,4,0,7.9,1,11.8c-3.2-0.2-6.4-0.2-9.5-0.2c0.9-6,0.5-11.6,0.6-17.6
				c0-58.7,0-117.3,0-176c0-6.1,0.4-11.9-0.9-17.9c-5,0.7-9.3,3.1-14.2,4c0.6-3.1,1.5-5.9,3-8.6c3.6-6.8,7.1-13.7,10.3-20.6
				C252.9,552.3,254.2,549.4,256,547.1z"/>
		</g>
		<g>
			<path class="st0" d="M529.3,18.8c7.5-0.4,15.2-0.6,22.7,0.5c15,0.8,30,3.8,44.2,8.8c7.1,2.1,13.4,5.6,20,8.9
				c12.6,5.9,23.6,15.6,32.6,26.1c5.6,6.5,9,14,11.8,22c5.2,15.8,2.2,33.3-6.4,47.3c-4.8,8.8-11.7,16-19.5,22.1
				c-2.1,1.6-3.5,3.5-4.7,5.8c-0.6,1.2-1.2,2.3-1.8,3.5c-0.5-0.6-1-1.3-1.5-1.9c-3,1-5.8,2.4-8.5,4c-19.2,11-42,16.3-63.9,18.2
				c-7.7,0.7-15.5,0.2-23.2,0.4c-9.3,0.3-18.4-1.5-27.5-3.2c-8.8-1.5-17.5-4.1-25.9-7.1c-9.5-3.4-17.8-8.5-26.7-13
				c-0.5,1-1,1.9-1.5,2.9c-0.7-2.1-1.5-4.2-2.7-6.1c-3.4-3.2-7.2-5.9-10.6-9c-10.5-10.5-18.2-23.7-21.2-38.4
				c-0.6-5-0.5-10.2-0.2-15.3c1.7-11.1,6.1-21.8,12.9-30.7c6.4-9.1,14.9-15.4,23.8-22c14.9-9.1,31-16.1,48.2-19.7
				C509.5,20.1,519.3,20.3,529.3,18.8z"/>
			<path class="st0" d="M256,374.1c-0.3,1.1-0.5,2.2-0.7,3.3c2.8,0.1,5.7,0.1,8.5,0.3c3.8,0.7,7.4,1.5,11.2,1.7
				c5.3,0.2,10.6,1.5,15.9,2.2c9.8,1.4,18.9,4.6,28.2,8c12.7,4.9,24.5,11.7,35.2,20c4.1,3.4,7.6,7.9,11.1,11.9
				c6.6,7.6,11.5,16.5,14.1,26.1c1.2,4.4,1,8.8,1,13.4c0,3.3,0.1,6.6-0.5,9.8c-3.1,14.7-11.1,27.2-21.8,37.6
				c-3.6,3.3-7.6,6.1-10.9,9.8c-0.1,1.6,0.2,3.1,0.4,4.6c-0.9-0.9-1.9-1.8-2.9-2.7c-6.4,3.2-12.1,7.3-18.8,9.9
				c-8.9,4.1-18.1,7-27.6,9.2c-12.6,3.5-25.6,3.4-38.5,5.8c-4.5,1.1-7.8-1-12.2-1.5c-13.9-0.4-27.9-3-41.2-6.7
				c-16.1-4.6-31.2-12.3-44.6-22.2c-5.5-4.7-10.6-10.1-15.3-15.5c-5.8-6.5-8.6-14.1-11.6-22.1c-1.8-4.8-1.8-9.6-2.5-14.6
				c-0.8-5.5,1.2-11.5,2.3-16.8c3.5-14.1,12.3-24.3,22.2-34.5c2.3-2.1,4.9-3.8,7.4-5.5c5.5-3.8,11-7.7,16.9-10.8
				c17.8-8.8,37-14,56.6-16.1c4.6-0.4,9.8,0.3,14.2-1.2C254,377,255,375.4,256,374.1z"/>
			<path class="st0" d="M824.5,377.5c5.9,1.4,11.9,0.8,17.9,1.8c9.3,1.4,18.2,2.3,27.1,5c10.4,3,20.6,7,30.3,11.8
				c6.6,3.3,12.3,7.6,18.3,11.8c3.1,2.2,5.8,4.9,8.4,7.7c6,6.7,11.5,13.5,15.4,21.8c2.8,6,4.2,12.4,5.4,18.9
				c0.8,4.7-0.5,9.9-1.2,14.6c-2.5,14.5-11.3,27.4-21.5,37.7c-17.4,16.3-41.2,26.2-64.3,31.2c-11.5,3.1-22.8,2.7-34.4,4.6
				c-2.7,0.5-5.4,0.1-8.1-0.3c-10.5-1.4-20.7-1.5-31-4.2c-20.7-4.3-40.4-12.3-57.5-24.9c-3.7-2.9-6.9-6.5-10.2-9.8
				c-3.4-3.4-6.6-6.8-9.2-10.9c-3.3-4.9-5.3-10.2-7.5-15.7c-1.5-3.7-2.6-7.4-2.7-11.5c-0.1-5.7-0.4-11.8,0.8-17.3
				c1.7-8.3,5.3-16.2,10.3-23c3.5-4.9,6.9-9.6,11.4-13.7c7.1-6.3,15.4-11.7,23.6-16.4c17.1-9.3,36-14.7,55.3-17
				c4.8-0.2,9.5-1,14.3-1.6C818.4,377.6,821.4,377.4,824.5,377.5z"/>
			<path class="st0" d="M826.4,791.8c17.7,1.3,36.7,3.3,53.4,9.6c15.3,5.1,30.2,12.8,42.4,23.5c6.6,6.7,14,14.1,18.4,22.5
				c3.6,6.7,5.7,14.3,6.8,21.8c1.2,14.8-3.1,30.3-12.1,42.2c-7.6,10.3-17.3,19-28.5,25.3c-15.7,10.2-32.7,15.1-50.7,19
				c-5,1-10.1,0.9-15.1,1.8c-8.7,1.7-18,0.8-26.9,1c-5.8,0.3-11.2-1.7-17-2c-5.9-0.2-11.6-2.1-17.5-3.4c-14.5-3.4-28.2-9-40.9-16.9
				c-7.9-4.5-15-9.9-20.9-16.9c-4.1-4.8-8.4-9-11.1-14.8c-3.2-6.9-6.9-14.8-7.2-22.5c-0.3-4-1.2-7.5-0.6-11.5c1-5.8,2-12.1,4.3-17.5
				c3.6-9.3,10.3-17.6,17.3-24.5c6.4-6.9,15-12,22.9-16.9c8.2-5.2,18.1-8.3,27.2-11.7c7.2-2.6,14.4-3.6,21.9-5.2
				c5.7-1.3,11.5-1,17.2-2.8C815.4,792.4,820.7,793.2,826.4,791.8z"/>
		</g>
	</g>
</g>
<text transform="matrix(1 0 0 1 454.5944 115.9888)" class="st2 st3">a = d*e</text>
<g>
	<g>
		<text transform="matrix(1 0 0 1 181.228 472.6223)" class="st2 st3">d = b+c</text>
		<text transform="matrix(1 0 0 1 244.4194 892.6748)" class="st2 st3">b</text>
	</g>
	<g>
		<text transform="matrix(1 0 0 1 752.7421 472.6221)" class="st2 st3">e = c+2</text>
		<text transform="matrix(1 0 0 1 816.7019 892.675)" class="st2 st3">c</text>
	</g>
</g>
</svg>
