<?xml version="1.0" encoding="utf-8"?>
<!-- Generator: Adobe Illustrator 24.1.2, SVG Export Plug-In . SVG Version: 6.00 Build 0)  -->
<svg version="1.1" id="Layer_1" xmlns="http://www.w3.org/2000/svg" xmlns:xlink="http://www.w3.org/1999/xlink" x="0px" y="0px"
	 viewBox="0 0 887 1182" style="enable-background:new 0 0 887 1182;" xml:space="preserve">
<style type="text/css">
	.st0{fill:#FEFEFE;}
</style>
<path d="M396.5,144.5c14.1-0.3,28.3-0.9,42.5-0.1c5.9-0.1,11.7,1.1,18.5,1.1c1.6,1,3.2,0.2,4.9,1.1c8.3,0.4,14.5,1.9,22.6,3.2
	c50.7,8.9,99.4,29,142,58.1c1.3,0.7,2.3,2.3,4,2c12.8-6.2,28.1-8.5,42-4.9c20.9,4.6,38.4,20.7,45,41c4.7,13.9,4.1,30.7-2,44
	c-1.3,2.9,1.9,4.8,3.1,7c22.7,30.8,40.5,64.6,53.3,100.6c5.4,5.4,12,10.1,18,15c10.1,6.5,18.8,15.3,26.4,24.6
	c6.8,8,13.7,15.1,18.1,24.8c5.8,9.6,11.6,17.9,16.8,28.1c1.1,3.1,2.7,5.9,4.1,8.9c2.5,4.7,3.9,11,6.4,16c1.9,5.5,2,11.5,3.3,17
	c0.8,10.5,1.9,20.9,1.9,31.5c1,1.5,0.5,3.7,0.6,5.5c-0.2,9,0.2,17.6-0.6,26.5c-1.5,4.2-0.8,6.8-2.1,10.5c-0.5,8.2-3,17-4.8,25
	c-1.7,5.7-3.9,12.2-5,18c-2,6.2-4.2,11.3-6.2,17.4c-2.6,7.7-6.2,14.7-10.4,21.6c-4.4,7.1-8.1,14.4-12.6,21.4
	c-4.4,7-9.9,13.4-15.1,19.8c-7.5,8.8-16.2,16.6-25.3,23.6c-11.4,8.8-24,17.3-36.5,24.6c-7.4,4.3-15.8,9.5-23.4,13.8
	c-5.1,2.5-10.1,5.2-15,7.7c-5.1,1.9-9.8,6.7-15,8.4c-4.1,1.7-7.4,2.9-12,1.7c-1.6-0.4-2.4-2.6-4-2c-4.6,4.1-9.1,9.3-14,12.9
	c-10.7,9.8-22.2,18.8-33.9,27.2c-0.6,0.3-1,0.9-1.2,1.8c0.3,7.1,0.3,14.2-1.8,21c-1.1,2.7-1.1,5.6-2.7,8.2
	c-6.9,17.5-22.2,31.1-40.3,36.2c-2.6,1.1-5.8,0.8-8.5,2.2c-3.2,0-6.3,0.4-9.5,0.3c-15.4-0.1-31.3-6.7-42.5-17.4
	c-0.6-0.1-1.2,0-1.6,0.3c-18,5.2-39.4,10-58,12c-21.6,3.2-45.1,3-66.9,2.3c-2.7-1.2-6-0.2-9-0.8c-3-0.6-4.5,0.9-7,2
	c-2.5,0.2-4.2,2.2-7,2.2c-3.1,1.1-6.2,1.9-9.6,2.1c-1.4,0.9-3.4,0.8-5,1c-2,1.2-4.2,0.5-6.4,1.5c-4.4,0.6-9.9,0.9-14-0.6
	c-5.7-0.7-9.9-3.6-14.5-7c-2.8-0.9-2.4-2.9-4.5-4.5c-2-2-2.1-5-3.2-7c-0.3-1.6,0.2-2.5-1.3-3.5c-1.2,0-2.2-0.3-3-1
	c-2.2,0.1-3.5-1.1-5.5-1.3c-8.4-3.2-16.6-6-25-9.4c-67.8-27.6-126.4-75.4-167.9-135.8c-14.9-21.6-27.7-44.9-37.9-69
	c-3.7-8.6-6.6-17.3-10-26c-0.9-4.2-3.2-8.3-3.7-12.5c-2.3-4.8-3.3-11.4-4.9-16.4c-3.3-14-6.2-25.3-8.1-39.9c-1-3.2-0.5-7.2-1.3-10.2
	c-1.2-7.2-1.7-14.2-1.7-21.5c-0.5-0.7-0.7-1.5-0.6-2.5c-0.5-13.9-1.5-25.7-0.3-40c0.3-19,2.9-39.3,6.3-58c1.1-2.2,0.6-4.6,1.3-7
	c1.8-6.3,2.9-12.7,4.5-19c17.7-68.7,54.3-132,105.5-181.7c1.8-1.5,0.2-2.9,0.2-4.8c-1.8-2.6-2.3-6.4-2.8-9.5
	c-2.4-12.3-1.1-24.9,3.8-36.4c6.1-14.6,17.9-26.4,32.5-32.6c13.1-5.9,29.4-6.8,43-2.3c9.7,2.7,18,8,25.4,14.9
	c2.2,0.1,4.4-2.3,6.6-2.6c29.2-12.8,59.6-21.8,91.1-26.7c6.8-1.6,13.5-1.1,19.9-2.9C388.7,145.3,393,145.4,396.5,144.5z"/>
<path class="st0" d="M433,192.4c6.6,0.6,13.8,0.9,20.5,1c2.1,1.4,5.3,0.4,7.5,1.3c48.6,6,96.5,24.1,137.5,51.7
	c1,1.8-0.5,3.8-0.7,5.6c-1.8,7.7-1.3,16.2-0.5,24c1.9,9.5,5.4,18.3,11.3,26.2c11.6,16.1,31.6,26,51.3,25.4c2.5-0.2,4.7,0.3,7-0.5
	c1.6,0.1,2.4-1.1,4-0.7c2,0,3.1-1.1,5-1.1c1.9-0.2,2.6-1.5,4.6-0.9c7.5,10.2,14.4,20.3,20.7,31.4c2.4,4.1,5.9,9.7,7.4,14
	c-1.5,0.6-4.1-0.1-5.7-0.5c-5.2-0.4-8.2-1.8-13-2.7c-5.9-1.9-13.4-2.3-19-4.2c-2.7,0-4.4-1.2-7-1.1c-5.2-0.3-10.9-1.1-16-0.3
	c-3.8,0-7.3-0.3-11,0.9c-2.7,0.6-5.6,0-8,1.2c-2.5,0.9-5.3,0.9-7.5,2.5c-4.8,0.3-8.6,3.1-13.1,3.9c-1.7,0.9-3.4,0.8-4.9,2.1
	c-2.7,0-4.6,2.8-7.1,2c-1.5-2.8,0.2-4.2,1.3-6.5c2.5-6.7,7.7-12.2,9.4-19c-0.2-0.7-0.7-1.2-1.6-1.5c-2.8-0.1-5.7-0.6-8.5-0.7
	c-6.6-0.8-12.6,0.5-19,1.8c-7.4,0.6-12.1,2.6-19.5,3.9c-7.3,2.6-12.7,4.8-20.5,6.6c-4.3,0.9-7.6,3.4-12,4c-3.2,1-6.6,2-9.7,3.3
	c-4.1,2.6-8.7,4.5-12.8,7.2c-1.3,0-2.7,0.7-3.8-0.2c-5.5-3.1-9.3-9.1-13.5-13.6c-5.9-7.8-9.9-17.8-13.5-26.7
	c-2.4-5.9-5.3-12.5-6.1-18.9c-1.3-6.2-1.7-11.7-2.6-17.1c0-8.7,0.1-17.3,0.2-26c0.6-4.7,1.6-11.1,0.6-15.7c-3.2-0.8-7,1-9.8,2.6
	c-5,3.8-9.2,8.2-13.9,12.3c-6.6,5.7-11.3,12.4-16.8,19c-8.9,11.9-11.8,25.3-15.8,39.2c-1.5,3.7-1.7,6.8-2.5,10.6
	c-0.2,3.3-1.7,5.5-0.7,8.9c0.7,0.9,0.4,2.5,0.3,3.6c-0.5-2.4-1.8-6.4-5.1-6c-18.9-10-37.1-24.9-55.1-36.9c-4-3.6-8.3-7.3-12.1-10.9
	c-1-0.8-1.6-1.8-3-1.5c-1.2,1.7,1.1,2.8,0.2,4c0.9,3.6,0.1,7.6,0.8,11.8c0.1,3.8,1.8,7.9,2.3,11.6c0.9,1.5,0.3,3,2.1,3.9
	c-0.2,2.8,0.8,5,1.6,7.5c3,6.1,4.1,12.4,7.4,19.5c1.6,4.9,2.9,10.7,6,15c1.4,3.9-1.6,7.5-5.5,7.5c-2.6,1.2-6.3,0.5-9,2.2
	c-6.2,0.9-12.3-0.5-18.4,1.4c-7.3,0.6-18.1,2.2-25.6,2.4c-1.7,0.1-4-0.3-5.5,0.6c-3.5,0.1-7.7-0.2-11.1,0.9c-1.6,1-5.1,3.4-4.6,5.5
	c2.5,4.8,8.5,8.1,12.2,11.9c4.2,3.8,8,8,12.3,11.7c3,3.6,6.5,6.8,9.9,10.1c2,1.6,5.6,3.3,5.6,6.3c0.4,3.1-2,5.1-4.5,6.3
	c-3.5,2.5-7.2,4.2-11,6c-11.4,6.5-22.3,11-32.4,19.5c-1.3,1.8-3.3,3.6-1.6,5.9c4.6,5.5,12.5,8.8,18.4,12.6c6.8,3.9,14,7.9,20.1,12.8
	c0.6,2.1,1.8,5.3,0.9,7.5c-3,1-6.6,2.2-9.7,1.9c-3.4,0.1-6.6,1-10,0.8c-6.4,2.1-14,2.3-20,5.6c-1.9,0.8-2.8,2.7-1.7,4.6
	c1.4,1,2.7,0.7,4.2,0.8c2.1,1.4,4.4,2.3,6.7,3.2c5.6,2.1,10.6,5,16.3,6.8c0.5,1.8,1.8,1.7,0,3.1c-3.4,0.2-6.7,0.1-10.1,0
	c-1.7-1-4.1-0.9-6-1c-1.6-1.1-3.2-0.9-5-1c-2.7-2.1-5.6-1.5-8.5-2.6c-3.8-0.3-8.2,0.3-11,3.1c-3.3,4.9-6.2,12.4-7.7,18.1
	c-0.3,2.8,1.8,4.4,2.9,6.6c3.2,3.1,6.5,7.3,10.7,9c2.8,1.2,4.2-0.5,7-0.9c10.4-4.9,14.8-17.6,11.5-28.3c0.6-0.8,1.8,0,2.5,0
	c6.4,1.1,13.2,1.2,19.6,0c3.8-2.4,8.1-1.5,11.9-4c0-2.5,0-4.7,0.9-7.1c0.9-0.6,4.7-1,4.7,0.6c-1.2,2-0.1,2.8-1.6,4.5
	c0.7,0.1,1.4,0.1,2.1,0c10.1-5.6,19.5-12.2,26.8-21.2c10.5-11.9,20.7-25.8,33.2-35.7c6.8-6.2,15-11,22.6-16.3
	c1.4-0.9,3.5-1.5,4.3-2.8c-6.1-0.6-10.8,1.6-17.1,2c-7.1,5.1-13.6,10.9-20.5,16.3c-3.5,1.5-4.2-1.9-5.3-4.3
	c-5.2,3-10.6,7.9-14.9,12.2c-1.3,0.9-3.2,0.2-4.7,0.3c-7.6,0-13.9-1.7-21,1.8c-3.5,2.4-8,5.2-9.6,9.3c-0.6,1.5-0.2,3.1-0.7,4.5
	c-1.7-0.4-3.6-2.3-5.2-3.1c-6.9-4.7-15.9-8.8-22.3-12.8c-3.7-2.2-7.4-4.2-10.3-7.5c-1.4-1.2-0.8-2.1,0.6-2.8
	c9.6-5.8,21.1-12.5,30.8-18.1c6.8-4.1,13.2-4.9,19.8-10.3c0.5-1.2-0.2-3-0.7-4.1c-3.6-7.9-9.8-13.4-15.7-19.5
	c-3.3-3.4-7.7-5.6-10.9-9.1c-3.1-3.2-6.5-6.2-9.9-9.1c-1-1.1-3.1-2.4-3.5-3.8c3.7-0.7,9.2-0.7,13.1-1.9c2.2-0.2,5,0,7-1
	c4.2,0,8.3-0.4,12.5-0.6c3-0.9,6.6-0.3,9.5-1.4c9.3-0.2,18.3-2.8,28.1-2.9c2.2-1.2,5-1.4,7.5-2.1c2.4,0,4.5-0.5,3.8-3.4
	c-2.2-4.4-4.3-9-6.5-13c-0.5-2.2-1.5-4-2.5-6c-4.1-9.3-6.6-20-10.4-29c-0.5-2-0.6-3.8-1.9-5.5c-0.2-2.6-1.5-4.8-1.7-7.5
	c-0.2-3-3.2-8-1.7-10.9c1.8,0.3,3.6,3.4,5.5,4.3c6.8,6.1,13.9,12.3,21.5,17.5c11.7,8.2,23.6,15.9,35.8,23.4c2.8,1.9,5.7,2.9,8.8,4.1
	c0.5,1.1,0,3.2,1.4,3.6c1.1,0.1,1.7-0.2,2-1.1c1.6-3.9,0.6-8.8,1.5-13c-0.3-1.7,1-3.3,1.2-5c0.9-6.5,2.3-12.8,4.4-19
	c1-6.6,5.6-11.5,8.7-17.2c7.2-15.1,19.1-28.5,31.6-39.5c1.2-1.2,4.2-2.4,5.1-0.3c-1.9,11.3-1,21.6-0.9,33c1.7,5.4,1.3,11,2.9,16.9
	c2.1,8.1,3,16,7.2,23.5c0.6,1.8,0.8,3.4,2,4.9c5.6,13.5,15,22.8,24.3,33.7c1.2,1.1,2.3,3.4,4.1,3.2c5.1-1.7,9.8-4.1,15-5.6
	c11.8-4,26.8-9.7,38.5-14.3c6.6-1.9,12-3.6,18.6-5.2c3.4-1.3,7.1-1.3,10.4-2.8c4.9-0.4,9.6-1.3,14.5-0.8c3.2,0.9,2.8,4.2,1,6.3
	c-8.1,11.2-17,21.8-24.5,33.6c-5.5,7.9-8.4,17.7-12.3,26.5c-1.3,4.3-3.5,8.3-4.4,12.9c-2.2,7-4.2,14.3-5.4,21.6
	c-0.8,2.1-1.4,3.8-1.2,6.1c1.2,1.2,3.7,1.9,5.3,2c1-1.7,0.9-3.6,1.7-5.3c3.6-0.7,8,1.8,11.7,2.3c6.8,0.9,14.3,3.8,21,5.6
	c3.3,0.6,5.8,2.4,9,3.1c7.7,3,15.4,5.7,23,9c13.1,4.5,24.6,9.5,37,15.6c1,0.3,1.2,0.9,0.6,1.7c-6.2,1.3-12.4,2.6-18.6,4.4
	c-5.4,0.9-10.5,4.1-16,4.4c-6.3,1.7-10.9,3.5-17.3,5.2c-5,1.2-9.6,3.4-14.7,4.6c-4.2,0.7-6.6,3.2-11,3.2c-1.2,0.2-3.3,2.3-2.9,3.6
	c3.4,5.5,6.8,11.3,10.3,16.7c9.6,13.6,17.4,26.7,29.9,38c1.2,1.3,2.9,2.6,3.7,4.3c0.2,1.9-1.9,3.7-3.5,4.5
	c-7.1,4.3-13.7,4.4-21.5,5.9c-7.4,1.8-13.4,3.2-21,4.2c-1.4,0.3-3.2,0.1-4.5,0.9c-5.5-0.2-11.2,1.3-16.4,1.2
	c-1.1-2.8,0.7-7.2-0.8-10c-1-1.5-3.1,1.3-3.2,2.3c-0.2,4.1-1.3,7-1.3,11c-0.2,7.7,0.1,15.3,0.2,23c0.2,6.5,2.4,11.7,2.9,18
	c1.4,7,3,14.3,5.7,21c3.2,11.2,8.3,22.3,17.1,30.2c0.7,1,3,2.2,3,3.5c-6.4,0.6-15.5-0.3-21.9-1.4c-8-1-14.9-3.2-22-7
	c-9.4-4.8-16.7-11.7-24.1-19.2h-0.8c-1,3.5,6,6.8,3.5,10.5c-1.4,4-1.6,8.9-2,13c-0.8-0.1-1.7-1.3-2.4-1.9c-5.5-5.3-9.5-12.2-12.9-19
	c-0.8-1.1-0.1-2.8-1.9-2.3c-4.2,12.3-2.9,27.2-2,40.1c0.6,1.7,0.9,3.7,1.5,5.4c0,1-0.5,1.2-1.6,0.6c-13.5-10.4-25-23.2-32.7-38.4
	h-0.5c-0.8,1.4-0.4,3.3-0.6,4.8c-0.3,8.5,0.1,17.6,1.3,26c0.1,3.3,0.8,6,2.1,9c0,2.1-2.8,0.8-4,0.7c-8.8-2.4-15.7-9.7-21.1-16.7
	c-5.5-7.7-10.6-16.2-12.5-25.5c-1.6-0.4-2.2,1.3-2.5,2.5c-4.4,7.2-8,14.5-12.3,21.8h-0.4c-2.1-3.6-2.1-7.5-3.8-11.2
	c-0.1-3.4-1.7-6.1-1.5-9.5c-0.1-0.9-0.7-1.3-1.9-1.4c-5.9,1.3-11.1,3.3-16.7,4.8c-2,0.9-4,0.7-5.8,2.1c-3.1,1.2-4-3.4-3.9-5.5
	c1.6-4.1,5.5-7.7,8.7-10.6c4.1-3.9,9.2-5.2,14.6-6.2c3.3-0.5,7.7,0.4,10.5-1.7c4.2-0.7,8.4-2.9,12.6-4.2c8.3-3.4,16-6.2,23-12.1
	c7.3-6.4,13.6-13.9,18.7-22.2c4.1-6.3,6.6-12.5,9.9-19c0.6-2.1,1.7-4.5,3.5-5.7c2.3-0.9,5-0.8,7.2,0.2c3.8,0.2,7.4,0.3,11.1,0
	c1.8-0.8,4-0.9,6-1c2.1-1.5,4.7-1.7,6.9-3.1c5.9-2.8,10.7-7,12.5-13.4c0.6-2.5,0.8-4.9-0.7-7c-4.5-6.6-10.8-13.2-19.2-13.8
	c-2.6,0-6.1-0.8-8.5,0.4c-2.3,0.1-4.7,0.1-7.1,0c-2.6-1.9-3-3.3-2.6-6.5c0.1-5.4,0.8-11.8-0.4-17c0.2-4.6-1.1-7.3-1.5-12
	c-0.8-1.9-3.5-4.9-5.9-3.9c-2.8,0.8-6.1,1.4-9,0.9c-3.2-1.4-1.3-4.5-1.6-7c2.1-8.3,1.8-16,1.1-24.5c-2.1,1.6-2.7,5.5-4.2,7.8
	c-0.6,1.2-1,3.4-2.4,3.9c-2.2,0.4-2.6-1.4-2.1-3.1c0.5-3.2,1.5-7.6,0.8-10.8c-1,0.1-1.5,2.5-2.7,2.7c-1.6,0.4-2.7,0-3.5-1.5
	c-1.2-3-1.1-7.1-3.1-9.9c-1.6-3.1-3-6.4-4.7-9.4c-0.9-1.8-3.7-1.7-5.2-2.7c-6.8-0.4-15-0.8-21.5,0.9c-8.9,1.5-17,7.2-24.2,12.4
	c-13.7,9.5-25.7,21-38.6,31.5c-13.6,11.1-24.9,23.5-40.8,31.2c-3.2,1.5-5.8,3.5-9.4,3.9c-5.5,1.8-12.4,1-18,0.2
	c-4-1.1-8.4-3.2-12-5.3c-2.2-0.5-1.5,1.4-1.9,2.8c0.4,8.4-4.8,16.8-11.5,21.5c-0.7,0.4-3.6,1.3-3.4,2.2c1.8,1.1,3.5,1.5,5,3
	c5.2,5,9.9,10,14.4,15.7c-1.4,2.1-5.1,2.3-7,4.1c-4.3,1-8.3,3.2-12.5,4.8c-7.3,2.8-15.8,7.3-22.7,11.2c-1.2,0.8-4.6,2.2-4,4.2
	c1.3,2,3.3,0.2,5,2c7.9,2.2,15.9,2.9,24.1,2.9c0.7,0.5,1.5,0.7,2.5,0.7c10.9,0.3,19.9,0.2,30.5,0.3c2.9,1.9,0.8,5.8,1,8.5
	c-1.2,4.5-2.7,9.9-3,14.5c-0.8,1.2-0.9,2.6-1,4c-0.9,1.6-1.6,4.4,0.8,5c4.2,1,9.6,1.4,13.7-0.2c4.3,0.5,7.5-2.6,11.5-2
	c0.3,1.5-0.8,1.5-1.3,2.6c-3,5.8-7.9,9.1-11.6,14.5c-3,1-5.4,2.9-8.4,3.7c-3.1,1.1-5.4,2.9-8.8,3.1c-2.9,2.1-7,2.1-9.9,4.1
	c-1.9,0.6-3.9,0.6-5.5,1.7c-11.7,3.1-21.2,5.8-32.5,10.3c-9.1,2.4-18.8,5.8-27.3,9.8c-2.8,1.7-4.8,4.5-7.2,6.7
	c-3.6,5.2-2,10.2-2.1,16c1.4,3.7,0.5,8.3,1.7,12.1c0.5,5.7,0.7,12.5,2.6,17.9c1.7,5.8,3.6,9.2,5.2,14.6c2.2,4.8,1.5,11.4,4.1,15.9
	c0.2,2.3,0.3,4.4,1,6.5c-0.4,6.8,4.4,11.8,6.1,17.6c-3.4-2.2-7.8-6.3-11.2-9c-40.1-34.3-71.8-78.8-91.7-127.5
	c-5.2-12.2-8.1-22.7-12.4-35.1c-1.7-6.3-3.1-13.2-4.9-19c-1.2-8-3.6-17-4.5-25c-1.2-4-0.8-9-1.7-13c-1-6.2-1.2-11.7-1.5-18
	c-1.8-22.7-0.2-40.6,1.7-63c1.8-9.9,3.2-22.5,5.6-32c14-64.5,47.4-125,95-171c1.9-1.2,3.6-5,6.1-3.3c9.9,3.4,21.7,4.5,31.9,2.4
	c20.6-3.6,38.7-18.2,46.4-37.8c3.3-7.2,4.2-15.1,5-22.9c29.4-14.1,61.3-23.2,93.7-27.3c2.5-1.2,6.1-0.1,8.5-1.5
	c4.9,0,9.7-0.4,14.5-0.5C412.7,192,423.2,192.2,433,192.4z"/>
<path class="st0" d="M638.5,391.5c10.6-0.5,18.9-1.2,29.6,0.2c2.9,0.8,6.2,0.2,8.9,1.2c7.5,0.6,15.4,2.8,23.6,3.5
	c1.4,0.5,3,1.2,4.4,1.2c6.6,1.3,12.3,3.4,18.5,5.9c9.4,2.8,18.4,7.2,26.9,12c13.6,7.7,26.3,16.4,36.5,28.5
	c10.4,10.8,17.3,23.4,25.2,35.9c8.8,15,16.7,32,20.6,49c1,3.2,1.9,5.6,2.4,9c0.8,5.2,2.8,10.8,2.5,16c1.3,17.1,0.2,34,0,51
	c-1.3,4.3-0.5,8.7-2.2,13.2c-3.2,9.5-7.3,17.2-12,26.1c-3.3,6.2-7.9,11.5-11.3,17.7c-2.3,4.2-5.8,8.1-7.6,12.5
	c-4.9,6.9-10.4,13.7-15.6,20.5c-2.2,2.9-5.3,4.6-7.5,7.5c-2.6,3.1-5.3,6-8.1,9c-1.8,2.5-4,4.6-6.5,6.4c-13,10.8-27.1,20.1-41.8,28.4
	c-1.1,0.5-1.2,1.6-2.6,1.3c-0.2-1.5,1.3-3,1.6-4.5c0.6-4,2.3-7.1,3.7-11.1c1.3-1.8,1.2-4.1,2.5-5.9c6.4-16.6,7.4-35.3,6.4-53
	c-1.9-4.1-2.5-9.8-4.9-14c-5.6-15-11-29.1-20.3-42.4c-5.8-8.8-12.5-16.8-21.4-22.5c-6.6-3.9-13.4-8.3-20-11.9
	c-1.4-0.4-2.7-0.8-4-1.5c-6.1-2.5-11.8-3.8-18-5.3c-2.8-0.1-5.9-0.1-8.6-0.8c-5.2-4.6-10.9-8.5-16.2-12.9c-5-4.5-10.5-7.8-15.1-12.8
	C600.5,541,594,532.1,588,523c-0.5-1.3-1.9-2.1-1.5-3.5c1.7-0.3,3.1-0.4,4.4-1.7c15.5-8.9,33.4-10.3,50.1-16.1
	c3.2-1,6.9-1.5,10.1-2.8c8.6-2.8,17.1-3.4,24.8-9.2c0.5-0.9,0.2-1.5-0.8-1.7c-2.4-0.6-4.5-2.4-6.8-3.4
	c-15.7-8.1-32.5-14.6-49.2-20.4c-10.8-4.1-20.5-7.1-31.4-10.8c-8.4-1.9-17.5-5.8-26.1-6.9c-1.6-0.8-3.6-3.7-2.2-5.4
	c2.9-5.3,5.1-11.4,8.5-16.4c12.4-10.6,27.5-18.6,42.2-25.6c7.5-3.3,14-5.2,22-6.8C634,392.3,636.6,392.3,638.5,391.5z"/>
<path class="st0" d="M320.5,478.5c8.1-0.5,16.5-1.2,24.5-0.1c2.6,0.6,4.4,3,3.8,5.7c-0.8,3.1-4,5.3-6.2,7.5c-1.2,0.7-3.2,3-4.7,1.7
	c-7-2.9-16.4-1-23.9-0.9c-2.8,0.2-6-2.4-5.2-5.4c0.7-2.5,2.7-3.2,4.5-4.7C315.4,480.5,318,479.8,320.5,478.5z"/>
<path class="st0" d="M390.5,492.5c6.4-0.8,12.6-0.4,19.1,0c2.9,1.1,6.6,0.3,9.4,1.6c4.3,1.3,8.9,2.2,13,4.2c6.7,2.5,14,5.6,20,9.7
	c4.7,3.5,9.1,8.7,7.8,15c0.6,4-1.1,8.8-5.8,9.1c-4.1,0.3-6.6-3.3-9.4-5.7c-3-3.1-5.9-6-9.8-8.1c-8.4-3.3-17.8-6.8-26.8-8.1
	c-5.9-1.5-13.1-1.2-19-0.1c-1.8,0-3.7-0.7-4.9-2.1c-2.4-2-2-6.1-1.8-8.9C383.7,494.5,387,494.4,390.5,492.5z"/>
<path class="st0" d="M325.5,501.5c2-0.1,4.2-0.4,6.1,0v1.1c-2.5,1.8-4,4.7-6.3,6.7c-1.4,1.5-2.1,1.8-4.2,1.8
	c-3.4-0.3-8.6,2.1-11.9,0.9l0-0.9c3.6-3,7.6-6,12-7.8C322.7,502.8,324,502.5,325.5,501.5z"/>
<path class="st0" d="M304.8,507.2c0.4,1.5-1.4,2.4-1.8,3.8c-0.6,3-2.8,5.5-3.4,8.5c-1.4,1.8-1,3.7-3.5,4.4c-1.9,0-2-1.9-4-1.9
	c-5.7-2.1-13.8-4.4-19-6.6c-2.2-0.3-5.6-1.9-7.5-3c2.8-2,6.9-0.4,10-2c6.6,0,15.3-1.7,22.5-1.9C300,508.1,302.7,506.6,304.8,507.2z"
	/>
<path class="st0" d="M256.2,529.3c2.3-1.1,4.9,0.1,5,2.7c0.2,2.5-1.6,4.4-4.2,4.1C253.9,535.5,254,530.8,256.2,529.3z"/>
<path class="st0" d="M407,532.3c1.8,0.8,3,2.4,5,2.8c4.5,2.3,8.3,5.8,10.6,10.3c1,1.9,0.9,3.2-1.6,2.8c-5.7-0.4-11.3-0.3-17-0.8
	c-9.2,0.1-18.4-0.1-27.5-0.8c-0.3-1.4,0.7-1.6,1.2-2.7c2-3.9,5.5-7.3,9.3-9.5C393.4,530.9,400,531.2,407,532.3z"/>
<path class="st0" d="M260.2,537.3c2-0.6,3.4,2.1,1.6,3.4C259.6,541.6,257.9,538.5,260.2,537.3z"/>
<path class="st0" d="M378,550.9c5.2,0.4,10.3,0.6,15.5,0.6c0.9,1.5-0.5,2.7-1.1,4c-0.6,2.1-0.2,4,0,6.1c2.6,5.5,11.4,5.2,14-0.1
	c0.9-2.1,1.8-4,1.3-6.4c0.1-2.1,2.8-1.3,4.2-1.3c4.6,0.8,7.8,1.3,12.6,1.8c0.7,2,0.2,5.2-1.1,6.9c-2.2,5.1-6.6,8.8-11.5,11.2
	c-1.8,0.5-3.8,1.1-5.4,1.9c-3.2,0.2-6.3,0.3-9.6,0c-5.6-1.5-10.8-3.3-15.1-7.5c-3.5-4.3-4.6-8.9-6.3-14
	C375.4,552,375.5,550.5,378,550.9z"/>
<path class="st0" d="M404.6,555.3c1,2.3-1,3.8-3.2,3.2c-0.4-1.2-1.4-1.8-1-3.1C402.1,554.5,403.1,553.7,404.6,555.3z"/>
<path class="st0" d="M490,563.7c3-0.2,5,1.7,8,1.7c3.4,1.1,4,5.2,2.5,8.1c-2.8,4.7-7.7,8.7-13.5,7.2c-2.4-0.6-3.1-2.9-5.5-3.2
	c-0.1-1.6-0.1-3,0.5-4.5c-0.1-2.7,2.4-3.8,2.5-6.5C486.3,565.2,487.6,563.7,490,563.7z"/>
<path class="st0" d="M278.5,584.5c1.5-0.4,2.7-1.4,4.1,0c3.4,4,7.1,7.6,9.9,12.1c1.7,2.3,3.3,4.8,5.1,7c-11.9-0.1-23.6,0.6-35.5,0
	c-6.8-0.6-13.9-0.5-20.6-1c0.1-0.4,0.4-0.8,0.9-1.2c4-1.9,7.1-3.9,10.7-6.1c2.1-1.4,4.4-1.4,6.4-2.8c3.2-1.8,7-2.1,10-4
	C272.8,587.7,275.5,586,278.5,584.5z"/>
<path class="st0" d="M609.4,587.5c8-0.3,15.6-1,23.6-0.2c4.9,1.1,9.6,3.5,14.5,4.2c5.2,3,10.9,4.7,15.8,8.2c4.4,2.3,8,6.1,12.2,8.8
	c4.4,5,9.2,9.6,13,15c3.7,6.1,7.7,12.8,11,19c1,3.5,2.8,8.9,4,12.5c0,4.3,1.2,8.7,1.3,13c0.2,2,0,4.4,0.7,6.3
	c0.4,6.2,0.6,12.4,0.4,18.7c-0.3,2.2-1.9,4.1-2.8,6c-22.9,41.1-55.7,77.8-94.2,105.8c-1.7,0.9-1.3,1.1-2.8-0.1
	c-6.2-4.3-12.9-7.8-20.2-9.8c-16.9-4.9-36.6-2.2-51.3,7.7c-17.5,11.3-28.2,31.1-28.2,51.9c-9.9,3.1-22.2,5.4-32.5,7.4
	c-5.3,1.4-11.5,0.8-16.5,2.6c-3.5,0-7,0.6-10.5,0.6c-1.8-0.3,0.2-2-0.1-3.1c0.3-3.8-1.5-6.4-2-10c-1.7-4-1.9-9-3.6-13
	c-0.8-4.1-3.8-6.9-4.5-11c-2.3-5.5-4.9-11.5-5.2-17.5c-1.3-1.7-1.5-3.5-1.9-5.5c-0.2-5.3-2.1-11.4-1.2-16.6c1.4-2.7,1.1-5.5,1.6-8.4
	c1.6-5.1,2-10.9,4.4-15.6c1.6-3.5,2.2-7.5,4.1-10.8c2.1-7.7,6-15,10.4-21.5c3.6-5.7,8.3-10.4,12.5-15.5c0.8-0.2,1.6-0.3,2.5-0.2
	c2.6,0.1,4.1-2.7,4.3-5c2.6-2.1,6.5-2.7,9.1-4.8c3-0.3,3.1-2,6.1,0c3,3.1,6.4,5.8,10.5,7.4c1.8,0.6,2.9,4.2,4.6,3.8
	c1.2-5,0.4-9.8-1.3-14.6c0.1-4.8-0.7-9,0.1-13.5c2.9-2.2,2.2-5.7,5.5-7.6c1.3-1.1,1.7-0.3,2.3,0.9c3,3,6.6,7.5,10.8,8.6
	c2.8-1.4,1.3-3.8,2.6-5.8c0.7-3.3-0.3-7.2,0.6-10.5c1.3,0,2.5,2.3,3.8,2.9c5.2,4.4,10.5,8.3,17,10.3c4.8,2.2,8.8,3.5,14,4.4
	c8.5,2.6,16.8,2.3,25.5,1.8c1.3-0.9,3.4-0.9,5-1c0.9-0.6,1.9-0.9,3-1c0.7-1.8-0.9-1.2-1.7-2.4c-4.9-6.6-11.1-12.9-15-20.2
	c-5.9-12.3-11.4-25.6-13.5-39.1c-0.8-2.2-1.5-4.1-0.8-6.5c1.7-2.6,1.9-5.8,3.5-8.5c3.2-6.2,9.1-8.6,14-12.8c4.1-3,8.5-6.4,13-8.8
	c1.6-0.3,3.2-0.9,4.5-1.9c2.9-0.7,6.4-2.2,9.5-2.6C603.6,588.9,606.8,588.9,609.4,587.5z"/>
<path class="st0" d="M301.3,610.2c0.7-0.2,1.3,0.1,1.6,0.8c4.6,6.2,9,12.5,13.3,18.9c0.6,1.1,1.7,1.3,1.4,2.8
	c-3,1.2-6.6,1.3-9.6,2.2c-2.5,1.3-5,0-7.5,1.6c-2-0.1-4.1,0.3-6.1,0v-1.1c1.7-2,1.3-5.2,2.2-7.5c1.6-4.5,1.9-9.9,3.8-14.4
	C300.6,612.4,300.9,611.3,301.3,610.2z"/>
<path class="st0" d="M329,616.1c2.9,0.8,6,0.6,9,1.2c6.5,0.1,13.4-1.1,19.9-0.1c-0.1,1.1-2.9,2-3.9,2.5c-8.5,2-17.9,1.4-26.5,0.7
	c-1.2-0.7-3.5-1.9-4-3.2C324.8,615.6,327,616.1,329,616.1z"/>
<path class="st0" d="M322.2,640.2c1.5-0.1,2.7,3.1,3.3,4.2c0.8,3.7,4,9.8,2.4,13.3c-2.3-0.2-4.7-2.1-6.9-2.7c-1.9-0.9-4-1.1-5.9-2.1
	v-0.7C318.2,648.7,321,644.7,322.2,640.2z"/>
<path class="st0" d="M313,659.3c3.3-0.6,7,1.5,9.9,2.9l0,0.6c-5.3,2.5-11.3,3.1-16.9,5c-4.3,0.5-7.5,2.6-11.5,3.8
	c-3.4,1.9-7,2.5-9.9,5.1c-1.1,0.9-2.8,1.8-2.6,3.5c1,2.2,1.1,4.5,2.6,6.5c0.4,3.3,3.4,6.7,3,10.1c-1.6,3.1-3.6,5.8-5,9
	c-3,4.2-5.3,8.7-7.9,13.2c-2,3.7-5.7,6.7-9.4,8.6c-1.3,1.2-2.8,1.8-1.6,3.8c1.4,3.9-0.8,5-3.1,7.5c-2.9,0.8-4.6-2.2-5.8-4.2
	c-4.9-4.8-8.3-11.3-12.2-16.8c0.1-1.1-0.7-3.1,0.5-3.7c4.9-2.1,9.9-5.6,14.7-8.2c7.6-5.2,15.2-8.6,22.8-14.2c1-0.7,3.8-2,3.4-3.4
	c-1.7-0.8-4.4,1.2-5.9,1.9c-6.8,4.4-14,8-20.9,12.3c-5.3,3.1-10.5,6.3-15.9,9c-0.4,0.4-1,0.5-1.7,0.2c-2-2.7-4.4-5-6.2-7.7
	c-0.9-1.1-1.6-2.2-3.2-1.6c-1.4,0.4-1.2,2.8-0.8,3.8c1.8,3.8,4.9,7.1,7.2,10.5c4.1,5.5,7.5,11.8,12.1,16.9c1.7,2.3,3.8,4.2,5.5,6.5
	c0.4,0.3,0.6,0.9,0.5,1.6c-4.1,0.6-10.4-1-13,3c-7.4,7.9-14.8,16.2-20.5,25.4c-0.8,2-1.6-0.8-1.5-1.5c-0.9-0.5-1.3-1.3-1.4-2.5
	c-4.5-10.7-7.2-23.7-9.8-35c-0.9-5.9-2.6-12.8-2.1-18.7c6.5-1,11.3-7.7,9.4-14.2c-0.5-0.9-0.6-1.7-0.2-2.6c4.1-1.2,8.4-3.5,12.5-4.7
	c9.4-4.7,18.3-9.4,28.6-12.2c3-1.9,6.9-2.1,9.9-4.1c4.4-1.3,8.2-2.3,12.5-3.8C289.5,666.1,302,663.4,313,659.3z"/>
<path class="st0" d="M328.5,665.5c0.8,3.3,0.9,7.4-0.1,10.5c0.2,3.1-1,5.1-1.4,8c-3.2,8-8.9,13.3-14.1,20
	c-6.9,8.8-13.5,17.7-20.6,26.3c-3.9,6.5-7.1,13.2-11.8,19.2c-2.4,0.9-4.6-0.4-5.7-2.5c-1.6-3.3-3.4-6.5-5.2-9.7
	c-1.4-2.8-3.6-4.4-2.2-7.8c4.8-3.6,10.1-6.6,15-10c5.3-2.6,9.7-6.4,15.1-8.9c0.9-2.1-1.6-3.8-2.1-6c-2-6.5-5.4-12.9-6.8-19.5
	c-0.9-2.3-1-4.8,1-6.5c2.7-2.2,6.9-2.1,9.8-4.2c7.2-2.5,14.3-4.2,21-8C323.5,665.7,325.2,663.9,328.5,665.5z"/>
<path class="st0" d="M397.5,675.5c1.2-0.6,2.3-0.6,3.2-0.2c0.5,1.5,0.8,2.9,1.9,4.2c0.6,2.5,1.6,5,2.4,7.5c1.4,3.3,1.3,7.7,2.8,11
	c1.1,1.9,2.7,2.7,4.8,1.5c1.7-2.5,0.9-5.5,3-8c0.7-3.6,3.2-6.9,4.9-10.1c0.7-0.9,1.3-2.5,2.5-2.7c1.9,0.8,1.6,3.1,2.6,4.6
	c1.9,5.3,6.8,9.4,9.9,14.2c2.4,2.9,4.7,6,7.6,8.3c0.9,0.9,2.2,1.2,1.6,2.8c-6.4,12-13.2,25.1-16.2,38.3c-0.7,5.7-3,13.3-3,19
	c-0.7,4.9,0,10.1-0.6,14.9h-0.4c-1.6-2.7-1.9-5.8-3.8-8.4c-0.6-3.6-3-6.1-3.8-9.5c-5.1-11.3-9-20.5-13.5-32c-1.3-2.9-2.4-5.8-2.6-9
	c-0.4-1.8-2.5-3.6-1.1-5.5c2.3-2.2,5.5-3.8,4.8-7.5c-0.2-3.5-2.8-4.3-4.6-6.9c-2.7-3.9-5.8-7.5-8.6-11.3c-1.4-1.8,0.6-3.8,1.2-5.6
	C393.8,681.8,395.9,678.8,397.5,675.5z"/>
<path class="st0" d="M372.5,681.4c1.4-1.2,2.7,0.6,3.7,1.4c6.6,7.4,12.8,15.3,19,23.1c0.6,1.1,2.2,2.2,1.5,3.6
	c-8.4,5.5-16.1,11.6-23.3,18.6c-0.6,1.9-0.3,5.7,1.3,7.3c5.2,7,8.6,15.4,12.9,23.1c0.8,1.4,0.1,2.1-0.9,3c-2.9,2.2-4.8,5.2-7.5,7.5
	c-3.6,3-6.2,7.1-9.6,10.4c-2.4,1.7-2,5.9-1.3,8.3c2.9-0.6,7-5.9,10.4-4.3c0.1,4.7,0.9,9.4,0.9,14.1c1.2,2.9,0.4,6.5,1.5,9.4
	c0.6,5.3,1.6,10.1,1.5,15.5c0.5,0.7,0.8,1.5,0.9,2.5c-0.3,1.4-2.8,1.2-3.9,1.5c-6,2.1-12.8,3.4-18.5,6.3c-2,0.6-4.3-0.4-4.4-2.7
	c-0.1-6,0.4-12,0.6-18c0.6-3.3-0.4-7,0.8-10c0.2-10.6,1.5-21,1.5-31.6c1.1-2.3-0.1-5.6,1.1-7.9c0-8.9,0.4-16.7,1.8-25.5
	c0.7-1.7,0.1-4.2,0.3-6c0.3-9.2,0.7-18.4,0.9-27.5c1.2-2.7,1.4-5.5,3-8C369.4,691.3,370.3,685.8,372.5,681.4z"/>
<path class="st0" d="M210.6,699.3c1.1,2.3-1.8,7.3-4.4,6.6c-0.4-1.7-0.8-4.6,1.2-5.5C208.8,700.2,209.4,699,210.6,699.3z"/>
<path class="st0" d="M328.5,699.5c5.4-1.6,11.1-1.1,15.6,2.4c4.4,3.1,7.9,6.9,11,11.2c0.7,2.4,1.8,4.4,1.9,7
	c0.7,12.2,0.2,24.4-0.4,36.5c-1.7,2.1-1,4-1.1,6.5c-0.3,8-0.5,16-0.9,24c-1.2,4.4-0.9,10-1,14.5c-1.4,2.8-0.4,6.6-1.5,9.5
	c-0.3,7.1-2.8,13.8-2.5,20.5c-1,1.2-0.6,3-0.5,4.5c-0.1,1.8-2.3,2.1-3.6,2.5c-1.4,1-2.7,2.2-4.5,2.5c-9.3,4.3-19,9.7-28,14
	c-4.7-1.1-9.6-2.7-14-4.7c-4.3-1-7.6-3.1-11.5-4.8c-8-4.1-16-8.6-23.5-13.6c-5.3-3.4-9.8-7.3-13.4-12.5c-1.6-1.7-3.7-3-6.1-2.9
	c-0.6-1.4,0.6-1.7,1.1-2.9c3-6.1,6.2-12.3,10-18c8.6-12.8,15.8-26.4,25-38.9c4.4-6.1,8.1-12.4,12.9-18.2c4.4-6.2,9.8-11.8,13.3-18.5
	c3.3-5.3,7.2-10.1,11.8-14.3C321.5,702.8,324.6,700.6,328.5,699.5z"/>
<path class="st0" d="M289.3,704.2c0.5,0.1,1.1,0.5,1.7,0.9c1.8,0.5,1.6,2.9,3.5,3.4c-3.3,3.1-8,6-12.1,8.1c-0.3-1.3,0.6-1.7,1.3-2.7
	C285.8,710.8,287.5,707.4,289.3,704.2z"/>
<path class="st0" d="M394.6,720.4c0.6,0.5,0.9,1,1.1,1.6c0.7,3.7,1.7,7.6,2.9,11.2c0.9,3.4,3.2,5.9,3.8,9.4c1.6,2.2,1.5,4.7,3.1,6.9
	c2.2,6.4,5.4,13.1,7.5,19.5c1.4,3.8,3.4,7.6,4.4,11.5c1.9,2.8,2.2,6.5,3.3,9.5c3.4,10.2,8.5,21.1,12.3,31.9
	c2.2,7.9,5.8,15.5,7.4,23.5c1.4,2.1,1.9,4.6,3.1,6.8c0.4,0.8,0.5,1.6,0.3,2.3c-0.9,0.2-1.9,0.2-2.8,0.1c-3-0.1-4.8,1.9-5.5,4.6
	c-0.7,3.8-0.9,7,1.2,10.3c-2.3,2.6-6,4-8.6,6.3c-10.9,8.2-20.6,16.8-34.5,19.4c-2.8,1.5-6.8-0.9-9.5-1.3c-6.9-1.8-12.8-4.4-20-6.5
	c-5.4-1.7-10.5-4.5-15.4-6.3c-6.8-2.7-12.5-6.5-18.8-10.2c-4.4-2.5-7.9-7-11.5-10.6c-0.8-1.8,0.9-2.5,2.2-3.1
	c13.4-7.2,24.4-13,38.5-19.2c6.4-1.9,11.8-4.6,18-6.2c2.1-1.2,4.5-0.5,7-0.7c4.1-0.9,6.4,2.3,10.5,3.1c4.5,2.7,9.9,3.9,14.5,6.2
	c1.3,0.3,2.6,1.6,3.9,1.1l0-0.8c-3.9-3.5-8.5-6.8-13.6-8.5c-3-1.9-7.5-2.1-9.1-5.8c-0.4-2.3-1-4.6-1-6.8c-0.9-5,0.2-10.8-1.9-15.4
	c-0.9-5.2-2-9.7-1.9-15.1c-2-2.5-0.8-5.3-1.2-8.5c-0.6-3-0.6-5.8,1.3-8.3c2.5-2.8,5-5.8,7.9-8.2l0-1.2c-3.4-6.1-6.8-12-9.7-18.4
	c-1.8-4-4.3-7.9-5.5-12c-0.4-1.8,0.6-2.7,2-3.7c2.9-3.3,6.4-5.6,9.9-8C391.7,720.6,393,720.2,394.6,720.4z"/>
<path class="st0" d="M266.5,741.5h1.1c1.7,3.8,3.9,7.4,6,11c1.1,0.9,1.6,2,1.2,3.5c-2.6,5.8-6,11.3-9.1,16.8
	c-7.9,13-16,26.2-23.6,39.2c-0.7,1.8-2,0.9-3,0c-3.1-2.6-5.9-5.4-8.8-8.2c-0.5-0.7-0.5-1.6,0.1-2.5c2.6-4.4,5.5-8.5,8-12.9
	c2.7-4.6,6.9-7,9.1-11.9c3.8-6.4,6.4-13.4,10.2-19.7C260,751.4,263.8,746.6,266.5,741.5z"/>
<path class="st0" d="M442,859.6c1.1,0,4.8,1.2,3.5,2.8c-0.6,1.6-2.7,3.5-4.5,3.5c-0.7-0.1-1.1-0.8-1.2-2
	C439.8,862.2,439.2,859.4,442,859.6z"/>
</svg>
