<?xml version="1.0" encoding="utf-8"?>
<!-- Generator: Adobe Illustrator 24.1.2, SVG Export Plug-In . SVG Version: 6.00 Build 0)  -->
<svg version="1.1" id="Layer_1" xmlns="http://www.w3.org/2000/svg" xmlns:xlink="http://www.w3.org/1999/xlink" x="0px" y="0px"
	 viewBox="0 0 444 506" style="enable-background:new 0 0 444 506;" xml:space="preserve">
<style type="text/css">
	.st0{fill:#FFFFFF;}
</style>
<path d="M296,44.3c16.5,0.7,31.8,6.4,45.9,14.7c8.7,4.7,16.5,11.6,23.6,18.5c8.6,9.4,15.6,20.2,21.6,31.4c3.3,7.2,6.8,14.6,8.7,22.3
	c2.4,8.5,2.1,18.1,1.6,26.8c-0.3,9.5-4,19.1-7.4,28c-3.2,7-7,14.1-12.3,19.8c-9.8,11.5-19.7,22.2-32.8,30.1
	c-9.2,5.6-18.5,14.7-29.2,16.8c-5.1,1.5-10.1,2.7-15.5,2.5c-0.3-1.1-0.7-2.1-1-3.2c3.9-4.2,7.9-7.9,10.9-12.9
	c4.4-6.6,8.2-13.2,9.2-21.2c0.6-6.3,0.3-12.7-0.2-19c-2.2-14.6-11.4-26.7-23.6-34.6c-7.1-4.1-15.4-5.7-23.6-4.5
	c-8.2,1.3-16.8,2-23.1,8c-3.5,3.2-8,8.1-7,13.2c2.3,1.7,5.4,2.6,7.9,4c-3.6,2.8-8.2,3.3-11.9,5.9c-2.1,1.9-2.1,5.5-1.9,8.1
	c0.9,11.2,5.8,21.7,12.2,30.9c5.3,8.3,11.9,15.2,18.5,22.5c6.5,6.5,12.6,13.4,19.5,19.5c9.7,8.7,18.5,18.2,26.9,28.1
	c2.4,3,4,6.5,6.2,9.7c5.3,7.9,8.5,16.9,9.9,26.3c2.1,10.6,2.2,21.4-0.2,32c-2.1,7.5-5.4,14.3-8.6,21.3c-1.3,2.9-3,5.5-5.1,7.9
	c-4.5,5.2-8.7,10.5-14.2,14.8c-8,6.9-17,11.8-26.2,16.8c-5.9,3.3-13.3,4.1-20,5c-7.2,0.6-13.7,1.7-20.8,1c-7.1-0.4-13.3-2.8-20-4.7
	c-9-2.6-16.9-6.9-25.5-10.8c-2.4-1.3-5.2-0.2-7.7,0.4c-6.2,1.8-12.3,3.4-18.8,3.4c-1.8,0.2-4.6-0.3-5.9,1.2
	c-1.5,2.4-0.8,6.1-0.6,8.8c0.8,5.9,0.2,12.6,3.1,17.9c2.9,0.9,5.7,1.7,8.7,1.9c3.4,3.9,5.3,8.4,4.9,13.8c-1.7,1.2-3.5,2.3-5.3,3.5
	c-2.4,1.7-5.2,1.5-8,1.6c-4.8-0.1-9.6,0.5-14.1-0.6c-2.9-0.8-5.9-0.4-8.7-1.1c-2.9-2.4-2.9-6.6-2.1-9.9c1.4-5.1,6.4-7.6,9.4-11.6
	c0.8-1.9-0.6-4.7-1.2-6.6c-2.4-6.4-3.1-13.9-6.5-19.6c-3.5-5.5-9.7-9.4-15.2-12.7c-1,4.6-2.4,9.1-3.1,13.7c-2,13,0.7,26.6,4.7,38.9
	c-8.3,6.6-18,7.7-28.2,7.7c-12.5,0.7-24.4,0.7-36.1-4.2c0.3-3,0.5-5.7,2.6-8c2.1-2.7,5-2.8,8.1-3.1c1.3-0.9,2.6-1.7,3.9-2.6
	c5.5,0.9,10.1-2.2,15.5-0.8c3.9,0.8,7.8,1.2,11.8,0.5c1.6-0.4,3.6-1.8,3.8-3.5c0.3-3.2-0.2-6.6-0.5-9.8c-1.4-11-4.8-21.4-6.8-32.2
	c-2.2-0.5-4.2-0.7-6.4-0.6c-8.6,0.2-17.2-1.9-25.2-5c-6.3-2.4-11.4-6.3-16.8-10.3c-3.9-2.9-6.6-6.8-9.2-10.7
	c2.2-7,4.7-13.9,7.6-20.7c5.1-10.4,10.2-20.5,17.4-29.7c4.3-6.3,9.4-11.8,14.8-17.3c5.7-6.2,11.5-12.3,17.4-18.4
	c-2.9-5.9-7-11.9-8.9-18.1c-1.1-3.3,0.1-7.1,3-9.1c3.8-2.8,8.9-4.4,13.3-6.3c0.8-1.7,1.1-3.4,2.8-4.6c3.7-2.8,8.4-4.6,12.9-5.9
	c-0.9-1.5-1.7-3-2.6-4.5c7-4.3,14.6-6.7,22.2-9.5c3.6-1.2,4.4-5.6,1.2-7.7c-2.5-1.1-5.7,0.9-8,1.8c-0.3-0.9-0.7-1.8-1-2.7
	c0.9-2.5,1.1-5.1,1.1-7.7c-6.4-0.2-12.3,2.3-18.7,1.7c1.7-4.8,5.4-7.8,4.3-13.2c-1.6-5.6-7.2-10.4-10.6-15c-1.7-1.8-1.2-4.8-2.1-7.1
	c-0.9-2.1-2.2-3.9-3-6.1c-0.1-1.5,1.3-3,2-4.3c-0.2-2.1-0.3-4.2-0.3-6.3c4.6-0.6,9.1-0.1,13.7,0.1c-3-8.8-4.8-17.8-7.9-26.6
	c5.6,0.9,10.6,2.9,16.4,2.8c0.4-6.6,1.2-13.2,1.2-19.9c0.3-6.2-0.8-11.4,1.1-17.1c5.5,3.2,8,8.6,12.8,12.6c2.6,2.6,5,4.1,8.5,5.3
	c3-14,8.1-27.1,18.7-37c1.4-1.3,3.3-2.3,4.6-0.2c0.5,1.8,0.4,3.7,0.4,5.5c0.1,7.8,1.3,15.5,3.3,23c1.8,5.5,2.9,10.5,5.9,15.4
	c2.2-3.4,1.9-7.2,3.1-11.3c2.4-8.6,5.8-17.2,10-25.1c8.1-13.2,18.7-24.9,31.4-33.7c10.8-6.6,22.6-11.8,34.7-15.4
	C272.4,44.2,284.4,43,296,44.3z"/>
<path class="st0" d="M330,72c11.6,4.7,20.7,12.9,28.9,22.1c4.8,6.1,9.3,12.5,12.7,19.4c7,15.9,7.9,34,5.1,51
	c-1.9,12.8-8.7,25-15.2,36.1c-9.1,13.8-21.1,23.4-33.5,33.9c7-13.4,10-28.3,10.4-43.4c0.4-11.6-2.2-23.4-6.1-34.2
	c-3-8.2-8.1-14.9-13.9-21.2c-2.9-2.9-6.2-5.2-9.6-7.4c-7.8-5.1-17.6-7-26.9-6.2c-10.1,1.1-20,1.7-29.5,5.7
	c-5.7,2.5-11.8,5.3-16.7,9.2c-5.4,4.3-10,9.6-13.2,15.8c-2.4,4.2-3.5,8.9-5.8,13.2c-0.2-1.7-0.6-3.1,0.2-4.7c1.9-4.4,3.9-8.8,6.1-13
	c2.6-4.4,5.6-8.4,8.3-12.7c4.6-7.1,10.3-13.1,15.8-19.6c-2.1-0.4-4.1-0.8-6.2-0.8c-13,0.1-25.1,3.4-37.3,7.7
	c2.3-14.8,10.1-28,21-38.2c7.2-6.3,15.6-10.1,24.5-13.3C275,61.2,304.4,61.2,330,72z"/>
<path class="st0" d="M169.8,91.1c0.7,7,1,14,2.4,20.9c1.2,7.2,4.4,13.5,6.2,20.5c-0.8,0.9-1.5,1.9-2.2,2.9c1.1,2.4,2.8,0.8,4.6,0.4
	c6.4-2.6,12.7-5.6,19.2-7.9c13.6-4.7,27.3-6.8,41.4-9.2c-7.1,7-13.6,14.3-19,22.6c-4.3,7-8.1,14.2-11.4,21.7
	c4.8,7.4,12.8,13.1,20.3,17.6c3.8,2.4,8.1,3.5,12.4,4.4c-5.8,1.9-11.3,4.1-16.8,6.8c-5.8,2.9-11.9,4.8-17.3,8.3
	c-1.5-1.6-3-3.1-4.6-4.5c0.8,4.1,3.1,7.5,5.5,10.8c4.3,6.7,11,12.1,17.3,17.1c-2.6,0.6-5.2,1.1-7.8,1.5c-3.2,0.4-6.7-0.4-9.9-0.1
	c-2.5,0.3-5,1-7.5,1.6c-2,7.5-3.3,15.4-4.4,23.1c-8.3-4.3-16.1-9.3-24.1-14.2c0.8,3.9,1.1,7.9,1.3,11.9c-4.7-3.8-8.8-7.8-12.8-12.3
	c-0.4,1.1-0.9,2.3-1.3,3.4c-1.2-0.9-2.4-1.8-3.5-2.8c1.7-2.1,4.6-2.4,7-3.3c5.2-1.5,9.2-4.3,14.1-6.6c4.6-2.2,8.8-5,11.9-9.1
	c4.3-6,7.7-12.2,7.8-19.8c0.4-7.5-2.5-13.8-5.8-20.3c4.9-3.9,9.3-8,9.5-14.7c-0.3-3.5-1.7-7.7-5.3-9c-4.9-2-11.2-0.7-15.2,2.7
	c-8.9,9.1-20.5,16.1-32.2,20.9c-10.6,3.7-20.9,3.8-32,3.7c-1.2-1.1-2.3-2.2-3.5-3.3c7.9-1,16.3-2.2,23.9-4.9
	c9.5-3.8,18.4-10.6,22.4-20.3c-4.3-3.3-11.4-2.3-14.1,2.5c-1.9,2.8-0.6,5.7,0,8.7c-7,6.2-16.8,9.6-25.9,11.7c-1-3.2-1.3-6.4-1.8-9.7
	c-1-6.6-4.1-13.1-6.3-19.4c5.3,1.8,10.7,2.1,16.3,2.2c1.9-11.3,1.2-23.4,0.8-34.8c4.9,7.2,12.8,15.8,21.9,16.8
	C154.7,116.1,160.5,101.8,169.8,91.1z"/>
<path class="st0" d="M156.4,154.2c-1.7,2.1-3.6,4-5.8,5.6c0.2-1.4,0.7-2.7,1.2-4C153.3,154.9,154.8,154.6,156.4,154.2z"/>
<path class="st0" d="M193.2,161.6c1.2,2.7-2.1,6.3-3.3,8.6c-1.3-2.2-2.5-4.4-3.8-6.6C188.5,162.8,190.6,161.8,193.2,161.6z"/>
<path class="st0" d="M172,168.2c5-0.5,12.2,0.3,15.2,4.9c1.2,2.2,0.5,2.5-1.4,3.6c-2.4-0.3-4.5-1.9-6.9-2.4
	c-4.4-1.3-8.3-0.3-11.9-3.1C168.6,169.7,169.6,168.2,172,168.2z"/>
<path class="st0" d="M104.9,170.5c1.2,0.2,2.5,0.5,3.7,0.7c3.1,0.6,5.7,0.6,8.8,0.1c0.8,1.2,1.6,2.5,2.4,3.7
	c-4.4,0.6-7.8,0.6-12-0.9l-0.9-0.8C106.2,172.4,105.5,171.4,104.9,170.5z"/>
<path class="st0" d="M178.5,178.5c2.4,1.9,2.7,4.9,3.3,7.7c-5.9-0.4-11.7-1-17.6-1.6c1.3-2.2,2.4-4.4,4.6-5.9
	C171.6,176.6,175.6,176.5,178.5,178.5z"/>
<path class="st0" d="M109.2,180.9c0.9-0.2,1.9-0.3,2.8-0.4c-1.1,1.5-2.3,3.1-3.5,4.6C108.7,183.7,108.8,182.2,109.2,180.9z"/>
<path class="st0" d="M170.4,185.6c0.3,3.2-0.1,6.3,3.6,7.5c3.6-1,3.6-3.9,5-6.8c0.2,1.9,0.8,3.5-0.4,5.2c-1.4,2.3-4.6,5-7.3,3.1
	c-2.7-1.4-3.2-3.9-3.6-6.6C168.6,187.2,169.5,186.4,170.4,185.6z"/>
<path class="st0" d="M221.6,198c0.7,7.6,3,14.5,6.1,21.4c-4.1-3.6-8.2-7.2-12-11.2c-1.7-1.8-2.8-3.7-3.6-6.1
	C215.2,200.6,218.4,199.2,221.6,198z"/>
<path class="st0" d="M121.4,209.5c1.9,2.1,3.9,4.1,5.9,6c-3,0.7-6,1.4-9,2.2c0.9-1.6,1.8-3.2,2.6-4.9
	C121.1,211.8,121.2,210.7,121.4,209.5z"/>
<path class="st0" d="M134.2,221.9c1.1,1,2.2,2.1,3.2,3.2c-0.9-0.2-1.9-0.5-2.8-0.8C134.4,223.5,134.3,222.7,134.2,221.9z"/>
<path class="st0" d="M230,227.7c3.7,4.8,8.1,8.8,11.4,13.9c3.2,5,7.4,9.1,11.2,13.8c10.9,12.2,20.8,25.1,31.1,37.9
	c5.2,6.3,9.5,13.3,13.7,20.3c4.1,6.8,6.6,13.9,9.7,21.2c3.8,9.1,3.9,19.1,2.6,28.7c-0.7,5.2-2.7,9.7-4.5,14.7
	c-2.3,5.6-4.5,10.9-8.8,15.2c-10.4,9.9-22.4,17.8-36.4,21.4c-5,1.6-9.8,1.1-15,1.1c-9.1-0.1-18.2-1.1-27-3c-5.3-1.2-10.2-3.4-14.3-7
	c4.8-5,9.2-10.3,14-15.2c3.8-4.3,7.1-9.1,10.8-13.6c-1.9-2-3.7-4.1-5.6-6.2c1.3-1.4,2.6-2.8,3.7-4.4c2.6-4.2,5.5-8,7.1-12.8
	c5.5-15.3,4.6-32.9,1.2-48.6c-2-8.3-4.1-16.7-7.2-24.7c-2.6-7.2-7.9-13.6-12-20.2c-4.3-6.8-9.6-13.7-12.2-21.4
	c0.1-3.3,1.1-6.7,1.6-9.9C213.4,227.5,221.8,229.1,230,227.7z"/>
<path class="st0" d="M138.4,238c-1.1,3.5-3.2,6.3-5,9.5c-1.8,2.9-3.4,6-5.1,9c-3.1-3.3-5.4-7.1-7.9-10.9
	C125.8,242.1,132,239,138.4,238z"/>
<path class="st0" d="M162.4,237.8c4.7,4.4,9.3,10.2,15,13.2c0.4-3.2-1.2-7.3,0.4-10.1c1.8,1,3.3,2.2,4.8,3.5
	c4.6,4.1,9.8,7.4,15.6,9.4c4.9,1.4,6.6,7.2,8.3,11.4c4.2,10.5,5.4,21.6,4.8,32.8c-0.6,5.6-2.3,10.7-4.5,15.9c-1.1,2.6-3,4.3-5.1,6.1
	c-2-2.5-3.6-5.1-4.7-8c-4-9.3-7.7-18.8-12-28c-3.3-8-6.6-15.9-10.6-23.6c-1.9-3.5-3.2-6.9-4.4-10.6
	C168.7,245.3,162.1,242.7,162.4,237.8z"/>
<path class="st0" d="M156.3,239.5c4.4,3.9,8.5,8,12.3,12.6c-4.3,2-7.5,4.3-10.9,7.6C156.7,252.5,154.3,246.4,156.3,239.5z"/>
<path class="st0" d="M147.7,241.3c5.1,4.5,5.8,9.9,7.4,16.1c-1.9,1.1-3.7,2.3-5.4,3.7c-2.2-0.5-4.3-1.4-6.5-0.6
	c-1.8,0.7-3.4,2.2-5,3.3c-1.1-1.6-2.1-3.3-3.4-4.7c-1.9-0.5-4-0.4-6-0.8c3.8-5.8,7.3-12.5,13-16.6
	C143.6,240.5,145.7,239.7,147.7,241.3z"/>
<path class="st0" d="M168.2,255.1c2.4,3,4.5,5.9,4.4,9.9c-0.2,7.8-4.6,14.4-10.1,19.6c-6.4,5.8-13.9,10.5-21.6,14.4
	c-5.2,2.6-9.6,5.5-15.3,6.8c-2.6-1.9-4.8-4.2-7.5-6c-4.4-3.1-9-5.9-13.3-9.1c2.7-10.1,8.1-19.9,17.4-25.3c3.9-2.1,7.7-5.3,12.3-3.1
	c2.2,2.9,3.7,6.4,5.5,9.6c2.3,3.5,0.6,8,1.6,12.3c0.5-0.7,1-1.4,1.4-2.1c0.9,1.4,1.7,2.7,2.6,4.1c-0.5-2.1-1.2-4.1-1.8-6.2
	c2.1,1.5,4.1,4.2,7,3.9c4.8-0.6,9.6-2.6,11.4-7.4c0.9,0,1.9-0.1,2.9-0.1c1.7-6.2-1.7-10.4-4.9-15.3
	C162.8,258.6,165.3,256.6,168.2,255.1z"/>
<path class="st0" d="M104.2,261.1c2,3.8,4,6.6,7.5,9c-6.3,6.2-10.7,13.3-12.5,22c-3.8-5-6.6-10.5-8.8-16.4c-0.7-2.5-1.7-5.8,0.8-7.6
	C94.9,265.1,99.8,263.3,104.2,261.1z"/>
<path class="st0" d="M175,265.6c4.7,7.8,7.6,17.1,10.9,25.6c5.2,13.4,10.6,26.8,15.7,40.2c5.3,11.7,10,23.7,15.8,35.1
	c1.9,4,4.6,7.6,6.6,11.6c-0.7,4.1-3.9,8-6.7,11c-9.8,10.9-22.3,19.8-35.1,26.9c-4.6,2.6-9.8,4-15.1,4.5c-5,0.5-10,1.2-15,0.8
	c-6.1-0.5-11.8-0.9-17.1-4.3c-4.8-3.1-9.7-6.5-13.5-10.9c3.1-4.4,6.9-8.8,9.2-13.6c3.5-6.9,5.4-14.8,8-22.1
	c3.6-10.5,6.5-21.2,10.1-31.7c1.9-5.4,1.5-12.1,6.2-16c5-4.1,11.2-8.7,14.3-14.7c-2.8-6-7.4-11.2-10.2-17.2c1.5-2.6,4.3-4.4,6.3-6.6
	C170.2,278.9,174.5,273.2,175,265.6z"/>
<path class="st0" d="M110.4,297.9c-0.5,0.8-1,1.6-1.5,2.4c-3.9-2-6.7-4.6-9.4-8C103.9,292.9,106.9,295.4,110.4,297.9z"/>
<path class="st0" d="M155.9,293.1c5.8,3.6,6.8,9.4,10.9,15.2c-3.9,5.4-8.9,9.8-13.9,14.3c1.1-6.5,3-12.1,3.4-18.6
	C156.6,300.3,156.2,296.7,155.9,293.1z"/>
<path class="st0" d="M153.9,295.5c0.2,7.3-0.6,14.3-2.5,21.3c-1.9,7.9-3.2,15.7-6.2,23.2c-4.9,15.4-9.9,30.7-14.9,46
	c-5.3,0.1-11-2.9-14.4-6.8c-3.7-5.5-7.4-11.7-9.1-18.2c-2.8-9.8-1.9-20.6-2.4-31c0.2-9.9,0.2-19.4,3.5-28.7c2,1,4,2.3,6.2,3
	c1.2-0.6,2.4-1.2,3.6-1.9c2.6,2,5.2,4,7.7,6.1c5.1-2.5,10.4-4.4,15.5-6.7C145.2,299.8,149.4,297.4,153.9,295.5z"/>
<path class="st0" d="M99.1,296c1.7,1.3,3.4,2.5,5.1,3.9c-3.4,11.7-6.2,23.6-8.2,35.6c-1.6,11.4-2.2,23-2.4,34.5
	c-0.2,10.7,1.3,21.8,2.5,32.4c-5.3,0.7-10.6,1.2-15.9,0.1c-9.7-2-19.1-6.8-27.3-12.3c-5-3.3-8.4-7.8-11.9-12.6
	c4.8-0.4,8.8,0.8,13.1,2.7c1.4-8.4,3.5-16.5,7.2-24.2C66.4,345,71.7,333.7,78,323c5.4-9.1,12.5-16.6,19.2-24.7
	C97.8,297.5,98.4,296.8,99.1,296z"/>
<path class="st0" d="M95,298.6c-2.7,4-6.4,7.2-9.2,11c-3,4-6.4,7.8-9,12.1c-4.7,8.4-9.2,16.9-13.4,25.6c-5.2,9.3-9.4,19.2-12.1,29.6
	c-3-0.7-6-1.1-9-1.4c2.8-5.8,4.9-11.9,7.8-17.7c3.6-7.5,8.7-14.6,13.5-21.4c6.2-9.2,12.2-18.3,19.4-26.5
	C86.7,305.7,89.8,301.4,95,298.6z"/>
<path class="st0" d="M112.3,298.6c1.1,1,2.2,2,3.3,3c-1.7-0.1-3.4-0.2-5.1-0.5C111.1,300.3,111.7,299.4,112.3,298.6z"/>
<path d="M192.5,345.2c2.5,5.8,3.3,12.6,4.6,18.8c0.8,4.9,2.1,10,2.1,15c0.2,4.4-3.1,8.6-7.3,9.7c-4.8,1.5-10.8,3-15.7,1.1
	c-3-1-4.5-4.6-5.6-7.3c-3.4-10.2-2.8-19.7-4-30.1C175.3,350.6,184.1,348.2,192.5,345.2z"/>
<path class="st0" d="M192,347.4c2.2,8.5,3.5,17.2,4.8,25.8c0.4,4.4,1.3,10-2.7,13c-3,1.6-6.8,2.1-10.1,2.5c-4,0.3-8.8,0.2-10.8-4
	c-4.8-8.9-4.2-21.3-6.1-30.9C175.6,353,183.9,349.9,192,347.4z"/>
</svg>
