<?xml version="1.0" encoding="utf-8"?>
<!-- Generator: Adobe Illustrator 24.1.2, SVG Export Plug-In . SVG Version: 6.00 Build 0)  -->
<svg version="1.1" id="Layer_1" xmlns="http://www.w3.org/2000/svg" xmlns:xlink="http://www.w3.org/1999/xlink" x="0px" y="0px"
	 viewBox="0 0 1024 1024" style="enable-background:new 0 0 1024 1024;" xml:space="preserve">
<style type="text/css">
	.st0{fill:#FFFFFF;}
	.st1{fill:#BABABA;}
</style>
<path d="M528.2,73.2c6.4,1.8,10.8,6,16.6,9c3.9,2.4,7.4,5.2,11.1,7.9c3.8,2.8,6.9,6.4,10.7,9.3c3.9,3,6.9,7.1,10.4,10.6
	c4.9,5.8,10.1,12.3,12.6,19.5c2.5,6.4,5.9,12.5,7.9,19c2.2,9.4,3.2,18.8,2.6,28.4l0.7-0.3c3.2-4.2,5.1-9.8,7.3-14.5
	c4.5-9.6,6.4-20.5,7-31c2.2,1.5,3.6,4.4,5.4,6.4c6.4,7.7,7.1,18,8.7,27.5c0.9,7.3-0.3,14.3-0.8,21.6c-0.5,4.2-2.5,7.6-4.2,11.4
	c4.8-0.8,8.4-3.1,12.8-4.9c3.8-1.6,7.5-3.6,11-6c3.5-2.2,5.9-6.4,8.4-9.6c5.7-6.7,8.6-16,11.7-24.1l0.7-0.1
	c2.4,6.5,4.2,13.4,5.6,20.2c1.7,13.8-0.5,27.2-4.7,40.3c-1.7,3.9-2.9,8.8-5.9,11.9c-4.7,5.3-8.1,11.3-13.4,16.1
	c2.9-0.4,5-1.9,7.6-2.9c4.3-1.6,8.5-2.1,12.4-4.7c1.4-1,2.8-0.9,4.4-0.9c0.4,1.2,0.3,2.2-0.5,2.8c-4.7,4.8-8.2,10.3-13.1,14.8
	c-3,4.1-8.5,5.5-11.9,8.9c4.3,1.8,10.4,0.2,14.8-0.3c1,0,4.5-0.7,3.8,1.2c-1,1.8-2.9,3.2-4.5,4.4c-7.3,4.5-15.5,8.5-24,10.1
	c0.1,0.9,0.5,1.6,1.3,2c4.5,3.3,8.6,6.6,14.2,7.8c5.1,2,10.3,1.6,15.6,1c3.9-0.3,5.7-4,9.4-5.5c7.7-2.3,16.5,0.8,21.3,7.2
	c3.5,5.3,3.9,11.9,0.4,17.4c-1.9,3.3-4.8,4.5-8.1,5.9c-2.3,0.8-3.3,3.5-4.6,5.4c-3.2,5.4-7.7,9.8-10.7,15.2
	c-3.1,4.9-6.3,9.6-9.7,14.3c-5.1,9.8-10.6,19.4-15.9,29.1c-5.3,8.2-10.4,16-17.2,22.8c-3.6,3.4-7.5,6.5-11.1,9.8
	c-0.7,0.8-1.9,1.7-1.9,2.8c9,2.6,18.5,7.1,24.6,14.5c0.8,1.3,0.1,2.6-0.9,3.6c-5.4,5.2-10.1,11.4-13.7,18c5.1,0.1,10.6-0.7,15.6,0.4
	c6.6,2.6,11.1,9.1,15.6,14.3c2.9,0.4,5.6,0.5,8.2,1.8c4.1,1.9,6.7,5.3,10.2,7.8c5.7,1.8,11.3,3.8,16.7,6.3
	c4.8,2.2,10.1,3.4,15.3,4.4c-0.7-2.7-4.1-4.8-5.8-7c0.8-2.2,2.5-4.1,4.2-5.7c2.4-0.3,4.4,1.3,7,0.1c1.2-1.6,1.4-3.9,2.4-5.6
	c1.5-1.5,4.4-0.6,6.1-2c3.3-2.4,6.4-4.9,9.9-7.1c6-4,9.5-9.6,13.9-15.2c5.8-7.1,9.4-16.2,12-25c0.5-1.6,0.9-2,2.4-2.7
	c1.7-0.8,3-2.5,4.3-3.9c0.1-4.4-0.5-9.7,0.9-13.9c0.7-1.6,1.2-3.4,3.1-3.9c6.6-2.4,12.8-5.5,19.5-7.6c2.5-1,4.9-0.9,6-3.9
	c0.7-0.3,1.5-0.6,2.2-0.9c0.4-4.9,1.1-9.7,1.2-14.6c-0.4-1.3-2-1.9-2.7-3.1c0.2-0.9,1.1-2.4-0.3-2.8c-3.4-1.2-5.6-3.5-8.1-6
	c-0.9-0.9-1.7-2-2-3.3c-0.9-7.3,1.7-14.7,5.6-20.8c2.9-4.2,7.9-4.9,12.6-4.1c0.5,3.9,0.8,7.4,3.8,10.2c4.5,4.9,10,5.5,15.8,8.3
	c1.3,0.5,2.9,1.5,4.3,1.3c-1.4-7.9-1.7-16.1,1.7-23.5c2.1-2.4,5.5-4.1,8.2-5.8c4.7-2.6,10.9-1.4,14.4,2.6c2.2,3.3-3.8,5-2.5,8.3
	c1.4,4.8,1.2,9.8,2.5,14.5c1,4.4,0.8,8.9,1.6,13.3c0.4,1.6,0.3,3.2,1.9,4.1c1.3,1.3,4,2,3.1,4.4c-1.5,4.3-3.5,8.9-6.8,12.1
	c-1.8,1.9-4.6,1.8-6.3,3.7c-1.9,1.9-3.8,4-5.3,6.2c3.3-1.1,7.2-1.7,10.3-3.3c2.5-6.2,6.9-10.9,11.7-15.3c2.3-2,4.8-2.3,7.5-3.5
	c3.1-4.6,6.1-8.6,11.4-10.7c2.9-0.4,6-0.7,8.9-0.2c2.2,0.4,5.2,2.6,4.9,5.1c-0.9,3-3.8,4.8-5.3,7.7c-1.7,3.3-3.7,6.6-3.7,10.3
	c0,2.7,0.5,5.4,1.1,8c0.5,2.5,2.3,4.6,2.9,7c-1.3,4.9-6.3,7.9-10.4,10.4c-3.6,2.1-7.6-0.2-11.5,0.4c-1.4,0.3-3,0.1-3.6,1.7
	c-0.8,1.4-1.2,3.5-2.4,4.5c-4.6,2.3-9.6,3.3-14.7,3.3c-1.4,1.7-2.8,3.3-5,3.9c-4,0.9-7.8,0.3-11.6,2.4c-5,2.2-7.6,6.2-10.5,10.5
	c-1.3,1.9-1.2,4-2.1,6c-1.6,1.1-3.3,2-4.9,3.1c-1.8,8.5-2.1,17.1-3,25.8c-1.5,10.2-1.1,20.8,0,31c1,9.7,0.4,18.8,4,27.9
	c0.7,1.9,1.4,3.2-0.4,4.7c-2.4,1.2-4,2.2-5.8,4.2c-3.4,2.2-7.6,3.3-11.4,4.5c-4.9,1.7-9.4,1-14.5,1.6c-6.3,0.6-12.4-0.5-18.3-2.8
	c-4.2-1.4-8-2.9-11.8-5.3c-5.5,4.8-10.8,10.8-17.1,15.1c-1.4,0.7-3.4-0.7-4.8-1.1c-2.1-1-4.4-1-6.6-1.5
	c-10.1-5.7-18.2-13.3-28.5-18.3c-9.8-5.1-19.8-9.6-29.9-14.1c-6.4-2.8-12.9-4.2-19.6-6.4c-3.4-0.9-6.7-2-10.1-2.5
	c-1.9,15-1.1,29.9-1.1,44.9c0.2,13.9,1.8,27.8,3.4,41.5c1.4,1.8,3.6,3,5.1,4.7c2.3,2.4,4.4,5,6.6,7.4c2.3,2.2,2,5.5,2.4,8.5
	c0.2,5,0.2,10.5,1.4,15.7c2.6,3.7,4.2,7.7,6.3,11.7c3.6,7.5,9,14.5,13.5,21.5c2.8,4.2,5.3,8.7,8.5,12.5c2.9,3.7,6.5,6.8,9.3,10.6
	c3.2,4.2,6.4,8.3,9.9,12.2c4.3,4.8,7.7,10.2,12.4,14.6c2.5,3.2,5.6,6,8.2,9.2c-0.1,4.1-3.8,8.8-6,12.1c-3.3,5.7-7.9,9.9-12.5,14.5
	c-3,3.6-6.8,5.9-10.5,8.5c-4.7,2.9-9.4,5.7-14.7,7.4c-0.4,0.5-0.3,1.1,0.2,1.8c4,5.6,7.4,11.3,10.5,17.5c2.9,4.7,4.4,9.9,7.8,14.2
	c8.4,11.6,13.9,24.3,19.6,37.4c0.6,1.8,3.2,4.8,1.5,6.6c-4.3,6.3-8.7,12.7-13.1,18.9c-4.8,6.1-10,12.1-14.5,18.5
	c-3.1,4.8-8.1,8.7-11.9,13l-0.4,1.4c4.8,0.7,9.7-4.6,14.9-2.8c0.6,3.4-0.2,7.3-0.6,10.8c-0.4,3-2.7,7.3-1.6,10.1
	c6.4,4.6,13.1,8.9,20.3,11.9c2,0.8,3.5,2.1,5.7,2c5.7,0,11.3,0.8,17,1.2c3.3,0.2,6.6-0.4,9.9,0c1.9,4.8,2.4,11.6,2.2,16.8
	c-3.9,2.5-9.4,3.1-13.9,4.5c-10.2,3.1-20.7,4.9-31.2,5.7c-5.7-0.3-11.3,0.1-17-0.5c-10.6,0-20.9-1.1-30.9-4.6c-2-0.8-4-1.8-6.1-2.3
	c-3.7,0.6-7.2,1.8-11,1.5c-8.2-0.5-16.5-1.9-24.1-5c-2.5-1.1-7.2-0.9-8.8-3.2c-0.1-2.8,2.3-5.8,3.5-8.2c3.3-4.8,6.1-10.8,10.7-14.3
	c5.4-4.6,11.4-8.5,16.8-13.1c2.6-3.4,4.8-7.3,7-11c1.7-2.3,5.9-2.2,8.4-2.6c7.9-10,13.5-21.1,19.9-32c3.3-5.6,7.4-11.2,9.8-17.2
	c1-2.2,2.3-4.2,3.5-6.3c-1.8-1.7-2-4.1-4-5.8c-7.2-9-16.2-16.5-24-25c-6.5-6.6-13.3-14.1-20.9-19.4c-2.9,0.4-5.8,3.2-8.5,4.6
	c-7.4,3.9-14.9,7.5-22.8,10.1c-7.6,2.5-14.7,6.3-22.4,8.7c-4.3,1.8-8.5,3.8-13.1,4.9l-0.7-0.5c-1.9-4.9-2.3-10.2-4-15.2
	c-4.3-17.9-7.4-36.1-9.7-54.4c-2.2,1.6-3.4,4.4-5.1,6.5c-10.6,14.1-19.9,29.2-28.4,44.6c-1.9,2.9-1.1,6-1.5,9.5
	c-1.5,0.2-2.9,0.4-4.4,0.6c-4.6,7.7-9.4,15.3-14.2,22.9c-1.6,2.6-2.2,5.6-3.7,8.3c-3.5,6.3-5,13.3-8.1,19.9c-2.5,6-6.3,11-9.4,16.6
	c-2.9,5.2-5.7,10.4-8.2,15.8c-1.5,4.6-3.8,8.9-5.6,13.4c-0.7,1.4-1.4,3.5,0.2,4.5c3.9,1.6,8.2,1.3,12.2,1.9c1.2,0.9,1.8,2.2,1.9,3.7
	c0.7,7.3,1.6,14.5,2.4,21.8c0.4,2.7-0.5,5.2-0.5,7.8c1.1,3.9,2.9,7.7,2.3,11.9c-0.6,2.8,0.4,5.2,0.7,8.1c0.8,4.9-0.3,9.1,3,13.3
	c-1.2,2-4,2.6-6.1,3.1c-4.7,0.9-9.1,2.6-13.8,3.3c-4.2,1.1-8.4,0.6-12.6,1.3c-11.4,1.6-21.5-0.3-32.8-0.2c-4.1,0.1-8-1-12-1
	c-8.6-0.3-15.3-3.8-23.2-6.4c-1.4-1-1.6-3.6-1.9-5.1c-0.8-5.8-0.8-12.8-0.4-18.7c4.1-6.3,13-8.5,19.5-11.5c1.9-0.8,3.6-1.5,4.8-3.3
	c4.8-6.7,9.5-13,12.2-20.8c1.1-2.4,1.7-5.6,4.3-6.7c5-2.5,10.4-5.6,14.4-9.6c2.8-8.3,5-16.6,7.1-25.1c2.8-8.1,5.3-16.3,7.5-24.5
	c2.6-5.9,4.3-12.1,6.6-18.2c1.7-4.6,3-9.3,3.9-14.1c1.2-5.4,3.4-10,3.5-15.7c0-4.3,1.3-8.7,1.1-13c-1.8-1.8-4-3.7-6.3-4.7
	c-4.3,1.8-7.4,6-11.5,8.2c-4.8,2.7-8.6,7.4-13.6,9.4c-5.7,2.3-10.6,5.8-16.7,7.4c-11.3,5.5-23.7,9.9-36.3,11.3c-6,0.4-12,0.1-17.9,0
	c-6.2,0.3-12.7-0.1-18.9-0.8c-7-1.5-14-3.2-20.9-4.8c-7.1-1.2-13.8-4.8-20.6-7.3c-7.2-3.5-14.9-6.1-21.8-10.3
	c-6.5-5-13.8-8.7-20.3-13.7c-2.4-2-4.4-4.3-6.5-6.5c-4.4-4.6-9.2-8.8-13.5-13.5c-7.2-8.4-14.6-16.8-21.5-25.5
	c-6.6-8.5-10.5-17.8-16.1-26.9c-3.9-7.5-6.8-15.5-9.5-23.5c-4.6-12.7-7.3-26.3-9.2-39.7c-0.2-6.4-1.7-12.6-2.2-19
	c-1-13-1.1-26.1,0.1-39c0.4-4.7,1.9-9.2,2-13.9c0.2-11.3,4.4-22.8,7.5-33.6c1.4-5.6,4-10.4,6.4-15.6c5.8-9.9,11.1-19.9,17.8-29.2
	c3.4-5.6,8-10.1,11.1-15.9c4.9-7.5,8.9-15.6,15-22c3.4-5,7.1-9.8,9.8-15.2c3.5-5.8,7-11.6,10.8-17.2c2.6-4.5,4.7-9.5,6.8-14.3
	c3.3-7.7,3.9-16.6,5.7-25c1.4-6.7,1.4-13.2,1-20c0.1-6.4-3.2-10.7-5.2-16.4c-3.8-9.7-10-19.3-18.6-25.4c-4.3-3.2-8.7-7.1-13.6-9.3
	c-7.1-2.7-14.6-4.1-22.2-4.6c-4.9,0.1-9.7,0.9-14.6,1.4c-3.6,0.6-7.9,0.9-11.2,2.7c-5.5,3-10.3,6.9-14.7,11.3c-2.9,2.9-6.8,6-8,10
	c-1.8,4.9-3.6,10.1-4,15.4c0.1,10.7,1.3,21.5,3.4,32c1.1,7,2.5,14.3,5,21c1.8,4.7,2.4,9.7,4.8,14.2c3.6,9,6.6,18.3,11,27.1
	c2.5,4.7,5.8,8.9,8.5,13.5c2.4,4.2,5.4,7.9,8.8,11.2c1,1.1,2.6,2.4,2.9,4c-10.5-3.1-20.4-7.7-29.9-13c-2.8-1.9-5.5-3.9-8.4-5.6
	c-9.6-5.5-17.1-12.6-25.7-19.3c-4.1-3.4-7.5-7.2-10.9-11.2c-5.4-5.6-10.7-11.5-15.1-17.9c-6-9.5-13.2-16.8-18-26.9
	c-3.7-6.2-7.4-12.4-9.7-19.4c-4.7-10.7-8.8-21.5-10.9-33c-1.3-5.6-1.1-11-1.5-16.7c-0.4-8.1,1.1-15.8,1.8-23.8c0.7-4.3,2-8.5,3-12.8
	c2.7-8,4.8-16.1,8.1-23.8c7.2-20.6,19.5-39,32.8-56.2c3.9-5.5,7.2-11.1,12.1-15.9c6.8-7,12.2-14.6,19.6-20.4
	c8.5-6.2,16.8-13.8,25.9-19.1c6.7-3.6,13.5-7.2,20.3-10.7c5.9-3,11.4-6.2,17.5-8.5c6.4-2.4,12.9-4.4,19.3-6.6
	c4.3-0.6,8.3-2,12.5-2.6c-0.6-0.6-1.3-1.1-2-1.5c-8.5-4.1-17.4-5.4-26.6-6.3l0.3-0.7c6.3-1.8,12.9-3.9,19.5-3.9
	c22.6-0.3,46.8-1.3,68.8,5c5.4,1.9,11,2.2,16.2,4.8c6,3,11.9,4.9,17.4,8.6c4.2,3,8.9,4.9,12.9,8.1c5.1,4.1,11.1,6.6,15.8,11.2
	c7.7,6.2,15.1,12.8,22.6,19.3c3.6,3.1,6.5,6.8,9.6,10.4c5.1,5.6,8.7,12.1,14.3,17.5l1.1,0.4c0.2-7.2,1.1-14.3,1.8-21.5
	c0.9-9.2,4.2-17.4,8.3-25.6c1-1.7,1.6-4,3-5.3c1.2,4.9,3.2,9.4,4.8,14.2c1.9,6.8,6.2,13.2,10.1,19c3.6,5.2,7.2,10,12.7,13.3
	c3.9,3.1,7.5,6.5,12.1,8.9c2.9,1.5,6,2.6,8.9,4.1c4.8,2.4,9.8,3.7,14.2,6.7c1.3,0.7,2.7,2.1,4.3,2.2c2.1-7.2,2.8-14.5,4.2-21.8
	c1.2-8.2,3.3-15.7,3.3-24c0.1-2.1-0.3-4,0.8-6l0.8,0.1c2.6,3.2,4.2,7.4,5.8,11.2c2,6.1,4.2,12.2,5.9,18.3c0.7-3.2,1.4-6.4,2.5-9.6
	c1.4-4.2,1.9-8.6,3.1-12.9c1.7-5.5,0.9-11.1,2.1-16.8c0.5-7.8,1-15.8,0-23.6c-1.2-5.1-1.1-10.3-1.8-15.5
	C532,84.5,529.7,78.9,528.2,73.2z"/>
<path class="st0" d="M537.1,84l0.8-0.2c4.8,2.7,9.1,6.4,13.5,9.7c12.1,8.7,23.2,19.3,30.6,32.4c3.8,5.5,6.9,11.4,9.4,17.6
	c4,11.8,5.6,24.1,5.5,36.5c-0.1,1.4-1.2,2.8-1.7,4c4.5-2.1,8.5-5.4,11-9.8c3.6-5.1,5.7-10.8,8.6-16.4c2.3-4.9,2-11.2,2.7-16.5l1,0.3
	c2.1,6.6,5.2,13.8,5.9,20.7c0.2,5.9,0.7,12-0.2,17.8c-0.5,4.3-0.3,8.6-1.3,12.8c-0.6,3.4-2.2,6.4-2.9,9.7c1.5-1,2.9-1.8,4.7-2.1
	c5.9-1.2,11.1-3.8,16.6-6.2c6-2.9,11.7-5.8,15.8-11.2c4.7-5,7-11,9.8-17.1c0.7-1.5,1-3.1,1.4-4.8c1.3,1.7,1.5,4.2,2,6.2
	c1.6,9.7,1.9,20-0.1,29.6c-0.8,6.1-3.2,11.3-5.1,17.1c-1.4,4.3-3.2,8.4-6,11.9c-4,5.1-7.6,10.2-12.7,14.4c-1.1,1-2.2,1.4-2.2,3.1
	c3.3,0.4,6.8,0.9,9.9-0.5c3.5-1.4,6.8-3.6,10.7-3.3c-1.8,4.2-6.1,7.6-9.2,10.9c-3.7,3-8.2,5.1-12,8c-1.1,1-1.6,2.6-0.1,3.6
	c3.9,1.9,9,1.1,13.3,1.6l-0.3,0.8c-6.6,3.5-14.8,7.5-22.5,7c-0.4-2.3,1.4-4.5,1.7-6.8c0.4-2.8,0.6-5.9-0.1-8.7
	c-2-4.3-7.4-8.8-11.9-10.1c-2.7-0.7-4.4,0.6-6.7,1.7c-3-3.2-5.2-6.7-8.8-9.2c-7.5-6.1-16.4-14.5-26.2-16.6c0.8,1.3,2.7,1.9,3.9,2.8
	c6.2,4.2,11.5,9,17.2,13.8c4,3.5,7.3,8.2,10.9,12.2c2.7,3,4.8,6.5,7.6,9.5c2.1,2.3,3.8,4.9,5.6,7.3c4.9,5.9,10.4,12.1,17.3,15.8
	c7.5,5.2,17.6,6.8,26.6,5.6c0.6,2-0.4,3.1-2,4.1c-8.7,5.1-17.9,8.6-28.1,6.9c-7.9-2-14.8-5.9-21-11.1c-8-7.6-13.7-16.8-21-24.9
	c-2.9-4.1-5.8-8.1-9.6-11.4c-6.1-4.9-12-11-18.7-15.4c-6.4-3.1-13.6-6.4-20.7-6.6c-1.4,0-3.2-1-4.4,0c-3,2.1-5.2,5.6-7.8,8.2
	c-3.8,0.4-7,0.2-9.5,3.4c-0.5,3.3,0.7,5.7,1.7,8.6c-1.6,3.9-4,7.4-5.8,11.1c-0.6,0.9-1,2.6-2.1,2.8c-1.7-3.6-0.6-6.9-1.1-10.7
	c-0.8,0-1.5,0.2-2.2,0.5c-1.9,3.5-2.9,7.6-4.9,11.1c-2,3.4-3,7-4.3,10.7c-2.2,6-2.4,12.4-4.5,18.4l-0.8,0c-2.8-2.9-4.5-6.7-4.4-10.9
	c-2.3-1.5-5.7,0.9-7.8,1.9c-4.1,2-7.5,5.9-11.8,7c1.1-4.7,2.7-9,2.7-13.9c-0.1-6.3,2.2-11.7,2.9-17.8l-1.4,0.2
	c-1.7,5.3-2.1,11-3.7,16.4l-0.7,0.7c-4.6-0.6-8.7-1.9-13.1-3.4c-5.1-0.3-9.8-2.3-15-2c-5.7,0-12.9,0.6-17.2,4.7
	c-4.1,2.9-5.4,8.5-5.2,13.2c0.1,5.9,3.8,10.6,7.1,15.2c4.5,5,11.3,7.9,17.2,10.8c2.8,1.4,5.7,2.2,8.5,3.4c8.9,3.6,17.9,4.9,27,7.2
	c0.7,0.3,1.1,0.8,1,1.6c0,12.6,2,25,6.6,36.7c2.9,6.6,6.1,13.1,9.5,19.5c3.2,4.6,6.9,9.1,11.2,12.8c2.2,1.9,4.8,3.2,7,5.1
	c0.2,1.4-2.6,3.1-3.5,4.1c-3.2,2.1-5.2,5.4-8.6,7.4c-2.9,1.8-6,4.3-9.5,5.1c-0.2-3.7,1.5-7.1,1.4-10.8c0-5.8,0.4-11.3-1.8-16.8
	c-2.2-0.7-5-0.9-6.6,1.1c-5.3,5.3-9.4,11.9-15,17c-2.7,2-5.4,3.8-7.8,6.2c-4,4.1-9,6.2-13.4,9.7c-1,0.7-1.9,1.5-3.1,1.7
	c0.8-5.1,3.1-9.3,5.1-13.9c2.8-8.1,6.4-16.3,7.1-25c0.6-5,2.1-11,0.7-15.9c-1.8-0.2-3.5-0.5-5,0.8c-6,5.4-12.9,9.6-20.4,12.5
	c-2.9,1-5.4,2.7-8.4,3.5l0.7-1.2c5.3-5,9.6-11,14.5-16.4c1.7-1.8,4.5-3.4,3.6-6.2c-3.7-1.1-7.7,1.6-11.4,2.3c-3,0.5-5.7,1.7-8.6,2.5
	c-5,0.6-10,0.6-15,0.2c-4.1-0.3-7.9,0.8-12,0.7c-4.4,0-8.6-1.1-12.9-1.9c-3.6-0.7-7.2-0.7-10.8-1.3l0.3-1.1c3.4-2.1,6.7-4,10.4-5.6
	c5.5-3.3,10.6-6.9,16.6-9.4c4.4-1.7,8-4.4,11.5-7.5c1.4-1.3,2.7-2.8,2.6-4.7c-6.1-3-12.7-4.2-18.9-7.1c-3.9-1.2-7.4-3.1-11-5
	c-7.5-3.3-14-8-21.1-11.9c-7.2-5.7-14.5-11.8-19.5-19.5l0.1-1.3c4.2-0.2,7.9-1.8,12-2.4c9.1-2.4,17.9-4.9,26-9.9
	c5.1-3.3,10.9-4.8,16.1-7.9c6.6-3.9,12.9-8.2,18.7-13.2c1.3-1.3,5.3-2.2,3.5-4.6c-9.2-2.2-20-3.2-28.7-8.3
	c-7.1-3.2-13.1-8-18.7-13.3c-0.9-0.9-1.5-1.7-2-2.9c2.3,0.7,4.6,1.4,6.9,2.1c9.4,3.2,19.2,3.9,29.1,2.9c8.1,0.3,14.9-2.8,22.7-5.3
	c1.8-1,5.9-2.6,6.2-4.7c-1.5-0.4-3.1-0.4-4.6-0.4c-2.2-3.8-2.6-8.7-3.9-12.9c-2.5-8.1-4.6-16.3-5.5-24.7c-0.8-4.7-2-9.2-1.9-14
	c0.1-7.2-0.5-14.9,1.1-21.9c1.9-8,1.5-14.9,6.6-21.8c1.2,4,2.2,8.3,4,12c4.3,7.4,8.2,14.6,14,21c3.4,3.6,6.6,7.4,10.4,10.6
	c6.3,5.2,13.5,9,21.2,11.8c7.3,3.4,14.3,5.4,20.7,10.3c2.3,1.4,4.2,3.8,6.7,4.8c-0.7-3.4-4-6-5.9-8.9c0-2.4,1.4-4.8,1.9-7.1
	c1.2-5.3,2.3-10.6,3.2-15.9c0.9-5,2.4-9.8,3.3-14.7l0.7,0.1c2.1,2.8,3.1,6.5,4,9.9c1.5,5.8,2.8,11.7,3.5,17.7c1.7-2.2,0.9-6,1.7-8.6
	c0.8-1.6,1.8-3,2.4-4.7c3-8.2,6.6-16.8,7.6-25.5c0.5-4.7,1.7-9.2,1.7-14c0.1-5-0.1-10-0.1-15C540.1,105.1,538.5,94.8,537.1,84z"/>
<path class="st0" d="M246,145c5.4-0.7,10.6,0.1,16.1,0.3c5.9,0.1,11.9,1.6,17.6,3.1c7.6,2.6,15.3,5.7,22.1,9.8
	c4.3,2.6,8.3,5.6,12.3,8.7c6.6,5.1,12,12.2,17.3,18.7c8.1,10.2,13.8,21.6,20,33.1c4.3,9.5,8.4,19,12.2,28.7
	c4.5,8.8,5.9,19.4,8.1,29.1c0.5,3.4,2,6.7,2.2,10.2c-7.8,3.8-18.3,3.6-26.7,3.4c0.4,3.9,4.2,7.4,6.6,10.2c5.5,6.9,13.2,12.4,20,18
	c0.9,0.8,2.2,1.6,2.7,2.8c-0.2,2.5-1.2,5-1.8,7.4c-2,8.7-7,16.7-10.1,25c-1.8,5-4.4,9.4-6.9,14.1c-3.8,6.2-7.2,12.6-11.6,18.4
	c-2.5,3.3-4.2,7.1-6.4,10.6c-3,2-6.5,3.1-9.3,5.5c0.5,3.9,0.6,7.9,0.7,11.9c0,0.8-0.2,1.6-0.6,2.4c-4.9,9.1-7.6,18.5-10.4,28.3
	l-0.7,0.1c-1.1-4.8-2.1-9.6-2.7-14.5c-1.5-5.4-7.8-6.6-12.5-7.4c-3.8-0.1-7.8,2.3-11.3,3.7c-1.8,1.1-4.8,1.5-4.1,4.3
	c1.2,6.6,3.9,13,5.9,19.5c1.6,5.1,3.9,10.4,1.1,15.5c0.5,4.8,1.4,9.8,5.6,12.8c2.9,2.6,6.4,0.7,10.5,1.6c0.8,1.5,0.9,2.8,0.2,4.4
	c-2.4,0.6-4.7,0.9-6.6,2.5c-1.6,1.5-2.6,3.6-3.5,5.5c-0.4,1.1-1.3,2.6-0.3,3.6c4.1,1.9,8,4.1,12.1,6c-0.5,14.1-1.7,29.1,0.8,43
	c0.8,8.2,3.9,15.6,5.6,23.5c2.2,9.2,6.1,17.6,9.7,26.3c4.9,13.4,11.2,26.4,18.2,38.8c3.2,4.1,6.8,7.9,10,12
	c2.9,3.8,6.9,6.3,10.1,9.9c4.5,5,9,9.7,14.5,13.5c2.4,1.6,4.6,3.4,7,5c4.9,2.9,10.2,5,15.8,6.2c10,3.2,20.1,5.2,30.7,4.4
	c5.7,0.1,12.3-2.4,17.8-1.1c-2.5,9.3-6.1,18.4-9.3,27.5c-2.8,9.2-4.8,18.5-7.2,27.8c-0.8,2.2,1.2,3.2,1.4,5.4
	c-5.4,2.8-9.3,7.6-14.6,10.4c-4,2.2-7.9,4.7-11.9,7.1c-10.1,4.7-20.5,8.6-31.2,11.7c-3.5,1-7.3,0.6-11,1
	c-10.8,1.3-21.6,1.2-32.5,0.5c-5.3-0.8-11-1.6-15.9-4c-12.2-5.5-23.3-12.9-33.4-21.6c-4.1-3.6-7.1-8.2-11.2-11.8
	c-3.1-2.6-5.3-6-8.2-8.8c-4-3.7-6.9-8.3-10.5-12.5c-5.3-7.3-9.4-15.7-13.1-23.9c-4.8-9.9-9.5-19.8-14.3-29.6c-2.4-6-4.6-12-7-18
	c-3.1-11.5-5.1-23.3-5.9-35.2c-0.2-7,1.1-14,1.1-21c0.6-19.5,3.5-38.4,11.6-56.3c5.7-11.5,10-23.7,15.8-35.2
	c2.7-5.9,5.8-11.5,8.7-17.3c9.1-19.3,20.6-37.1,29.4-56.6c3.4-7,6.8-14,9.9-21.1c7.3-15.5,14.4-32.4,16.1-49.5
	c1.3-15.5-0.7-31.4-6.7-45.8c-2-3.8-3.4-7.8-5.4-11.6c-4.8-7.7-10.6-14.7-16.6-21.4c-3.5-3.8-7.8-6.9-11.7-10.3
	c-7.2-5.9-15.5-9.1-23.7-13.3c-4.2-2.1-9.7-2.1-14.4-2.8c-12.7-1.8-25.4-1.1-37.5,3.7c-7,3.5-13.8,7.1-20.2,11.8c-2.3,2-4.6,4-7,6
	c-3.9,3.2-6.5,7.3-9.9,11.1c-7.4,8.8-11.2,18.8-16,29c-2.5,6.1-4.9,12-6,18.6c-1.1,12.5,0.7,24.7,4.2,36.6c-0.6-0.5-1.1-1-1.5-1.8
	c-5.5-9.4-11.3-19.2-15.9-29.2c-5-11.3-7.5-23.5-9.2-35.7c-0.8-10.7-2-21.3-1.2-32c0.1-10.2,4.1-19.4,7.2-29
	c2.8-7.2,5.8-14.5,10-20.9c1.7-2.7,2.8-5.6,4.8-8.2c3.5-4.5,7.2-8.8,10.7-13.3c4.9-6.3,10.9-11.8,16.7-17.2
	c5.7-5,11.8-9.9,18.3-13.7c15.1-7.9,30.5-14.4,47.4-17.2C233.4,146.1,239.7,145.8,246,145z"/>
<path class="st0" d="M532.2,241.2c2.4-1.5,5.8,1.8,8.5,2c10.2,1.7,20.1,4.6,29.7,8.4c3,1.5,5.8,3.5,8.4,5.5
	c3.7,3.1,4.7,7.1,5.9,11.5c-1.5,0.5-2.5,1.5-4,0.6c-3.5-2.1-6-5.4-9.6-7.4c-7.4-3.8-14.5-7.1-23-6.7c-3.1,0.2-6.5,1.6-9.4,0.1
	C533.8,252.7,529.6,246.7,532.2,241.2z"/>
<path class="st0" d="M621.1,247.8c7.3,1,13.3,7.4,12.6,15c-0.3,1.2-1.1,3.9-2.5,4.1c-3.1-6.1-7.8-10.7-11.6-16.3
	C618.6,249.6,620.2,248.1,621.1,247.8z"/>
<path class="st0" d="M553.8,257.4c2.6,0.8,6.1,1.6,8,3.5c-2.3,1.4-4,3.1-5.2,5.5c-1.1,4.3,0,8.6,3.4,11.5c2.9,1.8,6.9,0.3,8.5-2.5
	c1.8-2.8,0.9-7.1,0.8-10.2c1.8,1.4,3.8,2.9,5,4.8c1.1,6.1-0.9,12.4-5.6,16.5c-6.8,5.9-18.5,5.3-24.4-1.7c-6.3-6.7-5.6-18.4,1.2-24.5
	C548,258.4,550.2,256.4,553.8,257.4z"/>
<path class="st0" d="M694.9,287.2c0.9,1.4-0.5,2.8-2,2.8c-2.6,0-5.2-0.5-7.7-1.2c-1.4-0.4-3.4-1.2-3.6-2.8
	C684.9,282.2,692,283.6,694.9,287.2z"/>
<path class="st0" d="M451.3,289.3c4.1-0.3,8.4,0.6,12.5,1.2c1.8,0.2,3.4,1,5,1.8c-0.1,2-1.4,3.8-1.5,5.8c0,2.3,0.2,4.5-0.6,6.7
	c-4.9-1.3-10.1-2.4-14.7-4.8C448.1,298.3,447.6,291.5,451.3,289.3z"/>
<path class="st0" d="M690.4,293.3c2.2-0.6,5.7-0.9,5.3,2.4C694.1,296,689.9,295.6,690.4,293.3z"/>
<path class="st0" d="M672.4,297.5c2,2.1,2.9,5,5.2,6.9c2,2.3,4.9,2.6,7.1,4.4c-3-0.4-5.8-1.5-8-3.5
	C674.4,303.1,672.2,300.9,672.4,297.5z"/>
<path class="st1" d="M852.8,317.2c-0.5,2.1-3.1,3.6-3.2,5.7c0.5,5.5,1.7,11,3.1,16.3c1.6,5.4,0.2,11.1,2.5,16.4
	c0.7,1.5,4.3,2.3,3.7,4.2c-1.4,3.5-3.4,7.5-5.3,10.7c-2.3,2.2-5.6,2.7-7.8,5.2c-3.7,4-7.2,8.3-10,13c-0.6,1.2-2,3,0.1,3.6
	c2.8-1.4,3.9-5.3,6.5-7c2.6-1.3,5.5-1.8,8.3-2.7c2.6-0.6,5.7-1.8,8.2-0.6c0.2,1.3-0.4,2.7-0.8,4c4,0.9,3.6-6,7.8-5.3
	c2.7-0.5,2.4,3.5,4.4,1.6c1.6-3.6,0.5-8.3,1.3-11.8c2.2-5.3,5.6-10.3,9.2-14.8c2.6-2.6,5.1-5.2,9.1-4.9c2.5-0.3,5.5,1.1,5.8,3.8
	c-0.7,1.4-2,2.7-3,3.9c-2.1,2.2-3.4,5.5-4.7,8.3c-1.5,3.1-1.3,6.7-1.1,10c0,3.6,4.2,7.1,3.8,10.8c-2.1,3.7-5.5,6.8-8.9,9.4
	c-3.3-0.1-6.4-1.8-9.9-1.1c-6.7,1.1-13.4,3.5-19.5,6.4c-3.5,1.6-5.2,4.4-7.9,7c-3.6,0.5-6.8,0.5-10.2,1.9c-4.8,1.8-8.9,6-12.2,9.8
	c-2.4,2.8-3.7,5.8-4.6,9.3c-4.2,2.4-8.7,4.5-12.4,7.6c-0.9,0.8-2.3,2.6-0.2,2.8c2.5-0.8,4.2-3.2,6.9-3.7c-1.1,7.6-1.7,15.1-2.2,22.8
	c-1.7,11.3-1.1,22.6,0.1,34c0.1,9.3,2.2,18.8,6.4,27.1c-3.2,3.3-9.4,4.6-13.6,6.4c-6.3,2.6-12.8,2.8-19.5,2.9
	c-4-0.2-7.8-0.1-11.5-1.9c-6.2-2.2-13.2-4.5-18.7-8.4c-4.4-5.2-8.5-10.8-13.4-15.6c-5.9-5.4-11-11.8-15.8-18.2
	c-3.5-4.5-7.6-8.3-12.1-11.7c-0.3-1,1.3-2.5,1.8-3.3c2.9,0.1,5.5,0.9,8.4,0.2c4.5-1,8.9-2.8,13-4.7c1.5-0.7,2.9-1.2,3.9-2.6
	c-5.1,0.6-9.9,2.4-14.8,3.6c0-1.1,0.2-2.2,0.6-3.3c2.3-0.6,4.6-1,6.6-2.4c5.9-4,11.8-6.9,16.7-12.4c4.6-4.5,6.9-10.2,10.7-15.3
	c4.3-6.5,6.9-13.6,9-21c1.1-0.6,2.1-0.9,3.2-1.2c0.5,3.4-0.4,7.8,1.3,10.9c1.2-0.4,1.3-2.3,1.5-3.3c1.2-9.2-0.1-18.4,1.6-27.6
	c8-2.5,15.7-5.9,23.8-8.2c2,1.2,1.4,6.3,5,5.9c0.1-3.2-2.6-6.3-2.2-9.7c1-0.8,3.6-1.6,3.5-3.1c-0.3-4,0.8-7.8,1-11.9
	c1.9,0.4,3.7,1,5.7,0.9l-0.2-0.8c-2.6-1.7-5.2-3.1-7.2-5.4c0.1-0.9,0.3-1.8,0.4-2.7c-2.1-1.5-4.5-1.6-6.2-3.7
	c-1.9-2.1-5.2-4.5-5.4-7.5c-0.5-6.6,3.3-13.7,6.4-19.4c0.8-2,3.4-2.2,5.3-2.4c0.5,3,0.7,5.8,2.7,8.3c4.1,6.9,13.5,8.4,20.2,11.8
	c0.5,4.1,0.1,8.3,0,12.4c-3.7,3.3-5.2,6.3-6,11.2c-1,6.5-2.5,14.3-0.3,20.6l1.3,0.1c1.7-4,1.2-8.4,1.5-12.6
	c-0.2-2.5,2.2-4.3,3.6-6.1c2.9-3.1,5.6-7.8,9.4-9.7c1.5-0.9,3.6-0.6,5.3-0.7l0.1-1.2c-1.5-0.1-3.1-0.2-4.6-0.5
	c-1.4-1.6,1.4-3.5,2.2-4.9c-0.6-0.8-1.6-1.3-3-1.5c0.5-1.1,1.1-2.2,1.6-3.4c-0.5-1.7-2.7-2.8-3.5-4.5c-1.5-3.5-1.6-7.8-1.6-11.6
	c0-4,0.6-8.2,2.4-11.8c2.4-2.1,5.5-4.3,8.3-5.7C847.9,313.2,850.5,315,852.8,317.2z"/>
<path class="st0" d="M558.1,315.4c8-0.7,15.8-0.4,23,3.6c5.6,2.3,10.9,5.1,16.6,7.4c5.8,2.8,11.3,5.7,17.5,7.4
	c5.1,1.1,10.7,1.4,15.9,1.5c6.5-0.5,12.1-3.2,17.3-7c2.5-1.6,4.8-4.1,7.6-5.1c-0.7,4.8-3.1,9.4-4.8,13.9c-3.7,9.6-8,18.9-13.2,27.8
	c-2.3,3.9-5.6,7.1-8.9,10.1c-5,4.2-10.6,5.7-16.7,7.4c-15.4,5.1-33.2,4.3-47.2-4.4c-5.8-4.4-11.5-8.3-15.7-14.3
	c-4.7-5.8-8-12.2-9.1-19.6c-0.1-3.5-0.4-7.3,0.2-10.8c0.9-2.8,1.7-5.9,3.3-8.5C547.2,320.3,552.2,315.9,558.1,315.4z"/>
<path d="M556,318.9c7.1-0.8,13.8-0.5,19.7,4c-3.3-0.6-6.2-1.9-9.6-2.1c-4.1-0.5-8.2,0.3-11.7,2.6c-2.6,2.2-4.4,5.5-5.3,8.7
	c-1.5,3.2,2.1,5.8,4.1,7.8c5.9,5.1,12.9,6.3,20.4,7.5c0.1,5.5,2.1,9.6,5.8,13.5c0.6,0.6,1.5,0.7,2.6,0.3c4.9-1.9,9.2-6,13.1-9.1
	c2.3,2.2,3.5,4.7,7,5.2c5.5,1.1,10.6-1.8,15.8-1.1c-2,3.3-7.3,4.1-10.8,4.1c-4.8,0.3-8.7-1.9-13-3.5c-3.2,0.9-5.9,3.9-9.1,5.1
	c-2.6,1.1-6.4,2.6-8.5-0.1c-3.5-3.6-4.2-8.1-6.6-12.3c-5.8-0.9-11.5-3.5-16.5-6.6c-1.9-1-3.7-3.7-5.9-3.6c-0.8,7.4,2,14.3,6.1,20.3
	c1.3,2.2,3.4,3.9,4.5,6.2c-0.6-0.3-1.2-0.6-1.7-1c-6.8-7-12.2-15.7-12.3-25.8c-0.7-5.5,1.7-10.2,4.2-14.9
	C549.8,321.6,553.2,319.7,556,318.9z"/>
<path class="st0" d="M832.1,344.3c1.3,1.2,2.6,2.5,3.7,3.9c0.3,1.1-1.3,2.1-1.9,2.9c0.6,0.9,1.2,1.8,1.8,2.8c-0.5,0.8-1,1.5-1.5,2.3
	c0.5,0.9,1,1.8,1.5,2.7c-4.6,2.5-7,6.5-10.5,10c0.6-3.5,1.7-6.9,3.7-9.8c1.1-1.7,2.4-3,2.7-5.2C832,350.6,831.6,347.5,832.1,344.3z"
	/>
<path class="st1" d="M871.9,364c-0.4,2.9-2.1,5.3-2.4,8.2c-0.4,1.6-0.2,3.8-1.2,5.1c-1.9,0.9-4.1,0.9-6,1.9c-1.5,0.8-2.4,0.8-4,0.5
	c-0.2-0.8-0.1-1.6,0.3-2.2c2.2-4.3,6.3-7.9,9.6-11.4C869.2,365.2,870.3,363.7,871.9,364z"/>
<path class="st1" d="M344,398.9c4.3-0.1,7.6,2.9,10.9,5.3c1.2,10.1-0.4,19.6-2.3,29.5c-1.1,1.9-4.7,4-4.4,6.2
	c1.9,1.1,3.1-0.7,4.7-1.6c2.4,3.8-1.2,7,0.9,10.9c1.4,1.7,3.4,2.5,4.4,4.7c2.5,4.5,5.1,7.6,9.3,10.6c0.4,1.9,0.6,4,1.3,5.8
	c1.4,2,2.9,0.9,2.6-1.2c-0.2-8.5-2.4-16.3-6.8-23.5c-0.6-1.1-1.7-2.2-1.6-3.5c-0.1-4,0.1-9.4,2.4-12.8c2.4-0.9,4.4-1.7,6.1-3.8
	c6.5-7.2,7.2-15.4,9.8-24.2c1.6-0.5,3.1-0.6,4.7-0.2c6.3,2,11.4,7.3,12.5,13.9c0.6,5.1-1.7,9-4.4,13.1c-1.4,1.5-3.2,2-3.8,4.2
	c-1.2,2.4-0.6,5.1-1.4,7.5c-2.5,2.1-5.1,3.9-7.3,6.4c0.5,0.8,1.3,1.2,2.4,1.5c1.2-1.1,2.5-3.4,4.2-3.4c0.9,2.3-0.8,3.4-1.5,5.4
	c-1,2.1-1.1,4-0.3,6.2c2.7,1.3,2.4-5.3,4.5-5.3c0.6,5.4,4.2,8.6,8.8,11c3.9,2,7.3,4.2,8.2,8.7c0.6,2.3,1.6,8,4.9,7.7
	c0.2-1.8,0.4-3.7,0.6-5.5c1.1,0.1,2.8-0.3,3.3,1c0.9,1.6,1.5,3.1,2.4,4.6c5.2,7.2,10.7,13.6,19.8,15.8c-0.2-2.3-3.2-3.5-4.8-4.8
	c-2.4-1.8-5.9-4.2-6.9-7.1c7.3,1.3,14.4,4.3,21.8,5.2c4.1-0.1,7.8,1,11.6,2.4c2,3.7,5.3,6,7.4,9.6c3.1,4.9,6.7,9.8,8.9,15.1
	c3.7,10.6,5.5,21.5,3.8,32.7c-1.8,6.4-4.5,13.1-8.8,18.2c-2.5,3.1-5.3,6.1-8.4,8.6c-7.6,5-15.7,6-24.6,6.6c-3.5,0.3-6.4-0.9-9.9-1.4
	c-4.2-0.5-8.4-2.8-12.3-4.6c-2.8-1.2-4.9-3.4-5.9-6.3c-0.1-8.2-1.5-16.6-3.3-24.6c-2.8-7.1-5.2-14.8-10.3-20.7
	c-2.4-2.8-5.9-4-8.3-6.7c-1.2-1.4-0.6-2.6,0.3-4c2.8,0.2,4.9,1.5,7.7,1l-0.2-0.9c-4.3-2.1-9.7-2.8-14.5-3.5
	c-0.6-1.5-1.1-2.9-1.1-4.5c6,0,11,2.4,16.6,1.5l-0.1-1.5c-4.2-1.5-9.2-1.5-13.6-1.7c-2.1-0.2-5.1,0.7-6.9-0.7c-4-2.6-9.4-4-14.1-3.9
	c-7.6,1.7-15.2,3.7-22.5,6.7c-2.6,1-4.6,2.6-6.7,4.2c-2.7,0.4-5.6,0.2-8.3-0.3c-1.9-2.6-3.7-4.9-6.7-6.3c-3.9-1.6-7.2-4.8-11.3-5.7
	c-1.3-0.4-3.2-0.4-4-1.5c1.4-2.6,2.8-5.5,5-7.5c4.6-1.6,9.5-1.9,14,0c2.5,1.1,7.3,1.5,8.4,4.3c-0.8,0.7-1.4,1.5-1.8,2.3
	c2.6-0.4,5-1.1,7.6-1.1c-0.2,1-0.4,1.9-0.6,2.9c6.2-2,13.2-0.2,19.7-1.1c-0.5-1-2-1.2-3-1.5c-4.1-0.7-8.6,0.2-12.7,0
	c-2.5-1.5-4.2-4.1-6.5-5.8c-7.6-5.2-16.1-8.8-25.5-8.5c-3.1,0.5-5.4-3-6.6-5.5c-1.2-3-3.9-6-2.2-9.3c1.3-2.9,0.8-5.8,0.2-8.8
	c-1.9-8.6-5.6-16.8-7.6-25.4c3.1-2.2,7.6-3.1,11.2-4.3c5.3-1.6,10.3,3.1,10.8,8.2c1.1,8.9,3.4,18.4,8.1,26.2c0.6,1.9,0.5,3.9,1,5.8
	c0.6,1.6,1.2,2.1,2.9,1.9c0.1-1.6,0.2-3.2,0.3-4.8c2.8,0.3,2.5,5.1,5,5.7c4-0.1,7.6,1.3,11.7,1.2c2.7,2.7,3.7,7.1,6.5,9.7
	c0.7,0.4,1.6,0.4,2.6,0.2c0.1-1.9-1.4-3.9-2.1-5.7c-2.6-5.9-8.5-10.4-13.4-14.6c-1.9-1.8-4.5-2.1-6.5-3.5c-1.6-3.8-2.6-8-2.2-12.2
	c3-5.4,5.6-10.7,6.3-17c0.7-8.3,0.1-16.7-0.3-25C335.9,399.5,340.8,398.7,344,398.9z"/>
<path class="st0" d="M497.8,399.2c0.8,4.2,0.6,8.6,0.5,12.8c-0.4,4.3-1.4,8.5-1.2,12.9c1.3,0.5,2.6,0.6,3.9,0.4
	c7.4-1.9,14.2-5.3,19.8-10.5c2.7-3,6.2-5.1,8.5-8.5c5.5,1.2,11,3.8,16.2,5.9l0.2,0.7c-8,3.1-15.9,5.6-22.6,11.2
	c0.6,1.2,2.8,1,3.5,2.2c2.5,3.7,3.7,8.3,5.6,12.3c1.1,3.1,3.2,6.9,2.8,10.2c-4.4,0.4-8.6-0.4-11.9,3.3c-3.2,4.1-6.5,8.1-10.2,11.8
	c-1.4,1.4-4.1,1.4-5.9,2.1c-2.1,1.8-3,5.2-5.3,6.7c-3.3,0.1-5.8,0.4-8.5,2.5c-6.4,5-13.1,9.4-20.8,12.1c-2.1,0.6-4.3,1.1-6.5,0.9
	c-2.5-1-5-1.9-7.5-2.9c-0.9-0.9,0.9-2.8,1.3-3.7c5.3-6.9,7.7-14.7,10.2-22.9c1.2-4,1.1-7.9,2-12c0.9-4.2,1.4-8.4,2.3-12.6
	c0.9-4.3,0.2-9.4,1.5-13.6c2.9-3.2,6.4-4.8,9.7-7.4C490,409,493.7,403.9,497.8,399.2z"/>
<path class="st1" d="M863.9,401c0,0.8-0.3,1.5-1,2c-2.3,1.3-5.2,1.9-7.8,2.1c-0.1-0.7,0.3-1.3,1.2-1.7
	C858.6,402.1,861.3,401,863.9,401z"/>
<path class="st0" d="M620.2,412.4c3.6,0.9,7,3.3,10.2,5.2c3.7,2.4,7.8,5,10.5,8.5c-3.5,5.1-7.3,10.2-10.2,15.7
	c-2.4,5.9-5.2,11.7-7.3,17.8c-0.9,2.7-1.8,5.6-1.6,8.5l1-0.2c2.2-5.7,4.3-12.9,8-18c3.6-1.5,8.3-0.8,12.1-0.5
	c8.9,3.3,12.3,11.3,18.5,17.4c2.1,1.6,5.8,4.9,8.5,4.4c0-2.8-4.2-5.4-5.6-7.9c2.4,0.1,4.6,0.4,6.2,2.4c3.1,3.9,6.8,7.2,10.9,10.1
	c1.6,1.1,3.3,1.8,5.3,1.5c0-0.7-0.1-1.4-0.1-2.1c4.5,2.3,8.6,5.2,13.5,6.9c5.7,1.8,11.6,3.2,17.6,3.4c5,5.9,9.4,12.5,15.1,17.9
	c5.4,4.9,10.1,10.6,14.7,16.3c1.7,1.6,3.6,3,5.3,4.6c-6.2,4.3-10.7,9.4-16,14.6c-3.6-0.4-6.6-1.9-9.5-4c-6.6-4.1-12.5-9-19.1-12.9
	c-12.1-6.7-24.6-12.2-37.2-17.8c-8.3-3.2-16.9-5.7-25.6-7.5c-1.8-0.5-4.5-1.1-5.7-2.6c-0.1-1.5-0.1-3.1,1-4.2
	c3.1-3.2,4.7-7.1,7.2-10.7c1.1-1.8,2.6-3.5,2.7-5.7c-4.3-0.6-6.9,5.9-9.4,8.5c0.5-5.5,2.8-10.1,2.4-15.4l-1.2,0.3
	c-1.3,2.8-2,5.9-3,8.8c-2.1,6.1-2.6,12-3.8,18.5c-2.2,11.4-2.2,23.5-1.9,35.1c0,4.1,1.4,7.9,1.2,12c-0.2,6-0.2,12,0.3,18
	c0.8,11.4,1.5,23.5,4.4,34.5c0.7,1.3,1.8,4.6,3.5,4.5c0.6-3.4-0.3-6.5-0.7-9.8c1.6,0.5,2.3,1.9,3.4,3.1c1.8,2.2,4,4,5.8,6.2
	c1.1,2.1,0,5.3-0.1,7.6c-0.6,7.1,0.6,14.4,2.3,21.2c3.6,9.1,3.6,17.8,8.6,26.3c0.9,1.4,2,1.3,3.5,1.3c-1.3-3.6-3.3-6.8-4.2-10.4
	c-1.1-4.4-2.5-8.8-3.3-13.3c1.3,0.9,1.7,2.7,2.4,4.1c2.8,5.8,6.8,11.2,10.3,16.7c2.3,3.7,4.6,7.4,7,11c4,6.2,9.6,11,14,17
	c4.5,6.1,9.9,11.5,14.4,17.7c3.5,4.9,8.1,8.6,11.5,13.5c1.2,2,3.3,3.6,1.5,6c-5.1,7.4-9.7,14.6-16.4,20.6c-5,6-11.5,9.2-18.3,12.7
	c-5.2,2.4-10.8,3.9-16.2,5.8c-7.1,2.2-13.2,6.2-20.1,8.9c-10.2,3.9-19,11.4-29.1,15.9c-8.2,4.4-17.2,6.6-25.6,10.5
	c-3.7,1.8-7.8,1.8-11.5,3.4c-2.9,0.8-5.8,2.9-8.8,3.2c-1.2-1.1-0.9-3.5-1.5-5c-2.6-7.7-3.7-15.5-5.4-23.3
	c-1.6-7.4-2.9-14.7-3.8-22.1c-0.8-6.3-2.1-12.5-2.6-18.8c-0.8-11.2-4.7-21.7-5.7-32.9c-0.5-6.5-3-12.1-4.9-18.3
	c-2.2-6.2-4-12.5-6.4-18.6c-0.9-2.2-2.3-3.9-2.7-6.3c-0.5-3.5,0.2-7.3,0.1-10.8c0-4.7-1.1-9.3-1.1-14c-0.5-10.7-2.8-21.2-3.2-32
	c-0.6-9.7,0.4-19.3-0.1-29c-1.2-11.1,1.3-21.8,0.8-33c-0.4-6.2,0.8-12,2.3-17.9c2.6-9.6,4.8-19.2,7.2-28.8c1.1-4.6,3.7-9.4,3.9-14.2
	c-1.5-3-5.4-5-6.6-8.1c0.2-3.4,4.9-6,7.1-8.3c2.8-3,6-1.2,9.6-2.6c6.1-2,12.3-3.4,18.3-5.6c5.7-2,11.7-2.6,17.5-4.5
	c4-1.3,7.8-2.7,12-3.1c5.5-0.7,10.2-3.6,15.8-4.2c1.5-0.4,4.4-1.6,4.1-3.5c-2.9-0.9-5.9,1.5-8.9,1.6c-3.2,0.2-6.8,0.9-10,0.3
	c0-2.9,1.1-5.4,1.7-8.3c0.7-2.5,0.5-4.7,2.4-6.6C615.4,416.8,617.9,414.7,620.2,412.4z"/>
<path class="st0" d="M568,414.6c3.6,0.2,7.7,0.2,11,1.5c0.3,2-0.1,3.7-0.3,5.7c-1,7.6-1,15.2-1.1,22.9c-7.4,1.4-13.6,5.2-20.9,7
	c-2.3,0.5-5.7,0-7.5,1.7c-2.5,2.1-5,4.4-7.3,6.7c-1.2,1.4-2.9,3-2.3,5c1.3,2.8,5.2,4.3,6.5,7.1c-2.5,8.8-5.8,17.4-7.6,26.4
	c-0.8,3.8-0.9,7.7-1.7,11.5c-2.4,11.6-4.1,23.2-4.4,35c-1.3,9.4-0.4,18.6-0.5,28.1c0.2,8.9-0.8,17.3,0.5,26.2
	c0.5,10.2,0.4,20.2,2.1,30.3c1.5,7.7,0.3,15.5,1.8,23.2c0.5,2.6,3.1,5.4,1.2,7.9c-5.9,10.5-8.2,21.2-11.2,32.7
	c-1.8,9.6-2.7,19.3-4,29c-1.3,7.6-3,14.9-3.3,22.7c-0.4,8.5-2.6,16.5-2.1,25c-0.2,5.9,0.6,12-0.1,17.9l-1.8,0
	c-5.2-1.7-10.4-3.3-15.5-5.2c-9.9-2.5-19.2-6.3-28.1-11c-5.6-4.2-11.9-8.3-16.6-13.5c-4.3-6.1-9.3-11.6-12.9-18.2
	c3.1-13.7,9.2-27,13.9-40.2c3-9.6,4.6-19.5,8.1-29c3.2-9.7,6.1-19.4,8.8-29.3c3-10.9,8.3-20.7,11.3-31.5
	c3.9-14.6,9.6-28.4,12.8-43.2c2.5-11.7,6.8-22.8,9.6-34.4c2.4-7.4,3.3-14.5,6.3-21.7c2.2-2.5,5.2-4.3,7.9-6.1
	c0.9-0.7,2.4-1.3,2.4-2.7c-0.9-0.2-1.8-0.1-2.7,0.2c-7.1,2.7-11,7.9-17.1,12c-5.5,3.7-10.5,8.1-15.2,12.8c-0.9,0.8-1.5,1.6-2.7,1.9
	c-1.6-11.3-6.5-21.7-13.9-30.3c-1.5-2.1-4.5-4.5-4.3-7.3c10.1,0.1,17.8-5,25.6-10.6c2.2-1.6,4.7-3.9,7.4-4.4c3,0.3,6.2,1.9,8.7-0.5
	c1-2.1-2.5-1.6-3.7-2.1c0.7-2.3,2.8-4.3,4.1-6.4c4.8,0.3,9.2,0.1,12-4.4c-0.5-0.6-1.1-1.1-1.9-1.4c2.8-3,5.3-6.1,7.8-9.3
	c3.9-0.3,7.8,0.5,11.8,0.2c1.5-0.3,3-0.5,3.7-2.1c-1.2-0.4-3.1-0.2-3.9-1.1c-1.1-3-1.4-6.3-2.8-9.2c-2.5-5.6-3.7-11-7.3-16
	c1.2-1.8,3.8-2.7,5.7-3.6c5.4-2,10.9-3.9,16.5-5.5C556.8,413.5,562.1,414.9,568,414.6z"/>
<path d="M777.1,421.3c1.7,2.2,2.6,4.8,4.9,6.6c5.1,4.7,11.3,4.5,17.8,4.2c-5.5,4.2-13.5,2.8-18.5-1.4
	C779,428.1,777.5,424.8,777.1,421.3z"/>
<path d="M564.3,473.3c4.8-0.9,9.6,1.4,11.5,6c4.2,8.4-2.4,18.4-10.7,20.8c-3.4,0.2-7.6-0.7-10.2-2.9c-5.1-5.7-3.4-14,0.8-19.7
	C557.6,475,561.2,474,564.3,473.3z"/>
<path class="st1" d="M562.4,475.5c3-1.2,5.6-1.2,7.9,1.2c6.7,4.9,5.7,16.3-1.8,19.8c-3.5,0.9-9.2,2.1-12-0.9
	C551.3,489,555,478.5,562.4,475.5z"/>
<path d="M563.7,480.1c-1,1.8-2.8,3.2-3.7,5.1c-0.7,2.6,1.1,4.2,1.8,6.7c-1.5-0.1-2.1-0.5-3-1.7C556.1,486.3,558.9,480.1,563.7,480.1
	z"/>
<path d="M734,488.2c1.8,0.6,3.1,2,4.5,3.2c3.5,3.2,7.1,6.3,10.7,9.3c6.2,5.1,13.7,9.3,20.7,13.3c1.3,0.8,3,1.4,3.8,2.7
	c-0.7,0-1.4-0.2-2.1-0.4c-13.2-5.1-25.1-13.1-34.8-23.2C735.6,491.6,734.2,490.3,734,488.2z"/>
<path d="M762.3,499c4.2,0.7,8,2.7,12.2,3.5c0.9,0.3,2.8,0.3,3.2,1.4c-5.2-0.1-10.4-2.3-15.1-4.3L762.3,499z"/>
<path d="M467,508.2c0.7,0.1,1.2,0.5,1.7,1.1c2.6,3.1,4.9,6.1,5.8,10.1c1.8,8.5,1.3,17.4-2.7,25.2l-0.8,0.2c0.7-8.2,2.1-17.8,0-25.8
	C470.2,515.2,467.8,512,467,508.2z"/>
<path class="st0" d="M507,515.3c-0.5,2.8-1.8,5.2-2.8,7.9c-2.5,6.4-3.1,13.1-5.5,19.5c-1.6,4.3-2.6,8.7-3.8,13.2
	c-2.1,8.4-5,16.6-7.1,25c-1,3.5-2.7,6.7-3.4,10.3c-1.2,5.5-3,10.8-5.1,16c-2,5.1-3,10.7-5.4,15.6c-2,4.2-3,8.9-4.8,13.3
	c-1.9,4.6-3.5,9.2-5,14c-2.1,2.5-6.1,3.3-8.7,5.3c-5.6,3.9-12.7,5.8-19.4,4.8c-5.3-2.3-11.1-5-14.4-9.8c-5-6.5-5.2-14.6-4.6-22.5
	c2.5-14.8,10.1-25.1,15.7-39.2c1-1.9,1.6-5.6,4.4-5.5c4.4,0.4,8.5-0.7,12.9-1c5.3,0.1,10.6-2.6,15.3-4.8c5.6-2.7,8.2-7.4,12-12
	c3-3.9,6.2-8.2,7.1-13.1c0.9-4.8,1.9-9.3,1.7-14.3c0.2-2-0.7-4.4,1.2-5.8C493.4,526.3,499.7,519.7,507,515.3z"/>
<path d="M563.4,533.5c6.1-1.5,11.6,1.2,14.2,6.9c2.8,5.3,0.6,11.4-2,16.3c-1.5,3.1-4.5,4.2-7.4,5.6c-4.4,2-10,1-13.8-1.7
	c-4.9-5.2-5.9-13.1-2.1-19.3C554.4,536.7,558.8,534.6,563.4,533.5z"/>
<path class="st1" d="M563.4,535.5c2.5-0.4,6.1-1,8,1.1c3.4,3.1,5.5,8.5,4.2,13c-0.7,2.5-1.5,5.6-3.4,7.6c-2.2,1.7-5.3,3.8-8.2,3.6
	c-4,0.1-7.6-3.2-9.6-6.3c-1.2-4-1.2-9.3,1.4-12.8C557.6,539.1,560.3,536.4,563.4,535.5z"/>
<path d="M561.5,545.3c0.1,1.5,0,3.1,0.3,4.6c0.8,1.1,1.6,2,2.1,3.2c-2,0-2.9-0.4-4.2-1.8C558,549.6,559,545.5,561.5,545.3z"/>
<path d="M561.5,610.5c5.5-1.8,12.7,2.7,13.6,8.4c1,4.6,1.8,10.7-1.6,14.5c-3.4,4.9-10.7,6-15.5,2.6c-3.8-2.2-5.1-6.1-6.1-10.1
	c-0.9-3.6,0.5-7.8,2.3-10.8C555.9,612.9,558.7,611.3,561.5,610.5z"/>
<path class="st1" d="M561.3,614.4c2.2-0.7,5-1.1,7,0.4c6.3,4.2,6.6,14.7,0.9,19.6c-2.2,2.1-5.8,2.4-8.2,0.6c-2.8-1.9-4.7-5-5.7-8.2
	C554.1,621.5,556.2,616.3,561.3,614.4z"/>
<path d="M561,621.1c0.3,1.9-0.2,4.4,0.9,6c0.9,1.3,3.1,1.5,3.9,2.8c-1.9,0-3.8-0.1-5.4-1.3C557.7,627.3,558.2,621.9,561,621.1z"/>
<path class="st1" d="M666,883.6c3.5,0.4,7.5,0.2,10.7,1.5c2.5,4.2,1.9,10.8,2.9,15.4c1.1,2.6,1.7,5.4,2.7,8.1
	c1.4,1.2,3.6,1.3,5.2,1.8c0.2,1.5,0.4,2.9,0.6,4.3c2.7,2,6.2,0.8,9.1,2c2.1,1.3,3.8,4,6.1,4.8c2,0.6,4.3,0.7,6.4,0.9
	c-0.2,1.9-1.5,2.6-2.7,3.8c-6-0.2-12-0.3-18-1c-8.5-0.6-16.6-2.4-25-2.5c-9.6-0.7-19-0.9-28.4-3.3c-6.1-1.6-12.2-1.6-18.4-2.6
	c2-3.5,4.6-7.3,7.3-10.3c5.2-3.4,10.1-7.2,15.1-10.9c3.3-2.7,4.9-7.2,7.7-10.2c4.1,0,8.5,0.1,12.6-0.5
	C662.1,884.5,663.7,883.4,666,883.6z"/>
<path class="st1" d="M692.4,886c-0.8,4.4-2.7,8.5-3.5,12.8c-0.2,2-3.2,2.3-4.7,2.2c-0.5-4.6-1.1-9.2-1.8-13.8
	c2.2-0.4,4.3-0.8,6.4-1.6C689.8,885.5,692.1,884,692.4,886z"/>
<path class="st1" d="M453.1,886c1.6-0.4,2,1.3,2.6,2.3c1.4,2.8,3.5,5.2,4.8,8c0.8,1.6-1.8,2.7-2.9,3.3c-4.6,2.5-8.6,0.8-13.5,1.7
	c-1.5,0.2-3.3,0.8-4.8,0.2c-0.6-1.8-1.1-3.6-1.5-5.5C442.2,891.5,447.5,888.6,453.1,886z"/>
<path d="M630.5,891.5C630.5,891.5,630.5,891.5,630.5,891.5z"/>
<path class="st1" d="M433.8,899.3c0.7,1.8,2,4.4,1.7,6.4c-2.7,4.3-4.8,8.7-8.5,12.4c-2.8,1.7-5.8,3.5-8.7,4.9
	c1.7-4.7,5.3-8.1,6.7-12.9C426.7,905.3,428.9,901.1,433.8,899.3z"/>
<path class="st1" d="M465.1,899.2c3.7,0.8,6.9-0.6,10.6,0.2c0.6,8.5,0.8,17,2.6,25.4c0.5,2.1-0.8,3.9,0.2,5.7
	c1.6,3.2,3.6,5.5,3.3,9.4c-2.4,0.4-3.4-1.4-5.2-2.5c-8.1-5.1-15.2-11.2-24.3-14.8c2.2-5.6,3.5-11.4,5.2-17.1
	C458.9,901.7,461.9,900.9,465.1,899.2z"/>
<path class="st1" d="M691.7,902.3c1,0.8,1.7,1.7,2.5,2.7c-2.1,1.6-5.5,2.1-8,3.7c-1.2-1.3-2.1-2.7-2.1-4.5
	C686.4,903.2,689.1,902.3,691.7,902.3z"/>
<path class="st1" d="M441.1,903.8c2.9,0,5.9,0.2,8.8,0.5c0,1.1-0.1,2.2-0.2,3.4c-3.6,0.1-7.1,0.5-10.7,0.4
	C439,906.7,439.7,904.2,441.1,903.8z"/>
<path class="st1" d="M696.7,907.5c1.3,1,3.2,2,4,3.5c-2,2.4-6.1,4.4-9.2,2.7c-0.1-1.5-0.1-3-0.2-4.5
	C693.1,908.5,694.8,907.8,696.7,907.5z"/>
<path class="st1" d="M437.1,910.8c3.6,0,7.9,0.2,11.5,0.7c0.2,1.2,0.2,2.7-1.4,2.2c-3.7-0.6-7.3-0.9-11-1
	C436.1,911.7,436.4,911,437.1,910.8z"/>
<path class="st1" d="M704.9,913.3c3,1.3,5.8,2.9,8.8,3.9c-0.9,2.5-5.4,5.2-7.8,2.8c-1.6-1.4-4-3-4.7-5
	C702.2,914.6,703.6,913.2,704.9,913.3z"/>
<path class="st1" d="M434.3,915.2c3.4,0.3,7.3,0.9,10.5,1.9c1.1,0.5,3.5,1.3,3.2,2.9c-4-1.4-7.7-1.1-11.8-1.4
	C434.4,918.3,431.6,917,434.3,915.2z"/>
<path class="st0" d="M720.9,918.2c6.9,1.2,14,1.6,20.9,2.9l-0.1,0.8c-8.5,2-17,4.3-25.6,5.5c-1.7,0.2-3.3-0.1-4.9-0.4
	c1.3-2.4,4-4.1,5.7-6.2C717.9,919.8,719.2,917.7,720.9,918.2z"/>
<path class="st0" d="M616.1,918.8c8.3,1.5,16.6,3.5,24.9,5.1c4.4,1,8.6-0.2,12.9,0.2c8,2,16.1,2.5,24.2,3.7
	c8.7,1.1,17.2,2.3,25.9,2.2c3.4-0.2,6.5-1.2,10-1.1c7.3,0.2,14.2-1.1,21.3-2.5c2.4-0.4,5-1.5,7.5-1.2c0.7,2.7,1.7,5.5,1.9,8.4
	c-9.6,1.6-18.8,5.1-28.4,6.9c-6.2,1.8-12.1,0.9-18.4,0.5c-9.3-1-18.8-0.5-28-2.1c-6-0.9-12-2.4-17.9-4.1c-5.2-1.5-10.5,0.1-16.1-0.5
	c-8.2-0.9-17.2-2.1-24.8-5.5l-0.3-0.8C611.7,924.8,613.5,920.8,616.1,918.8z"/>
<path class="st0" d="M438,922.1c3.4,0,7,1.6,10.2,2.8c8,3,14.6,9.5,22.1,13.9c0.8,0.6,2.4,1.1,2.5,2.2c-15.1,2.8-31.5,4.6-46.8,2
	c-5.5-1-11-1.2-16.5-1.6c-3.5-0.5-6.9,0.3-10.3-1c1,1.4,2.3,1.2,3.8,1.5c10.7,1.7,22.2,5.7,33,5c9.1-0.2,17.8,1.8,27,1
	c6.6-0.5,13.2-2.7,19.8-2.7c0.4,3.5-0.1,6.9,0.6,10.3c0.4,2.2,0.4,4,0.1,6.2c-3.1,0.8-5.9,1.7-8.8,3c-7.9-0.5-14.9,3.1-22.8,2.9
	c-15.4-0.2-31.9,3.1-46.9-1.6c-4.9-1.8-9.9-3.2-14.7-5.3c-0.8-6.3-0.9-13-1.2-19.3c2.7-3,6.7-4.8,10.7-5.5
	c7.1-1.8,12.5-5.6,18.8-9.1C424.7,924,431.4,922.1,438,922.1z"/>
</svg>
