<?xml version="1.0" encoding="utf-8"?>
<!-- Generator: Adobe Illustrator 24.1.2, SVG Export Plug-In . SVG Version: 6.00 Build 0)  -->
<svg version="1.1" id="Layer_1" xmlns="http://www.w3.org/2000/svg" xmlns:xlink="http://www.w3.org/1999/xlink" x="0px" y="0px"
	 viewBox="0 0 1194 878" style="enable-background:new 0 0 1194 878;" xml:space="preserve">
<style type="text/css">
	.st0{fill:#060709;}
	.st1{fill:#FFFFFF;}
</style>
<path class="st0" d="M1046.9,12.2c34.8,11.4,66.6,31.6,91.4,58.6c24.4,26.5,42,59.3,50.3,94.4c6.9,28.5,6.5,57.4,2.8,86.4
	c-2.9,21.6-8.4,43.5-17.6,63.3c-7.8,16.8-18.7,32.3-33.6,43.5c-14.4,10.8-32.2,16.6-50.1,16.7c-14.1,0.4-28.7-2.9-42.8-4.8
	c8-3.4,16.4-6.1,24.4-9.5c11.1-5,18.7-15.4,23.9-26.1c7.1-15,10.6-31.9,10.9-48.5c0.2-11.8-2.5-23.3-9.6-32.9
	c-7-9.5-17.4-15.4-28.7-18.1c-14.7-3.6-30.4-2.2-45.1,1c-20,4.8-36.4,19.9-46.3,37.6c-11.1,19.9-14.5,42.9-11.2,65.3
	c3.3,23,13.2,44.3,26.4,63.2c7.2,10.4,15.9,19.5,23.4,29.7c28.8,37.5,52,80.6,62.3,127c7.7,34.8,7.9,70.9-2.7,105.1
	c-9.3,30.4-27.1,57.6-50.9,78.6c5.4,1.5,10.7,3.2,16.1,4.6c-0.3,1.4-0.6,2.8-0.9,4.2c-82.1-24-164.1-48.3-246.2-72.3
	c-2.6-0.7-5.2-1.9-7.9-2c-28.2,8.5-57.3,14.9-86,21.2c-2.7,0.7-3-0.1-4.1-2.3c-2.5,0.8-4.8,1.6-7,2.9c-3.7,2.2-5.8,5.4-9.9,7.1
	c-6.7,2.9-13.8,4.8-21,6c-4.2,0.6-8.4,1.1-12.5-0.5c-4-1.5-8.3-2.1-12.5-1.4c-2.7,3.5-4.9,6.8-9.2,8.6c-3.8,1.5-7.1,0.2-10.9-0.6
	c-1.7-0.5-3.9-0.7-5.3-1.8c-0.6-1.2-0.5-2.2,0.4-3c4.5-4,12-6.6,16.1-11.8c-7.5,3.1-14.9,6.3-23.2,5.7c-2.1-0.3-5.2-1.2-4.2-4
	c1.4-2.4,4.4-4,6.8-5.4c3.1-1.8,5.9-4.6,8.5-7c-6.7,2-14.9,4.8-21.9,3.3c-3.5-0.9-7.4-3.4-5.5-7.6c2.3-3.9,8-5.9,11.9-7.7
	c5-2.1,9.4-5.1,13.8-8.1c2.9-2,5.9-1.6,9.2-2.1c2.3-0.8,4.1-2.5,6.5-3.3c6.1-2.2,13.5-3.5,20-3.4c7.1,0,13.3,4.7,20,6.2
	c3.8,0.6,7.9-0.4,11.7-0.9c0.7-1.1,1.2-2.1,2.3-2.8c7.7-5.1,16-7.7,24-11.4c-1.6-0.4-3.2-1.1-4.8-1.1c-2.9,2-5.8-0.2-8.7-1
	c-21.8-7.2-43.7-15.4-66-21c-2.9-1.1-4.7,1.1-7.4,0c-11.4-3.5-22.8-7-34.2-10.5c-0.3-0.7-0.6-1.4-1-2.1c-7.2-2.1-14.4-4-21.5-6.4
	c-15.2-4.5-30.3-8.9-45.5-13.3c-2.9,2.4-5.9,4.6-8.6,7.2c-1,2.5-0.6,5.2-2.4,7.6c-2.4,3.9-6.7,5.4-9.3,8.8c31,9.8,62,19.6,93,29.5
	c-0.1,7,0.1,14-0.1,21c-40.3,22.8-80.5,45.8-120.8,68.7c-43.8-17.6-87.5-35.5-131.3-53c-0.3-6.1,0-12.2-0.2-18.3
	c27.5-13.1,55-26.3,82.6-39.2c-2.4-2.2-4.5-4-4.8-7.5c-0.7-6.3,3.8-12.9,6.9-18.2c1.3-2.4,3.6-3.1,6.2-3.7
	c3.4-5.6,8.1-10.8,13.6-14.4c1.4-3.3,3.2-6.2,5.4-9c-64.5-18.9-129-37.9-193.6-56.4c0.1-1.4,0.2-2.8,0.3-4.2
	c2.4,0.6,4.8,1.1,7.1,1.8c60.7,17.5,121.3,35.3,182,53c3.7,1,6.9,2.4,10.8,2.6c-3.4,2-6.5,4.2-8.4,7.8c-4.5,8.3-3.7,17.9-5.5,26.6
	c-0.3,1.9-1.5,4.4-0.1,6.1c2.3,2.7,5.5,4.5,7.8,7.3c2.8,3.2,3.2,7.8,5.9,11.1c0.9,1.1,1.9,1.8,3.4,1.1c4.6-2.5,6.7-7.4,4.9-12.5
	c-1.4-5.3-6.3-8.4-6.9-13.7c-0.5-4.9,2-9.2,6-11.9c0.3-8.3,0.4-16.5,0.5-24.8c-10.6-0.6-22.6-2.6-31.8-8.3c-6.3-3.8-6.6-13-2.5-18.5
	c4.8-6.9,14.2-9.9,22-11.4c2.2-0.4,3.8-1.8,6-2.1c10.5-1.4,21.4-1.5,32-0.7c1.3,0.2,3.1,0.1,4.2,0.9c0.4,0.9,0.8,1.9,1.1,2.9
	c9.1,2.4,19,6.6,22.2,16.4c3.6-2.4,6.5-4.9,8.9-8.5c16.4-21.2,33.9-41.5,50.7-62.3c4.2-5.5,10-9.6,15.8-13.2
	c10.2-6.4,21.3-11.7,32.4-16.3c0.7-2.1,0.7-3.1,3.1-3.8c-0.2-1.2-0.4-2.4-0.6-3.6c-8.6-0.8-16-4.4-23.3-8.9
	c-10.6-6.7-19.9-15.2-28.5-24.4c-11.1-12-20.9-25-28.4-39.6c-10-19.1-18.4-38.9-26.3-58.9c-2.9-0.6-5.6-1-8.1-2.6
	c-5.4-3.2-8.5-9.6-7.1-15.8c1.5-7.7,9.1-13,16.9-12.3c5.7,0.3,10.1,3.4,13.3,7.9c10.4,1.6,22.5,2,32.3-2.4
	c-13.2-5.2-24.6-13.8-31.8-26.1c-0.8-1.8,1.3-3.5,2.9-2.5c9.1,4.6,18.8,7.3,29.1,6.1c-23.1-13.8-40.9-35.8-49-61.5
	c-0.6-2.9,3-3.6,4.2-1.1c9,13.2,22.4,25.2,38.9,27.1c-15.9-16.9-26.5-38.7-28.2-62c-1.6-21.2,4.4-42.1,14.7-60.5
	c0.8-2,3.4-2.4,4.1-0.2c-0.1,2.6-1.3,5-0.9,7.7c0.8,10,4.2,19.9,8.3,29c4.8,10.4,11.9,21.7,21.9,27.8c-5.5-9-7.5-19.3-7.5-29.8
	c0.1-19.9,7.8-39.7,21-54.6c9.3-10.6,21.1-18.6,34.1-23.9c1.4-0.5,3.2-1.6,4.5-0.5c1,1.3,0.8,2.5-0.6,3.5
	c-4.6,4.2-6.3,10.6-7.5,16.5c-2.4,13.1-2.3,26.8-1.3,40c0.4,3.7,0.4,7.9,1.8,11.4c1.4-18.5,7.3-37.4,18.6-52.4
	c11.5-15.4,27.6-26.3,45-34c21.3-9.4,44.9-14.6,67.9-17.5c1.8-0.3,2.9,0.6,2.8,2.4c-0.4,1.6-1.4,1.5-2.8,1.9
	c-10.1,1.8-19.2,8.9-26.1,16.1c-10.9,11.4-19.1,25.6-24.6,40.3c-5.3,14.6-8.3,30.1-5.9,45.6c6-9.9,15.7-17.8,26.4-22.1
	c6.3-2.4,13.7-3.4,20.1-0.8c1.7,0.7,2.2,2.5,0.7,3.7c-7,6.1-10.1,15.5-11.6,24.4c-1.3,8.7-1.3,18.6,2.2,26.8c0.6,2.6,4.3,1.6,6.4,2
	c4.9-29.7,15.7-58.1,34.1-82.1C792.9,61.5,817.1,43.4,844,30c26.1-12.9,54.9-21.4,83.5-26.8C967.3-2.5,1008.5-0.5,1046.9,12.2z"/>
<path class="st1" d="M735.9,34.5c-4.7,3.4-9.1,7.1-13,11.4c-13.4,14.6-22.9,32.9-28.1,51.9c-3.8,14.3-5.3,31.2-0.2,45.4
	c0.4,1.9,3.2,2.2,4,0.5c0.3-2.4,0.2-4.6,1.3-6.8c3.3-6.7,9.4-12.3,15.6-16.5c6.7-4.3,14.5-7.7,22.6-6.5c-6.4,7.8-9.4,17.2-10.6,27.1
	c-1,9.7-0.6,19.2,3.6,28.1c-6,2.3-11.5,5.2-15.7,10.2c-4.7,5.5-6.6,12.4-6.9,19.6c1.2-5.1,2.2-9.9,5.3-14.2
	c5.8-8.6,16.3-12.2,26.3-12.7c12.7,0.2,25.7-2.3,37.3-7.6c9.9-4.6,18.6-11.6,23.5-21.5c4.4-8.7,5.1-18.1,4-27.7
	c4.2,6.2,6.5,13.8,8.3,20.9c4.3,17.5,5.2,36.5,1,54.1c-2.8,11.5-8.2,22-17,29.9c-11.4-0.7-22.2-4.4-28-14.9
	c2.3,6.8,7.9,11.6,14.2,14.7c7.9,3.9,17,4.4,25.7,5.3c13.2,0.1,26.9-6.9,37.1-15.1c0.1,11.1-2.3,23.2-8.5,32.6
	c-4.4,6.8-11.1,11.8-19.1,13.5c-3.8,1-7.6,0.7-11.4,0.9c-1.5,0.4-2.1,1.9-1.3,3.2c9.6,14.8,25.4,23.8,42.3,27.6
	c12.9,2.8,27.2,3.4,40-0.4c-2.8,12.5-9.8,23.8-19.5,32c-13.3,11.3-31.1,17.5-48.4,18.4c-6.2,0.4-12-0.5-18.1-1.4
	c-1.1,0.8-1.6,1.6-1.3,2.6c0.6,4.6,3.9,8.3,7.3,11.1c5.9,4.8,13.2,8.1,20.2,10.8c10.2,3.7,21.1,6.4,32,6.8
	c-7,8.5-18.2,13.9-29.1,15.1c-15.3,1.8-31.1-4-41.9-14.9c-1.3-1.4-2.6-2.9-4.1-4.1c-2.6-0.9-3.4,2.3-4.2,4
	c-3.6,9.5,0.4,20.4,6.1,28.2c4,5.9,9.4,10,15.4,13.8c-9.1,2.1-18.6,2-27.3-1.8c-6.2-2.8-11.3-7.6-14.2-13.8c-1.5-2.9-1.9-6-3-9
	c-1.6-1.6-3.8-0.4-3.8,1.7c-0.2,17.8,10.9,32.7,24.8,42.6c-3.6,1.7-7.4,2.8-11.2,3.8c-12.9,3.3-26.8,4.3-39.6-0.1
	c-8.5-2.9-15.7-8.2-21.4-15.2c9.4-9.3,17-20.3,21.9-32.6c6.7-16.5,8.5-34.1,7-51.7c8.9-0.1,17.8-0.6,26.6-1.8
	c10.2-1.5,21.8-4.3,29.6-11.4c7-6.4,9.7-15.4,10.3-24.5c0.4-5.2-2.3-10.3-6.4-13.4c-4.6-3.4-10.8-4.8-16.4-5.2
	c-7.6-0.5-15.5-0.1-22.9,1.7c-3.9,7.9-7.8,15.7-13.4,22.6c-4.2,5.2-9,9.6-15.7,11.1c5.4-5,6.3-11.5,6.9-18.5
	c0.5-8.1,0.1-16.2-1.2-24.2c-3.4,8.7-7.7,18-15.7,23.5c2.8-4,4.4-7.9,4.9-12.8c1.8-15.1-3.8-30.2-13.2-41.9c0.8,0.4,1.5,0.7,2.2,1.1
	c0.6-0.7,1.3-1.5,1.9-2.2c-1.5-2.1-3.6-3.8-5.4-5.5c-4.6-4.2-10.3-8.4-16.5-9.7c-5.1-1.1-9.8-5.3-15-6.2
	c-12.3,2.2-22.5,10.8-30.6,19.9c-1.8,2.2-4.8,1.8-7.3,2.1c0.4,1.6,0.9,3.2,1.3,4.8c-15.2,18.8-27.8,37.7-46.6,53.5
	c-9.1,7.6-19.8,13.3-31.8,14.4c-11,1-21.8-2.5-30.7-8.9c2.1-4.6,2.2-8,0.9-12.9c4.9,0.5,9.8,0.8,14.8,0.3
	c12.4-0.9,24.3-5.8,34.2-13.4c11.3-8.6,20.4-20,28.5-31.6c1.4-2.4,5.2-1.7,7-3.9c3.2-3,3.2-6.4,3.4-10.6c1.8-2.7,4.4-4.9,6.6-7.2
	c-2.7,1.4-5.1,3.3-7.5,5.2c-1.9-4.1-4.5-7.8-6.7-11.7c-3.7-7.4-12.2-12.5-20.5-12.1c-3.6,0.2-6,2.1-8.9,4c2.1,0.5,5,0.3,6.5,2.1
	c3.7,3.8,4.1,9.6,4.7,14.6c0.8,7.2,5,13.9,11.6,17.1c-0.4,0.6-0.7,1.3-1.1,1.9c-4.5-1.6-8.8-3.1-13.8-2.5
	c-7.7,0.8-14.8,6.8-16.2,14.5c-1.4,7.4,0.7,13.9,3.2,20.7c-2.7,2-5.4,3.9-8.1,5.8c-11.2-2.9-21.9-9.4-29.1-18.5
	c9.7,3,19.5,4.7,29.4,1.4c2.1-0.6,2.7-3,0.7-4.1c-9.1-4.5-17.3-10.5-24.5-17.5c-8.7-8.5-16.4-18.6-21.4-29.7
	c10.2,10.1,23.3,17.9,38.1,17.6c2.6,0,3.7-2.4,1.5-4.1c-18.7-17.9-31-43.3-30.8-69.4c0.1-14.4,3.5-29.2,10-42.1
	c2.7,15.5,8.8,30.6,18,43.4c5.8,7.8,13.4,14.9,23.2,16.8c1.7,0.7,4.1-1.3,2.9-2.9c-1.7-2-3.9-3.4-5.5-5.6
	c-5.3-7.2-7.4-16.8-7.8-25.5c-0.5-15.7,4.1-31.6,12.5-44.9c8.3-13,20.4-23.5,34.4-30.1c-3,6.7-4.2,13.7-5,21
	c-1.2,12.3-0.9,24.8,0.3,37.1c0.7,5.9,1.4,12.1,3.4,17.8c0.5,1.2,1.1,2.8,2.7,2.8c2.1,0.1,2-2.1,2.3-3.6c1.2-10.6,2.2-20.8,5.1-31.2
	c2.8-10.1,7.2-19.7,13.3-28.2c9-12.5,21.2-22,34.8-29.2C695.4,43.9,716,38.2,735.9,34.5z"/>
<path class="st1" d="M1044.5,61.3c32.1,8.3,62.1,26.3,84,51.2c20.1,23.4,33.4,53,39.8,83c4.7,22.1,6.1,46.5,0,68.5
	c-4.6,18-11.2,35.4-21.5,50.9c-13,19.5-31.9,34.8-52.9,44.9c4-5.7,8.1-11.3,11.5-17.3c11-18.7,18-39.6,18.1-61.4
	c0.2-20.4-5.9-40.5-17-57.5c-14.3-22-36.4-38.9-61.4-46.8c-15.1-4.8-31.7-6.1-47.2-2.8c-16.2,3.4-30.7,12.1-42.6,23.5
	c-17.9,17-29.9,40.3-36.9,63.8c-10.5,35.7-11.4,74.2-3,110.4c6.1,26,17.7,51.5,35.3,71.8c15.7,17.9,29.7,37.8,38.9,59.9
	c6.4,15.2,10.3,31.4,11.9,47.8c2,20.9,0.7,42.2-1.5,63c-0.7,6.1-1.1,12-2.5,18c-3,14.2-9.7,27.4-19,38.5
	c-15.3,18.4-37.1,31.6-59.3,39.8c-2.7,1.3-5.5-0.3-8.2-1c-39.6-11.7-79.1-23.3-118.8-34.9c7.1-3.7,10.8-10.6,11.5-18.5
	c1.2-14-3.5-28.7-9.7-41.1c-8.6-15.9-18.2-31.3-27.2-46.9c14.2-4.1,27.7-9.8,39.8-18.4c11.9-8.4,21.9-19.5,28.5-32.5
	c8.9-17.2,12.2-36.9,12.4-56.1c0.3-25-4.4-50.7-10.5-74.8c9.7-2.3,18.6-7.3,25.5-14.6c1.8-2,4-4.1,5-6.6c-0.1-0.9-0.6-1.6-1.6-2.1
	c-12.5,1.5-25.8-2.2-37.5-6.5c-1.5-4.9-3-9.7-4.3-14.6c17.9-1.7,36.2-8.8,49.4-21.2C884,311,890.8,298,893.1,284
	c0.5-1.8-0.7-2.4-1.9-3.4c-3.4,2.5-7.2,3.6-11.3,4.2c-10,1.5-20.5,1-30.4-1.2c-14.5-3.2-28.5-10.4-37.7-22.3
	c5.2-0.4,10.2-1.3,15-3.6c8.7-4.1,14.9-11.8,18.5-20.6c3.9-9.4,5.6-20.1,4.8-30.2c-0.2-2.3-1.1-5-4-3.9c-2.9,3.8-6,6.4-10.1,8.8
	c-8.4,5-18.6,9.3-28.5,8.8c0.1-1.9,0.1-3.9,0.4-5.8c1.3-2.9,3.5-5.4,4.8-8.4c7.4-14.6,9.3-32.4,8.2-48.6c0-0.7,0-1.3,0.2-1.9
	c8.6-21,22.2-39.8,39.9-54.2C886,81.8,916.6,68,947.9,60.8C979.4,53.5,1013.2,53,1044.5,61.3z"/>
<path class="st1" d="M591.1,207.5c7.1-0.1,14.5,4.2,17.6,10.6c2.2,4.2,5.7,8.4,6.9,13c0.9,3.7-1.4,8.5-5.6,8.6
	c-4.7,0.2-9-3.9-11.1-7.7c-3.8-6.3-1.7-13.2-5.2-19.8C592.9,210.6,591.7,209.2,591.1,207.5z"/>
<path class="st1" d="M687,225.5c6.8,0.1,13.3,4.9,18.1,9.3c-3.5,0.4-6.8,1-10,2.4c-11.7,4.8-22.4,13.6-33.6,19.3
	c-3.2,1.7-6.7,1.9-9.8-0.2c-4.8-3.2-7.5-9.5-9.4-14.8c10.4-2.7,20.4-6.8,30.1-11.1C677.3,228.4,681.5,225.3,687,225.5z"/>
<path class="st1" d="M590,245.7c4-0.1,7.1,0.4,10.8,1.9c-1.9,2.1-3.9,4.1-5.8,6.1c-1.1-1.8-2.3-3.5-3.5-5.2
	C591,247.6,590.5,246.6,590,245.7z"/>
<path class="st1" d="M585.6,247.2c2,3.2,4.4,6.4,6.2,9.7c-0.5,0.7-1.1,1.3-1.6,2c-2-1.4-3.6-2.8-6.2-2.5c-3.6,0.2-6.7,3.5-5.9,7.1
	c0.4,2.2,1.9,3.2,3.4,4.7c-0.8,0.6-1.5,1.2-2.2,1.9c-1.2-5-2.4-9.6-0.8-14.7C579.5,251.7,582.2,249.1,585.6,247.2z"/>
<path class="st1" d="M669.1,256.1c1.9,0.5,3.9,1.2,5.6,2.3c0.9,1.2-1.1,1.7-1.8,2.2c-9.2,4.7-18.1,10-27.4,14.4
	c0.2-6.2,2-10.5,6.4-14.8c2,0.4,4.1,1.1,6.2,0.8C662.1,260.5,665.5,258,669.1,256.1z"/>
<path class="st1" d="M679.1,262.1c4.7,5.8,5.9,13.6,2.3,20.3c-4.5,8.7-15.5,12.4-24.4,8.5c-5.1-2.1-8.6-6.2-10.7-11.3
	c3.5-1.9,7-3.7,10.5-5.6c-1.8,2.2-3.1,4-2.5,7c1.1,5.5,8.4,7.4,12.4,3.7c3.1-2.6,3-7.8-0.2-10.3c-2.2-2-4.7-1.7-7.5-1.8
	C665.9,269.5,672.4,265.6,679.1,262.1z"/>
<path class="st1" d="M662.3,275.4c2.3-1.2,4.5,1.4,3.6,3.6c-0.5,1.6-2,2.1-3.5,1.6C660.4,279.6,660.4,276.4,662.3,275.4z"/>
<path class="st1" d="M516.1,284.2c3.6-1.4,6.6,2.4,6.3,5.8c-0.1,3.2-3,6.1-6.3,4.9C511.6,293.2,511.6,285.8,516.1,284.2z"/>
<path class="st1" d="M781.8,291.3c5.5,2.2,7.3,10.3,2.9,14.4c-4.1,3.9-10.6,5-16,5.6c-0.7-6.5-1.4-13-2.2-19.5
	C771.4,290.5,776.9,289.3,781.8,291.3z"/>
<path class="st1" d="M670.8,340.3c2.2,2.7,2.7,6.1,2.3,9.5c-0.5-3.3-0.8-6.2-3.1-8.8c-3.9-4.5-9.4-5.6-15-6.6
	C660.6,334,667.1,335.7,670.8,340.3z"/>
<path class="st1" d="M662.7,345.1c-3.6,11.3-12.2,20.1-23.3,24.4c-11.8,4.7-25.6,4.7-37.7,1.3l-0.9-0.9c15.1,0.7,31.5-0.2,44.9-8.1
	C652.9,357.7,658,351.7,662.7,345.1z"/>
<path class="st1" d="M762,404c7.2,7,15,10.5,24.9,11.4c3.2,8.1,6.2,16.3,8.8,24.6c2.5,7.5,1.8,16.3,0.7,24
	c-2.1,12.7-7.2,25.8-15.7,35.7c-5.3,6.1-12.4,11.3-20.7,12c-7,0.7-13.3-1.8-19.2-5.4c-4.3-2.7-8.7-4.3-13.8-4.6
	c-2.5-3.9-4.7-7.8-7.1-11.7c-2.3-3.6-3.3-7.5-6.2-10.8c-5.8-7.1-11.3-15-18.4-20.8c-0.2-5.5,0.1-11.1-0.1-16.6
	c-1.4-3.8-4.4-0.2-6.1,1.2c0.1-4.1,0.2-8.1,0.5-12.2c4.9-2.8,9.5-6.1,13.7-9.8c2.9,3.1,5.7,6.2,9.1,8.7c8.8,6.8,19.6,10.1,30.7,10.6
	c13.5,0.6,27.4-2.5,39.8-7.7c1.1-0.6,2.9-1,2.7-2.6c0.1-1.5-1.7-2-2.6-2.9C774.2,421.4,766.4,413.4,762,404z"/>
<path class="st0" d="M490.2,440.9c1.7,2.1-0.8,4.7-3,3c-5.9-3.6-12.2-5.9-19.2-5.1c-5.1,0.5-9.7,2.6-13.8,5.6
	c-1.8,1.5-4.2-0.3-3.4-2.4c2.3-2.7,6.1-4.4,9.4-5.7C470.2,432.5,481.6,434.6,490.2,440.9z"/>
<path class="st0" d="M490.3,447c1.3,2.1-1,4.3-3.1,2.9c-5-2.8-10.3-4.8-16.2-4.9c-6.1-0.1-11.9,2-17,5.4c-2.1,1.8-4.8-1.2-2.8-3.1
	C462.2,438.4,479.1,438.7,490.3,447z"/>
<path class="st0" d="M490.3,453c1,2.8-1.6,4-3.8,2.5c-8.6-4.8-18.9-5.7-28-1.7c-1.9,0.8-3.6,2-5.5,2.9c-2.6,0.6-3.6-2.8-1.4-4
	C462.9,445,479.2,445.1,490.3,453z"/>
<path class="st1" d="M690.9,447.3l0.2-0.1c-0.1,5.2,0.3,10.6-0.2,15.8c-3.5,5.7-7.3,11.4-11.1,16.8c-9.8,5-21.3,7.9-32.4,7.4
	c-0.1-3.8-0.7-7.1-2.7-10.4c4.5-1.8,9.5-3.6,14.4-3.4c2.8,0.1,4.3,2.3,7.2,0.9c0.1-4.7,1.7-9.1,3.6-13.4c0.5-1.1,2.1-1.5,3.1-2.1
	C679.5,455.8,685.1,451.6,690.9,447.3z"/>
<path class="st1" d="M623.3,451.9c1.2,0.3,1.9,1.2,2.7,2.1c2.8,3.4,4.7,7.1,6.8,11c-3.4-0.5-6.9-0.8-10.4-1.1
	C622.3,459.9,622.4,455.9,623.3,451.9z"/>
<path class="st0" d="M489.6,458.4c1.9,1.9,0.3,3.1-1.5,4c-9.4-5.5-21-6.4-31-1.9c-1.7,0.7-3.4,2-5.3,2.2c-1.9-1-2.2-2.9-0.4-4.1
	C462.8,451.6,478.3,451.5,489.6,458.4z"/>
<path class="st1" d="M618.1,454.3c-0.3,8.8-1.7,17.5-2.7,26.2c-2.5,3.7-6.2,7.1-9.2,10.4c-3.7-3.1-7.3-6.4-11.1-9.4
	c1.1-4.9,3.2-9.6,5.5-14.1C603.8,460.8,611.4,456.9,618.1,454.3z"/>
<path class="st0" d="M489.1,463.9c1.5,0.9,1.7,2.3,0.5,3.7c-1.7,0.8-2.9-0.2-4.5-0.7c-4.4-2-9.3-2.9-14.1-3c-6.4,0-12.3,1.7-18,4.4
	c-2.4,1.1-4-2.6-1.6-3.8C462.8,458.2,477.5,458,489.1,463.9z"/>
<path class="st1" d="M665,461.1c-0.9,2.8-1.8,5.5-2.6,8.3c-4.6-0.7-8.9-0.1-13.3,1.1C653.4,465.9,658.9,463,665,461.1z"/>
<path class="st1" d="M599.8,462.3c-4,6.2-6.4,12.9-8.6,19.9c3.9,4.1,8.5,7.6,12.8,11.2c-8.4,9.9-17.7,19.2-25.6,29.4
	c3.9,31.4,9.2,62.6,13.5,93.9c-8.9-2.6-17.8-5.1-26.8-7.7c0-17,0.1-34.1,0-51.1c0.2-1.5-1.7-2.1-2.5-1.2
	c-7.9,7.2-16.1,15.4-25.3,20.9c0.7-3.2,1.2-6.3,0.4-9.6c-1.1-5.5-4.7-9.9-9.8-12.2c2.7,5.3,5.6,10,6,16.2c0,3.1,0.8,7.7-1.5,10.2
	c0.2-3.2,0.7-6.1-0.4-9.2c-1.5-4.8-5.4-8-10-9.6c1.9,3.8,4.6,6.5,5.7,10.7c1.2,3.9,0.8,7.8,0.2,11.7c-2.1,0.4-4.1,0.8-5.9,1.9
	c-6.1,3.5-11.7,8.4-17.2,12.8c-1.8-7.6-5.8-16.5-12.6-20.8c-5.8-2.6-11.6-5.1-16.8-8.8c10-0.5,19.5-2.1,28.1-7.6
	c3.6-2.5,7.2-5.1,8.5-9.5c3.1-2.3,6.2-4.2,8.7-7.2c17.3-22.4,35.9-44.1,53.8-66.2C580.9,472.6,591,467.2,599.8,462.3z"/>
<path class="st1" d="M696.5,465.2c6.2,6.7,11.8,13.9,16.7,21.6c1.2,1.6,0.7,3.2,0.6,5.1c-0.8,6.2-2,12.3-3.2,18.5
	c-6,1.1-12,2.1-18,3.4c-2.8-4.1-5.4-8.4-8-12.6c2.6-4.3,5.2-8.8,7.5-13.3C695.6,481,696.1,472.9,696.5,465.2z"/>
<path class="st0" d="M487.8,469.3c1.4,0.4,1.9,1.4,2.7,2.4c6.5,1,13.9,1.9,19.9,4.9c2.1,1.2,4.6,2.8,3.6,5.6
	c-2.8,2.1-3.7-1.1-6.1-2.1c-5.7-2.5-12.3-3.4-18.5-4.2c-13-1.2-26.5-1.6-39.5,0.4c-6,1-12.5,2.4-17.2,6.5c-2,2-4.8-0.9-3-2.9
	c5.3-5.4,13.3-6.2,19.9-8.1c3.3-2.8,7.3-3.8,11.4-4.8C470,465,479.4,465.8,487.8,469.3z"/>
<path class="st1" d="M621.5,468.5c5.2-0.4,12.6,0,15.3,5.4c-3.6,1.9-5.1,5-6.4,8.7c-3.3-2-6.5-4.1-9.4-6.7
	C621.2,473.5,621.2,471,621.5,468.5z"/>
<path class="st1" d="M691.5,473.9c-0.7,5.8-2.2,10.5-5.2,15.6c-10.8,19.1-23.2,37-32.9,57c-3.1,6.6-5.5,13.6-7.6,20.6
	c-5.9,19.6-10.2,39.6-13.7,59.7c-6-0.9-12-2.2-18.1-3.1c-0.6-10.2-0.5-20.4-0.3-30.6c0.2-3.4-0.1-7.6,1.7-10.6
	c4.2-7.7,8.8-15.2,13.4-22.7c11.5-18.6,23.3-37.1,36-55c4-5.4,7.7-10.9,12.7-15.3C682.8,484.8,687,479.3,691.5,473.9z"/>
<path class="st0" d="M470,476.5c9.8,0.1,19.4,0.4,29,2.3c3.5,0.7,7.3,1.8,10.4,3.8c1.7,1.1,3.4,3.1,3.3,5.2c0,1.6-1.9,2.7-3.2,1.7
	c-1.1-1.4-1.6-3-3.2-3.8c-4.2-2.3-9.5-3-14.2-3.7c-11.4-1.3-22.8-1.4-34.2-0.9c0.7,0.6,1.4,1.1,2,1.7c11.6-1.3,23.6-1.1,35.1,1.1
	c4,0.8,8.5,1.8,11.8,4.2c1.9,1.3,2.9,3.6,1.9,5.8c-1,2.2-3.8,2.9-6,3.4c-4.5,0.7-9.7,0.9-14.3,0.5l-0.1-1.9c-1.5-0.1-3-0.3-4.5-0.8
	c-10.1-3.5-21.4-3.2-31.2,1l-0.3,2.6c11.4-3.5,24.2-3.6,35.5,0.4c2.8,1.3,1.2,5.5-1.8,4.5c-11.2-3.5-23.1-3.6-34.2,0.6
	c-2.5,0.9-3-1-3.7-2.8c-4.2,0.1-10.5,0.4-13.9-2.8c-3-3.3-1.5-7.9,2.1-10c6.6-3.9,15-5.2,22.5-5.6c-0.6-0.6-1.3-1.2-2-1.7
	c-7.4,1.2-14.5,2-21,5.9c-1.9,1.1-3.2,3.1-5.1,3.9c-2.1-0.1-3-2.1-1.7-3.7c2.7-3.3,7.1-5.5,11.1-6.9
	C449.7,477.2,460.2,476.5,470,476.5z"/>
<path class="st1" d="M620.5,480.9c3.1,2.3,6.9,4.1,9.9,6.4c0.7,2.9,1.5,5.4,3.2,7.8c-4.9,9.2-9.9,18.5-14.9,27.7
	c0-7.9-0.1-15.9-0.2-23.8C618.2,492.9,620,487.1,620.5,480.9z"/>
<path class="st1" d="M482.9,487.2c2.1,0.9,4.3,1.4,5.3,3.7c-8.2-2.5-16.5-4.1-25.2-2.8c-4,0.3-7.7,2.1-11.7,2.5
	c0.8-2.7,2.9-2.4,5.2-3.2C465,485,474.5,484.2,482.9,487.2z"/>
<path class="st1" d="M614.9,486.2c-0.3,2.9-0.8,5.8-1.4,8.7c-6,33.7-12,67.3-17.9,101c-0.6,3.3-1.1,6.7-2,10
	c-3.8-27.4-8.2-54.7-11.9-82.2C592.3,510.9,603.9,498.8,614.9,486.2z"/>
<path class="st1" d="M669.1,492c-8.1,9.9-14.7,20.8-22.2,31c-1.2-9-2.3-18.1-3.5-27.2c0.8-1.1,1.7-2.2,2.5-3.3
	C653.7,493.9,661.3,493.6,669.1,492z"/>
<path class="st1" d="M716.9,493.4l0.1,0.1l0.1,0.2c18.5,30.6,36.9,61.3,55.1,92c5.4,9.2,10.9,18.5,16.2,27.8
	c4.9,8.6,8.4,18.2,10.3,27.9c1.1,6.1,1.6,13-0.2,19c-1.3,4.5-4.2,8.3-8.6,10.1c-5.4,2.3-11.2,3.9-16.8,5.5
	c-23.1,6.4-46.6,11.7-70,16.9c-1.2-2.7-0.6-5.3-1.2-8.1c-0.7-3.7-2.3-7.2-4.6-10.2c-3-4-7.3-6.5-10.4-10.4
	c15.7-7.5,31.9-12.6,48.3-18.1c1.6-0.6,3.5-1.1,4.6-2.6c1.7-2.3,2.2-4.8,5.1-6.1c6.8-4.5,16.2-2.1,23.4,0
	c-4.9-6.9-14.4-8.5-21.9-5.1c0.7-1.3,1.3-2.7,2.1-3.9c3.6-1.8,8.6-3,12.6-3.1c5-0.2,9.4,1.3,14.2,2.5c-3.7-5.1-10.1-7.4-16.2-6.7
	c-3.5,0.3-6.1,1.9-9,3.5c4.2-6.5,10.3-10,17-13.3c-9.2-1.6-18.5,4.3-20.5,13.5c-0.4,1.9-1.3,0.3-1.9-0.4c-9.9-13.5-20-26.9-30-40.3
	c1.2-6.8,4.6-12.6,9.2-17.6c0-0.3-0.1-0.7-0.1-1c-4.8,2-8.9,5.1-11,10c-1.9,3.8-1.1,7.4-2.1,11.4c-5.4,20.2-10.7,40.5-16.1,60.8
	c-18.8-6.3-37.6-12.7-56.4-18.9c19.9-23.1,38.7-47.2,57.6-71.2c2.6-3.5,5.6-6.8,7.8-10.5c0.1-1.9-1-3.9-1.6-5.6
	c-3.6-8.1-7.2-16.2-11.3-24.1c7.6-1.2,15.3-2.5,22.7-4.2C715,506.8,715.7,500,716.9,493.4z"/>
<path class="st0" d="M487.5,506.7c3.1,1.1,1.8,5.6-1.5,4.7c-9.5-2.4-19.4-2.9-29-0.7c-2.2,0.4-4.7,1.7-7,1.5c-2.2-1-2-4,0.3-4.7
	C462.1,503.4,475.5,503.5,487.5,506.7z"/>
<path class="st1" d="M682.9,509.1c5.6,12,11.7,23.9,16.7,36.1c0.7,1.4-0.5,2.3-1.2,3.3c-17.1,22.1-34.5,44-52.3,65.6
	c-2.9,3.4-5.7,7.1-8.9,10.2c4-25.9,10.7-51.9,21-76.1c5.7-14.2,14.5-27.4,22.5-40.5C681.7,505.2,682.3,508.2,682.9,509.1z"/>
<path class="st0" d="M485,514c1.5,0.4,3.5,0.3,4,2c0.8,1.9-1.1,3.8-3,3.2c-9.3-1.7-18.7-2.2-28-0.7c-1.8,0.3-3.6,0.8-5.5,1.1
	c-1.3,0.2-3,0.7-3.7-0.7c-1.2-1.9,0.2-3.6,2.2-4C461.9,512.1,473.9,512.1,485,514z"/>
<path class="st1" d="M612.5,520.6L612.5,520.6l0,0.3c0.1,17.7,0.6,35.5,1.2,53.2c0.5,4.4-3.8,7.4-3.9,12c-0.9,12.3-0.5,24.7-0.2,37
	c-4.9-1.4-9.8-2.8-14.6-4.6c5.2-30.5,10.8-61,16.1-91.4c0.4-2.1,0.8-4.2,1.3-6.3L612.5,520.6z"/>
<path class="st0" d="M462,521.3c8.2-0.5,16.7-0.4,24.8,1c2.8,0.3,3,4.2,0.2,4.9c-10-1.2-20-1.8-30.1-0.3c-2.3,0.3-4.6,0.9-6.9,1
	c-2.1-0.7-2.5-3.1-0.8-4.5C453.3,522,457.8,521.7,462,521.3z"/>
<path class="st1" d="M456,534.6c11.4-0.7,23.8-0.5,34.9,2.8c5,1.5,10.4,3.9,14.1,7.7c2.2,2.4,4.1,5.6,3.4,9
	c-1.4,2.7-4.3,4.8-6.8,6.5c-8.7,5.6-19.5,7.2-29.7,6.9c0-2.8,0-5.5,0-8.2c1.9,0.3,4,0.4,5.8,1.1c1,0.9,1.5,2.4,2.1,3.5
	c1.1-1.2,2.8-2,2.4-3.9c-1.2-2.8-5.6-3.3-8.3-3.8c-5.9-0.7-13-1.3-18.6,1.1c-2.9,1.5-3.5,3.5-3.3,6.6c1-0.3,1.9-0.7,2.9-1.1
	c0.6-1,1.2-2,1.9-2.9c0.4,2.5,0.6,5,0.6,7.6c-10-0.7-22-2.6-30.4-8.6c-4.5-4.6-2.6-11.9,2-15.8C436.1,537.1,447.1,535.4,456,534.6z"
	/>
<path class="st0" d="M485.5,547.8c3.4,0.5,7.2,0.8,10.3,2.4c2,1.2,1.7,2.3,1.5,4.4c-2.6-1.5-5.3-2.6-8.3-3c-9.6-1.5-19.4-1.5-29-1.2
	c-5.3,0.3-10.8,0.3-15.6,2.7c-0.4,1.6-0.7,4.5-3.1,3.6c-1-2-0.9-4.1,0.7-5.7c2.3-2.1,6.1-2.8,9.1-3.2
	C462.6,546.5,474,546.8,485.5,547.8z"/>
<path class="st1" d="M561.9,561.8c0,15-0.1,29.9,0,44.9c-14.5-4.1-28.9-8.3-43.3-12.7c2-1.7,3.9-3.1,6.3-4.1c2.1-0.7,4.4-0.5,6-2
	c3.1-2.7,5.1-6,8.8-8.2C547.9,575,554.8,568,561.9,561.8z"/>
<path class="st1" d="M469.7,570.5c6.3,0.4,11.4,6,17.2,8.5c3,1.3,5.6,2.8,7.6,5.4c4.4,5.7,7.2,13.3,7.2,20.5c0.1,3.8-2.1,6.5-5,8.7
	c-5.3,4-10.7,6.8-14.7,12.3c-3.8,4.9-4.8,11.7-8.6,16.3c-1.7,1.7-5.2-0.8-6.7-2c-4-3.7-2.9-10.9-0.5-15.3c1.8-3.8,5.3-4.9,7.9-8.1
	c3.5-4.1,4.6-9.9,2.8-14.9c-1.4-3.3-4.4-4.6-7.4-6C469.4,587.6,469.7,579,469.7,570.5z"/>
<path class="st1" d="M438.1,587c-1.9,8.3-2.8,16.7-4.9,25c-0.1,4.6,4.4,6.8,7.3,9.5c3.9,3.2,4.3,7.4,7,11.8c-2,2.2-3.4,3.3-6.3,4
	c-2.8-3.6-6.5-5.6-9.7-8.8c-3.8-3.7-7-8.1-7.5-13.6c-0.4-4.4,2.1-8.5,3.6-12.5c1.8-4.7,4.7-8.3,7.7-12.2
	C436.2,589.2,437.1,588.1,438.1,587z"/>
<path class="st1" d="M714.4,591.2c9.5,12.7,18.9,25.4,28.4,38.1c-0.3,1.5-0.6,3.1-0.8,4.7c-2.7,2-4.1,4.5-5.9,7.2
	c-8.6,3.3-17.5,5.9-26.2,9.1c-3.7-1.1-7.3-2.2-11-3.2c4.3-16.7,8.8-33.3,13.2-49.9C712.8,595,713,592.9,714.4,591.2z"/>
<path class="st1" d="M457.9,597.1c0,4.2-0.2,8.5-0.2,12.7c-1,0.6-2,1.2-3,1.8c-2.7-4.3-2.1-8.1,0.6-12.2
	C456.1,598.6,457,597.9,457.9,597.1z"/>
<path class="st1" d="M469.3,597.7c1.1,0.5,2.2,1.1,3.3,1.7c4.7,3.8,3.7,10.6,0.6,15c-1.4-0.5-2.8-0.9-4.2-1.4
	C469.1,607.8,469.2,602.7,469.3,597.7z"/>
<path class="st1" d="M424.9,601.2c-2.1,5-4.6,9-3.4,14.7c1.9,7.9,8.9,12.9,14.2,18.4c-6.6-0.8-14.2-3.2-18.8-8.3
	c-2.8-2.9-1.8-8-1.2-11.5c1-4.2,2.2-9.5,5.5-12.5C422.5,601.7,423.7,601.4,424.9,601.2z"/>
<path class="st1" d="M490,623.2c30.1,9.3,60.7,19.3,90.8,28.7c-3.7,2.4-7.5,4.4-11.3,6.7c-34.5,20.1-69.1,40.1-103.6,60.2
	c-42-16.4-83.9-32.9-126-49.1c27-12.8,53.8-25.7,80.8-38.4c3,1.2,6,2.3,9.1,3.4c-23.6,11.2-47.2,22.3-70.7,33.6
	c33.8,13,67.5,26.1,101.2,39.1c2.2,0.8,4.3,1.8,6.6,2.4c2.1-0.5,4-1.9,5.8-2.9c27.5-15.2,55-30.4,82.5-45.5c1-0.6,1.9-1.2,2.8-1.9
	c-25.7-8.4-51.3-16.7-77-25.1C483,630.5,486.1,625.1,490,623.2z"/>
<path class="st0" d="M509.2,632.3c2.2-0.3,4.9-0.7,6.1,1.6c0.2,1.7-0.3,2.7-1.5,3.8c-2.7,2.4-6.8,3.8-10.4,2.9
	c-1.7-0.6-2.2-2-1.7-3.7C503.3,634.4,506.3,633,509.2,632.3z"/>
<path class="st1" d="M513.1,634.2c-0.4,3.7-6.2,4.8-9.2,4.8C504.3,635.1,510,634.2,513.1,634.2z"/>
<path class="st1" d="M457.6,634.2c0,4.6-0.6,9.2-0.3,13.7c1,4.1,2.3,8,3.5,12.1c1.6-5.4,4.6-11.7,3.5-17.3c2.4,1.5,5.8,4,8.8,3.4
	c3.6-0.9,5.4-5.6,6.9-8.6c23.4,7.6,46.8,15.2,70.1,22.8c-1,0.6-1.9,1.3-2.9,1.8c-26.7,14.7-53.4,29.5-80.1,44.2
	c-30.6-11.9-61.3-23.7-92-35.5c-2.5-1-5-1.7-7.2-3.2c21.9-10.3,43.8-20.8,65.6-31.1c1.6-0.8,3-0.1,4.7,0c0.6,0.9,1.1,1.8,1.8,2.6
	c3.9,0.8,6.5-1.2,9.4-3.3C453.3,636.8,454.3,636.7,457.6,634.2z"/>
<path class="st1" d="M583.3,654.4c0,4.9,0,9.9,0,14.8c-38.6,22-77.3,44.2-116,66c0.2-4.5,0.3-9,0.4-13.5c3.7-2.4,7.5-4.4,11.3-6.7
	C513.8,694.8,548.5,674.6,583.3,654.4z"/>
<path class="st1" d="M646.5,665.9c6.7,0.7,13.7,5.7,20.5,5.7c6.3-0.3,12.6-2.5,18.9-3c5.8,2.9,11.2,7.7,13.8,13.8
	c1.6,3.5,1.5,7,2.3,10.7c-5.2,1.4-10,1.4-14.9,3.8c-4.2,2-6.7,5.5-11.2,6.8c-8,2.7-16.5,4.8-24.9,4.9c-3.8,0.2-6.5-1.7-10-2.4
	c-3.7-0.7-7.9-0.9-11.5,0.2c-2.7,3.7-4.7,7.9-9.6,9.1c-3.2,0.3-6.6-0.8-9.8-1.3c5.2-4.3,12.6-7.7,15.6-13.8c1.7-2.9,4.9-5,8.2-5.2
	c4.4-0.4,8.8-0.9,13.1-1.9c-4.9-0.2-10-0.2-14.9,0.1c-4.4,0.6-6.1,4-10,5.6c-6.3,3-13.2,5.7-20.1,6.4c-2,0.3-3.5-0.5-5.2-1.5
	c1.7-1.9,3.4-3.2,5.8-4.3c4.4-2,7.7-5.5,11.7-8.5c4.6-3.3,8.2-8.3,13.7-10.1c5.9-0.8,12.2-0.1,18.1-1.4c-5.6-0.5-11.4-0.9-17-0.9
	c-5.9,0.4-8.7,5.8-14,7.1c-5.8,1.8-11.9,3.6-18,4.3c-3.7,0.3-7.2,0.5-10.1-2.1c4.4-3.8,9.5-5,14.6-7.6c3.5-1.7,6.7-3.9,10-6
	c2.4-1.6,4.8-1.1,7.5-1.6c2.1-0.3,3.8-1.7,6-1.8c8.3-0.6,16.7-0.5,25.1-0.6c-6-1.4-12.1-1.5-18.1-2.9
	C636.7,666.7,641.6,665.7,646.5,665.9z"/>
<path class="st1" d="M337.6,672.1c42.3,16.4,84.6,33,126.9,49.5c-0.2,4.7-0.1,9.4-0.6,14.1c-39-15.9-78-31.6-117-47.4
	c-3.1-1.3-6.3-2.4-9.3-3.9C337.7,680.3,337.6,676.2,337.6,672.1z"/>
</svg>
