<?xml version="1.0" encoding="utf-8"?>
<!-- Generator: Adobe Illustrator 24.1.2, SVG Export Plug-In . SVG Version: 6.00 Build 0)  -->
<svg version="1.1" id="Layer_1" xmlns="http://www.w3.org/2000/svg" xmlns:xlink="http://www.w3.org/1999/xlink" x="0px" y="0px"
	 viewBox="0 0 970 1081" style="enable-background:new 0 0 970 1081;" xml:space="preserve">
<style type="text/css">
	.st0{fill:#060709;}
	.st1{fill:#FFFFFF;}
</style>
<path class="st0" d="M514,0.4c1.1-0.2,2.1,0,3.1,0.4c1.3,1.8,0.8,3.2-1.1,4.1c-20,10.8-36.5,27.6-45.5,48.6
	c-8.9,20.3-11.1,43.6-7.9,65.4c1.4-7.9,4.6-15.3,9.9-21.5c5.2-6.2,12.2-10.7,19.8-13.1c2.3-0.8,4.5-0.9,6.2-2.8
	c29.1-28.2,64.7-49.7,103.8-61c29.9-8.8,61.7-11.9,92.8-10.1C725.2,12,755.2,18,784,27c23.5,7.4,46.5,16.8,68.2,28.6
	c-12.9-0.7-26-2.2-39-2c19.3,6.5,37.8,15.3,55.2,25.9c18.9,11.6,36.8,25.8,51.7,42.3c20.7,22.8,35.5,50.6,41.4,80.9
	c6.4,26,9.5,52.4,7.9,79.2c-1.9,31.7-10.9,63.2-28.8,89.6c-14.1,21-33.7,38-57.2,47.7c-18.8,7.9-39.7,10.6-59.9,8
	c10.9-3.9,20.8-9.5,28.1-18.6c7.2-8.9,10.7-20.3,10.5-31.7c-0.2-14.9-5.9-29.8-14.4-41.9c-7.2-10.2-17.1-19.2-28.7-24.3
	c-10.4-4.6-21.9-5.5-33.1-4.2c-18.1,2.4-35.2,11.3-47.6,24.7c-10.5,11.2-17.4,25.6-19.6,40.8c-2.4,15.3,0,31.5,5,46
	c5.6,16.1,13,31.8,23.7,45.2c11.5,14.3,25.9,26.1,37.8,40.2c20.9,24.1,36.9,52.6,50.8,81.2c23.2,47.6,33,101.8,24,154.2
	c-6,34.8-20.5,67.9-43.7,94.6c-19.8,23-45.8,40.4-74.4,50.6c-39.2,13.2-81.7,22.2-123.2,19.4c-33.2-2.1-65.3-12.5-91.9-32.7
	c-3,0.3-6.1,1.5-9.1,1.5c-3.3-3.9-3.7-9.9-7.6-13.8c-3.5-4.6-7.8-6.8-13.7-6.5c3.9,14.5,7.2,29.3,10.3,44c3.6,17.6,7,35.5,9.2,53.4
	c0.9,8.4,1.1,17,1,25.5c-0.3,3.7,2.7,7.4,4,10.8c6.3,13.6,5.7,28.5,3.9,43c5.5,8.3,12.1,15.5,21.1,20.1c6.8,3.3,14.1,7.2,18.7,13.4
	c2.2,3.1,3.8,7.4,1.4,10.9c-2,2.9-6.4,4.3-9.7,5.2c-13.5,3.5-28.2,3-41.7,0.2c-11.8-2.4-22.8-7.1-30.7-16.5c-3,0.6-6.3-1.4-9.2-2.2
	c-2.7-1.2-6.2-1.7-8.5-3.3c-1.4-3.6-0.1-8.6-2.1-12.1c-1.8-3.6-2.9-7.4-3.8-11.3c-2.3-9.8-3.8-20.1-3.2-30.2
	c0.1-2.8,1.2-5.3,1.9-7.9c0.5-4.9-0.6-10-1.4-14.8c-4.8-25.2-12.7-49.8-17.5-75c-4.1-24.3-8.1-48.7-12.3-73
	c-12.3-1-25.2,1.5-37.2,4.6c-3.5,28.2-7,56.5-10.8,84.7c-1,6.2-1.5,12.5-3.1,18.5c-1.2,4.4-0.8,9.4-0.5,14c0.9,11,2.9,22,3.2,33
	c0.2,5.1-0.7,10-1.1,15c-0.3,5,2.3,8.3,3.4,12.9c1.6,6.8,0.5,14.2-2.7,20.4c-0.6,0.3-1.3,0.6-1.9,0.9c-0.8,7.6-1.6,15.2-2.6,22.7
	c-0.3,2.2-2.2,1.7-3.8,1.9c-9.9,0.5-19.9,1.2-29.9,1.5c-2.9,0.4-2.3-4.8-2.7-6.7c-14.5,4.6-28.8,9.5-43.2,14.4
	c-17,5.4-36.9,4.1-54.2,0.8c-3.1-0.8-6.9-1-9.6-2.8c-0.5-1.9,0.2-4.2,0.3-6.1c0.4-3.3-0.7-6.1,1.3-9c2.9-4.3,8.9-6.7,13.5-8.6
	c9.7-3.8,19.9-6.7,29.3-11.7c10-5.4,19.2-11.8,27-20.1c-2.5-7.1-2.8-14.2-0.5-21.4c2.6-9.3,8.2-16.3,12.3-24.7
	c1.6-3.2,0.9-6.1,1.2-9.5c0.8-8.9,5.5-17.6,6.5-26.5c0.8-24.5,2.2-49,3.4-73.5c-7.3,6.4-14.4,13-21.7,19.4c-2.5,0.7-2.9-0.7-3.6-2.6
	c-7-21.7-9.6-45.1-9.7-67.8c-0.8-8.4-0.4-16.7,1-25c1-6.4,3-12.5,3.8-19c6.2-37.1,14.6-74.1,21.9-111c1.7-9,3.4-17.9,4.6-27
	c1.4-11.2,0.4-22.9-1.3-34c-2-12.9-5.1-25.5-8.7-38.1c-22.8,23.4-45.6,47.3-69.6,69.5c-3.9,3.4-7.7,7.2-12.2,9.8
	c-4.6,2.3-11,0-15.3-2.1c-11.6-5.8-21.9-14.8-31.5-23.5c-13.8-12.4-25.8-26.3-38.3-40c-6.3,1.7-12.9,2.2-19.4,2.9
	c13.6,32.5,27.2,65.2,39.6,98.2c3,8.3,6.3,16.7,8.4,25.3c1.3,5.4-0.9,10.3-4.3,14.4c-4.4,5-10.8,8.6-16.9,11.1
	c-13.3,5.4-28.2,7.5-42.5,8.5c-13.7,0.8-27.4,0.8-41.1,0.2c-15.9-1.1-32.7-4.2-46.6-12.5c-8.9-5.2-17.2-13.3-20.8-23.1
	c-1.8-5.2-2.5-10.4,0.6-15.3C24,635.9,46.7,597,69.1,558c-2.2-1.5-4.3-3-5.8-5.4c-3.5-5.6-3.7-12.2-2.8-18.7
	c-2.4-3.3-4.1-6.8-4-10.9c-0.1-5.8,2.5-10.4,5.7-15.1c-0.6-4.1-0.3-8.6,1.3-12.5c2.7-5.7,8.4-10.1,14.2-12.5
	c1.3-13.2,2.8-26.5,3-39.8c-5.6-0.7-11.6-1.7-16.8-4.1c-3.2-1.5-6-3.5-7.2-7c-1.1-4,0.4-8.2,3.3-11.1c2.7-2.6,6.3-4.1,9.8-5.1
	c8.5-2.3,17.4-2.5,26.2-2.6c10.4,0.2,21.6,0.4,31.8,2.9c4.6,1.2,9.9,3.3,12.5,7.6s2.9,10.7-1.3,14.2c-5.1,4.4-13.3,5.6-19.8,6.4
	c0,5.6,0.1,11.2,0.1,16.8c3.3,0.4,6.4,1.3,9.2,3.3c6.1,4.1,9.5,10.7,13.5,16.6c4.3,6.9,13.1,11.6,16.7,19.5
	c3.3,7.5,4.3,16.2,4.8,24.3c15.8,12.3,31.9,24.2,47.8,36.4c2.9-0.4,5.8-0.9,8.7-1c3.3-0.1,6.6,1.1,9.7,2c4.2-7.1,8.9-13.9,14.5-20.1
	c24.9-29.1,49.7-58.3,75-87c9.7-10.9,19.4-21.9,29.7-32.3c3.7-4.2,9.8-6.2,15-7.8c-15.5-7.1-29.1-17.9-40-30.9
	c-10.7-12.6-18.6-26.7-25.4-41.6c-7.3-16.8-16.6-32.8-24.7-49.2c-2.2-0.7-4.7-0.3-7-1c-6.5-1.9-11.6-7.5-12.6-14.2
	c-1.6-8.5,3.6-17.2,11.9-19.9c7.9-2.7,16.3,0.4,21,7.2c6.4,0.5,12.8,0.4,19.2-0.2c8.7-1.1,17.4-2.8,24.2-8.8
	c-15.6-3.4-29.3-12.2-39.8-24c-1-1.1-0.8-3.4,0.8-3.9c2.1-0.4,2.9,1.6,4.4,2.7c4.7,4.3,11.7,4.1,17.6,3.2
	c-11.7-5.9-22.1-13.4-29.3-24.4c-5.9-9.1-8.7-20.2-7.3-31c0.5-0.6,1.3-1.1,2.3-1.4c2.4,0.8,2.6,4.5,4,6.4
	c5.1,8.5,14.9,13.8,23.9,17.2c-12-20.1-20.7-41.5-21.4-65.2c-0.6-17.9,4.2-35.6,13.5-50.9c1.1,0.1,3.4-0.3,3.5,1.3
	c-0.8,11.3,4.8,23.1,10.3,32.7c7,11.8,16.8,24,29.2,30.3c-9.3-20-8.6-42.8-0.8-63.2c8.4-22,24.1-40.4,43.6-53.4
	c1.9-1.2,3.9-2.8,6.1-3.5c1.9,0,2.9,1.9,1.9,3.5c-3.4,6.7-5.3,13.8-6.9,21c-2.5,11.9-3.9,24.1-4.1,36.3C386,75.6,392.6,61.8,402,50
	c13.7-17.4,32.2-29.5,52.8-37.3C473.9,5.4,493.7,1.9,514,0.4z"/>
<path class="st1" d="M505.7,5.7c-11,7.2-20.7,16-28.4,26.7c-9.7,13.2-15.8,28.6-18.7,44.7c-3.6,20.3-2.2,41.4,3.3,61.2
	c0.5,2.5,4.3,2.2,4.4-0.1c-0.1-6.2-0.5-12,0.7-18.1c1.6-8.7,5.5-16.9,12.1-22.9c6.3-5.8,14.1-9.1,22.5-10.4
	c-6.4,9-7.9,21.6-8.1,32.3c0,8.7,0.8,19.4,6,26.8c-10.3,4.2-18.8,13.8-18.1,25.4c1.8-3.8,3.6-7.4,6.3-10.6
	c5.6-7,13.7-11.8,21.9-15.2c8.2-2.3,17-1.6,25.3-3.8c9.3-2.4,19-6.9,25.6-14.2c8.7-9.6,13.3-22,14-34.8
	c5.7,12.1,10.5,24.2,12.6,37.5c2.4,15.4,1,31.1-7.3,44.6c-5.2,8.7-12.7,14.7-21,20.4c-9-3.3-15.3-9.3-22.4-15.4
	c3.7,9.3,11.5,16.9,21.2,19.6c5.1,1.5,10.2,0.2,15.5,1.3c15.5,1.9,31.9-1.1,42.8-13.1c-1.3,12.5-5.8,24.7-14.3,34.1
	c-6.8,7.5-16.1,13.3-26.1,15.2c-1.3,0.3-2.5,0.8-2.3,2.3c-0.2,1.2,1.3,2,2,2.8c13.1,10.9,28.4,21.1,44.8,26.1
	c11.9,3.6,24.3,4.2,35.7-1.6c-6,15.9-14.5,30.7-28.4,41c-13,9.7-29.4,13.3-45.4,11.3c-3.5-0.2-7-1.8-10.3-1c-0.7,3,0.9,5,2.4,7.4
	c4,5.8,10.2,10.3,16.4,13.6c11.9,6.2,25.5,9.5,38.9,6.8c-3.5,4.7-7.6,8.7-12.8,11.3c-10.2,5.4-22.6,5.5-33.6,3.1
	c-10.6-2.4-21.8-7.3-29.4-15.4c-1.4-1.4-3.7-0.5-3.8,1.6c-1.5,11.8,1.2,24.3,8.2,34c3.8,5.2,8.9,9.2,15,11.4
	c-9.2,2.7-18.8,2-27.8-0.9c-6.2-2.1-12.1-5.2-16.3-10.3c-1.7-2-2.4-4.3-3.8-6.4c-2.5-0.6-4,0.8-3.3,3.3c2.7,14.3,13,25.7,23.5,35.1
	c-11.2,2.5-23,2.9-34.3,0.9c-13.7-2.4-26.2-9-35.7-19.3c9.9-10.2,17.9-22.3,22.6-35.8c5-14,6.2-28.8,4.5-43.5
	c13.7-0.4,28.5-1.3,41.6-5.6c7.6-2.5,15-6.6,19.2-13.7c3.7-6.5,4.5-15.3,0.5-21.9c-3.3-5.5-9.1-9.5-14.8-12.2c-8-3.8-17-6-25.7-7.3
	c0,6.6-3,12.2-7.2,17.2c-6.7,7.8-15.1,14.1-24.3,18.6c3.8-4.5,5.1-10.1,6.4-15.8c1.6-8.2,2.7-16.9,1.9-25.3
	c-4.3,9.7-10.4,18.4-18.2,25.6c4.8-15,5.9-32.5-1.1-46.9c-4.2-8.9-11.2-15-19.1-20.6c-1-5.4-2.9-10.5-6.6-14.7
	c-4.9-5.7-11.8-8.8-19.1-9.9c-1-0.2-1.8-0.1-2.5,0.4c-1.9,3.3-3.2,6.9-4.9,10.4c-8.5,3.5-15.8,9-22.2,15.5
	c-15.4,15.5-27,36.2-40.8,53.2c-5.5,6.7-11.6,13.4-19.1,17.9c-6.9,4.1-14.7,6.9-22.6,8c-11.9,1.8-24.5-0.2-35.8-4.4
	c1.8-4.7,2.2-8.5,1-13.4c7.2,1.3,14.6,1.6,22,1.1c11.8-1,23-6,31.6-14c12-10.8,20.5-26.6,28.5-40.6c2.9-4.8,5.5-10.3,9.2-14.4
	c3.1-0.5,6.6-0.2,9.7-0.3c0.7-0.4,1.2-0.9,1.6-1.7c2.2-4.6,4.3-9.3,5.9-14.1c0.7-2.4,1.6-5.2,0.7-7.6c-3.4-2.3-7.5-2.5-11.4-1.8
	c-5.7,1.3-10.8,4.7-15.2,8.5c-7.5,6.5-13.7,14.6-18.9,23c-1.3,2,0.1,4.1,2.4,3.7c1.7-1,3.2-2.3,4.9-3.4c-3,3.1-5.8,6.3-8.5,9.7
	c-2.3,1.4-5.1,1.8-7.3,3.5c-5.3,3.7-8,9.6-8.9,15.9c-1.1,5.3,0.6,10.1-1.9,15.1c-10.5-1.5-20-6.3-28.5-12.6
	c5.5,0.1,11.7-0.5,16.7-2.8c1.6-0.7,1.2-3.5-0.5-3.9c-10.5-4.1-20.6-10.3-28.2-18.7c-6.3-6.8-10.5-15.3-11.7-24.4
	c7.2,8.5,17.4,13.9,27.9,17c1.3,0.2,3.4,1.2,4.4,0c1.4-1.2,0.5-2.7-0.3-4c-12.1-18.8-21.5-40.1-23-62.6c-1.1-15.7,1.7-30.2,8.2-44.5
	c3.5,15.2,11.6,29.5,21.6,41.4c6.8,7.9,15.8,16.1,26.1,18.7c1.6,0.6,3.5-1,2.9-2.7c-1.5-3.2-3.4-6.1-4.6-9.5
	c-7.1-17.7-5.9-37.7,0.8-55.3c7.8-20.7,22.3-37.9,40.3-50.5c-4.7,13.9-7,28.7-8,43.3c-0.3,7.9-0.6,16.1,0.9,23.8
	c0.3,1.5,0.6,2.8,2.4,2.9c1.7,0.2,2.2-1.5,2.4-2.8c1.8-11.3,5-22.3,10-32.6c7.8-16.5,20-30.6,35-40.9
	C451.1,15.7,478.6,8.6,505.7,5.7z"/>
<path class="st1" d="M780.5,83.6c19.1,6.3,37.5,14.6,54.6,25.3c28.8,17.9,53.3,42.5,69.9,72.1c14,24.9,22.2,52.9,23,81.5
	c0.4,18.8-2.4,37.6-9.5,55.1c-6.1,15.1-15.7,29.3-28.5,39.6c4.2-8.5,7-17.6,7.5-27.1c1.1-16.7-4.1-33.5-13-47.6
	c-13.3-21.2-34.5-37-58.1-45c-19-6.5-39.7-7.9-59.5-4.4c-19.6,3.5-38.2,10.7-54.1,22.9c-21.4,16.4-35.9,39.5-44.2,64.9
	c-10.6,32.6-11,68.7-3.2,102c7.6,32.2,23.3,62.5,46.4,86.2c4.4,4.6,9.3,8.7,13.9,13.1c33.8,32.8,57.4,76.7,61.9,123.9
	c2.9,29.1-2,59-15.9,84.8c-13.5,25.3-35.5,45.5-61.3,57.9c-30.9,15.4-65.1,23.2-99.6,20.3c-35.8-2.7-70-16.4-99.5-36.5
	c-1.1-0.8-1.8-1.4-2.3-2.7c-2.5-5.8-5-11.6-7.7-17.2c4.5,3.6,9.7,5.5,15.5,4.1c4.4-0.6,7.3-3.9,11.8-3.9
	c21.5-1.7,42.3-8.8,57.9-24.1c14.7-14.4,22.5-33.5,25.9-53.5c4.2-25.4,1.6-52.5-4.4-77.4c-4.9-20.1-12.1-39.7-21.8-58
	c-6.4-12-14.1-23.8-23.3-33.8c-6.9-7.1-14.4-13.6-21.2-20.8c-20.5-21.2-37.6-44.8-48.1-72.5c17.6,7.7,38.5,7.8,56.8,2.9
	c2.2-0.5,2.9-2.7,1.2-4.2c-8.3-6.4-15.6-14-21-23.1c6.6,4.6,14.3,7.5,22.2,8.7c9.3,1.5,21.1,0.8,28.8-5.3c1.8-1.4,0.7-4.2-1.7-4
	c-6.4,0-11.9-3.1-16.1-7.7c-7.2-8-10.2-18.3-10.2-28.9c12.3,9.8,28.5,15.1,44.2,14.7c9.7-0.2,19.2-2.9,26.8-9c5-4,9.2-9.3,11.7-15.3
	c0.5-2-1.5-3.5-3.4-2.5c-9.4,4.2-19.8,3.1-29.4,0.1c-9.8-3.2-19.4-8.4-25.9-16.6c17.9,3.1,36.6-0.6,51.4-11.4
	c16.5-11.7,27.3-31.2,33-50.3c0.7-1.9-1.9-3.6-3.5-2.3c-3.2,2.4-6.4,4.5-10.3,5.7c-10.1,3.3-21.2,1.5-31-2
	c-13.4-4.9-26-13.1-37-22.1c11.4-3.6,21.3-10.8,28.3-20.4c7.9-10.9,11.5-24.4,12-37.8c-0.1-1.1,0.4-3.2-0.9-3.8
	c-1.7-1.3-3.1,0.3-4,1.7c-4.6,7-11.7,12.1-19.7,14.5c-9.8,3-19.5,2.5-29.4,0.6c11.4-8.4,20.1-19.9,23.6-33.8
	c4.9-19.1,1-39.4-6.1-57.4c32-19.8,69.3-29.5,106.7-31.4C721,71.1,752,73.9,780.5,83.6z"/>
<path class="st1" d="M394.1,180.9c-1.5,5.5-3.8,10.6-6.2,15.8c-8.8,0-17.5,1.3-25.6,4.9c5-6.8,11.1-13.5,18.3-18
	C384.6,181.2,389.4,179.2,394.1,180.9z"/>
<path class="st1" d="M436.5,186.7c6.4,1.6,12.2,4.2,16.1,9.7c4.7,6.5,5.3,14.1,4.6,21.9c-5.2-10.9-15.7-15.9-27.1-17.8
	C432.2,195.9,434.2,191.1,436.5,186.7z"/>
<path class="st1" d="M363.4,222.2c-2.5,4.3-5.4,8.3-8.3,12.3c-1-2.8-2.9-4.9-6-5c-4.3-0.4-7.8,3.8-6.4,7.9c1,3,3.4,3.9,6.3,4.4
	c-2.9,3-5.9,5.9-9.3,8.3c-0.5-5.6-0.7-11.4,1-16.8c1.2-3.8,3.4-7.1,6.8-9.2C352,221.5,358.2,221.3,363.4,222.2z"/>
<path class="st1" d="M350.4,230.7c0.6,1.7,0.9,4-1.5,4.2c-2.3,0.6-3.9-1.7-2.6-3.7C347.1,229.5,349,230.2,350.4,230.7z"/>
<path class="st1" d="M422.5,231.6c5.9-1.2,12,0.5,16.6,4.3c6.7,5.6,8.9,15.4,5.2,23.2c-3.7,8.2-12.9,13-21.7,11.1
	c-9.1-1.7-16-10.1-15.9-19.3C406.5,241.7,413.4,233.4,422.5,231.6z"/>
<path class="st0" d="M420.4,246.4c3.5-2,8.4-0.8,10.4,2.7c1.6,2.7,1.1,6.3-1.2,8.4c-3.5,3.5-10.1,2.6-12.3-2
	C415.6,252.2,417.2,248.2,420.4,246.4z"/>
<path class="st1" d="M425.5,247.6c1.5-0.3,3.1,0.9,2.9,2.4c0.4,2.1-2.9,3.4-4.2,1.8C422.5,250.7,423.5,247.6,425.5,247.6z"/>
<path class="st1" d="M265.5,263.6c4.1-1.2,11.1-0.8,13.1,3.8c1.5,4-3.3,6.7-6.6,7.1c-3.9,0.7-9.6-0.4-11.3-4.4
	C259.9,266.7,262.7,264.6,265.5,263.6z"/>
<path class="st1" d="M532.9,273.1c4.9,0,10.9,1,14.7,4.4c4.1,3.6,3.3,11-1.4,13.8c-4.3,2.7-10.6,2.8-15.5,2.2
	C531.5,286.7,532.3,279.9,532.9,273.1z"/>
<path class="st1" d="M438.6,314.4c6.6,3.5,11.1,10.2,14.2,16.8c3,6.5,3.1,13.5,0.3,20c-4.1,9.8-13.2,17.5-22.1,22.9
	c-6.2,3.7-12.9,7.2-20,8.7c-11.9,2.1-24.7-1-35.1-6.7c-15.8-8.5-28.2-23-37.6-37.9c16.2,4.8,33.7,3.7,48-5.8
	c10.5-7.5,21.8-16,34.5-19.3C426.8,311.3,433,311.4,438.6,314.4z"/>
<path class="st0" d="M429.8,316.7c1,0.2,2,0.5,3,0.8c10,3.9,16.6,15,13.1,25.5c-1.3-3.7-2.3-7.3-4.2-10.7
	C438.6,326.3,434.4,321.6,429.8,316.7z"/>
<path class="st0" d="M430.5,333.6c1-0.4,2.1-0.7,3.2-1.1c-4.4,3-9,5.7-13.6,8.4c0.5,6.2,1.1,12.4,1.5,18.6
	c-6.9-1.5-13.3-4.9-18.1-10.2c-11.9,4.1-24.4,6.2-37,5.2c13.3-2.1,26-5.7,38.5-10.5c3.3,4.2,7.1,7.1,11.9,9.4
	c0.1-4.9-0.1-9.7,0.1-14.6C421.5,337.2,426,335.3,430.5,333.6z"/>
<path class="st1" d="M77.6,418.9c11-1.5,22.4-1.2,33.4-0.5c6.4,0.5,13.1,1.1,19.2,3.4c3.4,1.3,6.8,3.5,7.4,7.4
	c0.4,2.7-0.2,4.4-2.4,6c-4.8,3.2-11.6,4.1-17.3,4.6c-1.3,0.2-3.3,0.2-3.2,2.1c-0.2,6.4,0.1,12.8,0.1,19.2c-3.8-0.5-7.3-1.1-10.1-3.8
	c-3.1-2.8-4.9-7.6-9.6-8c-4.4-0.2-7,4-7.6,7.8c-1.1,7.8,2.6,16.2,6.9,22.5c4,5.5,9.3,5.3,14.9,8.1c1,7,2.8,13.1,5.9,19.5
	c0.7,7.2,0.2,14.6,0.5,21.9c-0.8-0.8-1.6-1.7-2.4-2.5c1.9-4.6,1.8-8.6-1.4-12.5c1.2-3.6,0.7-7.5-0.9-10.8c-1.3-2.2-4.3-3.5-6.5-4.5
	c-7.2-2.9-15.4-4.5-23-6.1c1.5-14.6,2.9-29.2,3.8-43.8c0.2-3.2,0.2-6.4-0.5-9.5c-6.7-1.6-16-1.8-21.7-6.2c-3.2-2.5-2.1-6.3,0.4-8.9
	C66.9,420.9,72.8,419.7,77.6,418.9z"/>
<path class="st1" d="M371.6,419.7c-4.3,7.6-6.9,15.8-8.6,24.3c-2.9,13.9-3.7,28.1-3.5,42.2c-8.3-4.8-16.6-9.7-25-14.5
	C338.8,450,351.9,430.3,371.6,419.7z"/>
<path class="st1" d="M457.5,420.7c2.4-0.2,4.6,2,6.2,3.5c7.1,7.6,12.7,16.5,15,26.8c2.2,8.9,1.7,18.2-2.1,26.6
	c-5.8,2-11.6,4.1-17.5,6c-3-1.8-6-3.5-9.1-5.2c1.4-15.6,3.9-31.1,5.7-46.7C456.4,428.1,456.4,424.2,457.5,420.7z"/>
<path class="st1" d="M361.5,420.6c-11.9,8.9-20.9,20.5-26.6,34.3c-2.4,6.1-4.7,12.7-5.2,19.2c3.6,2.3,7.3,4.3,10.9,6.5
	c-6.5,7.9-12.9,15.8-19.4,23.7c-0.7,1-2,2.3-1.2,3.6c9.6,21,19,42,27.7,63.4c9.3,22.8,14.9,49.4,11,74c-0.8,3.9-1.3,8.6-3.6,12
	c-6.4,10.3-12.5,20.8-18.7,31.3c-12.6,16.8-24.8,35.2-33,54.6c6.1-34.1,14-68,20.3-102.1c1.8-10.4,3.7-20.3,3.3-31
	c-0.7-18.7-4.7-37.5-9.7-55.5c-1-3.3-1.6-6.4-3.4-9.4c0-4.5,2.3-7.7,4.4-11.4c-3.5,0.8-6.5,2.2-8.2,5.6c-1.5,2.8-1.1,5.5-0.6,8.4
	c-18.8,19.5-37.8,38.9-57.2,57.9c-7.5,7.2-14.9,14.5-23.1,20.9c-2.9,2.3-6,1.4-9.2,0.3c-5.6-2.2-10.8-5.8-15.6-9.3
	c-21-15.8-37.7-34.5-55.2-53.8c2.1-2.3,4.1-4.7,5.8-7.4c4.8-7.9,8.6-16,8.5-25.4c14.5,11,29,22,43.5,33c1.5,1.2,3.4,2,3.9,3.9
	c1.3,3,1.7,6.9,3.8,9.5c1.9-4.1,2.2-7.9-0.2-11.9c5.8-1.3,11.2,0.1,16.5,2.4c4,2.3,7.7,5.4,11.2,8.3c0.1-5.9-3.8-9.6-8.9-11.5
	c4.1-6.5,8.2-12.8,13.4-18.5c14.8-17.2,29.5-34.5,44.3-51.7c20-23,39.8-46.2,60.9-68.1C354.7,423.2,358,422,361.5,420.6z"/>
<path class="st1" d="M376.2,420.9c1.3,7.4,2.3,15.4,1.2,22.9c-0.2,2.1-2.4,4.2-1.8,6.2c2.1,1.5,4.7,1.9,6.8,3.6
	c6.2,4.8,11.8,11.1,15.9,17.8c-11.3-0.6-22.3-4-30.7-11.9c5.1,7.3,11.6,13.5,19.5,17.7c-2.8,3.4-4.6,7.2-4.5,11.7
	c0.1,5.7,3.2,10.6,8,13.7c-2.9,11.7-5.8,23.4-8.6,35.1c-5.3-11.9-10.4-24-15.6-36c-1-2.2-1-4.4-1.3-6.8c-0.4-4-0.8-8-1.1-12
	c0-12.9,0.9-26.1,3.6-38.8C369.4,436,371.9,428.2,376.2,420.9z"/>
<path class="st0" d="M88,421.9c7.2-0.8,14.8-0.7,22,0c3.9,0.5,7.5,0.7,10.9,3c-0.8,2.3-4.3,2.7-6.4,3.2c-9.8,1.6-20.4,1.6-30.3,0.1
	c-2.4-0.6-5.8-0.8-7-3.3C80.5,422.7,84.1,422.5,88,421.9z"/>
<path class="st1" d="M452.3,423.6c-1.6,11.7-2.9,23.5-4.5,35.2c-13.1,6.5-28,12.3-42.7,12.8c2.2-3.1,4.2-6,7.4-8.1
	c3.7-2.6,8.1-3.4,12.6-3.2c1.3,0,3.4,0.3,3.7-1.4c0.9-5.3,1.6-10.5,3.6-15.6c1.1-2.7,2.1-5.6,4.6-7.3
	C442.2,432,447.4,428,452.3,423.6z"/>
<path class="st1" d="M381.8,427.9c6.9,10.2,11.9,22.1,15.2,34c-4.4-5.6-9.7-10.8-15.9-14.3C382.8,441.1,382.6,434.5,381.8,427.9z"/>
<path class="st1" d="M429.1,438.7c-2.1,5.6-3.5,10.9-4.4,16.8c-8.5-0.3-15.1,2.9-20.5,9.3c1-3.9,2.4-7.6,4.7-11
	C413.5,447,421.8,442.4,429.1,438.7z"/>
<path class="st1" d="M97.4,454.6c3.1,4,5.7,7.7,10.8,9.3c6.5,2.4,11.9-0.1,17.3,3.6c6.3,4.1,9.8,12,14.2,17.9
	c3.4,4.7,8,7.8,11.7,12.2c4.2,4.4,5.6,11.4,6.7,17.2c1.1,7.5,1.9,15.6,0.6,23.1c-1.4,6-4.3,11.8-7.5,17.1c-2.1,3-4.2,6.4-8.1,7.3
	c-6.3,1.7-12.9,2.4-19.3,3.2c-1.4-3.5-3.4-6.9-4.4-10.5c-0.8-14.5-1-29-1.6-43.4c3.7,4.5,7.7,8.4,13.3,10.3
	c-2.8-1.5-5.4-2.9-7.6-5.2c-3.1-3.3-6.3-6.1-6.2-11c-0.2,0.9-0.4,1.9-0.6,2.8c-3-7.3-5-14.1-5.8-21.9c-4.4-2.7-10.5-3.5-13.6-7.5
	c-2.7-3.5-4.3-8-5.6-12.1c-1.1-3.8-1.7-9.2,0.8-12.6C93.5,452.4,96.2,452.8,97.4,454.6z"/>
<path class="st1" d="M484.3,455.5c7.8,12.8,17,25,27,36.2c6.9,7.4,12.4,16.4,17.9,25c16,26.1,30.6,53.1,45,80.2c1.1,2,1,4,1.1,6.2
	c0.1,10.6-3.5,21.1-9.4,30c-6.7,9.9-12,21-17.2,31.8c-7,15-13.4,30.3-19.6,45.6c-1.6-0.8-3.8-1.3-4.7-2.9
	c-3.9-6.2-9.8-11.7-16.7-14.3c-4-1.5-8.1-1.3-12.2-0.3c10.1-19.6,19.9-39.4,28.4-59.7c3.6-7.9,7.1-16.1,11.4-23.6
	c3.5-2.8,7.4-5.7,11.7-7.3c3.4-1.3,6.1-0.1,9.4,0.7c-2-3.2-4.6-5.2-8.5-5.3c-6,0-10.9,4.1-14,8.9c-13.2-17.7-26.5-35.3-39.7-52.9
	c-0.6-0.9-1.9-2-0.8-3.1c3.5-3.8,9.3-5.8,13.9-8c-6.1,0.2-13.5,1.6-17.8,6.4c-2.3-2.2-3.5-5.7-4-8.8c-0.9-6.3-0.1-13,0.8-19.3
	c-3.3,5.9-5.3,12.4-4.9,19.2c0.2,4.6,1.8,8.7,5,12.1c-3.6,5.1-5,10.9-6.5,16.9c-5,21.6-5.1,45.3-4.8,67.5
	c0.5,21.3,2.3,42.6,5.8,63.6c3.4,19.5,8.1,38.2,16.9,56c15.9,34.9,29,71.2,41.1,107.5c-6.3,1.4-12.6,2.8-19,4
	c-3.1-7.2-6.3-14.3-9.3-21.6c-10.1-26.2-21.4-51.6-32.9-77.1c-2.7-7.9-6.6-15.2-10.1-22.8c-6.5-13.1-12-26.8-17.9-40.1
	c-0.7-0.2-1.5-0.5-2.2-0.8c-7.3-18.5-13.6-37.6-17.5-57.1c-2.9-19.4-2.4-40.7,4.4-59.2c2.5-7.2,6.4-13.5,10-20.2
	c11-20.6,22-41.6,30.6-63.4c0.4-1.4,1.8-3.7,0.4-4.8c-4.5-4.4-9.3-8.5-13.9-12.8c6-2.3,12.6-4,18.3-6.7
	C484.4,473.5,485.2,463.9,484.3,455.5z"/>
<path class="st1" d="M445.5,476.2c-1.5,5.7-2.1,11.8-4,17.3c-10.1,16.3-20.2,32.7-29.9,49.3c-2.2-13.3-4.3-26.7-6.5-40
	c7.1-4.1,9.9-11.9,7.4-19.6c10.2-0.4,20.2-2.2,29.9-5.8C443.5,477,444.5,476.6,445.5,476.2z"/>
<path class="st1" d="M344.8,483c5.1,3,10.2,6,15.4,9c2.3,23.4,5.2,47,9.9,70c3.2,15.2,7.4,29.3,6.6,45c-0.8,17.2-7.2,32-15.2,46.8
	c6.6-26.8,1.8-55-8-80.4c-9-22.3-18.6-44.4-28.8-66.2C331.5,499.2,337.9,490.9,344.8,483z"/>
<path class="st1" d="M448.7,482.9c1.3,0.8,2.6,1.6,3.8,2.6c6.3,5.8,12.7,11.4,19,17.2c-8.1,21.1-18.2,41.5-28.2,61.8
	c-4.1,8.4-8.5,15.7-11.3,24.5c-5.5,16.8-5.8,35.6-3.6,53c2.7,21.2,9.1,42.3,17.3,62.1c0.9,2.4,2.4,4.7,2.8,7.1
	c-4.4-9.1-9.2-17.9-12.9-27.3c-10.8-26.3-16.2-54.4-12.9-82.8c1.6-14.5,5.4-28.2,8.7-42.4C437.6,533.5,443.2,508.2,448.7,482.9z"/>
<path class="st1" d="M76,488.9c0.2,2.1-0.2,4.6,0.7,6.5c0.8,1.3,2,1.3,3.3,1.6c7.7,1.6,15.6,3.2,22.9,6.1c1.6,0.8,3.8,1.4,4.3,3.4
	c0.4,1.7,1,4,0.2,5.7c-1.7,2.1-4.8,3-7.3,3.6c-6.5,1.4-13.2,2-19.8,1.5c-4.1-0.4-8.8-1.7-11.4-5.1c-2.8-3.6-2.7-9-1.7-13.2
	C68.2,494.7,72.2,491,76,488.9z"/>
<path class="st1" d="M441,497.2c-0.9,5.7-2.7,11-4.1,16.6c-3.2,12.9-5.8,26-8,39.2c-2.2,15.2-6.5,29.7-7.9,45
	c-3.1,27.8,2.1,55.1,12.3,81c4.6,11.2,8.4,22.7,13.4,33.8c-9.4,6.2-18.7,12.5-28.1,18.8c-11.3-12.1-22.4-24.3-33.4-36.6
	c-0.3-16.3-0.4-32.6-0.3-49c0.4-15,0.4-30-0.1-45c-0.4-2.9,1.8-5.6,3-8.2C405.4,560.9,423.5,529.2,441,497.2z"/>
<path class="st1" d="M366.6,508.5c4.5,10,9.3,20,13.8,30.1c0.8,1.7,0.7,3.8,1.3,5.6c3.6,10.6,7.1,21.2,10.7,31.8
	c-3.8,6.9-7.9,13.7-11,21c-1.1-10.5-3.4-20.7-5.7-31c-3.9-18.1-6.7-36.2-8.8-54.6C366.8,510.5,366.7,509.5,366.6,508.5z"/>
<path class="st1" d="M63.9,513.5c4.9,7.2,12.9,8.5,21,8.6c7.7-0.3,16.7-0.8,23.6-4.6c1.9,3,1.4,5.8-0.5,8.5c-4,5.5-11.7,8.3-18,10
	c-6.1,1.5-13,2.1-19-0.1c-5.1-1.8-9.3-6.4-9.9-11.9C60.7,520.2,62.2,516.8,63.9,513.5z"/>
<path class="st1" d="M110.9,530.5c2.7,4.7,1.5,11.2-2.8,14.7c-6.5,5.6-16,8-24.3,9.3c-4.9,0.6-10.3,1.5-14.4-1.8
	c-4.4-3.5-4.9-9.6-4.9-14.8c3.6,2.1,7.3,3.5,11.5,3.9c9.4,0.8,19.3-1.7,27.6-6.1C106.3,534.3,108.3,532,110.9,530.5z"/>
<path class="st1" d="M115.7,542.9c-0.1,4.7-0.1,9.4,0.3,14c3.4,8.5,7,16.8,10.5,25.3c-2.7,1.6-5.6,3.2-7.1,6c-1,1.7-1.2,3.8,0.2,5.3
	c2,1.5,4.2,2.2,5.6,4.4c2.9,3.7,0.5,10-3.2,12.2c-2.7,1.3-5-1.7-7.1-2.9c-3-2.2-6.6-2.1-9.4,0.3c-5.3,4.4-9.9,11.3-16,15
	c-2.3,1.4-5,1.8-7.6,0.8c-4.1-1.7-7.8-4.9-11.2-7.8c-2.7-2.2-4.8-5.5-7.9-7.1c-2.8-1.4-5.6,0-8.1,1.4c-6,3.5-11.6,7.9-17,12.2
	c11.9-20.9,24-41.7,36-62.5c7.6,0.6,15.4-1,22.6-3.1C103.7,553.9,111.9,550.2,115.7,542.9z"/>
<path class="st1" d="M128.1,586.4c10.6,25.4,21,50.9,30.8,76.6c3.5,9.6,7.4,19.2,10,29c0.9,3.2,0.5,5.9-1.2,8.8
	c-3.6,6-11,10-17.3,12.6c-15.6,6.2-33.8,8-50.5,8.7c-14.2,0.4-28.8,0.2-42.8-2.1c-11.3-1.9-22.9-5.2-32.8-11.1
	c-7.6-4.5-14.5-10.9-18-19.2c-1.4-3.8-2.7-7.8-0.4-11.5c8.1-14.4,17.1-28.4,25.2-42.9c1-1.7,1.8-3.4,3.3-4.7
	c7-6,14.4-11.9,22.2-16.8c1.5-0.8,3.6-2.2,5.2-0.6c4.2,4.2,8.4,8.4,13.5,11.6c4.4,3.1,9.7,4.8,14.8,2.4c6.8-3.1,12.1-10.5,17.4-15.6
	c1.2-1.1,2.4-1.9,4-1.1c2.8,1.8,4.8,4.4,8.4,4.5c3.3,0.3,6-1.6,7.9-4.1c2.7-3.8,4.1-8.5,2.4-13.1c-1.4-3.5-4-5.6-7.1-7.5
	C124.8,588.8,126.3,587.5,128.1,586.4z"/>
<path class="st0" d="M396.5,602.6c3.4-1.4,6.4,1.5,7.4,4.5c1.6,4.2,1,10.9-3.1,13.6c-3.3,2.2-6.7-0.4-8-3.5
	C390.8,612.7,391.5,604.9,396.5,602.6z"/>
<path class="st1" d="M381.4,609.2c0.9,28.8,2.1,57.5,2.2,86.3c2.3,2.6,4.5,5.2,6.8,7.7c-5.5,9.1-11.1,18.2-16.6,27.3
	c-14.9-7.2-29.7-14.6-44.6-21.7c11.1-16.8,24-31.9,34.2-49.4C372.7,643.9,379.8,627.5,381.4,609.2z"/>
<path class="st0" d="M105.4,623.5c2.8-2.1,6.5,0.2,6.5,3.5c0.3,2.8-2,5.3-4.9,4.8C103.2,631.2,102.4,625.6,105.4,623.5z"/>
<path class="st0" d="M79.2,629.2c1.8-0.8,3.8-1.1,5.6,0.1c3.9,2.1,4.6,7.9,1.4,10.9c-2.2,2.3-6.1,2.3-8.4,0.1
	C74.4,637.2,75.1,631.3,79.2,629.2z"/>
<path class="st1" d="M80.6,633.7c2.2-2.1,4.1,1.8,2.2,3.3C81.1,638.6,79.2,635.2,80.6,633.7z"/>
<path class="st0" d="M397.4,636.4c3.9-1.1,6.6,2.4,7.5,5.7c1.3,4.5,0.1,11.4-4.8,13.2c-4.5,0.9-7-3.6-7.6-7.3
	C391.9,644.1,393.1,638,397.4,636.4z"/>
<path class="st0" d="M101.6,648.7c2.2-1,4.9-0.7,6.8,0.9c2.6,2.1,3,6.1,0.9,8.7c-2.2,2.8-6.7,3.2-9.3,0.7
	C96.9,656.1,97.6,650.5,101.6,648.7z"/>
<path class="st1" d="M103.6,652.8c2.3-0.7,3.5,2.4,1.3,3.2C102.9,656.9,101.6,653.8,103.6,652.8z"/>
<path class="st0" d="M52.5,655.6c3.5-1.1,7.4,0.9,8.6,4.4c1.6,4.1-0.8,9-5.2,9.9c-4.3,1-8.5-2.6-8.6-6.9
	C47.2,659.7,49.3,656.6,52.5,655.6z"/>
<path class="st1" d="M53.3,660.3c1.1-0.5,2.9-0.3,3.4,1.1c0.9,1.9-0.2,4.5-2.5,4.2C51.6,665.2,51.1,661.4,53.3,660.3z"/>
<path class="st0" d="M111,672c17,1.6,35.8,6.2,49.4,17c-28.3-13-61.2-14.1-91.9-15C82.3,670.9,96.9,670.8,111,672z"/>
<path class="st0" d="M397.4,672.4c2.7-1.2,5.4,0,6.8,2.4c2.9,4.4,2.5,12.1-1.9,15.5c-3.5,2.2-6.7-0.1-8.2-3.4
	C392.1,682.5,392.7,675,397.4,672.4z"/>
<path class="st0" d="M76.4,686.5c2.8-0.9,6.3-0.6,8.7,1.4c2.3,1.8,3,5.2,1.3,7.6c-3.1,4.8-11.7,4.5-14.2-0.7
	C70.6,691.2,73,687.6,76.4,686.5z"/>
<path class="st1" d="M83.1,692c-1.6,3.2-4.7,2.7-7.1,0.8C77.7,689.7,80.6,690.2,83.1,692z"/>
<path class="st1" d="M498,697.1c6.5-1.9,13,2.2,17.5,6.4c3.2,3.2,7.1,7.6,7.1,12.4c0.2,2.4,1,4.5,3.4,5.3c3.7,0.6,6.6-2.8,9.2-5
	c2.7,6.3,1.6,14.6-3.4,19.4c-5.7,0.2-11-1-16.4-2.5c3.7,5.3,9.5,7.2,15.7,7c-3.5,6.7-10.4,12.1-18.1,12.3c-5.3,0-9.2-3.6-11.4-8.2
	c-5.3-11.7-10.6-22.5-12.4-35.4C487.3,703.5,493,698.2,498,697.1z"/>
<path class="st1" d="M393,706.2c8.4,9.5,16.7,19.2,25,28.8c10.3-5.8,20.3-12.5,30.3-18.8c4.4,8.8,8.6,17.7,13,26.5
	c1.4,2.7,1.9,5.4,2.7,8.3c6.5,22.7,13,45.5,19.5,68.2c2.1,8.3,3.6,16.8,6.1,25c4.3,14.1,7.6,28.6,10.8,43c4.3,20.1,8.4,40.4,11,60.8
	c1.2,8.5,1.3,17.1,1.2,25.7c-2.8-7.5-6.3-14.8-10.4-21.6c-0.8,10.6,3.7,21.2,11.2,28.6c2,3.1,3.4,6.7,4.8,10
	c4,10.5,3.9,21.4,2.9,32.3c-7.4-3.4-15.7-5.9-23.9-4.4c-5.9,1-10.5,4.9-14.9,8.7c-5.6,4.9-9,10.8-13.1,16.8
	c-0.9-1.3-1.7-2.7-2.2-4.3c-2.1-6.2-3.4-12.6-4.4-19c-0.8-5.8-1.6-12-0.9-17.9c0.6-5,3.3-8.3,5.6-12.6c2.6-4.9,5.4-10,7.2-15.2
	c-4.6,3.1-8.2,7.1-10.9,11.9c-4.3-27.9-13.6-55.2-18.8-83c-5.4-31.4-10.3-62.9-16.1-94.2c-2.4-12.4-4.6-25-8.4-37
	c-1.4-4.9-6.1-8.5-11.2-7.9c-4.3,0.5-7.8,3.6-10.1,7.1c-3.9,5.9-5,12.2-6.1,19.1c-3.4,21.9-6.1,44-9,66c-3.2,26.1-6.6,52-10,78
	c-0.7-3.7-1.4-7.3-2.6-10.9c-2.4,7.8-2.7,16.1-0.2,23.9c1,3.1,0.9,6.7,1.3,10c0.9,9.9,2.7,20,2.9,30c0.1,5.4-1.2,10.7-1,16
	c0.2,5.1,3.2,8.9,3.8,14c0.7,4.1-0.1,8.1-1.2,12c-6-4.2-9-10.3-15.6-13.2c-6-2.9-12.7-4.5-19.2-5.5c-11.7-1.8-23.4-1.7-35.2-0.7
	c-1.2-3.8-1.9-7.6-1.5-11.5c0.6-7.2,3.7-13.1,7.1-19.4c2.2,0.1,2.6-2,3.8-3.4c5-8,9.7-16.3,13.1-25.1c-3.8,2.5-6.5,5.1-9.1,8.9
	c0-10.1,6-19.7,6.6-30c0.6-22,2-44,3-66c2.1-39.1,4.3-78,7.2-117c0.9-10.4,1.6-20.9,3-31.2c11.6,6.2,23.2,12.9,35.1,18.5
	c5.7-8.5,11.1-17.1,16.5-25.7C392,707.7,392.5,707,393,706.2z"/>
<path class="st1" d="M328.8,709.5c2.3,1.3,4.6,2.6,6.9,3.9c-2.4,17.7-3.4,35.7-4.7,53.5c-2,28-3.3,56-5.1,83.9
	c-7.4,6.3-14.5,12.9-21.8,19.4c-4.4-14.6-6.9-30-8.2-45.3c-0.6-9-1-18,0-27c1.6-18.1,5.1-35.8,12.5-52.5
	C313.8,732.8,321,720.9,328.8,709.5z"/>
<path class="st1" d="M412.8,770.2c3,1.7,3.5,5.4,4.5,8.3c4.1,16.1,6.9,32.7,9.9,49c-12.1-0.5-23.8,1.4-35.6,4.3
	c1.9-14.7,3.8-29.4,6.3-44c1-5.7,2.9-12.5,7.5-16.4C407.5,769.5,410.3,768.6,412.8,770.2z"/>
<path class="st1" d="M475.3,773.9c11.4,25.1,22.4,50.3,32.2,76c-3.8-1.8-6.9-2.5-11.2-2.3C489.3,823.1,482.3,798.5,475.3,773.9z"/>
<path class="st1" d="M306.4,1015.4c1.3-0.7,3.1-0.5,4.6-0.7c11-0.7,21.9-0.5,32.8,1.5c5.7,1.1,11.6,2.6,16.7,5.3
	c3.6,1.8,5.4,4.9,8.4,7.6c1.2,1.3,2.9,2.4,3.9,3.9c0.3,3.7-0.3,7.6-0.7,11.3c-18.2-0.1-36.3,2.6-53.3,9.3
	c-16.1,6.8-34.3,9.7-51.7,10.6c-10.1,0.3-20.9,0-30.6-2.9c0-2.4-0.8-4.7,1-6.7c2.3-2.4,5.9-3.9,9-5.2c10.9-4.4,21.5-7.2,32-12.9
	c4.4-2.3,8.5-5.1,12.7-7.7c5.5-1,9.6,1.2,14.1,3.8c-2.2-4.4-7.6-5.3-12-5.5c1.2-0.9,2.4-1.8,3.6-2.7c5.5,2.1,11.7,1.5,17.4,3.5
	c0.5-0.9,0.6-1.7,0.5-2.6c-3.8-3.4-10.3-3.3-15.1-3.3C302,1019.8,304.4,1017.9,306.4,1015.4z"/>
<path class="st0" d="M305.8,1018l0.4-0.2c3.2,1.3,6.3,2.6,9.6,3.6c2.1,0.7,4.2,1,5.8,2.7c-6,0.8-12.1-2.8-17.2-5.4
	C304.8,1018.5,305.3,1018.2,305.8,1018z"/>
<path class="st1" d="M517.5,1026.5c4.1,4.8,7.2,10.4,11.7,15c-7.1-2.1-14.9-0.5-20.8,3.8c4,0.1,7.6-1.2,11.5-1.7
	c3.7-0.5,7.3,0,11-0.2c3.8,3.5,7.8,6.7,12.4,9.1c7.4,3.7,15.1,7.3,19.3,14.9c-15.5,5.9-32.9,7.7-48.9,2.7
	c-12.3-3.8-22.8-11.1-31.7-20.3c-2.4-2.7-5.3-3.4-8.8-3.6c1.9-2.8,3.7-5.6,5.6-8.3c3.8-5.4,9-10,14.6-13.3
	C500.7,1021,510.6,1023.2,517.5,1026.5z"/>
<path class="st0" d="M520.6,1032.1l0.5,1.4c-2.6,0.6-5.2,0.9-7.9,1.1c-4.1,0.4-7.8,1.7-11.6,3.1c1.1-2.3,3.5-3.3,5.6-4.5
	C511.2,1031.2,516.3,1030.3,520.6,1032.1z"/>
</svg>
