<?xml version="1.0" encoding="UTF-8" standalone="no"?>
<!DOCTYPE svg PUBLIC "-//W3C//DTD SVG 1.1//EN" "http://www.w3.org/Graphics/SVG/1.1/DTD/svg11.dtd">
<svg xmlns="http://www.w3.org/2000/svg" version="1.1" viewBox="0 0 1024 1024" width="1024.0pt" height="1024.0pt">
<path d="M 0.00 0.00 L 1024.00 0.00 L 1024.00 1024.00 L 0.00 1024.00 L 0.00 0.00 Z" fill="#fefefe" />
<path d="M 863.37 62.64 C 873.58 71.19 875.50 87.03 867.92 97.92 C 864.79 102.83 860.16 105.54 855.11 108.12 C 855.40 113.23 855.24 118.44 855.88 123.52 C 856.22 124.04 856.76 124.39 857.52 124.56 C 865.49 126.85 874.13 129.10 881.16 133.84 C 883.40 135.50 885.46 137.44 884.57 140.50 C 882.95 142.81 879.90 143.59 877.30 144.20 C 869.85 145.74 861.68 145.02 854.08 145.04 C 853.44 148.42 852.85 151.80 852.27 155.18 C 862.83 159.88 874.68 164.95 883.52 172.51 C 886.03 174.86 889.38 178.01 888.09 181.82 C 886.87 184.27 883.22 185.09 880.74 185.43 C 869.06 186.44 857.63 183.93 846.33 181.31 C 844.34 187.51 842.11 193.64 839.66 199.67 C 835.79 209.03 830.83 217.83 826.68 227.07 C 826.84 228.34 827.84 229.47 828.49 230.54 C 832.19 235.88 835.67 241.36 839.16 246.84 C 844.50 254.86 847.96 264.62 851.40 273.60 C 855.29 284.74 858.17 296.33 861.24 307.73 C 862.69 313.19 863.73 318.67 864.28 324.30 C 865.47 335.36 868.85 345.97 869.86 357.16 C 870.61 366.50 872.99 374.86 871.42 384.33 C 862.62 390.50 850.88 393.01 840.86 396.87 C 826.13 401.60 810.53 404.12 795.27 406.47 C 793.83 406.81 792.74 407.07 793.20 408.84 C 795.59 417.20 799.46 425.23 802.73 433.27 C 804.62 438.50 805.85 443.92 807.91 449.09 C 810.12 454.58 811.99 460.20 814.35 465.62 C 819.22 466.36 824.13 466.38 829.02 466.85 C 833.43 467.24 837.58 468.74 841.98 469.20 C 846.21 469.70 850.40 470.46 854.50 471.62 C 858.73 472.77 862.59 474.45 866.97 475.04 C 870.22 475.52 873.35 476.39 876.41 477.58 C 884.33 480.57 892.03 484.09 899.89 487.23 C 900.35 491.33 899.88 495.30 899.28 499.35 C 898.34 505.92 898.65 512.72 897.16 519.10 C 895.03 528.06 892.81 536.86 889.50 545.48 C 886.55 553.22 882.51 560.42 878.62 567.72 C 874.36 568.86 870.01 568.70 865.71 569.51 C 864.91 578.53 863.56 587.52 862.34 596.49 C 860.82 608.31 858.20 619.94 856.49 631.73 C 854.91 641.44 852.16 650.71 849.09 660.03 C 847.22 666.49 845.75 672.97 843.26 679.26 C 842.44 681.35 840.87 682.79 839.37 684.41 C 842.05 688.86 845.00 692.54 846.51 697.52 C 849.78 707.80 848.48 719.79 845.53 730.02 C 849.30 732.17 853.52 734.29 856.06 737.95 C 858.25 741.15 859.83 744.98 861.62 748.42 C 866.14 756.17 865.73 766.60 864.43 775.18 C 863.72 783.00 859.55 790.56 854.19 796.19 C 850.10 800.46 845.15 802.61 839.80 804.83 C 835.08 807.10 830.13 808.76 824.91 809.37 C 827.40 805.63 830.17 802.24 832.14 798.15 C 835.01 792.51 836.33 785.95 837.71 779.72 C 838.33 771.33 836.24 763.87 833.71 756.00 C 828.78 758.90 824.86 762.48 819.26 764.21 C 814.95 765.49 810.89 767.32 806.53 768.42 C 802.02 769.69 796.82 769.20 792.11 769.25 C 789.40 776.08 786.93 784.42 781.82 789.81 C 779.29 792.59 776.25 794.94 773.42 797.40 C 767.95 802.06 761.68 804.54 755.04 807.03 C 752.55 807.81 749.79 809.08 747.16 808.97 C 745.35 808.45 743.82 806.76 742.21 805.78 C 744.13 802.69 747.02 801.08 749.45 798.46 C 752.74 795.00 755.42 790.91 757.80 786.79 C 761.28 780.14 764.37 773.58 765.03 766.00 C 765.03 764.56 765.83 762.65 763.98 762.04 C 757.97 759.59 752.95 756.65 747.75 752.78 C 747.56 756.85 747.35 760.97 747.44 765.04 C 747.44 766.65 747.54 768.21 746.89 769.73 C 744.51 771.91 740.52 771.79 737.47 772.55 C 733.69 773.42 729.88 773.67 726.02 773.87 C 724.59 780.53 723.24 787.18 722.61 793.97 C 721.53 801.99 722.09 809.93 721.78 818.00 C 722.45 827.73 721.87 837.44 722.91 847.17 C 723.87 862.71 729.60 878.11 730.54 893.54 C 730.65 894.90 732.08 896.08 732.89 897.12 C 723.63 900.53 715.33 906.04 705.97 909.31 C 725.59 908.61 745.37 909.35 765.01 909.38 C 768.30 909.10 769.83 912.46 771.07 914.93 C 776.59 928.39 779.75 942.27 784.17 955.79 C 785.05 958.59 786.14 960.95 787.79 963.37 C 782.15 963.81 776.60 963.24 771.00 964.05 C 767.32 964.50 763.74 964.34 760.00 964.35 C 716.67 964.33 673.33 964.37 630.00 964.34 C 621.33 963.88 612.67 964.30 604.00 963.87 C 598.11 963.89 592.83 962.76 587.02 964.07 C 586.18 963.16 585.35 962.24 584.52 961.31 C 578.35 961.01 572.17 961.06 566.00 960.81 C 559.36 960.69 552.64 962.40 546.05 961.82 C 543.86 961.87 542.56 960.12 540.86 958.95 C 540.90 952.37 542.37 946.11 543.56 939.69 C 545.43 930.03 546.95 920.15 549.36 910.61 C 555.29 909.87 561.16 909.80 567.13 909.74 C 560.86 906.52 553.50 903.93 547.49 900.02 C 549.30 891.81 553.09 884.40 555.32 876.34 C 561.10 858.40 567.76 840.96 572.73 822.74 C 574.28 816.55 575.60 810.29 577.04 804.07 C 579.06 795.35 582.03 786.94 584.42 778.31 C 587.75 768.32 589.40 758.16 593.36 748.36 C 594.80 744.65 596.86 741.38 600.47 739.48 C 611.43 734.56 622.42 733.37 633.89 730.75 C 630.99 728.87 627.88 727.02 625.34 724.66 C 624.27 723.76 624.05 722.59 623.72 721.31 C 620.23 706.49 621.05 692.19 615.94 678.01 C 613.45 671.28 611.54 664.39 609.44 657.53 C 607.09 649.86 603.28 643.38 599.87 636.15 C 597.10 630.28 594.46 624.67 590.58 619.41 C 589.44 617.85 588.12 616.37 587.14 614.70 C 586.94 613.18 587.35 611.50 587.62 609.99 C 584.74 606.71 581.42 603.59 579.08 599.90 C 577.12 596.31 577.01 591.59 576.31 587.60 C 574.88 587.42 573.44 587.23 572.00 587.03 C 571.00 593.71 570.92 600.47 570.13 607.16 C 569.91 609.41 568.57 611.39 566.06 610.90 C 557.40 610.07 548.12 608.90 539.32 609.22 C 532.58 610.07 525.80 609.79 519.03 610.44 C 507.89 611.56 497.24 610.82 485.99 611.11 C 482.99 611.19 480.68 612.41 477.70 611.48 C 472.91 610.02 468.31 607.94 463.52 606.44 C 458.65 604.90 453.60 602.35 448.50 602.07 C 447.18 605.46 445.68 608.80 444.01 612.02 C 441.99 615.28 438.44 616.46 438.47 620.79 C 439.84 622.18 441.17 623.61 442.50 625.04 C 440.89 631.33 438.29 637.27 436.52 643.50 C 434.23 653.14 432.16 662.84 430.77 672.66 C 429.79 679.67 427.78 686.00 427.56 693.02 C 427.44 696.16 427.27 699.29 426.98 702.43 C 425.42 702.33 423.86 702.24 422.30 702.18 C 425.34 707.00 426.34 712.69 427.86 718.11 C 430.70 728.47 432.80 739.00 434.39 749.62 C 442.56 751.05 451.05 752.89 458.61 756.39 C 460.29 758.48 461.23 761.29 462.14 763.79 C 464.93 772.64 466.94 781.99 468.99 791.02 C 469.85 795.20 471.94 798.69 473.22 802.73 C 476.71 813.26 478.98 824.11 482.38 834.69 C 484.47 841.98 487.52 848.86 489.99 856.01 C 494.50 869.44 499.75 882.95 506.68 895.32 C 508.70 899.05 511.31 902.38 513.42 906.06 C 511.21 909.77 507.89 912.07 504.79 914.92 C 508.78 914.96 512.78 914.90 516.78 915.06 C 519.74 919.26 521.25 923.69 522.26 928.68 C 524.71 938.20 525.99 947.85 529.15 957.15 C 530.30 959.52 526.25 959.41 524.88 959.83 C 515.37 960.40 505.70 959.61 496.18 959.42 C 496.98 963.23 497.99 966.98 498.95 970.75 C 488.29 970.80 477.62 970.69 466.96 970.78 C 464.66 970.75 462.42 971.68 460.16 971.63 C 454.63 970.68 448.72 971.51 443.05 971.52 C 427.36 971.54 411.68 971.49 396.00 971.54 C 385.34 971.97 374.66 971.72 364.00 971.77 C 345.80 971.06 327.21 972.10 309.00 971.02 C 297.97 971.05 286.98 970.84 275.96 970.59 C 273.33 970.27 269.29 970.83 268.00 967.88 C 268.49 964.90 269.45 962.03 269.82 959.01 C 270.51 954.22 272.45 949.80 273.10 945.01 C 273.97 939.36 274.91 933.35 277.01 928.02 C 278.64 924.12 279.09 919.93 280.96 916.11 C 286.07 916.54 291.00 915.77 296.05 915.10 C 307.31 914.46 318.65 914.64 329.92 914.83 C 328.38 913.29 326.35 912.57 326.44 910.07 C 326.25 902.95 328.07 895.83 328.40 888.70 C 330.05 860.76 333.24 834.06 332.07 806.00 C 331.68 797.28 331.84 788.26 330.34 779.67 C 330.13 777.95 329.65 776.84 330.91 775.38 C 333.32 776.17 333.74 779.90 334.97 781.92 C 334.70 779.99 334.39 778.07 334.06 776.15 C 331.77 775.39 329.50 774.60 327.25 773.73 C 326.91 765.91 328.06 757.85 327.95 750.00 C 327.58 733.96 330.56 717.35 332.22 701.25 C 333.78 699.36 335.90 700.24 337.88 700.76 C 341.62 702.17 345.34 702.12 349.25 702.57 C 351.59 698.70 353.62 694.67 355.64 690.63 C 357.43 687.06 357.67 683.37 358.56 679.46 C 359.60 674.32 361.48 669.52 362.22 664.37 C 362.84 660.26 363.34 656.15 364.10 652.05 C 366.20 642.00 366.42 631.50 368.36 621.43 C 370.82 617.33 374.87 614.00 378.65 611.15 C 375.78 607.04 372.92 602.54 371.20 597.81 C 369.08 591.49 368.54 584.26 371.02 577.96 C 373.86 570.99 378.42 564.90 384.79 560.79 C 391.48 555.63 398.21 551.32 406.96 551.06 C 413.42 550.27 419.15 552.14 425.27 553.81 C 429.02 554.90 432.51 557.29 436.07 559.06 C 436.33 557.09 436.57 555.12 436.81 553.15 C 422.78 551.13 410.05 545.14 396.05 542.90 C 394.09 542.73 392.75 541.62 391.06 540.74 C 393.35 530.94 396.95 521.86 400.28 512.41 C 414.00 511.44 428.28 507.41 442.04 508.44 C 444.49 494.83 445.04 480.80 445.20 467.00 C 445.47 458.91 443.63 451.07 444.10 443.00 C 444.42 437.64 443.70 432.40 442.93 427.11 C 442.19 422.52 442.67 418.03 441.34 413.51 C 440.33 410.50 440.96 407.55 440.55 404.50 C 439.52 403.20 438.43 401.90 437.17 400.82 C 432.98 399.33 428.03 399.46 423.65 398.49 C 419.30 397.53 415.00 396.72 410.57 396.24 C 409.89 401.13 409.06 405.96 407.82 410.74 C 406.95 414.16 407.64 417.42 407.06 420.81 C 406.48 421.95 404.64 422.19 403.51 422.56 C 400.21 423.18 396.86 423.70 393.54 424.23 C 385.21 424.93 376.85 424.46 368.50 425.21 C 357.99 426.47 347.55 424.72 336.99 425.80 C 329.36 426.53 321.74 425.30 314.13 426.01 C 309.76 434.74 306.67 443.94 303.06 452.99 C 299.59 463.38 296.39 473.89 293.55 484.48 C 291.81 490.89 288.98 496.88 287.29 503.30 C 285.97 508.28 283.71 512.91 282.42 517.90 C 290.17 520.19 298.00 522.51 305.49 525.54 C 313.31 529.12 320.44 534.24 327.66 538.36 C 332.36 541.15 336.55 545.32 340.48 549.10 C 335.72 559.28 331.25 569.65 327.16 580.12 C 324.23 588.35 322.24 596.91 319.11 605.09 C 315.98 612.88 314.56 620.96 312.21 629.08 C 309.76 637.65 309.20 646.50 307.03 655.12 C 303.54 668.35 301.31 681.92 299.62 695.49 C 298.96 700.66 299.43 705.79 299.36 710.96 C 297.44 715.75 292.37 715.29 288.09 716.09 C 289.98 720.85 292.18 725.92 292.78 731.01 C 293.49 736.36 292.97 741.46 292.78 746.79 C 298.56 750.19 304.13 754.01 306.24 760.74 C 309.76 768.60 310.37 777.36 308.60 785.74 C 306.32 793.79 301.46 800.82 294.46 805.46 C 291.96 806.99 289.46 808.91 286.40 808.86 C 286.06 808.03 285.71 807.21 285.36 806.39 C 288.70 802.95 289.56 798.82 291.70 794.63 C 292.90 792.41 292.32 790.35 292.19 787.96 C 291.74 780.61 288.58 773.40 283.89 767.77 C 281.17 771.02 279.27 774.51 276.23 777.24 C 271.32 781.83 265.04 784.82 258.87 787.32 C 258.83 792.43 259.82 797.47 261.77 802.19 C 264.49 809.06 268.06 815.53 272.73 821.27 C 275.51 824.64 278.83 827.00 281.90 830.12 C 279.92 831.77 278.08 834.50 275.14 833.72 C 269.89 832.49 264.79 830.32 259.87 828.12 C 253.61 825.32 248.82 820.82 243.74 816.26 C 237.29 810.20 235.05 802.15 231.94 794.12 C 228.02 794.06 224.01 794.33 220.12 793.81 C 214.72 792.93 209.52 790.40 204.17 788.86 C 198.72 787.10 195.14 783.51 190.25 780.90 C 187.75 788.84 185.62 796.25 186.32 804.71 C 187.69 810.92 189.05 817.47 191.91 823.10 C 193.88 827.13 196.60 830.48 199.08 834.16 C 196.98 833.90 194.89 833.57 192.82 833.16 C 188.81 832.51 185.36 829.83 181.48 828.50 C 169.07 823.98 160.39 811.49 159.37 798.49 C 158.24 790.43 158.12 780.60 162.33 773.35 C 164.23 769.70 165.87 765.63 168.30 762.31 C 170.84 758.95 174.84 756.92 178.45 754.90 C 175.58 744.67 174.20 732.78 177.44 722.49 C 178.97 717.40 181.94 713.69 184.66 709.20 C 182.96 707.45 181.29 705.88 180.50 703.49 C 177.32 694.92 175.49 685.98 172.57 677.31 C 168.26 664.80 167.07 652.42 164.62 639.50 C 162.11 626.44 160.53 613.18 158.85 599.99 C 158.48 598.28 158.85 595.56 157.70 594.21 C 153.63 593.50 149.50 593.64 145.46 592.62 C 142.49 587.18 139.52 581.71 136.92 576.09 C 132.10 565.52 129.38 554.59 126.70 543.35 C 125.70 538.83 125.66 534.30 125.28 529.68 C 124.88 523.72 123.47 518.13 124.06 512.11 C 131.89 508.92 139.58 505.44 147.48 502.44 C 150.56 501.26 153.70 500.38 156.96 499.89 C 162.35 499.14 167.17 496.82 172.52 495.67 C 178.12 494.24 183.89 494.12 189.47 492.59 C 196.06 490.93 202.75 491.64 209.33 490.42 C 210.42 489.07 211.02 487.24 211.65 485.63 C 214.21 478.48 217.24 471.57 219.29 464.24 C 221.44 456.26 225.47 449.05 228.23 441.24 C 230.85 434.92 231.99 428.25 235.11 422.13 C 220.30 419.94 205.31 417.41 190.94 413.12 C 182.37 410.04 173.51 407.44 165.14 403.85 C 162.95 402.67 160.04 401.45 158.46 399.53 C 156.87 390.70 159.34 381.79 160.01 372.98 C 161.03 361.30 164.62 350.34 165.76 338.66 C 166.46 331.35 168.33 324.37 170.27 317.31 C 173.79 303.66 177.62 290.15 183.18 277.17 C 187.87 265.06 196.45 254.00 203.41 242.99 C 201.43 239.11 199.66 235.14 197.77 231.23 C 191.96 220.34 187.33 208.81 183.65 197.04 C 174.45 198.95 165.46 200.88 156.03 201.35 C 152.09 201.31 147.19 201.38 143.68 199.40 C 141.42 198.19 140.99 195.43 142.08 193.27 C 143.81 189.96 147.18 187.33 150.14 185.14 C 158.45 179.25 168.34 174.85 177.66 170.81 C 177.04 167.45 176.43 164.09 175.87 160.73 C 167.56 160.51 158.77 161.59 150.71 159.35 C 148.62 158.73 146.16 157.84 145.18 155.71 C 144.62 152.63 146.89 150.74 149.15 149.17 C 156.51 144.45 165.58 142.05 173.93 139.77 C 174.54 134.35 174.65 128.93 174.67 123.49 C 168.48 120.91 163.31 116.77 160.28 110.70 C 155.92 102.38 156.44 91.51 161.72 83.71 C 166.54 76.33 175.15 71.64 184.00 71.90 C 192.84 71.68 201.42 76.40 206.20 83.79 C 211.44 91.55 211.93 102.35 207.63 110.63 C 205.17 115.68 201.14 119.22 196.45 122.16 C 197.39 126.71 198.24 131.26 199.70 135.69 C 205.43 135.37 211.23 135.27 216.97 135.56 C 220.94 135.92 225.81 136.49 229.12 138.90 C 231.28 140.43 230.56 143.29 228.84 144.87 C 223.57 150.14 214.56 152.39 207.75 154.97 C 208.47 156.82 209.20 158.68 209.93 160.54 C 220.64 158.38 230.70 156.19 241.74 157.52 C 244.19 157.94 247.63 158.85 248.57 161.47 C 249.18 164.98 246.34 167.80 244.04 170.03 C 237.71 175.60 229.84 179.71 222.25 183.30 C 227.83 191.01 234.11 198.38 240.81 205.15 C 245.31 202.56 249.87 200.10 254.19 197.21 C 267.15 189.75 280.87 184.25 294.84 178.85 C 305.47 174.70 316.49 172.02 327.33 168.52 C 334.19 166.69 341.09 165.22 348.17 164.49 C 352.65 164.06 358.24 162.27 362.75 163.15 C 367.92 166.51 371.59 172.90 375.15 177.85 C 379.08 183.34 382.24 188.83 385.03 194.98 C 395.75 193.33 406.74 192.08 417.19 189.12 C 416.30 186.52 413.89 183.18 415.42 180.50 C 418.54 173.18 420.90 165.70 424.66 158.66 C 427.82 152.81 428.30 147.25 432.33 142.35 C 437.11 135.88 445.28 132.95 452.62 130.47 C 454.63 124.27 456.01 117.66 458.75 111.74 C 461.66 106.11 464.76 100.47 468.05 95.05 C 471.30 89.20 477.25 84.79 482.15 80.15 C 487.82 74.81 494.37 71.78 501.22 68.21 C 504.50 66.45 508.01 65.73 511.51 64.60 C 521.51 60.88 533.41 61.62 543.78 63.28 C 549.81 65.05 556.79 67.75 562.36 70.64 C 573.46 77.11 581.91 87.30 588.05 98.45 C 590.54 98.28 593.03 98.10 595.52 98.11 C 597.17 109.45 599.00 120.73 602.36 131.71 C 610.66 134.65 619.10 137.22 626.14 142.84 C 628.30 144.65 630.75 147.11 631.08 150.04 C 631.53 154.41 632.07 158.74 632.77 163.08 C 637.98 155.27 645.30 149.40 654.28 146.54 C 660.27 145.39 666.99 147.16 673.01 147.84 C 680.09 148.87 687.13 149.06 694.09 150.85 C 711.74 155.20 728.99 160.04 745.70 167.30 C 756.02 171.42 765.99 175.71 775.53 181.48 C 779.90 184.44 784.54 186.93 789.13 189.52 C 795.72 182.73 802.01 175.51 807.54 167.81 C 799.86 163.78 791.60 159.81 785.21 153.79 C 783.01 151.50 780.56 148.94 781.44 145.48 C 782.53 143.20 785.70 142.33 787.99 141.94 C 799.06 140.56 809.23 142.74 819.96 144.95 C 820.71 143.05 821.43 141.15 822.12 139.22 C 815.58 137.06 807.96 134.83 802.45 130.57 C 800.44 128.88 798.63 127.01 799.82 124.18 C 801.59 122.21 804.46 121.33 806.97 120.78 C 814.41 119.13 822.79 120.07 830.49 119.84 C 831.54 115.53 832.41 111.17 833.48 106.86 C 829.59 103.78 825.74 101.20 823.23 96.76 C 816.34 85.67 818.85 70.25 829.13 62.14 C 838.81 54.06 853.92 54.29 863.37 62.64 Z" fill="#000000" />
<path d="M 839.47 60.55 C 852.29 56.46 866.04 65.37 868.73 78.27 C 870.57 86.49 867.15 93.15 862.72 99.74 C 857.64 105.12 849.55 107.66 842.28 106.41 C 833.45 103.79 825.90 97.70 823.46 88.53 C 820.14 76.66 827.86 64.02 839.47 60.55 Z" fill="#fefefe" />
<path d="M 844.92 63.21 C 843.21 66.58 840.44 68.97 840.64 73.00 C 840.48 78.47 844.85 82.40 849.32 84.69 C 853.63 86.55 857.77 85.14 861.21 82.29 C 864.05 83.28 864.56 85.15 864.41 88.01 C 863.12 95.63 857.40 102.12 849.72 103.71 C 846.88 104.10 843.87 103.53 841.01 103.32 C 831.36 101.23 823.78 90.92 825.84 81.04 C 826.35 78.59 826.48 75.86 827.52 73.57 C 831.09 67.36 837.89 63.73 844.92 63.21 Z" fill="#000000" />
<path d="M 522.00 66.13 C 524.49 65.61 525.66 67.23 527.19 68.82 C 530.62 72.84 533.15 77.77 535.54 82.46 C 539.28 89.80 539.98 97.51 541.49 105.53 C 542.17 109.18 542.10 112.86 542.55 116.52 C 544.15 126.37 542.57 136.98 542.73 147.04 C 542.84 151.05 541.94 154.84 541.04 158.71 C 534.31 158.55 527.70 157.31 520.98 157.10 C 516.54 156.94 512.32 155.80 507.94 155.26 C 503.60 154.69 499.45 153.72 495.33 152.25 C 496.72 146.00 497.64 139.49 499.76 133.44 C 506.55 134.68 513.10 135.05 519.99 134.71 C 524.70 134.75 529.30 134.63 533.96 133.89 C 533.01 123.76 533.93 113.46 532.58 103.42 C 528.81 100.05 523.67 100.75 519.03 100.44 C 513.98 99.89 508.96 100.53 503.90 100.17 C 504.62 94.32 505.74 88.91 505.20 82.95 C 505.01 81.22 504.79 79.61 503.61 78.25 C 501.27 77.08 499.16 77.86 497.09 79.13 C 492.59 81.93 487.70 84.29 483.48 87.49 C 468.63 100.23 460.29 119.65 458.40 138.87 C 457.49 138.25 456.58 137.62 455.68 136.99 C 456.38 131.07 457.78 125.58 459.81 119.99 C 462.04 112.25 465.85 104.94 470.25 98.23 C 474.70 92.28 480.10 86.54 485.89 81.88 C 491.85 77.61 498.39 74.07 505.04 71.02 C 510.24 68.26 516.20 66.90 522.00 66.13 Z" fill="#fefefe" />
<path d="M 531.89 65.79 C 541.42 66.11 550.20 69.14 558.68 73.31 C 563.76 75.76 567.71 79.38 571.99 83.03 C 576.81 87.18 579.90 92.28 582.99 97.75 C 575.47 98.63 567.96 98.52 560.45 99.65 C 557.09 99.73 554.47 101.01 551.60 102.62 C 551.24 108.94 551.32 115.28 551.97 121.59 C 550.62 121.42 549.28 121.29 547.93 121.21 C 548.34 124.03 549.62 123.59 551.91 124.41 C 551.90 128.13 551.93 131.85 552.14 135.57 C 559.25 136.25 566.22 135.44 573.32 135.28 C 581.77 134.82 589.82 132.73 597.77 129.95 C 598.63 134.54 599.76 139.18 600.09 143.85 C 598.61 146.33 595.13 148.14 592.68 149.67 C 584.05 153.91 574.58 156.94 564.98 157.83 C 558.75 158.53 553.02 159.57 546.77 158.49 C 546.79 155.99 546.89 153.49 547.19 151.00 C 548.28 141.94 546.93 132.98 547.07 124.00 C 547.15 116.53 546.71 109.07 545.46 101.70 C 544.34 93.61 542.88 85.87 539.72 78.28 C 537.71 73.57 534.35 70.23 531.89 65.79 Z" fill="#fefefe" />
<path d="M 541.22 70.68 C 542.20 71.55 542.38 72.65 542.80 73.83 C 539.41 74.10 539.31 73.35 537.65 70.66 C 538.87 70.53 540.01 70.34 541.22 70.68 Z" fill="#000000" />
<path d="M 522.41 71.29 C 525.60 70.42 526.79 71.12 528.31 73.93 C 526.34 75.57 521.14 74.25 522.41 71.29 Z" fill="#000000" />
<path d="M 179.45 75.59 C 191.92 73.01 204.42 81.92 206.79 94.27 C 209.38 107.28 199.25 120.53 186.03 121.49 C 182.29 121.47 178.06 120.71 174.51 119.50 C 166.54 116.11 160.92 107.64 160.68 99.02 C 160.29 88.18 168.82 77.58 179.45 75.59 Z" fill="#fefefe" />
<path d="M 175.05 79.47 C 175.35 85.15 173.42 89.70 175.13 94.78 C 177.11 99.42 180.89 103.51 185.57 105.51 C 190.81 107.39 195.99 107.32 201.46 106.76 C 199.31 112.05 194.28 117.05 188.75 118.67 C 183.01 119.70 175.66 119.00 171.20 114.81 C 167.38 111.22 164.23 107.21 163.33 101.90 C 162.68 97.77 161.97 93.20 164.60 89.60 C 167.24 85.59 170.19 80.93 175.05 79.47 Z" fill="#000000" />
<path d="M 536.12 89.66 C 536.47 90.45 536.82 91.24 537.17 92.03 C 535.10 93.46 532.82 93.58 531.78 90.95 C 532.64 88.76 534.28 89.56 536.12 89.66 Z" fill="#000000" />
<path d="M 544.55 89.74 C 545.88 90.15 549.37 91.16 548.00 93.12 C 545.50 94.96 543.90 92.12 544.55 89.74 Z" fill="#000000" />
<path d="M 491.24 101.38 C 495.87 101.14 500.36 101.65 504.96 101.66 C 512.42 101.48 519.91 102.32 527.34 103.00 C 527.70 107.72 526.73 112.30 526.74 117.00 C 526.75 122.40 526.98 127.79 527.60 133.15 C 519.84 133.89 511.76 132.75 504.01 132.07 C 498.76 131.62 493.85 130.00 489.03 127.94 C 490.68 119.16 491.10 110.29 491.24 101.38 Z" fill="#fefefe" />
<path d="M 592.79 100.65 C 593.17 108.95 594.60 116.89 596.05 125.04 C 592.06 127.10 587.94 128.74 583.51 129.55 C 575.96 130.86 568.45 132.13 560.77 132.34 C 560.73 127.55 560.70 122.76 560.49 117.98 C 560.33 113.35 559.25 108.85 559.05 104.22 C 570.24 102.18 581.45 101.33 592.79 100.65 Z" fill="#fefefe" />
<path d="M 529.20 102.81 C 530.20 103.08 530.89 103.55 531.27 104.22 C 532.15 113.57 531.41 123.39 531.88 132.76 L 529.76 132.89 C 528.97 122.86 529.29 112.85 529.20 102.81 Z" fill="#fefefe" />
<path d="M 574.98 107.49 C 579.45 107.59 583.87 107.41 588.33 107.11 C 588.55 111.57 589.64 115.90 589.85 120.36 C 582.25 122.47 575.19 124.72 567.16 124.11 C 566.30 119.10 565.75 114.05 565.21 109.00 C 568.34 107.30 571.52 107.61 574.98 107.49 Z" fill="#000000" />
<path d="M 497.53 108.73 C 505.15 109.32 512.75 107.31 520.13 108.96 C 519.99 114.21 519.95 119.35 518.90 124.52 C 511.48 124.89 504.12 124.06 497.05 121.76 L 496.47 121.06 C 496.63 117.03 496.98 112.73 497.53 108.73 Z" fill="#000000" />
<path d="M 582.02 108.54 C 582.65 112.51 583.38 116.46 583.77 120.45 C 578.89 121.84 574.02 122.50 568.95 122.67 C 568.40 118.81 567.82 114.91 567.67 111.01 L 568.18 110.26 C 572.54 108.88 577.48 108.92 582.02 108.54 Z" fill="#fefefe" />
<path d="M 836.36 108.81 C 835.73 114.54 834.06 119.91 834.45 125.77 L 832.94 125.58 C 833.97 120.04 834.36 114.09 836.36 108.81 Z" fill="#fefefe" />
<path d="M 503.49 110.15 C 507.95 109.04 513.25 110.02 517.78 110.40 C 517.74 114.52 517.74 118.63 517.66 122.75 C 512.44 122.74 507.38 123.07 502.27 121.70 C 502.79 117.85 503.21 114.02 503.49 110.15 Z" fill="#fefefe" />
<path d="M 843.80 110.34 C 846.95 110.23 850.07 110.08 853.21 109.77 C 853.16 116.31 852.72 122.63 851.84 129.11 C 848.13 129.64 844.56 129.07 840.88 128.61 C 841.85 126.35 843.29 124.27 844.06 121.94 C 844.74 118.09 844.79 114.14 843.80 110.34 Z" fill="#fefefe" />
<path d="M 541.39 121.94 C 540.48 123.87 538.84 122.86 537.26 122.70 C 537.18 121.83 537.11 120.96 537.07 120.09 C 538.93 119.30 541.40 119.31 541.39 121.94 Z" fill="#000000" />
<path d="M 828.37 123.34 C 828.64 125.57 828.06 127.36 830.34 128.67 C 837.46 133.51 847.41 134.41 855.49 131.62 C 855.84 130.44 856.19 129.26 856.54 128.07 C 863.02 129.54 869.43 131.67 875.41 134.60 C 877.69 135.67 879.57 137.20 881.32 138.99 C 875.23 142.10 867.69 141.93 861.01 141.85 C 847.06 141.33 832.78 138.88 819.48 134.66 C 813.53 132.60 807.42 130.61 802.88 126.05 C 810.21 122.20 820.32 123.06 828.37 123.34 Z" fill="#fefefe" />
<path d="M 193.92 124.52 C 195.22 129.91 196.00 135.46 196.99 140.92 C 194.50 142.62 192.19 143.49 189.25 144.10 C 187.45 138.02 186.45 132.42 186.15 126.07 C 188.74 125.57 191.32 124.99 193.92 124.52 Z" fill="#fefefe" />
<path d="M 177.98 124.71 C 179.43 126.86 178.86 129.53 178.96 132.01 C 178.85 136.44 179.55 140.75 179.87 145.15 L 178.27 144.52 C 177.10 139.86 177.05 134.81 176.79 130.02 C 176.84 128.04 176.23 126.17 177.98 124.71 Z" fill="#fefefe" />
<path d="M 450.50 136.05 C 451.15 137.64 451.33 139.16 452.87 140.17 C 457.10 143.42 462.21 145.59 466.91 148.08 C 474.53 151.62 482.71 155.36 490.98 156.91 C 496.63 158.21 502.16 159.73 507.98 160.12 C 518.80 161.60 529.72 162.48 540.59 163.48 C 542.37 166.29 544.09 169.13 545.74 172.02 C 540.11 172.60 534.66 171.96 529.00 171.96 C 507.26 171.13 485.15 168.72 464.12 162.97 C 455.68 160.46 446.10 157.45 439.21 151.79 C 437.39 150.09 434.38 147.20 436.63 144.68 C 439.74 140.43 445.75 137.96 450.50 136.05 Z" fill="#fefefe" />
<path d="M 604.08 137.45 C 608.52 138.52 612.54 140.35 616.61 142.39 C 621.00 144.73 625.00 147.25 627.19 151.93 C 624.28 156.90 619.58 159.29 614.47 161.47 C 604.63 165.49 593.85 167.73 583.36 169.27 C 572.78 170.75 562.07 171.74 551.38 171.88 C 550.04 169.18 548.54 166.56 547.09 163.91 C 555.77 163.98 564.34 163.05 572.93 161.99 C 580.55 160.95 586.89 157.86 593.85 154.86 C 597.89 153.23 601.49 150.43 604.75 147.58 C 605.78 144.82 604.10 140.47 604.08 137.45 Z" fill="#fefefe" />
<path d="M 201.45 139.09 C 208.92 138.31 216.69 138.45 224.03 140.18 C 222.73 141.51 221.49 142.91 219.87 143.85 C 210.40 149.39 198.87 151.80 188.04 152.75 C 179.57 152.92 171.42 154.62 163.00 154.20 C 158.50 153.97 154.44 154.70 150.41 152.99 C 156.61 148.01 165.36 145.85 172.90 143.74 C 173.53 144.95 174.13 146.17 174.76 147.37 C 183.38 150.19 194.23 148.95 201.24 142.96 C 201.31 141.67 201.38 140.38 201.45 139.09 Z" fill="#fefefe" />
<path d="M 826.79 140.90 C 825.93 145.13 823.93 149.31 820.91 152.42 C 821.63 148.98 823.09 145.69 824.49 142.48 C 824.81 141.56 825.57 141.04 826.79 140.90 Z" fill="#fefefe" />
<path d="M 539.65 144.19 C 539.77 145.12 539.89 146.05 540.02 146.98 C 539.29 147.33 538.56 147.64 537.81 147.93 C 536.34 148.23 533.13 146.49 534.90 144.83 C 536.38 143.11 537.75 143.88 539.65 144.19 Z" fill="#000000" />
<path d="M 550.09 144.22 C 551.02 144.13 551.95 144.07 552.89 144.04 C 553.63 145.55 554.47 146.62 552.87 147.94 C 550.58 147.11 549.86 146.88 550.09 144.22 Z" fill="#000000" />
<path d="M 835.91 143.44 C 840.61 144.18 845.32 144.83 850.05 145.41 C 849.78 150.50 848.37 155.14 847.12 160.05 C 841.44 160.88 836.69 159.70 831.36 157.92 C 833.88 153.62 834.45 148.33 835.91 143.44 Z" fill="#fefefe" />
<path d="M 796.03 144.85 C 803.27 145.11 810.68 146.53 817.76 148.05 C 817.40 150.08 815.50 152.84 817.42 154.46 C 820.13 157.14 823.90 158.98 827.25 160.77 C 834.04 163.10 841.57 164.49 848.74 163.56 C 850.81 163.64 851.34 160.57 852.28 159.16 C 861.48 162.94 870.67 167.40 878.73 173.27 C 881.23 175.29 884.21 177.30 884.89 180.66 C 881.24 182.07 877.89 182.51 873.99 182.32 C 863.39 181.86 852.71 179.38 842.49 176.63 C 827.70 172.46 812.93 167.02 799.50 159.50 C 795.02 156.93 790.34 153.97 786.81 150.17 C 785.83 148.89 784.58 148.19 785.30 146.40 C 788.56 144.92 792.50 144.77 796.03 144.85 Z" fill="#fefefe" />
<path d="M 431.89 152.97 C 434.04 154.97 436.18 156.98 438.35 158.95 C 436.73 164.55 434.79 169.83 431.92 174.91 C 429.76 178.68 428.54 184.74 425.00 187.34 C 423.08 186.98 421.18 186.37 419.32 185.79 C 417.79 181.50 421.15 179.32 422.35 175.35 C 425.78 167.98 428.59 160.38 431.89 152.97 Z" fill="#fefefe" />
<path d="M 204.83 156.79 C 206.41 160.33 207.95 163.98 209.02 167.71 C 205.35 170.52 201.75 172.38 197.36 173.82 C 195.54 168.99 194.54 164.27 194.02 159.15 C 197.59 158.25 201.19 157.39 204.83 156.79 Z" fill="#fefefe" />
<path d="M 681.66 156.40 C 688.14 157.05 694.39 158.72 700.92 159.14 C 710.23 162.02 719.81 163.54 728.88 167.17 C 742.69 171.76 755.92 178.30 768.61 185.40 C 774.88 188.64 780.33 193.03 786.39 196.61 C 793.24 201.21 799.23 208.27 805.01 213.97 C 810.48 218.99 814.87 224.72 819.66 230.36 C 823.29 234.76 825.96 240.10 829.06 244.93 C 833.71 252.26 838.17 259.58 841.21 267.75 C 846.62 281.22 850.45 295.15 853.60 309.31 C 857.04 323.40 860.35 337.56 862.94 351.84 C 864.12 361.86 865.31 371.87 866.91 381.84 C 861.53 383.38 856.24 385.04 851.00 387.01 C 845.18 389.24 839.01 389.82 833.26 392.21 C 824.86 395.71 815.81 397.75 806.79 398.81 C 801.88 399.42 797.11 400.67 792.18 401.10 C 781.62 402.10 770.56 403.74 760.00 403.09 C 746.24 403.15 732.53 403.00 718.79 403.95 C 718.99 396.84 722.07 390.26 721.85 383.02 C 721.57 363.56 725.27 344.38 724.75 325.00 C 724.61 314.25 724.45 303.54 723.26 292.84 C 723.13 284.71 721.53 276.93 720.06 268.98 C 717.56 252.74 715.62 235.19 710.93 219.10 C 708.80 212.57 706.58 206.07 704.66 199.48 C 702.48 192.03 698.22 185.05 695.02 177.98 C 691.70 170.42 685.89 163.44 681.66 156.40 Z" fill="#fefefe" />
<path d="M 242.26 160.17 C 237.57 166.45 230.97 170.18 224.44 174.44 C 221.21 176.38 218.35 178.55 214.72 179.71 C 209.33 181.48 204.26 184.01 198.95 185.96 C 184.72 190.52 170.07 195.00 155.00 195.30 C 151.81 194.89 147.91 195.07 145.16 193.26 C 149.75 188.11 155.46 184.74 161.44 181.44 C 166.78 178.61 172.25 175.94 177.92 173.84 C 178.46 175.47 178.96 177.11 179.46 178.75 C 191.17 180.95 205.06 177.72 213.52 168.98 C 213.11 167.17 212.65 165.38 212.23 163.57 C 221.95 161.56 232.31 159.93 242.26 160.17 Z" fill="#fefefe" />
<path d="M 179.58 160.80 L 181.62 161.30 C 182.73 166.09 183.36 170.95 184.79 175.67 C 184.06 175.50 182.65 175.75 182.47 174.79 C 181.31 170.18 180.21 165.52 179.58 160.80 Z" fill="#fefefe" />
<path d="M 628.16 160.77 C 628.76 167.22 629.36 173.49 631.22 179.73 C 632.01 183.31 632.85 186.73 631.16 190.19 C 628.34 196.69 625.55 203.21 622.71 209.70 C 620.57 214.70 617.46 218.94 614.36 223.36 C 611.49 227.54 607.61 230.17 603.70 233.71 C 599.51 237.36 594.81 238.67 589.87 240.90 C 584.75 243.27 579.30 244.26 573.91 246.03 C 566.29 247.58 558.42 248.27 550.64 248.32 C 550.99 235.39 553.50 222.92 553.21 210.00 C 553.09 205.22 553.73 200.71 553.08 196.00 C 552.23 189.78 553.25 183.58 552.28 177.36 C 564.27 176.57 576.22 176.01 588.10 174.05 C 602.32 171.68 615.95 168.82 628.16 160.77 Z" fill="#fefefe" />
<path d="M 361.61 171.24 C 357.94 173.09 353.53 173.47 349.53 174.27 C 347.35 174.72 344.61 173.41 342.88 174.89 C 337.22 178.85 330.77 178.70 324.31 180.16 C 317.81 181.30 311.80 183.92 305.37 185.36 C 299.74 188.71 293.64 190.88 287.77 193.77 C 282.26 196.59 276.27 198.12 270.64 200.72 C 268.49 201.79 266.56 201.04 264.24 201.22 C 262.30 202.46 261.48 205.16 259.50 206.47 C 256.34 208.67 253.11 210.76 249.93 212.93 C 249.20 212.55 248.47 212.16 247.73 211.78 C 247.62 210.56 247.48 209.34 247.32 208.12 C 250.27 206.78 253.28 205.75 256.05 204.05 C 266.29 197.98 276.86 192.51 287.76 187.76 C 293.96 185.15 300.39 183.06 306.70 180.73 C 313.93 178.53 321.34 177.14 328.54 174.83 C 336.75 173.98 344.82 172.40 352.94 170.91 C 356.12 170.46 358.70 169.14 361.61 171.24 Z" fill="#fefefe" />
<path d="M 498.95 175.17 C 514.84 176.68 530.72 177.54 546.69 177.42 C 547.18 180.26 547.66 183.06 547.61 185.95 C 547.50 199.47 548.08 212.83 546.57 226.30 C 545.60 233.78 546.42 241.23 545.08 248.61 C 534.24 247.68 523.22 246.14 512.48 244.33 C 502.56 242.14 492.32 239.99 482.89 236.15 C 484.19 232.95 485.50 229.80 486.58 226.51 C 490.54 212.54 496.20 200.00 498.23 185.37 C 498.60 181.89 498.43 178.59 498.95 175.17 Z" fill="#fefefe" />
<path d="M 822.90 175.32 C 829.24 177.46 835.56 179.51 842.01 181.30 C 840.71 185.40 838.71 189.19 837.21 193.20 C 833.72 203.12 829.01 212.68 823.12 221.39 C 817.18 214.01 810.76 207.47 803.76 201.10 C 805.84 198.72 808.26 196.72 810.47 194.49 C 815.88 188.79 818.85 181.74 822.90 175.32 Z" fill="#fefefe" />
<path d="M 562.30 182.63 C 562.37 183.88 562.39 185.14 562.40 186.39 C 561.00 186.66 559.62 186.81 558.20 186.87 C 558.00 185.58 557.91 184.30 557.94 183.03 C 559.46 182.56 560.72 182.45 562.30 182.63 Z" fill="#000000" />
<path d="M 540.85 182.89 C 541.59 184.16 541.92 185.51 542.22 186.93 C 539.99 187.96 539.52 187.85 537.44 186.66 C 537.33 185.84 537.22 185.02 537.13 184.19 C 538.32 183.35 539.42 183.06 540.85 182.89 Z" fill="#000000" />
<path d="M 219.02 186.07 C 221.54 189.63 223.27 193.54 226.14 196.88 C 233.43 205.46 241.29 213.80 249.80 221.19 C 250.77 222.18 252.42 223.56 252.37 225.04 C 251.97 227.98 251.12 231.35 250.06 234.13 C 248.27 237.83 245.76 241.16 243.74 244.74 C 242.86 246.38 241.74 247.35 240.21 248.36 C 238.03 246.90 235.84 245.92 234.25 243.76 C 229.57 237.59 224.58 231.90 221.06 224.95 C 215.18 214.00 208.78 203.30 203.17 192.22 C 208.52 190.31 213.78 188.25 219.02 186.07 Z" fill="#fefefe" />
<path d="M 426.94 195.30 C 414.65 198.53 401.96 201.09 389.26 201.84 C 388.90 200.78 388.54 199.72 388.17 198.66 C 396.77 198.43 405.18 198.17 413.68 196.73 C 418.07 195.96 422.47 195.40 426.94 195.30 Z" fill="#fefefe" />
<path d="M 190.75 196.11 C 192.77 203.59 195.94 210.84 199.08 217.92 C 202.74 226.08 207.99 232.77 212.74 240.27 C 215.97 245.23 219.67 249.83 223.52 254.33 C 222.13 254.65 220.64 255.13 219.22 254.98 C 212.68 249.16 209.35 242.24 205.21 234.79 C 200.62 227.34 196.58 219.62 193.62 211.37 C 191.96 206.42 189.44 201.85 187.86 196.88 C 188.82 196.61 189.78 196.35 190.75 196.11 Z" fill="#fefefe" />
<path d="M 634.53 197.46 L 635.17 197.19 C 639.48 198.46 643.41 201.02 647.82 202.14 C 655.59 204.15 663.47 205.66 671.24 207.71 C 674.78 214.55 678.47 221.16 680.29 228.73 C 683.14 236.42 683.61 244.47 685.80 252.32 C 687.51 259.32 687.70 266.36 688.33 273.49 C 690.27 287.11 690.93 300.82 689.34 314.51 C 688.62 319.96 688.78 325.41 688.38 330.87 C 687.14 340.77 686.75 350.66 684.63 360.46 C 683.85 366.10 682.61 371.42 680.66 376.75 C 677.55 378.83 674.08 380.35 670.81 381.83 C 666.77 383.68 663.31 385.81 659.22 387.20 C 655.53 388.46 651.86 389.78 648.17 391.05 C 652.34 378.05 656.34 364.97 659.71 351.74 C 661.70 343.84 663.41 335.69 663.77 327.55 C 655.30 324.88 646.52 323.10 637.84 321.19 C 633.48 320.61 629.84 319.65 625.82 317.86 C 628.07 306.04 630.16 294.02 630.90 281.99 C 631.80 275.73 632.00 269.56 631.83 263.24 C 627.85 262.53 623.84 261.84 619.82 261.44 C 614.50 260.92 608.93 263.60 603.72 264.51 C 593.99 266.14 583.88 268.14 574.00 268.29 C 568.64 268.17 563.38 269.01 558.02 268.61 C 551.33 268.25 544.68 269.08 538.00 268.66 C 532.66 268.45 527.31 268.52 521.97 268.69 C 516.27 268.94 510.73 267.53 505.00 267.76 C 494.02 268.04 483.86 265.06 472.99 264.00 C 469.96 263.67 466.88 265.18 464.01 266.10 C 463.63 274.04 463.14 282.05 463.58 290.00 C 463.48 298.64 463.13 307.30 463.14 315.94 C 462.06 317.22 459.98 317.67 458.45 318.22 C 454.20 319.36 450.13 321.02 445.90 322.22 C 444.68 315.24 444.18 308.17 442.83 301.21 C 440.42 284.89 435.97 268.86 433.04 252.67 C 442.55 252.60 451.51 249.60 461.00 250.12 C 471.67 250.39 482.40 248.51 492.99 247.57 C 497.37 247.99 501.69 247.38 506.03 247.55 C 512.06 249.06 518.14 250.33 524.27 251.36 C 532.17 252.05 540.08 252.80 547.99 253.36 C 561.94 252.87 577.16 251.49 590.20 246.23 C 595.75 244.35 601.08 242.32 605.84 238.83 C 608.31 236.96 611.00 235.35 613.37 233.37 C 617.93 228.70 621.45 223.35 624.75 217.75 C 628.96 211.34 631.36 204.34 634.53 197.46 Z" fill="#fefefe" />
<path d="M 561.56 207.34 C 561.75 208.52 561.92 209.70 562.07 210.88 C 559.62 212.11 559.35 212.21 556.91 210.86 C 557.59 207.79 558.17 206.68 561.56 207.34 Z" fill="#000000" />
<path d="M 538.38 208.22 C 540.02 207.77 540.96 207.54 541.76 209.34 C 542.82 210.79 540.61 211.84 539.81 212.78 C 538.80 212.20 537.79 211.63 536.78 211.04 C 537.27 210.08 537.81 209.14 538.38 208.22 Z" fill="#000000" />
<path d="M 556.35 233.25 C 557.44 233.16 558.53 233.12 559.62 233.11 C 559.34 235.98 560.23 237.56 557.21 239.00 C 556.45 238.58 555.70 238.15 554.94 237.73 C 555.29 236.09 555.23 234.60 556.35 233.25 Z" fill="#000000" />
<path d="M 542.21 233.83 C 542.15 235.15 541.91 236.39 541.49 237.56 C 539.63 238.84 538.11 237.57 536.43 236.66 C 536.02 233.65 540.27 233.83 542.21 233.83 Z" fill="#000000" />
<path d="M 392.85 241.03 C 395.37 246.92 396.72 252.81 397.50 259.15 C 400.05 272.40 402.86 285.49 403.78 298.98 C 405.26 307.35 404.82 315.53 405.20 324.00 C 404.80 334.52 404.37 345.10 404.51 355.63 C 402.35 356.10 400.21 356.61 398.10 357.23 C 397.98 358.16 397.86 359.08 397.74 360.01 C 400.05 360.83 402.30 361.33 404.74 361.63 C 405.71 368.62 405.01 375.54 403.72 382.43 C 400.80 383.14 398.00 384.11 395.23 385.25 C 395.13 386.11 395.03 386.96 394.94 387.82 C 397.72 387.85 400.49 387.78 403.27 387.69 C 403.29 392.51 402.25 397.18 402.05 401.99 C 401.79 406.97 401.24 411.82 399.62 416.56 C 392.47 417.99 385.27 418.36 378.00 418.30 C 369.24 418.20 360.77 419.90 351.99 419.14 C 337.04 418.95 321.13 420.88 306.04 419.33 C 294.32 418.43 282.71 418.94 271.00 418.64 C 259.25 419.46 246.94 417.58 235.20 416.45 C 234.08 410.63 235.78 404.63 237.12 398.98 C 239.01 391.42 240.05 383.90 242.64 376.52 C 245.13 368.69 248.05 361.08 251.71 353.71 C 256.14 344.73 259.77 335.33 264.48 326.49 C 269.31 317.48 276.27 311.44 282.14 303.14 C 288.46 294.15 296.18 286.62 304.28 279.27 C 316.94 267.91 331.72 260.29 346.87 252.87 C 355.19 248.22 365.21 246.08 374.33 243.27 C 380.35 241.91 386.71 241.70 392.85 241.03 Z" fill="#fefefe" />
<path d="M 206.94 248.26 C 208.36 250.00 209.67 251.82 210.94 253.67 C 209.29 254.57 206.95 255.28 205.86 256.86 C 202.59 261.48 200.96 267.43 198.49 272.50 C 195.84 277.89 193.27 283.33 190.80 288.81 C 185.65 299.98 182.26 312.35 179.30 324.27 C 178.25 329.72 176.53 334.95 175.03 340.27 C 174.20 342.97 172.51 345.13 172.11 348.00 C 170.46 357.30 168.93 366.59 168.15 376.01 C 167.63 383.65 165.54 390.53 166.96 398.21 C 165.67 398.06 164.39 397.89 163.11 397.73 C 163.76 390.87 165.37 383.87 165.33 377.00 C 165.34 372.18 165.61 367.41 166.60 362.68 C 168.14 355.50 169.42 348.28 171.20 341.15 C 175.49 323.39 179.14 304.75 185.65 287.73 C 188.67 279.18 192.46 271.03 197.42 263.42 C 200.74 258.45 203.52 253.15 206.94 248.26 Z" fill="#fefefe" />
<path d="M 615.44 266.46 C 619.80 264.99 623.55 266.26 627.95 266.58 C 627.82 275.06 625.70 283.51 625.08 292.00 C 624.10 302.88 620.08 314.38 621.11 325.24 C 622.45 324.50 623.75 323.69 625.06 322.89 C 629.12 323.72 633.16 324.53 637.09 325.85 C 643.81 328.02 650.76 329.01 657.54 330.85 C 657.14 336.02 656.16 340.91 654.87 345.92 C 651.75 358.36 649.22 371.08 645.22 383.21 C 643.17 388.02 641.64 392.98 639.79 397.86 C 638.13 398.42 636.41 399.06 634.70 399.40 C 624.30 400.71 614.19 405.68 603.83 407.87 C 600.94 408.40 598.09 408.39 595.26 409.28 C 589.97 411.03 584.61 411.36 579.17 412.39 C 574.42 413.28 569.63 412.89 564.86 413.68 C 558.78 414.66 553.08 414.03 547.00 414.13 C 543.64 414.30 540.33 414.65 536.96 414.40 C 526.71 413.14 516.26 413.45 505.98 412.64 C 498.55 412.08 491.36 410.53 483.98 409.82 C 477.04 409.27 470.17 406.93 463.30 405.62 C 459.19 404.67 454.86 404.30 450.85 403.01 C 446.59 399.18 448.57 394.53 446.09 389.93 C 443.20 384.26 440.39 378.60 438.52 372.48 C 434.21 358.80 431.32 344.73 427.05 331.02 C 432.27 329.61 437.42 328.52 442.76 327.69 C 452.31 325.78 461.67 321.99 470.74 318.51 C 472.08 316.51 471.96 313.37 472.07 311.04 C 471.91 296.66 472.94 282.34 472.13 267.95 C 482.10 269.39 491.97 270.39 502.00 271.18 C 510.97 272.42 519.98 272.86 529.02 272.93 C 534.51 273.00 539.61 274.20 545.00 273.84 C 551.56 273.20 558.11 273.99 564.70 273.31 C 571.42 272.61 578.14 272.70 584.87 272.33 C 595.26 271.39 605.44 269.40 615.44 266.46 Z" fill="#fefefe" />
<path d="M 517.56 308.42 C 522.41 308.85 527.10 309.96 532.00 309.92 C 537.39 309.81 542.62 311.01 548.00 310.75 C 552.40 310.50 556.62 311.75 561.00 311.50 C 569.21 310.81 577.44 310.94 585.66 310.21 C 585.76 315.98 585.68 321.78 585.41 327.54 C 584.77 333.72 583.65 339.80 583.51 346.03 C 583.49 351.58 581.37 356.51 580.83 361.99 C 580.52 364.93 580.12 367.83 579.59 370.74 C 573.77 372.03 567.99 373.09 562.00 373.03 C 545.87 374.33 529.82 373.31 513.85 370.90 C 514.44 361.44 516.74 352.17 517.35 342.69 C 518.69 331.24 518.04 319.89 517.56 308.42 Z" fill="#000000" />
<path d="M 519.96 310.64 C 528.24 311.96 536.64 312.18 544.99 313.24 C 550.98 314.08 556.89 313.89 563.01 313.95 C 569.63 314.06 576.13 312.76 582.78 313.10 C 583.27 326.44 581.86 339.55 579.74 352.69 C 578.68 357.64 577.47 362.56 576.40 367.51 C 568.82 369.11 560.74 369.54 553.01 370.29 C 541.64 370.28 530.18 369.72 518.94 367.94 C 519.24 359.61 519.15 351.38 520.11 343.09 C 521.29 332.30 521.16 321.43 519.96 310.64 Z" fill="#fefefe" />
<path d="M 544.31 321.17 C 545.99 320.84 547.78 320.97 549.49 320.92 C 549.74 325.57 549.51 330.22 549.00 334.85 C 545.98 335.24 543.16 335.08 540.17 334.62 C 540.15 331.69 539.87 328.42 540.72 325.60 C 541.72 324.00 542.96 322.48 544.31 321.17 Z" fill="#000000" />
<path d="M 552.25 321.18 C 554.03 321.14 555.83 321.24 557.61 321.30 C 558.48 323.06 559.94 325.01 560.04 327.01 C 560.12 329.92 559.76 332.85 559.58 335.75 C 557.36 335.71 553.41 336.55 551.73 334.87 C 551.57 330.49 551.76 325.53 552.25 321.18 Z" fill="#000000" />
<path d="M 537.72 328.16 C 538.13 332.75 537.78 337.25 537.03 341.79 C 534.79 341.80 532.56 341.78 530.32 341.73 C 530.25 339.04 529.76 336.03 530.42 333.41 C 531.31 331.69 532.49 330.09 533.67 328.55 C 535.02 328.39 536.37 328.28 537.72 328.16 Z" fill="#000000" />
<path d="M 563.20 329.94 C 567.48 328.24 568.45 332.23 569.67 335.32 C 569.83 337.82 569.12 340.43 568.72 342.90 C 566.60 342.91 564.48 342.85 562.36 342.77 C 562.38 338.59 562.17 334.00 563.20 329.94 Z" fill="#000000" />
<path d="M 540.56 337.20 C 546.07 336.39 551.89 337.50 557.47 337.50 C 557.52 339.33 557.53 341.17 557.54 343.00 C 561.00 346.28 564.68 349.28 567.98 352.72 C 565.00 355.74 562.32 358.99 559.11 361.78 C 555.52 359.22 552.05 356.55 548.82 353.53 C 545.57 355.94 542.54 358.61 539.13 360.80 C 536.33 358.12 533.55 355.42 530.73 352.76 C 532.94 349.29 536.15 346.86 538.69 343.69 C 540.20 341.80 540.04 339.51 540.56 337.20 Z" fill="#000000" />
<path d="M 445.62 406.55 C 448.04 407.90 447.74 410.29 448.48 412.66 C 449.96 419.71 452.10 426.27 452.35 433.54 C 450.92 432.98 449.50 432.42 448.07 431.87 C 447.48 427.59 447.56 423.27 446.90 419.00 C 446.29 414.91 445.66 410.69 445.62 406.55 Z" fill="#fefefe" />
<path d="M 637.00 407.80 C 647.33 407.59 657.56 408.47 667.85 408.81 C 677.57 410.66 687.49 409.76 696.95 410.09 C 701.98 410.86 706.85 410.51 711.88 410.05 C 717.46 421.56 720.29 434.82 723.80 447.09 C 726.13 455.58 729.35 463.76 731.80 472.21 C 734.15 479.47 735.77 487.03 739.04 493.80 C 732.16 495.89 725.25 498.01 718.57 500.68 C 710.82 504.19 703.58 509.41 696.45 513.47 C 691.60 516.33 687.64 520.38 683.54 524.18 C 688.37 534.90 693.22 545.66 697.33 556.68 C 700.01 564.68 702.07 572.93 705.11 580.83 C 708.04 588.16 709.36 595.86 711.59 603.51 C 714.23 612.52 714.79 621.86 717.14 630.93 C 720.40 643.34 722.48 656.09 724.16 668.80 C 724.76 673.12 724.82 677.45 724.73 681.80 C 720.24 683.51 715.65 683.61 710.96 684.21 C 705.84 684.75 700.28 685.46 695.16 684.91 C 694.44 684.83 693.81 684.42 693.27 683.69 C 688.34 678.11 684.34 671.50 681.27 664.73 C 675.20 652.85 670.60 640.15 666.48 627.49 C 662.85 617.64 661.17 607.19 657.83 597.21 C 657.62 596.38 657.22 595.75 656.65 595.32 C 653.47 593.89 649.35 594.05 645.91 593.83 C 646.97 590.89 648.19 587.94 648.91 584.89 C 650.05 576.64 648.15 568.70 644.80 561.20 C 641.47 555.89 636.67 550.64 630.77 548.23 C 626.72 546.36 622.47 545.78 618.09 545.26 C 623.60 543.20 627.46 540.06 633.34 540.09 C 633.70 536.71 632.38 533.48 632.22 530.03 C 631.81 523.27 630.55 516.71 630.97 510.02 C 628.84 508.82 626.68 507.73 624.67 506.32 C 620.76 503.06 614.76 503.81 610.00 503.93 C 605.12 504.48 600.26 503.91 595.38 504.34 C 593.43 493.27 589.80 483.33 589.82 472.00 C 589.96 463.75 589.39 455.30 590.46 447.15 C 591.07 442.26 591.15 437.34 591.71 432.46 C 592.36 426.76 594.12 420.95 595.48 415.37 C 604.38 412.82 613.44 410.90 622.30 408.17 C 626.77 406.43 632.15 408.00 637.00 407.80 Z" fill="#fefefe" />
<path d="M 785.17 408.44 C 787.48 412.61 788.77 417.09 790.33 421.56 C 794.77 435.89 800.55 449.78 805.24 464.02 C 796.60 464.26 787.93 464.02 779.28 464.59 C 775.64 465.03 772.04 465.73 768.37 465.98 C 764.75 452.78 759.21 438.86 758.06 425.20 C 760.67 420.65 766.12 417.27 770.43 414.45 C 775.46 411.92 779.40 408.78 785.17 408.44 Z" fill="#fefefe" />
<path d="M 482.47 415.31 C 493.99 416.63 505.38 418.65 516.98 419.40 C 521.84 419.63 526.63 419.33 531.49 419.88 C 537.03 420.66 542.39 420.17 548.00 420.45 C 556.69 420.80 565.37 420.73 574.04 420.08 C 579.01 419.61 583.73 418.17 588.75 418.07 C 588.29 422.99 587.67 427.89 586.80 432.75 C 577.88 437.04 568.66 440.41 558.79 441.62 C 550.81 442.48 543.03 444.02 534.96 443.72 C 524.06 444.53 512.89 445.43 501.99 443.73 C 496.11 443.07 490.24 442.40 484.41 441.46 C 482.68 438.47 481.26 435.60 481.43 432.04 C 480.94 426.32 482.99 421.02 482.47 415.31 Z" fill="#fefefe" />
<path d="M 308.51 427.01 C 305.90 432.36 303.40 437.82 301.45 443.45 C 296.50 455.47 294.15 468.40 289.67 480.62 C 287.52 487.36 284.54 493.72 282.58 500.51 C 281.16 505.61 279.47 510.72 277.25 515.53 C 276.19 515.33 275.13 515.13 274.08 514.93 C 273.44 509.03 273.75 503.16 273.62 497.25 C 267.16 493.91 260.27 492.09 253.25 490.39 C 256.78 483.27 259.01 475.73 261.16 468.11 C 263.03 461.25 266.31 454.95 268.16 448.11 C 269.35 443.80 270.56 439.53 272.35 435.42 C 279.79 433.75 286.99 431.31 294.33 429.27 C 299.00 427.90 303.82 428.29 308.51 427.01 Z" fill="#fefefe" />
<path d="M 238.67 438.95 C 235.89 447.72 231.96 456.13 228.78 464.76 C 225.56 473.12 223.42 481.72 219.80 489.91 C 218.85 489.96 217.90 490.00 216.95 490.05 C 221.08 477.97 225.51 465.98 229.94 454.01 C 231.30 449.80 232.49 445.31 234.19 441.22 C 234.70 439.18 237.06 439.58 238.67 438.95 Z" fill="#fefefe" />
<path d="M 448.30 438.80 C 450.13 439.43 451.77 440.38 453.44 441.33 C 455.15 453.36 453.65 465.10 453.84 477.16 C 452.58 476.67 451.33 476.17 450.08 475.69 C 449.50 470.17 449.90 464.53 449.81 458.98 C 449.88 452.14 448.92 445.55 448.30 438.80 Z" fill="#fefefe" />
<path d="M 585.69 442.00 C 584.36 450.25 584.81 458.37 584.68 466.68 C 580.78 469.87 576.02 472.03 571.59 474.56 C 564.00 478.82 554.51 480.37 546.12 482.85 C 535.49 485.86 525.71 484.01 515.00 485.18 C 507.00 485.56 499.13 485.19 491.17 484.45 C 492.25 477.22 493.15 470.41 491.99 463.08 C 491.19 458.63 488.75 454.53 487.22 450.19 C 491.50 450.47 495.72 451.22 500.00 451.52 C 510.57 452.83 521.39 452.53 531.98 451.62 C 550.54 451.07 568.41 449.28 585.69 442.00 Z" fill="#fefefe" />
<path d="M 826.59 472.57 C 832.90 473.68 839.28 474.33 845.58 475.48 C 849.72 476.53 853.89 477.60 857.95 478.92 C 859.37 491.29 855.31 504.46 853.59 516.72 C 853.04 521.05 851.72 525.15 850.30 529.26 C 848.77 533.70 847.96 538.27 846.86 542.81 C 845.63 547.98 843.17 552.35 841.45 557.33 C 840.80 559.31 839.88 561.14 838.83 562.95 C 829.84 562.70 821.03 560.20 811.98 558.82 C 813.34 552.43 815.73 546.33 817.00 539.91 C 819.30 528.16 821.87 516.47 823.81 504.65 C 825.55 493.76 827.91 483.70 826.59 472.57 Z" fill="#fefefe" />
<path d="M 585.49 474.91 C 586.24 479.42 586.54 483.93 587.59 488.39 C 588.84 494.25 590.73 499.62 590.83 505.68 C 588.41 507.28 586.00 509.04 583.40 510.33 C 565.58 517.27 546.87 520.78 527.85 522.34 C 518.99 522.33 510.17 522.43 501.31 522.72 C 498.25 518.11 495.34 513.30 492.62 508.47 C 489.49 502.69 489.27 496.61 489.57 490.18 C 494.44 490.45 499.12 491.66 504.00 491.66 C 510.00 491.68 516.00 491.62 522.00 491.66 C 526.58 491.65 531.02 491.78 535.52 490.78 C 545.18 488.70 554.34 488.42 563.64 484.74 C 571.27 482.16 578.22 478.28 585.49 474.91 Z" fill="#fefefe" />
<path d="M 762.08 475.89 C 760.90 482.20 759.60 488.42 759.42 494.87 C 758.28 494.55 757.15 494.24 756.02 493.92 C 755.89 488.72 756.31 483.53 756.15 478.33 C 758.14 477.54 760.10 476.69 762.08 475.89 Z" fill="#fefefe" />
<path d="M 864.02 480.46 C 874.28 482.13 883.62 485.98 893.49 488.96 C 891.77 498.07 891.76 507.66 889.86 516.82 C 885.93 530.23 883.38 543.06 876.44 555.42 C 874.61 558.46 872.97 561.96 870.49 564.51 C 866.86 565.89 863.10 565.98 859.30 565.48 C 854.07 564.77 848.81 564.81 843.61 563.91 C 844.29 560.43 846.60 558.16 848.00 555.01 C 851.62 546.98 853.82 538.76 856.47 530.47 C 859.05 523.61 859.23 516.79 860.81 509.66 C 862.83 499.96 863.75 490.36 864.02 480.46 Z" fill="#fefefe" />
<path d="M 449.38 481.98 C 450.82 482.46 452.26 482.94 453.71 483.41 C 454.20 493.17 452.49 503.12 451.42 512.81 C 449.68 512.23 447.95 511.62 446.22 510.99 C 446.13 501.26 448.72 491.71 449.38 481.98 Z" fill="#fefefe" />
<path d="M 852.15 495.20 C 851.76 497.12 851.47 498.57 849.46 499.37 C 846.81 500.54 844.50 497.98 845.15 495.33 C 847.11 492.99 849.82 494.28 852.15 495.20 Z" fill="#000000" />
<path d="M 215.00 496.21 C 221.02 495.89 227.01 496.55 233.04 496.37 C 236.65 496.25 240.13 496.89 243.67 497.49 C 252.14 498.72 260.17 499.31 267.92 503.25 C 267.63 508.42 268.14 513.56 267.95 518.73 C 263.65 520.12 259.66 520.99 256.51 524.51 C 254.13 527.23 251.84 530.53 250.81 534.02 C 249.57 542.95 251.01 551.90 257.35 558.65 C 260.41 562.09 264.44 563.29 268.80 564.21 C 268.61 567.95 268.58 571.69 268.38 575.43 C 262.56 576.91 257.04 578.57 251.00 579.00 C 245.32 579.46 239.69 579.99 234.15 581.38 C 228.10 582.91 221.99 582.51 215.84 583.50 C 213.36 583.47 210.11 585.06 208.53 582.44 C 202.31 574.94 197.29 565.98 194.21 556.73 C 188.08 541.67 186.43 524.35 184.44 508.30 C 184.03 505.32 183.62 502.36 183.82 499.33 C 188.29 498.96 192.67 498.02 197.12 497.52 C 203.09 497.18 209.02 496.47 215.00 496.21 Z" fill="#fefefe" />
<path d="M 873.32 498.13 C 872.80 498.96 872.23 499.74 871.62 500.49 C 869.41 500.86 868.62 499.36 867.21 498.02 C 869.90 495.88 870.65 496.80 873.32 498.13 Z" fill="#000000" />
<path d="M 597.17 506.90 C 602.47 506.45 607.04 507.90 612.18 508.68 C 615.07 509.18 618.01 509.44 620.89 510.00 C 623.06 510.43 625.08 512.03 626.95 513.17 C 625.53 521.34 626.59 529.27 627.11 537.45 C 621.34 537.60 615.53 539.38 610.04 541.08 C 600.57 544.52 591.13 547.98 581.85 551.92 C 578.86 553.24 575.76 553.99 572.57 554.61 C 570.41 560.88 569.71 567.44 568.01 573.87 C 565.42 584.52 564.65 595.30 564.10 606.19 C 558.37 606.09 552.46 606.32 546.82 605.26 C 540.45 604.31 534.22 605.52 527.86 605.91 C 528.04 599.58 529.10 593.36 528.85 587.00 C 528.64 578.94 529.59 571.00 530.96 563.06 C 532.33 553.40 533.04 541.50 538.20 532.96 C 535.77 531.00 533.34 529.03 530.96 527.01 C 539.15 526.80 546.90 524.58 555.02 523.92 C 559.73 523.32 564.33 521.89 569.00 521.02 C 572.45 520.38 575.70 519.42 578.84 517.85 C 583.12 515.71 587.76 514.26 591.40 511.39 C 593.36 509.95 595.13 508.23 597.17 506.90 Z" fill="#fefefe" />
<path d="M 402.96 514.38 C 415.01 514.41 426.88 513.00 438.95 513.62 C 445.43 517.75 452.58 519.27 459.90 521.22 C 470.86 523.96 482.31 525.02 493.54 526.70 C 502.31 528.02 511.14 527.27 519.90 527.83 C 523.28 529.49 526.33 531.90 529.36 534.12 C 528.58 540.00 527.17 545.77 526.44 551.67 C 525.39 560.86 523.80 569.99 522.43 579.13 C 521.57 588.01 522.49 597.03 522.33 605.95 C 515.13 606.02 507.70 605.78 500.57 606.86 C 494.88 608.44 489.11 608.69 483.27 609.20 C 483.52 607.11 483.60 605.10 483.28 603.02 C 481.31 590.00 483.35 576.09 481.83 562.98 C 479.14 564.01 479.72 565.93 479.44 568.28 C 479.36 565.61 479.52 563.96 481.16 561.80 C 482.42 560.13 481.69 558.67 481.51 556.80 C 474.27 555.70 467.05 554.18 460.09 551.89 C 452.80 549.64 445.37 548.01 437.81 546.96 C 437.03 540.07 440.04 533.59 439.87 526.49 C 432.81 524.56 425.99 522.00 419.00 519.88 C 413.63 518.20 408.08 516.72 402.96 514.38 Z" fill="#fefefe" />
<path d="M 843.51 515.62 C 845.03 515.22 846.20 515.86 847.64 516.26 C 847.73 517.12 847.82 517.98 847.91 518.84 C 845.07 520.56 844.71 520.69 841.86 518.82 C 842.26 517.50 842.10 516.31 843.51 515.62 Z" fill="#000000" />
<path d="M 863.43 517.45 C 865.08 517.05 866.40 517.56 867.91 518.15 C 867.86 519.34 867.81 520.53 867.76 521.72 C 865.14 523.14 864.71 523.16 862.03 521.82 C 862.39 520.34 862.57 518.71 863.43 517.45 Z" fill="#000000" />
<path d="M 282.03 522.98 C 285.21 524.00 288.16 525.50 291.26 526.71 C 300.95 529.99 311.33 534.12 319.27 540.73 C 323.78 544.32 328.51 547.61 332.95 551.29 C 330.29 559.11 326.13 566.08 322.44 573.42 C 316.74 586.73 311.52 600.01 308.06 614.11 C 304.87 626.14 303.30 638.43 300.33 650.50 C 299.17 658.86 296.63 666.92 295.54 675.27 C 294.46 686.14 293.76 696.95 294.87 707.85 C 292.02 709.23 289.20 710.20 286.12 710.94 C 281.42 703.40 274.72 697.39 267.08 692.93 C 259.98 688.89 252.49 687.70 244.52 686.68 C 244.10 677.09 242.61 667.63 242.59 658.00 C 242.58 645.32 241.57 632.69 241.77 620.00 C 241.85 608.87 240.74 597.42 242.11 586.36 C 246.40 585.86 250.71 585.49 255.02 585.13 C 260.89 584.54 266.68 582.87 272.39 581.44 C 274.30 580.95 276.15 579.30 275.18 577.18 C 273.41 572.86 273.95 568.61 273.92 564.07 C 277.45 562.21 281.63 560.31 284.29 557.28 C 287.29 550.09 289.90 542.06 287.85 534.25 C 286.81 529.90 284.24 526.73 282.03 522.98 Z" fill="#fefefe" />
<path d="M 274.29 524.71 C 278.39 528.51 280.52 533.34 281.92 538.66 C 278.71 538.04 275.25 536.83 272.03 537.79 C 267.88 538.89 263.66 539.86 259.61 541.28 C 264.26 543.85 269.25 544.62 274.42 545.61 C 277.47 546.81 279.83 542.18 282.06 540.66 C 281.92 544.48 281.00 548.11 279.62 551.66 C 278.39 556.11 273.57 559.42 269.04 559.46 C 265.38 558.38 262.25 555.83 260.38 552.52 C 258.60 548.53 257.92 543.35 257.90 539.02 C 258.96 534.24 261.13 529.01 264.34 525.28 C 267.09 523.72 271.57 522.51 274.29 524.71 Z" fill="#fefefe" />
<path d="M 839.21 538.15 C 841.27 537.73 842.34 538.85 843.89 539.94 C 842.76 542.40 841.03 544.07 838.20 542.93 C 835.33 542.26 837.11 538.37 839.21 538.15 Z" fill="#000000" />
<path d="M 755.25 539.14 C 756.90 538.83 758.58 538.65 760.25 538.44 C 760.39 542.96 760.56 547.45 761.21 551.94 C 759.33 551.52 757.45 551.07 755.58 550.57 C 755.49 546.76 755.25 542.95 755.25 539.14 Z" fill="#fefefe" />
<path d="M 859.83 544.16 C 860.76 546.67 857.16 548.14 855.43 546.75 C 854.79 545.81 854.19 544.84 853.63 543.85 C 855.54 542.69 858.52 541.74 859.83 544.16 Z" fill="#000000" />
<path d="M 610.51 548.60 C 613.35 547.70 616.01 548.40 618.78 549.18 C 626.42 551.66 633.24 556.51 638.03 562.97 C 641.62 567.53 641.63 574.48 641.53 580.00 C 641.29 584.39 641.30 590.00 638.79 593.78 C 634.83 599.52 630.78 604.94 625.23 609.26 C 623.58 610.44 621.27 610.82 619.34 611.37 C 615.38 612.28 612.02 613.85 607.86 612.89 C 614.71 609.59 621.08 607.22 626.13 601.12 C 629.81 595.51 632.10 588.73 631.44 581.96 C 630.82 577.00 629.77 572.22 627.10 567.92 C 623.98 562.93 620.98 558.05 615.32 555.66 C 610.45 553.00 605.62 553.44 600.28 553.32 C 597.42 553.36 594.47 554.92 591.73 555.75 C 593.42 554.34 595.15 553.07 597.29 552.42 C 601.67 551.07 606.10 549.85 610.51 548.60 Z" fill="#fefefe" />
<path d="M 519.51 550.47 C 520.73 549.89 521.89 550.28 522.84 551.16 C 523.25 553.24 521.07 554.83 519.16 553.97 C 517.17 553.55 517.79 551.05 519.51 550.47 Z" fill="#000000" />
<path d="M 535.26 552.21 C 536.47 551.89 537.72 551.77 539.02 551.83 C 538.55 553.82 539.22 555.59 537.00 556.56 C 534.80 555.70 535.36 554.14 535.26 552.21 Z" fill="#000000" />
<path d="M 586.84 554.96 C 584.46 557.26 582.03 559.40 580.22 562.21 C 579.29 564.10 577.54 563.74 575.76 564.27 C 575.90 562.22 576.08 560.17 576.20 558.12 C 579.72 556.98 583.25 555.87 586.84 554.96 Z" fill="#fefefe" />
<path d="M 412.93 557.35 C 421.58 558.28 429.48 562.57 436.42 567.60 C 438.30 569.12 440.26 570.67 440.84 573.14 C 441.54 575.68 442.46 578.12 443.44 580.57 C 445.40 584.94 444.79 590.54 444.17 595.17 C 443.40 602.51 437.91 608.79 433.80 614.72 C 431.37 613.68 429.20 612.44 427.04 610.93 C 427.53 609.65 428.04 608.37 428.53 607.08 C 425.14 605.21 422.02 603.48 419.88 600.12 C 418.22 597.43 416.46 594.62 415.39 591.63 C 413.79 587.50 414.50 582.35 415.10 578.05 C 415.67 574.03 416.78 570.49 418.55 566.85 C 416.31 564.84 413.95 563.31 410.90 562.90 C 404.07 562.18 397.27 562.75 391.20 566.20 C 388.59 568.19 386.34 570.73 384.14 573.15 C 381.26 576.53 380.40 580.63 380.23 584.96 C 380.10 589.25 379.65 594.07 380.93 598.21 C 382.23 602.18 385.13 604.26 387.16 607.75 C 386.13 607.87 385.10 607.98 384.07 608.08 C 379.69 601.09 375.67 592.39 376.72 583.95 C 377.49 577.31 382.28 572.27 386.11 567.09 C 389.24 562.40 395.81 561.17 400.90 559.79 C 405.43 558.91 408.56 556.81 412.93 557.35 Z" fill="#fefefe" />
<path d="M 778.13 561.03 C 783.84 561.75 789.13 563.64 794.95 563.88 C 800.92 564.10 806.82 564.97 812.77 565.43 C 812.49 573.98 811.56 582.45 810.89 590.96 C 810.60 598.77 808.80 606.24 807.93 614.02 C 807.26 620.59 805.56 626.95 804.65 633.48 C 803.46 642.68 801.05 651.74 798.83 660.74 C 791.76 660.26 785.02 661.84 778.00 662.04 C 781.10 655.30 781.48 648.28 781.86 641.00 C 783.06 624.29 784.35 606.64 782.00 590.02 C 781.52 580.28 779.27 570.73 778.13 561.03 Z" fill="#fefefe" />
<path d="M 817.98 566.60 C 826.29 567.95 834.61 568.96 842.97 569.93 C 848.99 570.21 855.03 570.34 861.06 570.39 C 860.36 574.54 859.42 578.64 858.86 582.82 C 856.92 597.23 854.66 611.59 851.71 625.83 C 849.76 638.42 845.69 650.81 842.04 663.00 C 840.60 668.49 839.01 673.85 836.17 678.81 C 830.11 673.75 823.68 669.06 816.79 665.20 C 813.36 663.32 809.20 662.33 805.48 661.15 C 807.15 652.94 809.69 645.08 810.64 636.83 C 811.46 629.79 813.40 623.04 813.90 615.96 C 815.31 599.52 816.85 583.07 817.98 566.60 Z" fill="#fefefe" />
<path d="M 806.31 571.68 C 807.95 574.19 805.01 577.37 802.47 575.68 C 800.93 574.41 801.71 572.43 801.76 570.71 C 803.47 570.71 805.17 570.02 806.31 571.68 Z" fill="#000000" />
<path d="M 824.13 573.16 C 827.42 573.04 826.76 574.26 827.25 576.84 C 826.22 577.10 825.19 577.37 824.15 577.63 C 824.11 576.14 824.06 574.65 824.13 573.16 Z" fill="#000000" />
<path d="M 519.64 574.25 C 519.66 575.14 519.66 576.03 519.67 576.92 C 517.96 577.01 516.80 576.87 515.25 576.05 C 516.44 573.93 517.57 574.43 519.64 574.25 Z" fill="#000000" />
<path d="M 531.60 576.41 C 533.01 575.69 534.30 575.81 535.81 576.01 C 535.34 577.85 535.67 580.32 533.07 580.34 C 531.39 579.37 531.67 578.08 531.60 576.41 Z" fill="#000000" />
<path d="M 800.84 588.67 C 801.85 589.19 802.85 589.73 803.85 590.28 C 803.29 591.26 802.75 592.21 802.10 593.13 C 801.04 593.45 799.82 593.38 798.71 593.42 C 798.60 590.92 798.49 590.05 800.84 588.67 Z" fill="#000000" />
<path d="M 822.11 590.96 C 823.35 591.03 824.59 591.10 825.82 591.18 C 825.97 592.56 826.53 594.39 825.78 595.64 C 824.49 596.69 823.40 596.26 821.93 595.98 C 822.00 594.31 822.06 592.63 822.11 590.96 Z" fill="#000000" />
<path d="M 534.71 594.30 C 536.01 595.23 535.67 596.34 535.88 597.74 C 534.91 597.85 533.94 597.96 532.96 598.08 C 532.52 597.13 532.25 596.16 532.13 595.18 C 532.94 594.62 533.80 594.33 534.71 594.30 Z" fill="#000000" />
<path d="M 162.90 595.23 C 164.69 595.19 166.48 595.16 168.26 595.09 C 167.66 601.49 169.14 608.12 169.63 614.53 C 172.36 631.78 173.17 650.12 179.19 666.77 C 181.82 673.95 182.71 681.14 185.93 688.07 C 187.46 691.76 189.67 695.10 191.16 698.79 C 192.66 700.99 189.01 702.28 187.87 703.68 C 184.71 698.28 183.19 692.39 181.56 686.41 C 179.80 680.77 178.02 675.15 176.54 669.43 C 173.17 658.13 171.54 646.23 169.25 634.64 C 166.79 621.53 165.64 608.28 162.90 595.23 Z" fill="#fefefe" />
<path d="M 515.34 595.21 C 516.46 595.11 517.58 595.09 518.70 595.15 C 518.37 596.42 518.04 597.68 517.74 598.95 C 516.60 598.57 515.46 598.18 514.34 597.74 C 514.48 596.76 514.82 595.92 515.34 595.21 Z" fill="#000000" />
<path d="M 645.47 596.46 C 647.31 596.33 649.20 596.52 651.04 596.66 C 647.85 600.06 643.98 602.31 640.05 604.78 C 641.82 602.01 643.39 599.01 645.47 596.46 Z" fill="#fefefe" />
<path d="M 654.88 602.06 C 657.29 612.09 659.90 622.07 661.91 632.19 C 663.03 638.57 665.99 644.62 668.16 650.84 C 670.90 658.43 674.96 665.22 678.65 672.35 C 680.68 676.20 683.41 679.57 685.49 683.38 C 679.06 683.50 672.51 683.90 666.11 683.20 C 664.92 682.62 664.86 680.63 664.38 679.50 C 661.04 667.57 655.78 656.94 651.51 645.51 C 648.75 638.41 644.57 632.69 640.86 626.13 C 638.65 622.19 636.14 618.43 633.60 614.69 C 641.03 610.93 648.16 607.02 654.88 602.06 Z" fill="#fefefe" />
<path d="M 407.37 610.96 C 412.23 611.56 416.77 612.27 420.92 615.07 C 424.06 617.26 427.79 618.90 430.36 621.62 C 432.39 623.69 434.30 625.88 436.30 627.97 C 435.20 631.89 433.87 635.72 432.59 639.58 C 428.09 654.52 426.73 669.40 423.71 684.47 C 422.85 689.10 423.18 693.50 423.38 698.17 C 422.36 698.09 421.34 698.01 420.33 697.93 C 420.10 696.59 419.87 695.24 419.64 693.90 C 414.90 693.31 410.85 695.16 406.17 695.47 C 399.95 696.02 394.10 697.83 388.03 699.10 C 390.54 693.00 390.65 686.63 392.24 680.30 C 392.99 677.20 394.09 674.23 395.26 671.26 C 398.35 663.77 399.50 655.09 401.13 647.12 C 403.24 635.04 406.10 623.17 407.37 610.96 Z" fill="#fefefe" />
<path d="M 380.08 616.12 C 379.74 620.95 378.08 625.49 377.57 630.31 C 376.20 640.90 374.48 651.39 371.68 661.72 C 367.91 675.38 366.39 689.25 361.09 702.50 C 359.98 702.27 358.86 702.04 357.75 701.82 C 359.79 696.29 361.11 690.57 363.05 685.01 C 364.93 679.48 365.89 673.78 367.11 668.08 C 370.80 652.47 372.63 636.27 375.42 620.45 C 376.38 618.63 378.44 617.29 380.08 616.12 Z" fill="#fefefe" />
<path d="M 795.39 616.30 C 796.40 615.67 797.53 615.65 798.79 616.21 C 798.55 618.08 799.41 619.98 796.98 620.50 C 794.58 620.86 795.31 617.75 795.39 616.30 Z" fill="#000000" />
<path d="M 822.70 618.16 C 822.75 619.05 822.79 619.95 822.82 620.84 C 820.69 621.77 820.13 622.23 817.97 620.93 C 818.16 620.13 818.39 619.34 818.65 618.57 C 819.92 617.21 821.14 617.98 822.70 618.16 Z" fill="#000000" />
<path d="M 797.81 641.22 C 797.71 643.16 797.70 644.87 796.22 646.33 C 794.94 646.79 793.80 646.42 792.50 646.27 C 792.76 644.80 792.74 642.86 793.70 641.66 C 794.64 640.22 796.46 641.11 797.81 641.22 Z" fill="#000000" />
<path d="M 816.91 643.15 C 816.68 644.51 816.83 646.52 814.98 646.63 C 814.23 646.47 813.49 646.29 812.75 646.07 C 814.10 643.74 813.92 643.05 816.91 643.15 Z" fill="#000000" />
<path d="M 785.28 665.60 C 790.49 664.82 795.20 665.96 800.29 666.86 C 806.82 668.13 812.82 672.44 819.03 674.96 C 828.67 678.82 834.80 687.71 839.42 696.58 C 843.45 706.44 843.48 718.11 841.20 728.39 C 837.73 728.40 833.76 727.75 830.68 729.66 C 828.20 731.10 825.50 733.03 825.14 736.12 C 824.31 741.39 828.31 747.20 830.24 751.98 C 827.59 754.36 824.99 756.54 821.46 757.47 C 812.22 759.84 804.17 763.19 794.41 762.63 C 794.34 761.15 794.26 759.68 794.17 758.20 C 802.13 752.12 806.75 743.83 810.97 734.96 C 815.22 724.88 815.11 713.98 812.45 703.52 C 810.32 697.45 808.60 691.77 803.71 687.29 C 798.53 681.50 792.22 675.46 784.00 675.05 C 778.29 675.35 772.73 676.65 766.97 676.72 C 757.96 677.81 753.62 683.68 746.74 688.37 C 746.70 687.25 746.90 686.27 747.36 685.44 C 750.76 681.31 755.07 679.28 759.38 676.38 C 767.02 671.08 776.03 666.91 785.28 665.60 Z" fill="#fefefe" />
<path d="M 731.49 686.55 C 734.18 686.07 736.89 686.04 739.61 686.12 C 739.93 694.76 739.86 703.34 741.07 711.93 C 742.54 721.35 742.22 730.45 742.11 740.04 C 741.78 745.06 741.15 749.98 741.39 755.03 C 741.64 759.29 740.15 762.92 738.81 766.85 C 736.80 767.40 734.78 768.03 732.74 768.40 C 723.29 769.42 713.81 769.93 704.31 769.82 C 705.58 754.24 705.42 738.58 707.20 723.01 C 708.23 714.41 707.37 705.91 707.65 697.30 C 703.69 697.08 699.95 696.55 695.98 697.13 C 691.29 697.75 686.77 698.71 682.00 698.64 C 678.03 698.71 674.36 697.80 670.48 697.19 C 670.91 698.67 671.77 699.78 671.27 701.36 C 669.99 706.67 668.04 711.95 666.04 717.03 C 662.58 725.97 660.66 735.43 657.64 744.51 C 656.12 748.91 654.78 753.32 653.70 757.85 C 651.55 757.00 649.42 756.12 647.29 755.21 C 650.04 749.28 652.20 743.32 653.94 737.03 C 656.99 726.34 661.49 716.14 664.25 705.32 C 665.76 699.90 667.56 694.54 669.32 689.19 C 673.89 689.39 678.42 689.76 683.00 689.51 C 687.02 689.36 690.91 690.37 694.88 690.54 C 707.06 688.89 719.32 688.47 731.49 686.55 Z" fill="#fefefe" />
<path d="M 233.98 690.18 C 245.49 690.04 257.32 695.94 266.54 702.45 C 272.45 705.95 278.55 710.33 280.96 717.06 C 283.99 724.96 286.16 733.43 286.85 741.86 C 283.95 753.31 278.75 764.88 270.56 773.56 C 267.15 776.59 262.98 778.87 259.04 781.13 C 258.98 780.11 258.93 779.08 258.87 778.06 C 265.00 774.67 270.33 769.76 273.43 763.42 C 276.21 757.84 279.44 752.55 279.95 746.22 C 274.07 746.80 268.99 748.96 263.04 748.93 C 251.15 748.66 240.41 750.91 229.65 744.33 C 224.92 740.63 220.36 735.98 216.96 731.03 C 211.82 723.81 213.79 713.40 213.79 704.99 C 211.85 704.85 210.19 704.29 208.37 705.27 C 203.92 707.49 200.28 711.34 196.22 714.23 C 192.21 717.11 190.86 721.47 188.70 725.71 C 187.06 729.26 184.89 732.96 184.86 736.94 C 184.83 742.36 185.59 747.82 185.99 753.22 C 184.81 753.07 183.64 752.98 182.47 752.94 C 180.82 742.33 180.35 730.08 185.18 720.19 C 188.30 714.68 191.94 708.92 196.81 704.79 C 201.44 700.59 208.04 698.78 213.61 695.60 C 219.90 691.94 226.83 690.80 233.98 690.18 Z" fill="#fefefe" />
<path d="M 412.91 701.91 C 414.23 702.12 415.09 704.19 415.69 705.28 C 417.47 710.62 418.56 716.17 420.53 721.46 C 423.84 730.31 424.25 739.50 427.54 748.34 C 429.12 755.27 428.98 762.21 431.73 768.97 C 425.92 771.08 420.19 773.17 414.07 774.24 C 406.68 775.69 399.50 775.36 392.05 776.09 C 385.31 776.56 379.06 778.68 372.23 778.08 C 369.74 767.37 366.73 757.01 365.97 745.97 C 365.09 733.34 365.97 720.65 365.06 708.00 C 368.72 707.57 372.38 707.23 376.06 707.08 C 382.83 706.85 388.99 704.71 395.94 703.72 C 401.69 702.93 407.09 701.97 412.91 701.91 Z" fill="#fefefe" />
<path d="M 339.50 706.50 C 339.43 715.37 338.42 724.16 338.01 733.00 C 337.66 739.68 337.95 746.35 337.40 753.02 C 336.88 759.10 337.36 765.07 337.77 771.15 C 336.57 770.70 335.37 770.25 334.18 769.79 C 333.36 760.60 334.06 751.22 334.26 742.00 C 334.39 733.58 336.24 725.38 336.46 716.96 C 336.77 713.01 336.23 709.40 339.50 706.50 Z" fill="#fefefe" />
<path d="M 649.51 726.03 C 648.87 727.09 647.99 727.65 646.88 727.69 C 643.22 728.07 640.39 729.78 637.25 727.00 C 641.34 726.70 645.42 726.52 649.51 726.03 Z" fill="#fefefe" />
<path d="M 835.82 733.13 C 839.55 733.40 843.19 733.43 846.34 735.69 C 851.01 738.36 853.02 744.91 855.58 749.44 C 857.82 753.20 858.54 757.23 859.01 761.52 C 856.86 761.24 854.71 761.02 852.55 760.81 C 852.31 752.69 848.77 745.50 843.51 739.47 C 841.20 736.95 838.11 735.65 835.82 733.13 Z" fill="#fefefe" />
<path d="M 646.06 735.20 C 645.22 740.71 643.84 746.16 642.65 751.60 C 642.22 752.78 642.23 754.84 641.01 755.44 C 633.79 756.13 628.46 752.93 621.55 751.46 C 616.47 750.37 611.44 749.30 606.53 747.56 C 604.28 746.68 601.97 748.43 601.61 750.73 C 599.63 758.56 598.62 766.71 597.60 774.71 C 596.48 779.97 594.89 785.20 593.42 790.38 C 590.46 798.10 589.38 806.16 587.21 814.10 C 585.29 823.06 581.78 831.27 578.97 839.97 C 575.74 848.77 573.95 857.83 570.49 866.49 C 566.68 875.62 562.11 884.62 559.05 894.02 C 558.43 895.80 557.72 897.55 556.99 899.29 C 555.95 898.86 554.90 898.42 553.86 897.99 C 560.75 879.36 568.17 860.92 572.55 841.50 C 576.34 830.28 579.09 818.83 582.44 807.49 C 585.67 795.88 588.05 784.17 591.67 772.68 C 594.05 763.85 596.06 755.24 599.70 746.79 C 600.43 745.02 603.31 744.51 604.93 743.84 C 612.04 741.84 619.33 740.64 626.42 738.50 C 632.97 737.41 639.53 736.54 646.06 735.20 Z" fill="#fefefe" />
<path d="M 780.78 737.49 C 788.23 745.13 787.55 756.06 786.59 765.87 C 783.36 765.84 780.12 765.83 776.89 765.79 C 777.15 761.22 779.11 757.20 779.83 752.67 C 781.04 747.63 780.84 742.62 780.78 737.49 Z" fill="#fefefe" />
<path d="M 292.42 752.30 C 297.51 755.48 300.42 759.81 301.79 765.63 C 300.61 765.84 299.43 766.05 298.25 766.28 C 295.98 762.83 293.56 760.17 289.89 758.18 C 290.75 756.23 291.53 754.24 292.42 752.30 Z" fill="#fefefe" />
<path d="M 436.07 754.12 C 442.57 754.94 447.99 757.49 454.32 759.62 C 456.75 769.71 459.98 779.65 462.06 789.82 C 464.85 803.51 468.56 817.09 472.51 830.49 C 477.39 846.84 482.63 863.29 490.54 878.45 C 494.69 888.29 498.71 897.80 505.49 906.20 C 499.83 913.73 493.42 919.44 484.91 923.60 C 480.13 922.02 475.53 919.97 470.73 918.42 C 468.16 917.56 465.57 917.03 463.12 915.84 C 459.78 914.18 455.67 913.93 452.00 913.68 C 441.36 913.63 430.71 913.69 420.06 913.68 C 419.82 910.12 419.91 906.66 419.45 903.14 C 417.29 887.45 415.38 871.72 413.59 855.98 C 413.01 847.13 410.82 838.73 408.83 830.13 C 405.00 813.93 403.05 798.42 395.93 783.13 C 403.67 782.60 411.78 782.17 419.30 780.17 C 426.25 777.24 433.22 775.11 440.48 773.10 C 440.22 766.31 437.51 760.62 436.07 754.12 Z" fill="#fefefe" />
<path d="M 185.64 758.03 C 188.11 757.73 191.04 759.76 191.74 762.13 C 190.14 769.93 184.07 776.31 182.39 784.43 C 178.65 784.09 175.60 785.06 172.11 786.19 C 174.88 777.69 179.11 769.56 184.24 762.25 C 185.04 761.04 185.19 759.40 185.64 758.03 Z" fill="#fefefe" />
<path d="M 246.88 761.66 C 249.46 764.71 250.65 769.07 250.88 773.00 C 251.15 777.63 252.07 782.15 252.13 786.80 C 249.34 787.74 247.37 788.96 245.28 791.00 C 242.59 781.80 242.76 772.60 242.04 763.17 C 243.35 762.01 245.10 761.03 246.88 761.66 Z" fill="#fefefe" />
<path d="M 852.78 765.45 C 855.13 765.40 857.08 766.17 859.17 767.09 C 858.66 772.41 858.51 777.44 856.51 782.47 C 854.20 789.21 849.33 795.21 842.98 798.54 C 845.07 794.65 846.44 790.45 848.61 786.60 C 851.99 779.85 852.51 772.86 852.78 765.45 Z" fill="#fefefe" />
<path d="M 659.41 770.15 C 667.25 771.26 674.94 773.53 682.79 774.71 C 680.57 780.33 678.79 786.08 676.76 791.76 C 673.81 801.62 672.98 812.52 670.73 822.50 C 669.55 827.90 670.78 833.39 670.09 839.02 C 669.22 846.32 668.62 853.64 668.67 861.00 C 668.66 872.25 668.56 884.03 670.33 895.15 C 670.82 899.69 672.28 904.01 672.90 908.53 C 665.60 908.72 658.29 908.70 651.00 909.05 C 645.67 909.60 640.38 908.81 635.05 909.39 C 637.05 892.33 640.04 875.38 642.31 858.34 C 644.28 843.17 647.20 828.19 650.04 813.17 C 651.37 806.44 652.38 799.86 654.21 793.25 C 656.31 785.67 657.88 777.86 659.41 770.15 Z" fill="#fefefe" />
<path d="M 776.86 771.82 C 778.99 770.45 782.70 771.07 785.13 771.18 C 784.04 775.49 781.61 779.55 779.32 783.33 C 776.23 788.19 771.99 791.01 767.76 794.77 C 763.96 798.07 759.51 800.32 754.70 801.75 C 757.54 799.13 760.69 797.18 763.36 794.37 C 767.57 789.89 770.57 784.41 772.72 778.69 C 773.64 776.09 775.24 774.01 776.86 771.82 Z" fill="#fefefe" />
<path d="M 193.79 775.04 C 198.49 778.88 202.86 782.13 208.78 783.93 C 205.37 783.11 201.49 782.40 198.48 780.55 C 196.28 779.02 194.10 778.01 193.79 775.04 Z" fill="#fefefe" />
<path d="M 304.47 775.18 C 304.31 778.07 304.48 781.23 303.42 783.92 C 302.97 781.45 302.63 778.99 302.43 776.49 C 303.11 776.06 303.79 775.62 304.47 775.18 Z" fill="#fefefe" />
<path d="M 689.46 775.55 C 699.41 775.35 709.55 775.10 719.46 775.14 C 718.48 785.80 716.50 796.21 716.79 807.00 C 716.11 819.01 716.29 831.01 716.28 843.04 C 716.31 848.47 717.29 853.67 718.13 859.00 C 719.68 871.02 721.96 882.93 723.99 894.87 C 713.94 898.56 704.72 903.94 694.78 907.85 C 689.77 909.06 684.18 908.48 679.04 908.43 C 677.69 904.65 676.96 901.06 676.62 897.07 C 676.29 892.61 674.77 888.48 674.80 884.03 C 674.82 875.68 674.73 867.34 675.06 859.00 C 674.93 847.60 675.43 836.37 676.74 825.04 C 677.65 811.67 682.05 799.99 685.00 787.11 C 685.96 783.30 686.97 778.67 689.46 775.55 Z" fill="#fefefe" />
<path d="M 338.65 778.78 C 340.36 779.28 342.06 779.81 343.76 780.33 C 344.97 787.30 344.30 794.85 344.28 802.00 C 343.45 819.32 342.91 836.64 342.03 853.96 C 341.39 865.41 341.44 876.31 339.80 887.65 C 338.41 895.86 337.87 903.99 337.69 912.30 C 336.00 911.40 333.55 910.68 332.43 909.08 C 333.95 892.34 334.99 875.55 336.54 858.82 C 338.12 849.15 339.15 839.42 340.29 829.69 C 341.94 812.72 341.58 795.59 338.65 778.78 Z" fill="#fefefe" />
<path d="M 213.02 785.24 C 218.68 785.62 224.25 786.46 229.95 786.33 C 229.62 787.29 228.95 787.69 227.93 787.52 C 222.94 787.54 217.78 786.75 213.02 785.24 Z" fill="#fefefe" />
<path d="M 170.68 790.49 C 171.53 790.78 172.38 791.08 173.22 791.40 C 173.61 792.71 173.69 794.31 174.48 795.45 C 176.23 795.97 178.18 796.10 179.99 796.28 C 179.98 799.50 179.84 802.77 180.14 805.97 C 181.14 812.28 183.15 818.22 185.29 824.21 C 174.11 817.34 169.21 803.13 170.68 790.49 Z" fill="#fefefe" />
<path d="M 246.80 796.27 C 247.59 797.38 248.19 798.90 249.33 799.67 C 250.79 799.98 252.33 800.05 253.82 800.18 C 256.40 806.85 259.27 812.90 263.03 818.98 C 259.42 816.34 255.90 813.42 252.94 810.06 C 249.95 806.12 248.25 800.96 246.80 796.27 Z" fill="#fefefe" />
<path d="M 692.50 797.74 C 692.21 798.76 691.92 799.78 691.63 800.79 C 689.91 801.12 686.77 800.94 687.64 798.41 C 689.18 797.17 690.69 797.65 692.50 797.74 Z" fill="#000000" />
<path d="M 669.69 798.95 C 669.31 800.16 668.93 801.37 668.55 802.58 C 667.59 802.83 666.62 803.07 665.65 803.32 C 665.53 802.07 665.26 800.97 665.72 799.76 C 666.97 798.52 668.12 798.92 669.69 798.95 Z" fill="#000000" />
<path d="M 684.76 832.21 C 685.22 833.98 685.43 835.73 685.50 837.55 C 684.71 837.97 683.92 838.39 683.13 838.81 C 682.39 838.46 681.66 838.11 680.92 837.77 C 681.02 836.41 680.85 834.73 681.54 833.52 C 682.42 832.81 683.70 832.58 684.76 832.21 Z" fill="#000000" />
<path d="M 664.01 836.08 C 663.93 836.94 663.82 837.79 663.68 838.64 C 662.61 840.30 661.23 839.25 659.62 839.24 C 659.66 838.11 659.72 836.98 659.81 835.86 C 661.37 835.50 662.53 835.20 664.01 836.08 Z" fill="#000000" />
<path d="M 683.83 870.04 C 684.16 870.96 684.46 871.89 684.75 872.82 C 683.44 872.81 681.26 873.72 680.68 872.02 C 681.20 869.75 681.93 870.35 683.83 870.04 Z" fill="#000000" />
<path d="M 661.08 872.02 C 660.99 873.27 660.88 874.52 660.76 875.76 C 659.01 875.44 656.16 875.73 656.20 873.23 C 657.71 871.96 659.22 872.05 661.08 872.02 Z" fill="#000000" />
<path d="M 650.94 913.17 C 669.62 914.08 688.32 913.30 707.00 913.93 C 725.03 913.99 743.01 913.90 761.03 913.63 C 762.32 913.83 764.71 913.21 765.54 914.36 C 769.39 921.14 770.93 929.38 773.03 936.88 C 774.63 943.66 776.58 950.34 778.27 957.09 C 765.52 957.37 752.75 957.04 740.00 957.25 C 733.34 957.59 726.69 957.40 720.00 957.44 C 687.99 957.47 655.99 958.76 624.00 958.78 C 613.61 959.03 603.18 959.69 592.79 959.59 C 595.64 946.89 596.97 934.02 598.97 921.19 C 608.54 920.46 618.01 919.32 627.56 918.47 C 632.56 917.85 637.07 915.62 642.09 915.05 C 645.35 914.88 647.63 912.71 650.94 913.17 Z" fill="#fefefe" />
<path d="M 456.94 920.61 C 465.78 923.57 474.65 926.49 483.47 929.53 C 484.46 933.94 485.35 938.34 486.05 942.80 C 487.26 950.78 490.27 958.24 491.09 966.31 C 481.59 966.33 471.95 966.85 462.49 965.83 C 460.61 950.78 458.30 935.72 456.94 920.61 Z" fill="#fefefe" />
</svg>