<?xml version="1.0" encoding="utf-8"?>
<!-- Generator: Adobe Illustrator 24.1.2, SVG Export Plug-In . SVG Version: 6.00 Build 0)  -->
<svg version="1.1" id="Layer_1" xmlns="http://www.w3.org/2000/svg" xmlns:xlink="http://www.w3.org/1999/xlink" x="0px" y="0px"
	 viewBox="0 0 911 1151" style="enable-background:new 0 0 911 1151;" xml:space="preserve">
<style type="text/css">
	.st0{fill:#060709;}
	.st1{fill:#FFFFFF;}
</style>
<path class="st0" d="M392.4,0h0.9c2.1,1.2,2.3,3,0.4,4.6c-11.7,10-18.1,25.9-21.7,40.4c-5,20.9-5.8,43.1-1.6,64.2
	c1.9,8.8,5,18.6,10.8,25.7c3,3.5,7.1,6.4,11.8,6.6c6.9,0.2,13.9-1.5,18.3-7.2c5-6.3,5.9-15.5,5.5-23.3c-0.1-4.4-1.1-8.7-1.7-13.1
	c-0.3-2.4,3-3.4,4.2-1.3c4.5,6.9,8.1,14.6,10.7,22.4c2.6,8.2,4.1,17.8,1.2,26.2c-0.7,1.2-0.4,2.4,0.8,3.7c27-12.2,46.1-42,44.4-71.9
	c-0.8-15.1-6.4-29.3-14.8-41.8c-1.2-1.8-2.6-3.4-3.5-5.3c-0.1-2,1.6-3.3,3.4-2.5c20.8,14.6,37.4,35,45.8,59
	c8.1,23.1,8.6,47.6,3.6,71.4c13.9-8.7,28.7-16.1,44.1-21.9c38.2-14.4,79.3-19.4,120-18c20,0.6,40,3,59.5,7.6
	c31.8,7.5,61.8,21.1,87.7,41.1c28.2,21.7,50.4,50.4,65.3,82.7c17.9,38.7,25.5,82.1,22.5,124.6c-2.5,33.4-11.9,67.5-30.2,95.9
	C866,491.4,846,510.2,822.1,520c5.3-4.7,8.8-10.9,11.2-17.5c4.9-14.2,4.8-30,1.1-44.5c-3.4-12.9-10.2-25.2-20.5-33.8
	c-9-7.7-20.2-12-31.8-13.3c-15.9-1.7-32.3,1.1-46.6,8.5c-14.8,7.6-27,20.1-34.2,35.2c-7,14.4-9.2,30.7-7,46.5
	c2.2,15.8,8.7,31,17.7,44c22.8,32.9,43.7,69,57.2,106.8c7.9,22,13.4,45.7,14.1,69.2c0.6,20.4-2.7,40.7-10.9,59.5
	c-5.4,12.6-13.1,23.6-21.2,34.6c-21.3,28.5-48.5,54.5-80.5,70.5c-24.3,12.3-51.4,18.3-78.6,16.2c-20.9-1.3-40.5-7.4-59.5-15.9
	c7.7,18.5,14.4,37.7,19,57.2c0.3,1.9,1.1,4.2-1.5,4.8c-10-1.6-19.9-3.9-30-5c5.6,11.7,11.7,23.3,16.9,35.2
	c5.2,11.1,7.2,23.9,12.6,35.1c7.9,13.3,10.5,30.2,18.6,43.6c2,3.4,5.2,4.5,8.1,6.9c5.5,4.4,10,10.3,13.6,16.3
	c2.6,4.4,3.7,9.1,4.7,14c0.2,2,2,2.7,3.3,4c7.7,5.9,16.1,12.4,25.1,15.9c11,4.4,22.1,7.2,33.4,10.6c3.5,1.1,7.3,2.2,9.8,5.2
	c2.4,2.8,2.8,6.6,2.6,10.1c-0.7,3.2-3.5,4.8-6.3,5.8c-5.8,1.9-12.5,1.6-18.6,1.5c-13.6-0.5-27.6-2.4-40.5-6.8
	c-4.5-1.5-8.7-3.8-13.3-5c-8.7-2.3-17.3-3.1-26.2-3.4c-0.5,2.3-0.9,4.6-1.5,6.9c-0.2,1.3-1.2,1.9-2.4,1.9c-12-0.1-24-0.4-36.1-0.5
	c-1.4,0-4-0.2-3.8-2.2c0.3-4.3,0.5-8.5,0.5-12.8c-3.9-3.2-4.9-7.6-5.9-12.3c-2.4-13-2.6-25.7-2.4-38.9c-0.7-5.9-3.2-11.8-5.3-17.3
	c-10-24.4-22.2-48-33.1-72c-11.2-24.8-23.2-49.3-35.6-73.6c-19.9-0.2-39.9,1.8-59.5,5c-0.5,39.9-1.4,79.8-1,119.7
	c0.4,9.8,0,19.9,1.7,29.5c4.6,9.2,5.7,20,3,30c-0.9,3.8-3.6,7.5-1.4,11.3c2.2,4.5,3.1,9.3,1.4,14.2c-0.7,2.7-2.9,5.2-2.8,8
	c0,4.6-0.3,9.1-0.2,13.6c-5.4,2.5-11.2,5.9-17.2,6.5c-11.3,1.6-23,1.5-34.5,1.7c-14.3-0.2-28.6-0.3-42.9-1.2
	c-0.1-2.9-0.3-5.7-1.1-8.6c-1.2-5.1,0.9-10,4.1-13.9c4.8-5.9,11.8-10.4,17.8-15c-1.8-13.5-3.4-28.8,0.2-42.1
	c1.4-5.6,5.3-9.5,7.1-14.8c2.2-6,2.4-13.3,2.9-19.7c0.6-9.9,1.7-19.7,2.9-29.5c0.8-6.7,0.8-13.3,1.1-20c0.3-19,0.2-38-0.1-56.9
	c-5.3,1.5-10.9,3.3-15.6,6.3c-1.6,1-2.6,3.4-4.4,3.9c-1.5-0.5-2.2-0.8-2.4-2.4c-3.9-19.8-6.9-39.8-9.6-59.8c-3.6-28-6.4-55.8-7-84
	c-0.3-14.6,0.1-29.5,2.6-44c2.7-18,4.6-36.1,6-54.2c-6.5,3.7-13,7.5-19.4,11.5c-1.4,2.3-2.2,5-3.5,7.3c-5.1,9.6-13.4,18.4-23.8,22.3
	c-6.7,2.4-13.4,1-19.7-1.9c-1.5,0.9-2.9,1.8-4.4,2.6c-2.5-1.1-5.1-1.9-7.7-2.7c-47.5-14.8-95-29.7-142.5-44.5
	c-1.1-0.4-2.6-0.6-3.4-1.5c-0.2-2.9-0.1-5.7-0.2-8.6c-3.5-3-6.3-6.5-9.2-10.1c-7.1-9.1-13.7-18.6-19.2-28.8
	c-10.9-18.2-23.9-35.1-34.6-53.4c-3.8-5.4,0.9-11.4,3.9-15.8c4.9,0.9,9.8,2.1,14.6,3.2c34.9,8.2,69.8,16.8,104.5,25.6
	c10.5,2.7,21.1,5.4,31.5,8.4c2.3,0.8,4.5,1,6,3.1c3.4,4.4,6.2,9.2,9.1,13.9c0.7,0.9,1.1,2.3,2.4,2.4c20.2,4.6,40.5,9.2,60.8,13.7
	c14.4-40.4,29.6-80.5,43.7-120.9c1.9-5.2,3.1-10.4,5.7-15.3c5.6-11.2,14.5-20.9,24.2-28.7c1.3-0.9,1.7-2.3,2.4-3.6
	c4.3-9.1,12.5-16.2,22.1-19.4c-1.8-4.9-5.1-9.4-8.1-13.5c-9.3-12.1-21.6-21.2-35.4-27.7c-16.8-8.5-33.8-19.3-43.9-35.7
	c-5.7,3.7-12.3,4.9-18.7,2.3c-9.7-3.9-14.6-15-12-25c2.2-8.8,9.9-15.2,19-15.4c-3-3-5.7-6.2-7.8-10c-1.2-2.4-4-3.2-6.2-4.6
	c-28.3-17-48-46-57.9-77.1c1.9-1.7,3.2-2.4,4.9,0c12.8,16.2,33.9,22.4,53.9,19.5c-1.3-2.1-3-3.9-4.5-5.9
	c-7.7-10.3-12.5-22-15.5-34.4c-4.7-20.1-4.6-41.4,0.3-61.5c2.8-11.4,7.2-22.7,13.6-32.6c1.6-2.2,5-0.5,4.1,2.1c-5.5,16-7,33.2,0,49
	c4.8,10.8,13.7,19.6,24.9,23.5c-5.1-18.2-8.6-36.8-9.9-55.6c-1.6-22.5-0.2-46.3,6.4-68c3.9-12.7,9.7-25,17.8-35.5
	c1.4-2.2,5-1.3,4.4,1.5c-3.2,6.5-4.9,13-5.5,20.2c-1.5,17,1.6,34.5,7.5,50.5c5,13.1,12.6,26.7,24.9,34.3c-1.2-6.1-1.9-12.5-1.6-18.8
	c1.1-28.6,12.5-56.6,29.8-79.3C336.8,30.7,363.4,11.8,392.4,0z"/>
<path class="st1" d="M382.1,9.8c-7.9,11.2-12.7,24-15.6,37.3c-4.3,20.3-5,41.6-1,62c1.9,9.4,5.1,19.6,10.9,27.4
	c4.1,5.3,9.6,9.4,16.6,9.7c8.6,0.3,17.4-2.5,22.6-9.6c5.5-7.6,6.1-16.6,6.1-25.7c2.5,5.1,4.4,10.7,5.6,16.3
	c1.3,6.4,1.4,13.5-1.7,19.4c-2.5,4.9-7.5,8.2-12.1,10.9c-7.6,4.3-15.9,7.6-24.5,9.1c3.2,0.2,6.4,0.1,9.5-0.3
	c11-1.3,22.5-4.7,31.8-11c3.1-2.1,6.6-3.2,9.8-5.1c24.8-14.3,41.9-42.2,41.1-71.1c-0.1-13.5-4.3-26-10.3-38
	c15.9,14.2,28,32.4,33.8,53c7.2,24.8,5.8,52-2.2,76.5c-2.4,7.1-5.3,14.4-9.6,20.5c-1.2,2-4.4,3.5-3.3,6.1c1.4,1.5,2.9,1,4.6,0.6
	c11.2-3,22.4-4.2,33.8-5.6c7.8-1.1,15.2-2.1,21.9-6.7c-2.3,12-9.3,23.3-16.9,32.7c-4.5,5.3-9.8,10.6-15.9,14c-2.2,1.3-4.5,1.3-7,1.6
	c-16.1,1.4-32.2-0.7-48-3.8c6.2,5.1,14,8.1,21.8,9.9c8.5,1.7,17.7,2.3,26.2,0.3c4.5-0.7,8.5-2.7,13-3.4c8-1.2,16-2.8,23.8-4.7
	c9.2-2,18.4-0.3,26.1,5.1c9.6,6.7,16.6,17.5,21,28.2c-12.8-1.7-24.5,2.7-34.9,9.8c-12.2,8.3-25.9,14.1-40.2,17.6
	c-7.7-9-16.9-16.6-27.7-21.5c8.6,7.1,16.1,15.8,20.9,25.9c6.3,15.5,15.1,31.1,27,43c9.2,9.1,20.6,15.7,33.8,16.4
	c-10.4,8.5-23.2,15.9-36.6,18.2c-8.4,1.5-17.2,0.5-24.4-4.4c-3.4-2.1-5.1-5.5-8.1-7.9c-2.2-0.9-3.7,0.2-3.5,2.6
	c1.6,3.3,5.1,5.8,7.3,8.7c5.7,7.5,10.3,15.8,13.6,24.6c-9.1-3.1-18.3-8.1-24.6-15.5c-3.4-4.1-5.2-8.2-5.8-13.6c0-2.6-3.3-3.3-4.5-1
	c-1.4,6.4-0.1,13.8,2,19.9c4.2,11.9,11.5,22.5,21.3,30.4c-11.7,0.5-24.3-1.7-33.6-9.2c-5.2-4.1-8.4-9.7-10.1-16
	c-0.6-2.3-3.8-2.3-4.5-0.1c-0.1,2.8,0.6,5.7,1.1,8.4c2.4,11.1,6.4,22.2,12.2,32c2.6,4.4,5.6,8.1,9.4,11.5
	c-8.3-0.4-16.4-3.3-23.7-7.2c-11.9-6.4-21.7-15.3-30.6-25.5c-1.4-1.5-3.5-0.7-4,1.2c-3,9.3-5,20.8-1.4,30.2c-4.5-3-8.4-6.4-12-10.4
	c5.4-14.1,13.1-26.8,21.9-39.1c14.1-20.6,21.5-46.1,15.8-71c9.6-0.2,18.9-2.5,26.4-8.8c11.2-9.4,15.4-27.2,8.3-40.2
	c-2.8-4.9-7.5-6.3-12.9-6c-2.4-6.2-9-7.5-14.9-6.1c-6.8,1.8-12.3,6.7-17.6,11.1c-4.2-13.6-11.7-26.2-20.9-36.9
	c0.9,2.6,1.6,5.1,1.1,7.8c-1,5.7-4.8,9.7-9.1,13.1c1.6-4.1,1.8-7.9,1-12.2c-1.6-9-5.7-17.9-10-26c-0.4,7.7-1.4,15.2-4.9,22.1
	c0-3.9-0.6-7.7-2.1-11.3c-3.1-7.6-7.8-14.6-13.2-20.7c2.2,6.7,4.7,13.9,5.4,20.9c-5.6-11-15.1-18.1-25.9-23.5
	c-14.6,7.3-25.9,21.7-31.3,37c-3.1,9.5-5.4,19.3-8.1,29c-0.4,1.5-1.1,2.7-2,3.9c-6.2,8-9.7,17.6-10.8,27.6c-5.3-3-10.8-5.2-17-4.7
	c0-4.2,0.1-8.2-0.5-12.3c-0.3-2.4-0.9-4.6-0.2-7c2.5-10.3,4.7-20.7,7.3-31c5.2-19.3,16.3-36.2,30.7-49.9c-2.6,0-4.9,0.3-7.3,1.4
	c-16.1,6.5-28.2,19.8-37.2,34.3c2.1-5.9,4.8-11,8.5-16c-7.3,5.1-13.3,12.1-17.9,19.7c-8.8-1.7-18-2.3-26.9-1.3
	c-2.1,0.1-2.4,3.6-0.6,4.2c2.6,0.9,5.2,1.8,7.6,3.2c-3.8,0.3-7.6,0.8-11.1,2.4c-8.1,3.4-13.8,9.6-18.2,17.1
	c-11.7-11.9-18.4-28.6-21.4-44.8c-4-21.9-2.3-45.1,5.3-66.1c-0.2,5.7-0.4,11.3,0.6,16.9c1.6,10.3,5.8,20.1,12.8,27.9
	c6.2,7,14.7,12.3,23.9,14.2c1.8,0.5,3.4-1.4,2.6-3.2c-7.1-23.3-11.2-47.7-11.4-72c-0.4-24.7,3.3-49.8,14.5-72.1
	c-1.4,14.6-0.3,28.9,3.4,43.1c3.5,13.4,9.1,27.2,17.8,38c4.9,6.1,11.6,11.8,19.1,14.2c2,0.5,3.3-1.3,2.7-3.1
	c-3.3-9.4-3.4-19.2-2.5-29c2.3-23,11.4-45.5,24.6-64.4C333.9,40.5,356.7,22.2,382.1,9.8z"/>
<path class="st1" d="M724,177.2c29.4,1.3,57.1,11.5,81.9,26.9c25,15.4,46.2,36,60,62.1c15,28.2,19.9,59.7,18.2,91.3
	c-2.1,36.6-12.4,73-27.3,106.3c-1.9,4.1-3.8,8.5-6.2,12.4c4.2-27.7,5.4-57.4-0.4-85c-4.5-21.1-13.3-41.3-28.6-56.8
	c-12-12.4-27.6-20.9-44.4-24.6c-34.6-7.8-72.8,3.4-97.9,28.5c-17.4,17.2-28.2,39.7-34,63.2c-8.1,33.3-7,69.2,1.1,102.4
	c4.9,19.7,12.7,39.6,24.4,56.3c9.3,13.5,17.4,27.9,24.2,42.9c12.4,27.7,20.3,58.5,19.5,89c-0.7,24.9-7.5,49.3-21.5,70
	c-14.5,21.6-35.2,37.4-58.5,48.7c-26.8,13-55.6,20.7-85.5,18.2c-19.2-1.6-37.9-7.6-54.5-17.5c-1.9-1-2.5-2.8-3.5-4.5
	c-14.7-28.1-29.3-57.7-38.5-88.1c-0.9-2.1,0.1-2.8,1.2-4.4c18.1,11.9,38.5,20.8,60.2,23.1c15.8,1.8,32.2-0.4,46.8-6.8
	c14.3-6.2,26.8-16.3,36-28.8c12.5-16.9,19.1-37.9,19.2-58.8c0.2-17.5-4-35-11.4-50.8c-2.8-6.1-6.2-11.7-9.4-17.6
	c-18.8-34.9-35.6-71.8-47.2-109.7c-8.5-27.7-14.1-55.9-15.5-84.9c17.7-1.8,34.7-11.7,47.4-23.8c1.7-1.5,2.1-3.3,0-4.7
	c-4.8,0.2-9.4,0.4-14-0.8c-12.5-2.9-22.6-11.8-30.5-21.6c2.8-14.9,8.7-29.3,15.9-42.6c0.7-1.5,1.6-2.2,3-3c5.4-3,10-6.8,15.6-9.4
	c8.4-4,17.8-6,26.9-3.1c2,0.8,3.9-0.9,3.1-3c-3.3-9.8-8.8-19.4-15.7-27.2c16.2-17.5,35.2-32.8,56.3-44
	C666.3,183.1,694.9,175.7,724,177.2z"/>
<path class="st1" d="M259,241.5c7.7,0.3,16.8,1,23.6,4.9c5.2,2.6,6.7,9.8,7.7,15c-2.5,0.1-6.5,0.5-8.6-1c-4.2-5.7-9-10.6-15.7-13.3
	C263.2,246.1,261.2,243.4,259,241.5z"/>
<path class="st1" d="M265.5,249.5c7.6,3.4,13.1,9.8,16.9,17.1c5.8,11,7.5,23.5,6.6,35.8c8.2-2.2,14.9,1.6,21.6,5.8
	c0.6-16.9,8.8-33.2,23.6-41.9c8.6-5,18.8-6.9,28.6-4.7c10.8,2.3,20.2,9.1,26.4,18.2c5.6,8,8.5,17.4,9.2,27.1
	c13.3-9.4,26.7-18.8,39.3-29.1c5.8-4.8,11.5-10.6,18.7-13.1c4.4-1.1,9.5-1.1,12.6,2.8c-4.1,1.5-8.3,2.3-12.1,4.5
	c-4.4,2.1-8,5.2-11.6,8.4c-15.1,12.9-31.5,23.9-47.5,35.4c-1.5,15-10,29.4-23.1,37.1c-7.8,4.6-16.9,6.5-25.9,5.2
	c-10.4-1.4-20-7.3-26.6-15.4c-6-7.2-9.6-16-11.1-25.2c-4.4-3.5-9.6-7.3-15.2-8.5c-2.7-0.6-5.4-0.1-7.4,1.9c-1.8,1.4-2,4.2-2.7,6.3
	c-3,9.3-8.7,18.5-17.2,23.8c-6,3.7-13.1,5-19.9,3.4c-1.8-0.4-3.4-2-5.1-2.9c-2.5-1.6-5.2-1.7-7.3-3.7c-9.1-8.1-14.1-20.7-15.5-32.5
	c-1.7-13.2,0.2-27.6,6.7-39.4c3.8-6.8,9.5-13.2,16.7-16.3C251.1,246.3,259,246.4,265.5,249.5z"/>
<path class="st1" d="M360,253.6c11.7-0.8,23.9,1.6,35,5.3c-6.2,2-12.6,3.3-18.9,5.3c-11.3-6.5-24.1-7.4-36.4-3.3
	C345.1,255.6,352.8,254.1,360,253.6z"/>
<path class="st1" d="M171.4,258c14.2,11.6,33.2,15.8,51.2,12.8c-5.9,15.4-6,33.2-0.6,48.7C198.6,305.1,181.8,283.1,171.4,258z"/>
<path class="st0" d="M250.4,259.5c4.2-1.4,8.7-0.7,12.3,1.7c5.5,3.6,9.1,9.6,11.4,15.6c4.7,12.4,4.6,26.7-0.3,39
	c-2.1,5.3-5.4,10.5-10,14.1c-3.4,2.5-7.8,4-12,3c-4.2-0.9-8-3.9-10.6-7.3c-4.7-5.8-7.4-13.5-8.6-20.8c-1.8-11.5-0.1-24.2,5.8-34.3
	C241.2,265.9,245.2,261.2,250.4,259.5z"/>
<path class="st1" d="M254,261.1c4.3-0.3,7.6,1.8,10.6,4.5c-1.1,5-1.9,10.1-2.6,15.1c-2.6,1.8-4.9,3.9-6.5,6.6
	c-6.1,10.1-5.2,24.6,3,33.3c-0.4,3.4-1,6.7-1.7,10c-6.1,0.6-10.6-2.8-14.2-7.4c-5.7-7.7-8.2-17.9-8.2-27.4c0-9.2,2.4-19.2,7.8-26.8
	C245,265.3,249,261.6,254,261.1z"/>
<path class="st0" d="M348.1,273.1c9.9-2.4,20.4,1.1,27.5,8.3c12.8,12.7,14.6,34.3,5.3,49.5c-3.8,6.3-9.9,11.8-16.9,14.2
	c-6.6,2.4-14.1,2.2-20.6-0.6c-6.6-2.8-12.1-8.1-15.7-14.2c-7.4-12.8-7.3-29.4,0.4-42.1C332.7,280.8,339.6,275,348.1,273.1z"/>
<path class="st1" d="M357.8,274.9c-4.8,3.1-11.3,7.2-17,4C345.4,275.3,352.1,274.3,357.8,274.9z"/>
<path class="st1" d="M270,281.9c1.4,0.4,3.7,0.3,3.9,2.2c1.5,6.3,1.6,12.8,1,19.2c-0.8-1.9-1.4-3.7-3.1-5.1
	c-2.7-2.3-6.9-2.2-9.4,0.2c-4.4,3.9-3.1,11.8,2.5,13.8c3.8,1.2,6.3-0.6,8.9-3.2c-1.5,4.7-3.3,9.1-5.9,13.4
	c-5.8-1.5-8.8-6.4-10.4-11.9c-2-7.1-1.5-15.4,2.1-21.9C261.7,284.8,265.5,281.6,270,281.9z"/>
<path class="st1" d="M471,284.3c2.2-0.5,5-0.7,6.6,1.2c2.2,2.6,2.1,6.6,0.3,9.4c-2.5,3.8-6.3,5.8-10.2,7.7c-2.4-4.3-4.6-8.8-7.2-13
	C463.6,287.2,467.2,285.2,471,284.3z"/>
<path class="st1" d="M352.5,291.8c7.8-2.7,16.8-0.7,22.8,4.9c6.1,5.5,9.1,14.3,7.3,22.3c-1.5,7.4-6.6,14-13.6,17
	c-6.6,2.9-14.6,2.5-20.8-1.2c-7.6-4.3-12.3-13.1-11.8-21.8C336.9,303.5,343.4,294.7,352.5,291.8z"/>
<path class="st1" d="M265.2,298.2c1.6-1.3,4.3-0.2,4.6,1.9c0.3,1.8-0.9,3.6-2.8,3.5C264.1,303.9,262.9,299.7,265.2,298.2z"/>
<path class="st0" d="M356.6,309c4-0.9,8.3,1.5,9.6,5.5c1.8,4.8-1.1,10.5-6.2,11.4c-5,1.1-9.8-2.9-9.9-7.9
	C349.8,313.9,352.5,309.9,356.6,309z"/>
<path class="st1" d="M292.1,311.2c4.8-1,9.9,2.6,13.8,5c-3.2,6.5-7.3,13.1-12.7,18c-3.8,3.2-7.8,6.2-11.7,9.3
	c-5,3.7-10.5,7.7-16.3,9.8c-3.6,1.3-7.6,1.4-11-0.5c-1.9-0.7-2.3-3.2-3.2-4.8c4.5-1.3,9.1-0.7,13.5-2.5
	c11.5-4.2,19.5-15.4,23.4-26.6C289.1,315.9,288.8,312.6,292.1,311.2z"/>
<path class="st1" d="M361.2,310.3c1.1,1.2,2,3.3,0.8,4.6c-1.6,2.2-5.6,1-5.3-1.9C356.8,310.3,358.9,309.9,361.2,310.3z"/>
<path class="st1" d="M224.1,344.2c4.1-0.9,9.3-0.7,12.9,1.8c2,1.5,2.2,3.7,0.3,5.3c-3.4,2.7-8.7,2.8-12.8,2.1
	c-2.6-0.7-6.4-2.1-6-5.4C219.6,345.7,221.9,344.8,224.1,344.2z"/>
<path class="st1" d="M236.3,356.3c2.6-1.5,7.4,0.2,6.3,3.8c-1.5,3-6.5,3-8,0C234.2,358.3,234.8,357.2,236.3,356.3z"/>
<path class="st1" d="M359.1,370.8c4.9,2.6,6,8.2,5.7,13.4c-1.3-4.7-3.2-8.9-7.7-11.3c-5-2.8-9.8-1.9-15.2-1.1
	C347.2,370,353.8,368.1,359.1,370.8z"/>
<path class="st1" d="M353.5,380.3l0.5,0c2.1,5.2,3.3,11.2,2.5,16.7c-0.7,4.1-2.6,8-6.4,9.9c-4.1,2-9,1.1-12.9-1
	c-1.8-0.8-3-2.1-5.1-1.8c-4.7,0.4-9.3,0.7-14.1,0.3c-3.3-0.3-7.1-0.6-10-2.5c10.5-0.6,20.3-1.1,30-5.9
	C345.1,392.6,350.1,387.4,353.5,380.3z"/>
<path class="st1" d="M410.5,438.8c2.5,1.8,4.5,4,6.9,5.8c1.5,1.1,3,2.2,4,3.8c-4.1-1.6-7.4-2.4-11.8-2.2
	C409.6,443.7,410,441.3,410.5,438.8z"/>
<path class="st1" d="M409.9,446.6c7.7-0.7,13.7,3.6,17.7,9.8c5.1,8.1,8.4,17.9,8.7,27.5c0.4,9.2,0.2,18.6-0.4,27.8
	c-6.4,4.1-12.9,8-19.3,12.2c-4.4-8.1-7.7-17.1-9.6-26.1c1.8-1.3,2.7-2.1,3.2-4.4c1.6-7.6,3.1-15.8,2.5-23.5
	C412.2,462.2,410.7,454.4,409.9,446.6z"/>
<path class="st1" d="M405.6,450.9c1.7,13.7,3.1,28.8-0.2,42.3c-12.4,6.2-26.2,10.1-39.7,13.1c-0.9-2-1.9-3.9-3.3-5.7
	c0.9-2,1.7-4.5,3.2-6.1c6.8-4.4,15.5-5.8,23.4-6.6c0.6-6.7-2-13.5,0.6-20.2C392.7,460.9,400,456,405.6,450.9z"/>
<path class="st1" d="M334.1,458.1c-11.3,24.5-15.1,51.4-14.2,78.3c-7-6.5-14.1-13-20.4-20.2c3.3-13.2,9.3-25.8,14.5-38.4
	C317.5,468.6,324.8,461.5,334.1,458.1z"/>
<path class="st1" d="M336.8,464.8c1.3,7.3,2.4,14.4-3,20.4c8.2,2.6,15.7,5.5,20.8,12.9c-4.1,1.6-5.6,4.3-7.6,8
	c-7.1-1.5-13.9-4.8-19.9-8.9c1.8-10.1,4.4-20.1,8.2-29.6C335.7,466.5,336.2,465.6,336.8,464.8z"/>
<path class="st1" d="M387.6,466.1c-2.4,6.4-1.4,12.9-0.6,19.5c-6.4,1.1-12.6,1.9-18.5,4.6c-3.8,1.6-6.9,4.1-9.8,6.9
	c0.8-4.1,2.2-7.4,4.7-10.8C369.6,477.6,378.5,471.5,387.6,466.1z"/>
<path class="st1" d="M340.1,468c6.1,8.2,11.7,16.6,14.9,26.3c-4.9-5-10.5-8.1-17.2-10.2C340.9,478.8,340.1,473.7,340.1,468z"/>
<path class="st1" d="M437.2,471.9c5.9,4.5,11.1,10.4,15.9,16.1c4.7,5.7,9.7,11.1,13.7,17.3c12.1,18.1,23.4,36.8,34.5,55.5
	c-6.1,9.8-7,23-15.1,31.3c-5.4,5.7-12.1,6.8-19.1,9.5c-4.6-8-9.1-16-13.6-24c-0.6-1-1.2-2.5-2.4-2.7c-1.7-0.5-2.9,1-2.9,2.6
	c-1.8,14.8-3.1,29.7-4.2,44.6c-1.5,21.5-2.8,43.5-1.7,65c0.8,19.4,6.9,38.1,13.8,56.2c13.5,34.3,31.3,67.4,49.4,99.5
	c18.2,31.1,32.4,64.9,41.1,99.9c-13.1-2.5-26.2-4.8-39.5-6c-7.7-0.7-15.3-0.9-22.9,0.4c-23.2-53.6-47-107-70.7-160.5
	c-4.1-8.4-6.5-17.5-8.8-26.5c-6.8-35.2-10.8-72.5-5.6-108.2c4.1-28.9,14.5-56.9,34-79c0.8-1.1,2.7-2.5,1.3-3.9
	c-8.4-9.2-13.5-22.2-17.6-33.8c7.1-4.1,14.3-8,21.3-12.3c0.8-7.3,1-14.6,1.2-21.9C439.1,484.6,438.8,478.1,437.2,471.9z"/>
<path class="st1" d="M307.1,484c-4.4,9.7-9.3,18.6-11.9,29.2c-0.3,2.1-1.3,4.4,0.5,6.1c3.8,4.3,8.4,8.1,13,11.6
	c-6.2,3-12.5,6-18.4,9.5c-0.2,0.7-0.2,1.4,0,2.1c2.2,12.6,6.5,25.1,11.1,37c3.6,8.6,6.1,17.5,8.6,26.5c4.8,18.4,9,37,13.3,55.5
	c0.3,1.5,0.4,3,0.4,4.6c-0.4-1.5-0.8-3.1-1-4.6c-8.6-2.4-17.5-4-26.2-6.1c0.2-3.4,0.2-6.9,0.2-10.3c0.1-9.9-2.2-20.1-4.9-29.5
	c-0.5-1.3-0.8-2.9-1.8-3.8c-1.8-0.8-3.2,0-3.6,1.8c-3.8,12.3-7.5,24.7-11.3,37.1c-9.4-2.1-18.9-4.2-28.3-6.4c-2.5-0.5-4.9-1-7.2-1.9
	c15-41.8,30.8-83.4,45.2-125.4C288.5,503.7,297.2,493,307.1,484z"/>
<path class="st1" d="M406,500.7c1.1,3,2.1,6.1,3.3,9.1c2.6,6.1,3.8,12.7,5.9,19c3.5,10.7,7.8,22.4,14.9,31.2
	c-4.7,5.4-9.2,10.9-13.1,16.9c-14.5,22-21.8,47.1-24.3,73.2c-2.9,31.9,0.7,62.7,7,93.9c-13.8-43.3-16.4-89-14.4-134.1
	c1.5-28.4,4.9-57,12-84.5c1.9-7.4,4.1-14.9,7.1-22C405,502.6,405.5,501.6,406,500.7z"/>
<path class="st1" d="M326.1,504c6.4,3.7,13.1,6.7,20.3,8.4c0.6,4.6,1.6,7,4.6,10.5c-4,16.1-8,32.2-12.1,48.3
	c-3.9-5.3-7.2-11-10.9-16.4c-1.1-1.9-2.7-3.6-2.8-5.8C324,534.1,324.1,518.9,326.1,504z"/>
<path class="st1" d="M400.5,509.7c-3.6,8.9-6.5,18-8.8,27.3c-0.5,2-1.1,3.8-2.2,5.5c-7.2,11.6-13.7,23.6-19.9,35.8
	c-2.7-18.4-5.4-36.9-8.1-55.3c2.4-2.5,3.5-4.7,4.4-8C377.7,514.9,389.3,513.1,400.5,509.7z"/>
<path class="st1" d="M309.2,531.2c3.5,2.4,7,4.8,10.6,6.9c0.6,10.3,1.8,20.6,2.7,30.9c2.1,27.9,2.4,56,1.7,84
	c-3.7-22.5-7.8-45.4-15.1-66.9c-5.7-14.7-11.9-28.7-15.5-44.1c4.5-3,9-6,13.4-9.1C307.6,532.3,308.4,531.7,309.2,531.2z"/>
<path class="st1" d="M388.9,547.8c-2.4,13.2-4.9,26.3-6.2,39.7c-4.2,37.6-2,75.4,4.8,112.5c4,22.3,9.5,44.2,17,65.6
	c-14.2-6.5-27.2-16.2-39.9-25.5c1.1-2,0.6-3.9,0.5-6.1c-0.8-8-0.9-16-1.3-24c-1-33.3-1.3-66.7-1.4-100c0.1-1.8-0.5-2.8-1.4-4.2
	C367.4,585.5,378.3,566.2,388.9,547.8z"/>
<path class="st1" d="M325.1,554.7c11.2,17.2,22.3,34.5,33.5,51.7c0.7,1.2,1.5,2.2,1.5,3.6c0.5,42.6,0,85.4,2.9,127.9
	c-9.6,12.5-20.9,23-33.2,33c-5.1,4-10.4,8.1-16,11.4c4.6-12.7,7.5-25.9,9.5-39.3c4.3-29.1,5-59.6,5-89c-0.3-10.3,0.1-20.7-0.5-31
	C327.3,600.2,326,577.5,325.1,554.7z"/>
<path class="st1" d="M527.5,555.7c7.6,3.4,13.3,11.4,17.4,18.5c1.8,3.7,4.3,8.7,3.4,12.9c-1,4-5.9,6.3-9.4,7.5
	c-5,1.9-9.9,0.5-14.2-2.2c-6.6-4.2-12-10.8-16.4-17.1c3.2,7.4,8.4,14.2,14.9,19c-6.8,3-14.1,5.4-21.4,2.1c6.2,4.6,15.7,2.2,22.4,0
	c-0.7,1.5-1.4,3-2.3,4.4c-5.2,7.8-10,15.9-15.5,23.5c-2.2,3-4.8,4.9-5.4,8.7c-0.9,5.7,1,10.5,5.4,14.1c-6.2,1.5-12.5,2.5-18.6,0.2
	c0.6-3.8,1.1-7.4,0.1-11.2c-1-3.9-3.4-7.1-6.6-9.5c3-1.6,5.4-3.7,6.2-7.1c0.6-2.7,0.6-6.6-1.6-8.6c0,6.1-1.1,10.6-4.9,15.4
	c-3.7-2.5-7.8-4-12.2-5c1.1,0.9,2.8,1.1,4.1,1.7c5.7,2.1,11.2,6.3,12.9,12.4c1.6,5.6-0.4,12.2-3.1,17.2c-1.7,3-3.9,6.2-7.6,6.6
	c-3.3-0.3-6.1-2.6-8.3-4.9c-5.5-5.9-9.7-13.3-13.9-20.2c-2.5-4.2-5-8-4.7-13.2c0.1-4.7,3.4-8.2,7-10.8c6.3-4.4,14.4-7,21.6-9.5
	c6-2,11.2-6,14.6-11.3c5.3-8.1,6.7-18.4,11.5-26.5C507.7,555.3,519.4,553.5,527.5,555.7z"/>
<path class="st1" d="M6.5,574.4c1-0.9,3.3,0.1,4.5,0.2c37.9,8.8,75.8,18.1,113.5,27.7c11.4,3,22.9,5.8,34.2,9.2
	c-1.8,2-3.1,3.6-3.4,6.4c2.5-1.3,3.6-2.7,4.9-5.1c1,1,1.9,2,2.7,3.2c5.6,8.5,10.8,17.3,15.9,26c13.9,23.8,27.7,47.9,40.9,72.1
	c-1,2.3-2.9,4.2-4.6,6c-19.3-33.6-38.9-67.1-58.4-100.6c-3.4,1.1-0.5,3.4,0.3,5.3c18.9,32.4,37.8,64.9,56.5,97.3
	c-13.1-3.7-26.1-7.9-39.1-11.7c-1.8-4.1-3.8-8.8-7-12c-1.9-2.1-5-2.4-7.6-3.2c-16.1-4.9-32.2-10.3-48.5-14.5
	c-8.5-1.8-17-3.9-25.5-5.7c-2.7-0.6-5.3-0.9-8.1-0.8c0.8,2.6,1.7,5.1,2.5,7.6c-4.2-1.2-8.3-2.5-12.4-3.8c-2.7-0.6-4.7-3.5-6.5-5.4
	c-8.9-10.7-16.9-22.2-23.6-34.4c-9.9-16.2-21.3-31.6-31.3-47.7c-1.4-2.3-3-4.8-3.9-7.4C3,580,4.7,576.9,6.5,574.4z"/>
<path class="st1" d="M547.2,577c3.4,0.9,6.9,1.7,9.2,4.6c2.2,2.6,2,7,2.6,10.3c0.4,9.1,5.3,18,12.7,23.3
	c-3.7-6.4-7.7-12.6-10.9-19.4c5.9,5.6,12.5,10,17.3,17c2.7,4.1,2.9,9.2,1.2,13.7c-2.9,7.6-9.1,14.4-14.6,20.3
	c-4.1,4.5-8.3,8.6-13.9,11.1c-6.1,2.8-13.3,3.1-19-0.7c-4.3-2.8-6.6-7.2-7.9-12.1c10.3-5.7,20-14.6,26.9-24.1
	c-9.5,10.8-20.7,19.6-34.3,24.6c-2.6,0.8-4.9,1.6-7.5,0.4c-4.8-2-6.5-7.2-5.9-12.1c0.2-3.1,2.7-5.1,4.4-7.4
	c4.6-5.9,8.2-12.6,11.8-19.2c1.9-3.7,4.3-7.5,5.4-11.6c4.4,1.4,8.3,2.9,13,1.6c4.3-1.2,9.7-3.7,11.6-8c1.5-3.1,0.7-6.2-0.6-9.2
	C548.3,579.1,547.7,578,547.2,577z"/>
<path class="st0" d="M11.9,583.5c9.1,1.5,18.1,3.6,27,5.6c36,8,71.9,16.8,107.5,26.6c2,0.5,4,1.1,6,1.9
	c-24.2-4.9-48.6-10.7-72.6-16.5C57.2,595.5,34.4,589.9,11.9,583.5z"/>
<path class="st1" d="M452,585.3c3.8,5.8,6.9,12.2,10.5,18.1c-4.9,2.3-9.5,4.8-13.2,8.7C450.2,603.2,450.8,594.2,452,585.3z"/>
<path class="st1" d="M288.8,622.1c1.5,6.9,3.1,13.8,3.2,20.9c0,3.8,0,7.6-0.1,11.4c-4-0.9-7.9-1.8-11.9-2.7
	C282.5,641.8,285.7,631.9,288.8,622.1z"/>
<path class="st0" d="M350.4,629.4c1.3-1.7,3.6-1.2,4.6,0.6c2.3,3.7,2.3,10.2-0.2,13.8c-1.3,1.9-4.1,1.5-5-0.6
	C347.6,639.2,347.6,633.1,350.4,629.4z"/>
<path class="st0" d="M87.5,630.6c3.4-1.5,7.7,0.5,10.6,2.3c6.3,4.1,11.6,10,15.4,16.5c1.8,3.3,3.7,7.8,2.6,11.6
	c-0.9,2.6-3.7,3.6-6.2,2.9c-5.8-1.2-11-5.8-15-10c-4-4.3-7.8-9.5-9.4-15.2C84.9,636,84.5,632.3,87.5,630.6z"/>
<path class="st1" d="M175,630.4c48.2,10.8,96.6,21.7,144.8,32.7c-1.8,1.2-3.7,2.3-5.6,3.3c-32.2,18.2-64.1,36.4-96.3,54.7
	c1.7-2.3,3.4-4.5,4.9-6.9c-1.4-2.3-2.7-4.7-4-7.1c11.6-5.8,23.4-11.8,34.3-19c1.1-0.9,4-2.5,3.1-4.2c-1.5-1.6-4.4-2-6.4-2.7
	c-17.4-5.1-35-8.9-52.8-12.7c-1.4-2.5-2.8-5.1-4.3-7.6c8.8,2.4,17.7,4.8,26.5,7.4c8-4.6,15.8-9.7,23.7-14.4c1.9-1.2,4-2.2,5.4-3.9
	c-14.4-3.3-28.9-6.6-43.4-9.9c-6.1,3.5-12.2,6.8-18.3,10.2C182.8,643.8,178.7,637.2,175,630.4z"/>
<path class="st1" d="M447.9,630.4l0.1,0.2l0.1,0.2c5.1,8.6,10.1,17.9,16.9,25.2c3.1,3.2,7.3,6.5,12,5.2c5.1-1.6,7.6-7.3,9.7-11.8
	c1.4,0.5,2.8,0.9,4.2,1.3c4.1,6.2,8.2,12.6,13.1,18.2c2.1,2.5,4.8,3.9,7.7,5.4c-5.9,3-12.2,4.2-18.7,4.7c-15.6,0.8-32-3.4-46.6-8.8
	C446.5,656.9,447.2,643.7,447.9,630.4z"/>
<path class="st1" d="M88.1,633.1c2.3-0.5,4-0.3,6.1,0.7c6.1,3.1,11.3,8.3,15.1,13.9c2.2,3.3,5.1,8,4.5,12.2c-0.8,2.2-3,1.7-4.8,1.1
	c-6.9-2.8-12.8-8.9-17-15C89.7,642.2,86.9,637.7,88.1,633.1z"/>
<path class="st1" d="M204.3,643.3c1.2-0.9,3.2,0,4.6,0.2c11.1,2.6,22.3,5.1,33.4,7.7c-6.1,4.7-13.2,8.2-19.6,12.5
	c-1.6,0.8-3.1,2.6-5.1,1.7c-8.8-2.4-17.6-5-26.5-7.3c-1.2-1.8-2.2-3.7-3.1-5.7C193.5,649.5,198.8,646.3,204.3,643.3z"/>
<path class="st1" d="M521.7,646.2c1.6,5.6,4.3,9.9,9.1,13.3c-5.3,2.5-11,3.8-16.8,2.6c-6.8-1.5-12-5.8-16.4-11
	c4.9-0.3,9.5-2.2,14.4-2.1C515.3,648.9,518.7,647.3,521.7,646.2z"/>
<path class="st1" d="M502.3,659.1c4.1,3,8.6,5.2,13.7,5.6c5.5,0.6,10.8-0.8,15.8-3.1c1.8-1,3.1-0.2,4.9,0.2c-2.2,3.8-5,7.2-9.2,8.9
	c-6.1,2.5-12.9,0.6-18.1-3.1C506.6,665.3,504.5,662,502.3,659.1z"/>
<path class="st1" d="M321,665.3c0.7,2.3,1.2,4.6,1.8,6.9c-33.6,19.9-67.2,39.8-100.8,59.7c-0.8,0.4-1.6,0.8-2.4,1.2
	c-0.6-3-1.3-6-1.9-9C252,704.3,286.5,684.8,321,665.3z"/>
<path class="st1" d="M197.4,669.2c18.5,5.5,37.3,10.2,55.8,15.8c-1.7,1.4-3.5,2.7-5.3,3.9c-9.6,6.2-19.5,12-29.2,18
	C211.6,694.3,204.6,681.7,197.4,669.2z"/>
<path class="st0" d="M349.4,672.4c1.6-0.8,3.1-0.1,4,1.3c1.9,3.3,2,7.8,0.8,11.4c-0.6,1.7-1.9,3.9-4,3.4c-2.5-0.8-3.3-4.3-3.5-6.6
	C346.4,679,346.7,674.3,349.4,672.4z"/>
<path class="st1" d="M323.5,674.8c-0.6,17.4-1.8,34.8-3.3,52.2c-0.9,8.8-1.6,18-3.8,26.5c-2.9,11.9-6.5,23.7-9.3,35.6
	c-8.7,35.3-12.2,71.5-11.5,107.8c-4.2-27.8-7.4-55.8-9.1-83.9c-1-18.9-1.7-38.4,0.8-57.2c3.4-21.2,5.6-42.6,7.3-64.1
	C304.2,686.2,313.7,680.2,323.5,674.8z"/>
<path class="st1" d="M79,674.9c7.4,1.5,14.7,4,22,5.9c20,4.7,39.5,11.6,59.5,16.5c2,0.5,4.4,0.7,6,2.2c3.2,2.8,5.6,7,7.6,10.8
	c-31.2-9.3-62.2-18.9-93.4-28.3C80.3,679.5,79.6,677.2,79,674.9z"/>
<path class="st1" d="M67.3,680.3c49.3,15,98.8,30.1,148.2,44.9c0.6,2.8,1.2,5.5,1.8,8.2c-50-15.6-100-31.2-150-46.9
	C67.2,684.4,67.2,682.3,67.3,680.3z"/>
<path class="st1" d="M266.5,708.5c-4.5,10.4-12.7,20.2-23.3,24.8c-5.7,2.4-11.7,1.7-17.3-0.6c1.9-1.5,3.9-2.6,6-3.8
	c10.7-6.3,21.4-12.6,32-19C264.8,709.4,265.6,708.9,266.5,708.5z"/>
<path class="st0" d="M349.2,709.1c2-1.5,3.8,0.2,4.6,2c1.6,3.7,1.6,8.7-0.4,12.2c-0.8,1.4-2.6,2.6-4.1,1.3c-2.2-1.6-2.7-5.2-2.7-7.7
	C346.5,714.5,347,710.8,349.2,709.1z"/>
<path class="st1" d="M363,741.9c11.8,8.5,23.9,17.5,36.9,24.1c2.4,1.4,4.9,2.3,5.9,5.2c24.9,56.2,49.9,112.3,74.3,168.7
	c0.7,1.3,1.1,3.1,2.9,2.8c2.6-0.8,5.2-1.7,8-1.7c7.9-0.4,15.8,0.2,23.6,1.4c6.6,14.6,14.6,28.8,20.5,43.7c4.2,12,6.5,23.6,13.2,34.8
	c5.2,11.6,8.2,24.2,14.1,35.6c-3.7-1.6-7.5-2.9-11.6-3.2c5.8,5.4,12.8,9.7,20.1,12.9c3.2,1.3,5.8,4.3,8.2,6.9
	c4.4,5.2,8.2,10.6,9.9,17.2c-1.6-0.9-3.2-2.1-5-2.7c-2.3-0.1-4.8,0.9-6.9,1.7c-8.5,3.4-17.3,7.9-26.3,9.8c-5.6,1.2-10.8,3-15.5,6.4
	c-5.6,3.9-9.4,9.1-13.5,14.4c-2.5-5.6-3.1-11.6-3.8-17.7c-1.2-10.7-0.9-21.3-1-32c2.1-8.8,3.4-19.4,0.2-28
	c-1.9,6.3-2.9,12.7-3.5,19.2c-2.1-6.2-4.8-12.3-7.4-18.4c-8-17.9-16.6-35.4-24.9-53.2c-12.8-28.4-26.3-56.6-40.8-84.2
	c-8.4-15.8-17.1-31.9-27.5-46.5c-4.6-6.3-10.1-13-18-15.1c-4.6-1.2-8.9,0.9-11.5,4.7c-4.2,6-5.7,14.4-6.8,21.5
	c-2.6,19-2.3,38.9-2.6,58c-0.4,11.6-0.2,23.3-0.6,35c-0.2,31-1,62.1,0.3,93c0.4,4.4,0.3,9.7,2.4,13.7c3.2,6.4,3.7,14.3,2.6,21.3
	c-0.6,4.6-3.2,8.5-3.2,13c0,3.4,2.7,6.6,3.1,10c0.4,2.8-0.4,5.3-1.4,7.9c-3-4.5-5.6-9.4-8-14.1c-1.5-3-4.8-4.2-7.8-5.2
	c-7.2-2.3-15-3-22.5-3.6c-4.2-0.2-9.1-0.6-13.2,0.6c-5.5,1.7-10.8,4.8-15.8,7.7c-1.3-11.5-2.4-24.5,0.6-35.8
	c1.1-4.3,3.7-7.4,5.6-11.3c0.6-1.3,1.3-2.5,2.5-3.5c6.1-4.9,11.1-11.2,15.4-17.7c3.1-4.9,6.2-10.2,7.9-15.8
	c-8.5,8.3-15.6,18.4-22.6,28c1.9-13.3,2-26.8,3.9-40.2c1.8-13.4,1.5-26.6,1.9-40c-0.3-63.1-2.5-126.2-5.3-189.2
	c0.7-1.3,2.6-2.2,3.8-3.2C338.1,768,351.5,755.7,363,741.9z"/>
<path class="st1" d="M314.6,784.3c0.8,3.4,0.5,7.2,0.7,10.7c1.3,43.4,2.8,85.8,4.1,129.3c-6.1,1.8-12,3.7-17.5,7
	c-3.7-48.9-1.5-97.3,10.8-144.8C312.9,785.5,313.9,784.9,314.6,784.3z"/>
<path class="st1" d="M395.2,848.8c6.8,2.6,11.2,9,15.3,14.7c9.4,13.6,17.5,28.3,25.3,43c-19,0.2-37.9,2-56.7,5
	c0.1-14.8,0.5-29.8,3-44.5c1.1-5.5,2.5-12.4,6.2-16.7C390.1,848.2,392.6,847.8,395.2,848.8z"/>
<path class="st1" d="M583.5,1092.2c10.3,8.4,21.3,18.1,33.3,24.1c12.1,5.7,26.3,9,39,12.9c2.2,0.8,5,1.5,6.6,3.3
	c1.7,1.8,1.5,4.3,1.9,6.6c-2.4,2.6-7.1,1.2-10.4,1.7c-16.2,1.2-32.3-2.1-47.2-8.7c-16.1-7.3-33.6-8.7-51.1-6.6
	c1.2,1.6,3.5,2.2,4.1,4c-11.5,0.5-23.1,1.2-34.6,1.4c0.3-3.1-0.7-7.6,1.6-10c3.1-4.1,6.6-8.3,10.7-11.4c4.3-3.2,9.2-4.9,14.4-6
	c8.2-1.8,15.5-5.1,23.2-8.4C577.9,1094,580.5,1092.8,583.5,1092.2z"/>
<path class="st1" d="M329,1103.7c6.6-0.6,13.4,0.2,20,1c4.8,0.8,10.1,1.5,14.4,3.8c1.4,0.7,1.8,2,2.6,3.3c2.5,5.1,5.5,9.9,8.4,14.7
	c1.4,2,0.7,5.1,0.7,7.5c-1.7,1.3-3.5,2.5-5.3,3.7c-1.1-4.6-0.2-8.7,1.4-12.9c-3.6,4.2-5.3,8.7-5.3,14.2c-25.9,0.2-51.8,0-77.6,0.1
	c-0.1-4.3,2-7.8,4.9-10.8c6.3-6.5,14.8-11.4,21.6-17.4C318.6,1107.2,324,1105,329,1103.7z"/>
<path class="st0" d="M350.5,1113.6c4.8,1.3,9,4.1,10,9.4c-7-4.6-14.9-5-22.4-8.3l-0.1-0.8C341.7,1112.3,346.6,1112.6,350.5,1113.6z"
	/>
</svg>
