<?xml version="1.0" encoding="utf-8"?>
<!-- Generator: Adobe Illustrator 24.1.2, SVG Export Plug-In . SVG Version: 6.00 Build 0)  -->
<svg version="1.1" id="Layer_1" xmlns="http://www.w3.org/2000/svg" xmlns:xlink="http://www.w3.org/1999/xlink" x="0px" y="0px"
	 viewBox="0 0 360 360" style="enable-background:new 0 0 360 360;" xml:space="preserve">
<style type="text/css">
	.st0{fill:#FFFFFF;}
</style>
<g>
	<path d="M166.5,60.6c5.6,3.2,11.6,6.3,16.5,10.4c2.6,2.1,5.1,4.2,7.6,6.3c5.1,4.3,9,10.1,12.4,15.8c2.8,4.7,3.9,9.7,4.9,15
		c1.1-2.7,2.3-5.3,2.8-8.2c1-4.4,0.5-8.5,0.9-13c5.1,7.4,4.2,14.9,5.2,23.4c4.8-5.8,9.4-11.7,13.6-17.9c3.6-5.3,5.8-11.4,9.1-16.9
		c2.5-4.1,3.9-8.6,5.2-13.2c2.2,9.2,4.8,18.5,6.6,27.8c1,8.3,0.2,17.1-1,25.4c3.6-3.2,7.3-6,10.4-9.7c2.1-2.6,4.1-5.1,6.7-7.2
		c0.8,3.5,0.9,6.8,0.5,10.4c-0.9,8-2.6,16-5.4,23.5c-2.5,6.7-6.7,11.7-10.5,17.6c-3.4,5.1-7.3,9.8-11.5,14.3c4.5-2,8.9-5.2,13.8-6.1
		c-2,5-6.4,9.2-9.9,13.2c-4.6,5.3-10.1,8.7-15.6,13.1c1.4,5.5,6.4,8,7.9,13.4c1.1,3.1,0.1,5.8-0.1,8.9c1.5,3.3,3.4,6.7,5.9,9.3
		c3.3,2.6,6.9,4.6,11.2,4.3c4.3,0.5,6.9-2.6,11-3c2.2-0.1,4.8-0.1,6.8,0.9c4.2,1.7,6.6,7.6,5.5,11.8c-2.6,4.9-6.9,4.6-11.1,7
		c-4.5,2.7-9.5,4.3-14,7c-11.3,6.1-21.8,13.7-33,20c-6.4,2.6-11.6,6.3-18.5,7.5c-4.3,1-8.4,0.3-12.7,0.1c-10.4,0-21-4.2-29.6-9.9
		c-2.1,4.1-4.4,7.8-8.3,10.4c-0.2-4-0.4-8-1.2-12c-6.9,5.1-14.3,9-23.1,9c3.9-4.1,7.7-8.2,10.4-13.2c-5.4,3.4-10,6.9-16.6,7.6
		c3.3-3.4,6.6-6.7,9.2-10.8c-4.7,1.2-9.2,1.7-14,1c-7.2-0.5-14-1.4-20.2-5.5c-2.2-1.7-4-3.8-6-5.8c4.1,0.1,8,0.2,11.9-1.2
		c6.1-2.4,12.1-4.7,17.2-8.9c-5.9,2.1-11,0.4-16.9-0.5c-3.8-0.6-7.3-1.9-10.9-3.1c-4.9-1.4-9.1-5.7-13-9c-4.4-3.6-7.4-9.4-10.1-14.4
		c7.1,2.7,14.5,2.5,21.9,1.5c6.2-1.5,12.9-3.4,18.3-7c-9.3-4.5-16.5-11.3-23.9-18.4c-4.9-5.5-10.7-9.8-15-15.9
		c0.1-2.2,1.5-0.9,2.9-0.9c12.4,3,26.3-0.1,38.7,2.8c-1.5-1.6-3.1-3.2-4.6-4.9c-8.1-10.1-17.3-19.4-26.7-28.4c-3.1-3.1-7-4.9-10.8-7
		c1.7-1,3.3-1.5,5.3-1.6c5-0.2,10,0,15-0.1c7.4,0.1,14.2-1.1,21.6,0.2c6.7,1,12.6,3.8,18.5,6.9c-2.9-5.1-6-10.3-8.3-15.6
		c-4.8-11.9-8.9-23.9-10.3-36.8c4.5,1.7,8.5,4.3,12.8,6.4c3.6,1.7,7.2,3.4,10.7,5.2c5.8,3,12.1,4,17.6,7.5
		c6.5,4.1,13.6,6.9,20.1,11.2c1-11.4,2.4-24.2-0.4-35.4C169.1,70.3,168.1,65.4,166.5,60.6z"/>
	<path class="st0" d="M171.6,65.4c5.8,5.6,12.5,10.2,18.3,15.7c8.2,9.3,14.2,20.5,15.6,32.9c0.6,5-0.4,9.8-0.2,14.7
		c2.9-5.5,1.2-11.2,3.7-16.7c2.2-5.3,3.9-10.4,4.7-16.2c0.5,4.5,1,9.5-0.1,14c-0.7,2.9-1.4,5.7-1.7,8.6c5.5-3.6,8.8-8.7,12.9-13.6
		c2.9-3.5,5.6-7.2,8.2-10.8c4.5-6.3,7.6-13.9,11.1-20.9c0.8,5,1.4,9.9,2.3,14.9c1.9,11.2,0.3,22.3-2.1,33.2c-1,4.7-3,8.8-4.8,13.2
		c-1.6,3.8-2.7,7.5-5.1,10.9c-1.5,2.2-3,4.4-4.1,6.9c3.4-2.3,6.3-5.1,8.2-8.7c2.7-5,5.5-9.9,7.8-15.1c1.4-3.2,2-6.7,3.3-9.9
		c1.7-2.2,4.2-3.8,6.3-5.6c3.6-2.8,6.7-6.1,9.5-9.6c-0.6,9.6-2.8,19.1-6,28.2c-1.2,3.5-2.9,6.8-5,9.9c-4.3,6.2-8,12.4-13,18
		c-2.8,3.1-5.9,5.7-8.2,9.2c6.1-1,11.5-5.1,17.3-7.3c-3.1,3.6-6.3,7.1-9.6,10.6c-3.7,4-8.4,7-12.6,10.5c-2.5-6.6-4.7-13-9.5-18.3
		c-3.8-5-8.6-8.2-14.7-9.6c6.2,6.6,11.9,13.4,15.3,22c3.4,7.5,4.5,15.6,8,23c1.9,5.1,4.8,9.5,8.3,13.7c4.5,6.1,12.2,9.4,19.7,9.3
		c-0.1,0.9-0.2,1.8-0.3,2.7c-2.8,0.1-5.3,0.7-8.1-0.3c-4-1.4-8.5-2.6-12-5.1c-3.5-2.8-6.4-6.5-8.8-10.2c-5.2-9.1-9.4-18.8-13.6-28.4
		c-2.4-5.2-5.6-10.2-9.7-14.2c-3.9-3.8-8.5-6.1-13.4-8.2c0.6-1,1.2-2,1.9-3c-4.6,1-7.4,3.9-11.1,6.6c0.3-3.2,0.8-6.3,1-9.4
		c-4.7,5.3-8.9,10.9-12.9,16.7c-2.8,4.3-3.7,8.9-5.5,13.7c-0.9-3.5-1.1-7-1.6-10.6c-5.2,8.4-9,17.9-11.3,27.5
		c-0.6-3-0.7-6.1-0.8-9.2c-4.8-1.5-9.3-3.2-14.4-2.2c-5.1,1.2-9.8,3-12,8.1c-1.9,3.8,0,6.9,2.2,10c4,6,11.6,9.6,17.9,12.7
		c-1.2,6.2-1.6,12.3,0,18.5c1.2,5.8,4.1,10.5,7.6,15.1c-1.4,1.6-2.7,3.4-4.4,4.8c-4.8,3.5-9.3,6.9-15.2,8.3
		c4.8-4.9,8.7-10.1,9.8-17.1c-5.4,4.3-9.7,9.2-16.3,11.8c4.4-4.5,8.2-9.7,11.5-15.1c-5.9,2.2-11.4,4.4-17.9,4.4
		c-8.7-0.4-16.5,0.6-23.4-5.6c7-1.6,13.7-2.6,19.9-6.4c3.3-2.1,7.1-4.3,9.4-7.5c-1.1-2.8-3.7-1.5-6-1.4c-10.8,2-21.9,0-31.7-5
		c-5.2-3.6-9.7-8.6-13.3-13.9c6.9,0.3,13.2,1.1,19.8-1.1c6.4-1.8,14.2-4.8,17.7-10.8c-6.7-2.4-11.6-6.9-17.3-11.1
		c-4.2-3.2-7.4-7.2-11.4-10.6c-3.4-2.8-5.9-6.4-9.1-9.4c13.8,2.8,27.3,1.8,40.9,2.7c-6.4-7.7-12.6-15.5-18.7-23.5
		c-5.5-7.4-12.6-13.7-20.5-18.3c7.2,0.2,14.4,0.6,21.6,0.2c6.1-0.3,12.1,0,18,2.1c7.7,2.9,14.8,6.7,21.8,11
		c-6.3-12.3-13.1-24.6-18.2-37.5c-2.3-6.3-3.9-12.9-5.6-19.4c9.7,6,20,10.6,30.7,14.2c8.7,4.1,17.3,8.4,25.3,13.6
		c3.2,2.1,6,4.5,9.4,6.3c-1.1-1.8-2.4-3.4-3.8-5c0.7-9.2,2.2-18.7,1.8-28.1c-0.3-5.9-1.6-11.5-2.9-17.2
		C172.2,67.7,171.9,66.5,171.6,65.4z"/>
	<path class="st0" d="M199.6,169.3c0.8,0.9,1.5,1.9,2.2,2.9c-3.7,4.6-8.6,4.4-13.4,7.3c-5,2.6-8.3,6.8-13,9.8
		c-1.1-1.2-2.2-2.3-3.3-3.5c0.8-1.6,1-3.1,2.6-4.1c2.5-1.9,4.8-3.9,7.3-5.8c3.5-2.7,7.3-4,11.2-5.8
		C195,169.4,197.7,168.2,199.6,169.3z"/>
	<path class="st0" d="M226.8,188.2c2.5,1.6,4.9,3.1,6.4,5.7c1.6,2.6,1.5,5.5,1.7,8.5c-0.3-1.4-0.6-2.8-0.9-4.1
		c-0.8,0.5-1.6,1-2.3,1.6c0.2,1.6,0.4,3.1,0.8,4.7c1,0,1.9,0,2.9,0l-1,3C230.3,202.1,228.2,194.8,226.8,188.2z"/>
	<path class="st0" d="M193.2,191.1c3.9-0.6,7.8,1.7,9.5,5.3c2.3,4.7,2.5,10.5,2.5,15.6c0.1,3.7-2,7.3-5.3,8.9
		c-5.6,2.5-12.6,1.6-16.9-3c-2.3-2.4-3-5.8-3.5-9c-0.8-4.7,1.3-9.7,4-13.4C185.8,192.9,189.8,191.5,193.2,191.1z"/>
	<path class="st0" d="M143.5,200.5c-1.1,2.5-2.2,5.1-3.4,7.6c-2.1-1.1-4.6-2.2-6.2-4c-1.1-1.6-1.7-3.6-2.3-5.4
		C135.4,196.5,140.1,198.2,143.5,200.5z"/>
	<path d="M198,205c2.5,0.1,2.5,1.5,3.6,3.5c-1-0.2-2.1-0.4-3.1-0.6c0.1,1.1,0.3,2.1,0.5,3.1l1.7-2.4c0.1,1.7,0.2,3.4,0.1,5
		c-2.6,0.8-5,2-7-0.7C192.6,210.2,194.1,204.7,198,205z"/>
	<path class="st0" d="M268.1,219.9c1,0.4,4.4,0.9,3.2,2.5c-2.4,1.5-5.7,0.6-8.3,0.1C264.5,220.9,265.5,219.4,268.1,219.9z"/>
	<path class="st0" d="M257.3,228c3.5,3.2,5.5,4.6,10.1,6.2C263,233.7,258.9,232.7,257.3,228z"/>
	<path class="st0" d="M150.7,254.1c1.8,1.8,3.4,3.8,5.2,5.6c-1.1,3.2-2.7,6.1-4.5,9C151.5,263.8,149.8,258.8,150.7,254.1z"/>
</g>
</svg>
