<?xml version="1.0" encoding="utf-8"?>
<!-- Generator: Adobe Illustrator 24.1.2, SVG Export Plug-In . SVG Version: 6.00 Build 0)  -->
<svg version="1.1" id="Layer_1" xmlns="http://www.w3.org/2000/svg" xmlns:xlink="http://www.w3.org/1999/xlink" x="0px" y="0px"
	 viewBox="0 0 497 436" style="enable-background:new 0 0 497 436;" xml:space="preserve">
<style type="text/css">
	.st0{fill:#CCCCCC;}
	.st1{fill:#FEFEFE;}
</style>
<path class="st0" d="M0,0h9.5C9.2,3.1,9.1,6.1,9,9.2C6,9.3,3,9.4,0,9.6V0z"/>
<path class="st0" d="M22.5,0h13.1c-0.2,3.1-0.3,6.2-0.5,9.3c-4.1,0.3-8.2,0.3-12.4,0C22.7,6.2,22.6,3.1,22.5,0z"/>
<path class="st0" d="M48.5,0h13.1c-0.2,3.1-0.3,6.2-0.5,9.3C57,9.5,53,9.5,48.8,9.3C48.7,6.2,48.6,3.1,48.5,0z"/>
<path class="st0" d="M74.6,0h13.1c-0.2,3.1-0.3,6.2-0.5,9.3C83,9.6,79,9.5,74.8,9.3C74.7,6.2,74.7,3.1,74.6,0z"/>
<path class="st0" d="M100.6,0h13.1c-0.2,3.1-0.3,6.2-0.5,9.3c-3.6,0.2-7.5,0.6-11-0.1C100.4,6.8,100.9,2.8,100.6,0z"/>
<path class="st0" d="M126.7,0h13.9c-0.2,2.8-0.4,5.8-1.1,8.6c-3.2,1.7-8.7,1.5-11.9,0.1C126.9,5.8,126.8,2.8,126.7,0z"/>
<path class="st0" d="M153.5,0h13c-0.1,3.1-0.3,6.2-0.4,9.3c-4.1,0.3-8.2,0.3-12.3,0C153.7,6.2,153.6,3.1,153.5,0z"/>
<path class="st0" d="M179.5,0h13.1c-0.2,3.1-0.3,6.2-0.5,9.3c-4.1,0.3-8.2,0.3-12.3,0C179.7,6.2,179.6,3.1,179.5,0z"/>
<path class="st0" d="M205.6,0h13.1c-0.2,3.1-0.3,6.2-0.5,9.3c-4.1,0.3-8.2,0.3-12.3,0C205.8,6.2,205.6,3.1,205.6,0z"/>
<path class="st0" d="M231.8,0h12.9c-0.2,3.1-0.3,6.2-0.5,9.3c-4.1,0.3-8.1,0.3-12.2,0C231.8,6.2,231.7,3.1,231.8,0z"/>
<path class="st0" d="M258.4,0h12.2c-0.2,3.1-0.3,6.2-0.5,9.3c-3.8,0.2-7.6,0.2-11.4,0C258.6,6.2,258.5,3.1,258.4,0z"/>
<path class="st0" d="M284.5,0h12.9c-0.2,3-0.5,6-0.7,9c-4,0.5-7.9,0.6-11.9,0.3C284.6,6.2,284.5,3.1,284.5,0z"/>
<path class="st0" d="M362.5,0h13.1c-0.2,3.1-0.3,6.2-0.5,9.3c-4.1,0.3-8.2,0.3-12.4,0C362.7,6.2,362.6,3.1,362.5,0z"/>
<path class="st0" d="M389.4,0h12.4c-0.2,2.6-0.2,5.3-0.8,7.8c-0.5,0.9-1.1,1.4-2,1.5c-3,0.5-6.2,0.1-9.2,0
	C389.6,6.2,389.5,3.1,389.4,0z"/>
<path class="st0" d="M415.4,0h13c-0.2,3-0.5,6-0.7,9c-4,0.5-7.9,0.6-11.9,0.3C415.6,6.2,415.5,3.1,415.4,0z"/>
<path class="st0" d="M441.4,0h13c-0.1,3.1-0.3,6.2-0.4,9.3c-4.1,0.3-8.1,0.3-12.2,0C441.6,6.2,441.5,3.1,441.4,0z"/>
<path class="st0" d="M467.5,0h13.1c-0.2,3.1-0.3,6.2-0.5,9.3c-4.1,0.3-8.2,0.3-12.4,0C467.7,6.2,467.6,3.1,467.5,0z"/>
<path class="st0" d="M493.4,0h3.6v10.8c-1-1.3-2.7-2.5-3.1-4C493.4,4.6,493.5,2.2,493.4,0z"/>
<path class="st0" d="M9.7,9.9c4.1-0.2,8.1-0.1,12.2,0.3c0.5,4.1,0.5,8,0.2,12c-4.3,0.7-8.1,0.7-12.4,0C9.5,18.1,9.5,14.1,9.7,9.9z"
	/>
<path class="st0" d="M48.3,10.8c0.2,4,0.1,7.9-0.4,11.8c-4.1,0.3-8,0.2-12-0.4c-0.2-3.5-0.8-7.5,0-11C38.8,8.3,44.8,10.2,48.3,10.8z
	"/>
<path class="st0" d="M74.1,11.2c0.9,3.5,0.3,7.4,0.1,11c-4.3,0.7-8.2,0.8-12.5,0.1c-0.2-4-0.2-8,0.5-12C65.5,9.9,71.5,8.6,74.1,11.2
	z"/>
<path class="st0" d="M100.3,9.9c0.3,4.1,0.3,8.1-0.1,12.3c-4,0.5-7.9,0.7-12,0.5c-0.5-3.9-0.7-7.8-0.3-11.8
	C92,9.6,96.1,9.7,100.3,9.9z"/>
<path class="st0" d="M125.5,10.5c1.9,3,0.7,8.3,0.7,11.7c-4.2,0.8-7.8,0.7-12,0c0-4,0-8,1-11.9C118.5,9.8,122.3,9.2,125.5,10.5z"/>
<path class="st0" d="M141.1,10.4c3.7-0.9,7.8-0.3,11.5,0.1c0.7,4.4,0.6,8.2-0.4,12.6c-3.8-0.1-7.7-0.4-11.4-0.9
	C140.5,18.4,140,14,141.1,10.4z"/>
<path class="st0" d="M178.6,10.8c1.5,3.4,0.7,7.8,0.6,11.4c-3.7,0.3-8.8,1.5-12.2-0.4c-0.8-3.4-0.9-7.2-0.1-10.6
	C169.7,8.8,175.4,9.6,178.6,10.8z"/>
<path class="st0" d="M205,10.2c0.5,4.1,0.6,7.9,0.2,12c-4.3,0.6-8.1,0.6-12.4,0.1c-0.2-3.6-0.7-7.6,0.1-11.1
	C195.6,8.6,201.6,10.1,205,10.2z"/>
<path class="st0" d="M230.6,10.5c1.7,3.3,0.8,8.1,0.6,11.7c-4.3,0.8-8.1,0.7-12.5,0.1c-0.3-4-0.4-8,0.4-12
	C222.9,9.7,227,9.2,230.6,10.5z"/>
<path class="st0" d="M257.2,9.9c0,3.7,1.3,9.2-0.8,12.4c-3.1,0.6-6.3,0.7-9.5,0.9c3.2,3.3,6.2,5.9,10.9,6.6c0.2-2,0.5-4,0.7-6.1
	c3.9-0.2,7.8-0.2,11.7,0c0.1,3.1,0.8,6.9-0.3,9.9c-1.1,1.1-2.5,2.1-3.7,3c1,1.4,2.1,2.8,3.1,4.2c1.5-1.4,2.9-3.1,4.7-4.1
	c3-0.6,6.3-0.2,9.3,0c0.4,5.2-0.3,9.9-1.6,14.8c5-1.8,9.1-2.3,14.4-1.9c0.2,2.7,0.5,5.6,0.2,8.3c-0.5,2.8-2.3,5.4-3.6,7.9
	c-5.4-8.1-12.2-14.9-19.7-21.1c-7.4-5.4-13.5-12-21.8-16.1c-1-0.5-2.1-0.9-3.2-1.3c1.5,2.4,3.1,4.4,5.2,6.3
	c5.5,4.9,11.4,9.2,16.7,14.4c-8.5-4.3-14.1-11.3-21.9-16.8c1.1,5.4,2.7,10.6,3.7,16c2.3,11.6,1.8,24.1,1.1,35.8
	c-0.3,6.5-1.7,12.8-2.5,19.3c-0.5,2.9,1.4,4.2,2.9,6.3c1.4,1.8,2.3,3.8,3.1,5.8c-6.3-0.7-9.3-5.2-14.4-8.5
	C231.3,98.4,219.6,92,207.9,86c-6.3-3.2-12.2-6.7-18.9-9c-10.3-3.5-19.8-8.7-29.8-13.3c-5.9-2.9-11.5-6.6-17.4-9.5
	c1.4,7.6,3.8,14.6,6.2,21.9c6.4,18.6,15.7,34.8,25,51.9c2.7,6.3,7,11.8,9.5,18.2l-1.3,1.4c-5.2-1.9-9.6-5.7-14.5-8.2
	c-6.8-3.6-13.9-6.9-21-9.9c-10.2-4.3-21.6-6.2-32.6-5.9c-12.6,0.5-25.2-1.5-37.9-2.1c7.2,5.2,14.2,9.8,19.9,16.8
	c-3.6-2.4-6.9-5.1-10.2-7.9c-4.7-3.9-10-6.8-14.8-10.5c6.4-0.6,12.5,0.7,18.9,1.1c10.4,1.4,20.8,0.1,31.2,1.5
	c14.1,0.4,26.5,5.4,38.9,11.7c7.2,3.1,13.6,7.3,20.3,11.2c1.1-1.6-0.4-3-1-4.5c-4-6.5-6.9-13.6-10.8-20.2
	c-9-16.3-18.2-33.8-23.1-51.8c-1.6-6-3.9-10.9-4.1-17c5,2.2,9.4,5.3,14.2,7.8c8.4,4.5,17,8.6,25.6,12.4c5.4,2.4,11.1,4.1,16.4,6.6
	c15.3,7.8,30.5,15.5,44.8,25.2c3.9,2.8,7.6,5.8,11.9,8c-1.2-2.4-3.9-5-3.8-7.8c-0.2-7,1.6-14,2-21.1c0.3-9,0.5-18,0.2-27
	c-0.4-10.5-5.1-19.9-5.2-30.4c-1.8-1.9-4.7-2.7-7.1-3.6c0.6,6,2.5,11.5,4,17.3c2.8,11.9,5.2,24.2,3.5,36.5
	c-0.5,8.1-0.8,16.3-2.3,24.3c-5.2-1.5-8.9-4.6-13.4-7.3c-4.4-2.8-9.3-4.4-13.7-7.3c-6.1-4.1-12.6-7.5-19.2-10.8
	c-5.2-2.3-10.9-3.5-16-6.1C172,63,161.6,57.8,151.1,52.6c-4.9-2.7-9-6.2-14.7-7.5c-0.5,7.7,2.2,14,3.9,21.3
	c0.9,4.2,2.1,8.2,3.8,12.3c3.2,8.2,5.6,16.6,9.3,24.6c4.2,10.4,11.3,18.5,15.6,28.7c-7-2.4-13.6-6.2-20.4-8.9
	c-5.8-2.4-11.7-3-17.7-4.3c-10.6-2.8-22.7-0.2-33.6-1.7c-5.6-0.8-11.6-0.5-17.2-0.7c-6.5,0-13.2-0.5-19.7,0.2
	c4.3,4.8,10.5,6.5,15.2,10.9c11.3,10.2,23.1,20.4,33.1,31.9c4.3,4.5,8.9,8.5,12.8,13.3c4.1,5.1,8.9,9.5,12.7,14.9
	c-6.5,0.3-12.7-1-19.1-2c3.9-0.3,7.9-0.5,11.8-0.5c0.2-1.1,0.4-2.2,0.6-3.4c-4-2-8.1-2.3-12.5-2.6c-0.3-4-0.6-8-1.1-11.9
	c-4-0.5-8.5-0.1-12.3-1.5c-0.5-3.2-0.1-6.4-0.4-9.6c0-1.2-0.6-1.8-1.8-2.1c-3.5-0.7-7.1-0.6-10.6-0.8c-0.4-3.8,0.1-8.6-1.7-12
	c-3.9-0.9-8.1-0.7-12.1-0.9c-0.1-3,0-6.1-0.4-9c-0.3-1.1-0.3-2.5-1.7-2.9c-3.1-0.9-6.4-0.9-9.6-1.2c-1.7-4.3-4-8.3-5.7-12.5
	c-2.9-0.1-5.9-0.2-8.8-0.3c-0.2-4.2-0.2-8.2,0-12.4c2.7-0.2,5.5-0.4,8.3-0.2c1.5,0.2,3.1,0.2,3.9,1.7c0.7,3.4,0.5,7,0.6,10.4
	c4.3,0.2,8.6,0.2,12.9,0c0-2.6,0-5.1,0.2-7.7c0.2-1.4,0.1-3.2,1.6-4c3.4-1,7.4-0.4,10.9-0.2c0.2,4.2,0.4,8.3,0.5,12.5
	c5.5,0.2,10.9,0.8,16.3,1.1c7.3,0.5,13.7-0.9,20.9,0.4c4.1,0.7,8.3,2.3,12.5,2.4c3-0.5,5.6-2.8,8.7-3.2c1.9-0.2,3.8-0.1,5.7-0.1
	c0.7,2.9,0.9,7,3,9.3c2.9,2.5,7.5,3.5,11.1,4.7c-1.8-3.8-3.6-8.1-6.5-11.2c-1.5-1.8-3.4-3.3-4.8-5.2c-1.4-3.4-1.9-7.2-2.9-10.7
	c-3.7-0.2-7.4-0.3-11.1-0.5c-0.2-3.7-0.2-7.3,0-10.9c1.7-0.8,3.4-1.6,5.1-2.4c-1.6-6.1-4.4-11.8-5.9-17.9c-0.7-2.3-1.2-5.1-2.8-7
	c-2.9-1-6.2-1.1-9.3-1.4c-0.4-3.8-0.4-7.5,0-11.4c1.9-0.4,3.8-0.8,5.6-1.2c0.5-1.5,1.1-2.9,1.6-4.3c1.6-0.6,3.3-1.2,4.9-1.9
	c0.4-2,0.8-4,1.2-6c2.9-0.3,5.9-0.6,8.8-0.3c2,0.1,2.6,0.8,3.1,2.7c1,4.5-2,7.6-2,12.3c4.7-1.6,8.9-2.4,13.9-1.8
	c0.6,2.8,0.7,6.6,2.4,8.9c3.8,3,8.7,4.5,12.7,7.2c3.9,2.5,7.3,3.6,11.9,4.2c0.6-2.2,0.8-5.2,2.3-7.1c3-0.7,8.7-1.4,10.9,1.2
	c0.7,3.7,0.1,7.8-0.4,11.4c4,0.1,9-0.8,12.7,0.8c0.8,2.8,0.9,5.8,1.8,8.5c3.5,2.6,8,3.6,11.6,6.1c3.9,2.6,7.8,4.9,12.1,6.5
	c0.4-3,0.7-6,0.9-9c-3.7-0.1-7.9,0.2-11.5-1c-1.1-3.2-1.8-8.9,0.7-11.6c3.7-0.7,7.6-0.5,11.3-0.5c0.1-4.6,0.1-9.2,0.1-13.8
	c-4.4,0.6-8.4,0.6-12.8-0.5c0-3.8,0.1-7.5,0.3-11.3c3.6-0.3,7.2-0.5,10.8-0.6c-0.3-3.9-0.3-9.2-2.8-12.4c-2-1.4-4.9-1.6-7.2-2.3
	c-0.4-2.7-1.2-5.9-0.6-8.6c1.4-2.7,4-4.8,6.1-7c2.1,0.9,4.1,1.8,6.1,2.7c0.1-3.9,0.2-7.7,0.8-11.5C249.3,9.6,253.2,9.7,257.2,9.9z"
	/>
<path class="st0" d="M283.1,10.9c1.8,3.1,0.9,7.8,0.8,11.3c-4.2,0.7-8.2,0.7-12.5,0.3c-0.3-4-0.5-8.1-0.1-12.1
	C275,9.7,279.8,9,283.1,10.9z"/>
<path class="st0" d="M356,9.6c1.8,0.1,4.8,0.1,6.1,1.6c0.9,3.5,0.3,7.4,0.1,10.9c-4.4,0.8-8.1,0.8-12.5,0.1
	c-0.1-3.6-0.6-7.5,0.2-11.1C351.2,9.7,354.2,9.7,356,9.6z"/>
<path class="st0" d="M387.6,10.5c1.6,3.4,0.7,8.1,0.6,11.8c-4.2,0.5-8.1,0.6-12.3,0c-0.3-4-0.4-8,0.3-12
	C380,9.7,383.9,9.2,387.6,10.5z"/>
<path class="st0" d="M414.2,10.7c0.3,3.9,0.3,7.8,0.1,11.6c-3.9,0.2-7.8,0.2-11.7,0c-0.2-3.9-0.2-7.8,0.1-11.7
	C406.6,10.4,410.4,10.3,414.2,10.7z"/>
<path class="st0" d="M440.3,9.9c0.3,4.2,0.3,8.3,0,12.5c-3.9,0.2-7.7,0.2-11.6,0c0-3.5-1.2-8.8,0.8-11.8
	C432.8,9.3,436.8,9.8,440.3,9.9z"/>
<path class="st0" d="M455,10.2c3.8-0.9,7.9-0.4,11.8,0c0.4,4,0.5,8,0.4,12.1c-3.4,0.4-7.6,1.2-11,0.1c-1.8-0.5-1.4-1.8-1.7-3.3
	C454.2,16.1,454.3,13.1,455,10.2z"/>
<path class="st0" d="M492.5,10.8c1.5,3.3,0.8,7.9,0.7,11.5c-4.3,0.6-8.1,0.5-12.4-0.1c-0.2-3.5-0.8-7.5,0-11
	C483.7,8.9,489.3,9.7,492.5,10.8z"/>
<path d="M239.3,22c2.4,0.9,5.3,1.7,7.1,3.6c0.1,10.5,4.7,19.9,5.2,30.4c0.4,9,0.1,18-0.2,27c-0.3,7.1-2.2,14-2,21.1
	c-0.1,2.8,2.6,5.4,3.8,7.8c-4.3-2.3-8-5.2-11.9-8c-14.3-9.6-29.4-17.4-44.8-25.2c-5.3-2.5-11-4.2-16.4-6.6
	c-8.7-3.8-17.3-8-25.6-12.4c-4.8-2.5-9.2-5.6-14.2-7.8c0.2,6.2,2.6,11,4.1,17c4.9,18,14.1,35.5,23.1,51.8
	c3.9,6.6,6.8,13.6,10.8,20.2c0.7,1.5,2.1,2.9,1,4.5c-6.7-3.9-13.2-8.1-20.3-11.2c-12.4-6.2-24.8-11.3-38.9-11.7
	c-10.4-1.4-20.8-0.2-31.2-1.5c-6.4-0.4-12.5-1.7-18.9-1.1c4.8,3.7,10.1,6.6,14.8,10.5c3.3,2.8,6.6,5.5,10.2,7.9
	c4.6,4.4,8.8,9.2,12.8,14.1c7.9,9.4,15.7,19,23.6,28.4c3.1,4.3,7.4,7.1,9.9,11.9c-4.5,0.3-8.7-1.1-13.1-1.1
	c-6.4-0.2-12.7,0.4-19.1-0.8c-6-0.2-11.9-0.9-17.9-1.3c-7.4-1-14.5-2.3-22-2.1c3.9,6,9,10.7,14.5,15.1c6,4.7,10.8,10.5,16.8,15.2
	c3.9,3.2,8.1,5.9,12.2,8.9c7.1,5.4,15,10.5,23.3,13.8c-3.3,5.9-9.1,8.5-14.8,11.7c-6.7,3.1-14.2,4.6-21.4,6.3
	c-7.2,1.7-14.4,1.4-21.8,1c-3.7-0.5-7.4-0.9-11.2-0.7c1.1,2.3,2.3,4.6,4.2,6.4c5.3,5.5,10.9,11.3,17.1,15.9c5,3.6,11,5.4,16.9,7.2
	c4.2,1.3,8.7,3.3,13.1,3.5c6.8,0.5,13.1,2.3,20,1.9c5-0.3,10.1-0.9,15-1.8c2.3-0.4,4.4,0.2,6.6,0.9c0,1.2-0.1,2.5-0.1,3.8
	c-10.6,8.3-22.4,14.8-35.7,17.5c-5.4,1-10.8,2.2-16.2,3.1c4.3,6.6,14.1,8.1,21.3,9.3c8.7,0.6,17.4,0.6,26.1,0.6
	c9.2,0,18.1-4,26.4-5.7c-1.1,2-2.2,3.9-3.6,5.7c-4.4,5.2-8.4,10.6-13.1,15.6c0.2,1.3,0.5,2.5,0.8,3.8c-3.6,0.9-7.1,1.9-10.7,2.5
	c3.3-4,7.4-7.1,10.6-11.2c1.2-1.7,2.4-3.4,3.6-5.1c-2.5-0.9-3.9-0.7-6.5,0c-7.8,0.2-15.9,0.8-23.6-0.7c-7.1-1-14.9-1-21.4-3.9
	c-3.1-1.3-6.1-2.6-9.1-4.1c-4.3-2-7.1-5.6-10.2-9c4.4-0.6,8.8-1.2,13.3-1.2c5.3,0.1,10.5-3,15.6-4.6c7.8-2.5,16.7-6,22.2-12.4
	c-7.6,1.8-15.8,1.4-23.4-0.3c-6.2-1.4-12.2-1.4-18.3-3.6c-7.7-2.7-15.2-4.5-22-9.4l-1.5-1c-6-5.6-12.6-9.3-17.7-15.9
	c-3.6-4.9-7.2-9.3-9.5-15c7.5,1.2,14.2,3.7,21.9,3.3c13.1,0.2,26.2-1.9,38.5-6.3c4.6-1.7,8.9-2.4,12.3-6.3
	c-6.1-4.6-13.1-7.7-19.3-12.1c-1.7-1.2-3.3-2.4-4.9-3.7c-3.5-3.2-7.1-6.1-10.8-9c-1.6-1.3-3.1-2.7-4.5-4.1c-3.4-3.1-6.7-6.2-9.8-9.7
	c-4.2-5.1-10.3-7.3-14.1-12.7c-0.8-0.9-1.5-1.8-2.2-2.7c-2.1-2.2-4.3-4.3-6.3-6.7c2.4-0.1,4.7-0.1,7.1,0.4
	c9.7,2.3,19.3,2.6,29.1,2.9c6.5,0.7,13,0.8,19.5,0.8c0.5,0,1,0,1.5,0c6.4,1,12.6,2.3,19.1,2c-3.8-5.4-8.6-9.7-12.7-14.9
	c-3.9-4.8-8.5-8.8-12.8-13.3c-10-11.6-21.7-21.8-33.1-31.9c-4.7-4.4-10.9-6.1-15.2-10.9c6.5-0.7,13.2-0.3,19.7-0.2
	c5.7,0.1,11.6-0.2,17.2,0.7c10.9,1.5,23-1.1,33.6,1.7c6.1,1.3,11.9,2,17.7,4.3c6.8,2.8,13.4,6.5,20.4,8.9
	c-4.3-10.2-11.3-18.4-15.6-28.7c-3.8-8-6.1-16.4-9.3-24.6c-1.6-4-2.8-8-3.8-12.3c-1.6-7.3-4.3-13.6-3.9-21.3
	c5.7,1.2,9.7,4.8,14.7,7.5c10.4,5.2,20.9,10.4,31.1,15.9c5.1,2.7,10.8,3.8,16,6.1c6.6,3.3,13.1,6.7,19.2,10.8
	c4.3,2.9,9.2,4.6,13.7,7.3c4.6,2.6,8.3,5.8,13.4,7.3c1.5-8,1.8-16.2,2.3-24.3c1.7-12.3-0.7-24.6-3.5-36.5
	C241.8,33.4,239.9,28,239.3,22z"/>
<path class="st0" d="M0,23.3c3.1,0.2,6.1,0.3,9.2,0.5c0.2,4,0.1,7.9-0.3,11.9c-3,0.2-5.9,0.4-8.9,0.5V23.3z"/>
<path class="st0" d="M22.7,23.7c4.2-0.3,8.3-0.3,12.5,0c0.3,4.1,0.2,8-0.3,12c-3.8,0-8.6,0.8-12.1-0.9
	C22.1,31.2,22.5,27.3,22.7,23.7z"/>
<path class="st0" d="M48.7,23.7c4.2-0.3,8.4-0.3,12.6,0c0.2,3.9,0.2,7.7,0,11.6c-4.2,0.4-8.2,0.4-12.5,0
	C48.6,31.4,48.5,27.6,48.7,23.7z"/>
<path class="st0" d="M74.8,23.7c4.2-0.3,8.4-0.3,12.6,0c0.2,3.9,0.1,7.7-0.1,11.5c-4.3,0.6-8.3,0.7-12.6,0.1
	C74.6,31.4,74.6,27.6,74.8,23.7z"/>
<path class="st0" d="M100.9,23.7c4.2-0.3,8.3-0.3,12.5,0c0.2,3.9,0.2,7.7,0,11.6c-4.3,0.6-8.1,0.6-12.4-0.1
	C100.8,31.4,100.7,27.6,100.9,23.7z"/>
<path class="st0" d="M127.7,23.7c4.1-0.2,8.1-0.2,12.1,0.1c0,3.8,0,7.7-0.1,11.5c-4,0.3-8,0.3-12,0
	C127.5,31.4,127.5,27.6,127.7,23.7z"/>
<path class="st0" d="M153.7,23.7c4.2-0.3,8.3-0.3,12.5,0c0.1,3.9,0.2,7.7,0.1,11.5c-4.5,0.9-8.1,0.8-12.6,0
	C153.5,31.4,153.5,27.6,153.7,23.7z"/>
<path class="st0" d="M179.7,23.7c4.2-0.3,8.3-0.3,12.5,0c0.1,3.8,0.1,7.6,0,11.5c-3.8,0.3-8.8,1.5-12.3-0.4
	C179.1,31.3,179.6,27.3,179.7,23.7z"/>
<path class="st0" d="M205.7,23.7c4.2-0.3,8.3-0.3,12.5,0c0.2,3.9,0.2,7.7,0,11.6c-4.4,0.6-8.2,0.6-12.6-0.1
	C205.6,31.4,205.6,27.5,205.7,23.7z"/>
<path class="st0" d="M284.7,23.7c4.1-0.2,8.2-0.2,12.4,0c0.1,3.8,0,7.5-0.2,11.2c-3.9,0.6-7.8,0.8-11.8,0.8
	C284.5,31.7,284.4,27.8,284.7,23.7z"/>
<path class="st0" d="M362.8,23.7c4.2-0.3,8.4-0.3,12.6,0c0.2,3.7,0.1,7.3-0.2,10.9c-1.8,0.6-3.6,1.1-5.4,1.7c-0.1,1-0.3,2-0.4,3.1
	c-0.5-0.5-1-1-1.5-1.5c-1.7-1.6-3.8-3.1-5.1-5.1C362.2,29.9,362.6,26.7,362.8,23.7z"/>
<path class="st0" d="M388.9,23.7c4.2-0.3,8.3-0.3,12.5,0c0.2,3.9,0.2,7.7,0,11.6c-4.1,0.5-8,0.7-12.2,0.5
	C388.7,31.7,388.6,27.8,388.9,23.7z"/>
<path class="st0" d="M415.7,23.7c3.9-0.2,7.8-0.2,11.7,0c0.2,3.9,0.2,7.8,0,11.7c-3.9,0.2-7.8,0.2-11.7,0
	C415.5,31.4,415.5,27.6,415.7,23.7z"/>
<path class="st0" d="M441.7,23.7c4.2-0.3,8.3-0.2,12.5,0c0.1,3.9,0.1,7.7-0.1,11.5c-4.2,0.4-8.1,0.4-12.3,0
	C441.5,31.4,441.5,27.6,441.7,23.7z"/>
<path class="st0" d="M467.7,23.7c4.2-0.3,8.4-0.3,12.6,0c0.1,3.9,0.1,7.7,0,11.6c-4.2,0.3-8.4,0.3-12.6,0
	C467.5,31.4,467.5,27.6,467.7,23.7z"/>
<path class="st0" d="M494,24.5c1-0.6,2-1.1,3-1.6v13.8c-1.1-0.7-2.2-1.4-3.3-2.1C493.5,31.1,493.4,27.8,494,24.5z"/>
<path class="st0" d="M9.7,36.7c4.2-0.2,8.2-0.2,12.4,0c0.1,3.7,0.9,8.3-0.6,11.8c-3.1,1.1-9.1,1.9-11.6-0.7
	C9,44.3,9.6,40.3,9.7,36.7z"/>
<path class="st0" d="M35.8,36.7c4.2-0.3,8.3-0.3,12.5,0c0.2,4.2,0.2,8.2,0,12.4c-3.7,0.1-8.3,0.9-11.7-0.6
	C34.6,45.4,35.8,40.2,35.8,36.7z"/>
<path class="st0" d="M61.8,36.7c4.2-0.3,8.3-0.3,12.5,0c0.2,3.3,0.6,6.9,0,10.2c-0.3,1.9-1.7,2-3.3,2.4c-2.7,0.4-5.9,0.4-8.5-0.8
	C60.7,45.3,61.8,40.3,61.8,36.7z"/>
<path class="st0" d="M87.8,36.7c4.2-0.3,8.3-0.3,12.4,0c0.2,4.2,0.2,8.3,0,12.4c-3.8,0.1-7.7,0.2-11.5,0.1
	C87.8,45,87.6,41.1,87.8,36.7z"/>
<path class="st0" d="M115.2,36.9c3.5-0.8,7.4-0.4,11-0.3c0.8,4.1,0.9,7.7,0.3,11.9c-4,0.6-7.9,0.8-11.9,0.8
	C114.2,45.2,112.8,40.6,115.2,36.9z"/>
<path class="st0" d="M166.7,36.7c4.2-0.3,8.3-0.3,12.5,0c0.1,3.7,0.9,8.4-0.7,11.8c-3.6,1.3-8.1,0.8-11.8,0.6
	C166.5,45,166.5,40.9,166.7,36.7z"/>
<path class="st0" d="M192.8,36.7c4.2-0.3,8.3-0.3,12.5,0c0.2,4.2,0.2,8.3,0,12.4c-3,0.1-6.2,0.4-9.2,0.1c-1.4-0.2-3.1-0.6-3.3-2.3
	C192.2,43.6,192.6,40,192.8,36.7z"/>
<path class="st0" d="M218.8,36.7c4.2-0.3,8.3-0.3,12.5,0c0.2,3.8,0.2,7.7,0.1,11.5c-3.6,0.7-8.4,2-11.8,0.2
	C217.6,45.6,218.8,40.1,218.8,36.7z"/>
<path class="st0" d="M349.8,36.7c4.2-0.3,8.2-0.3,12.4,0c0.1,3,0.2,6,0.2,8.9c1-0.4,2-0.8,3.1-1.3c-0.9,2.1-2.1,4.1-3.3,6.1
	c-3.9-0.7-7.9-1-11.7-2.1C348.7,45.1,349.7,40.3,349.8,36.7z"/>
<path class="st0" d="M375.9,36.7c4.2-0.3,8.2-0.3,12.4,0c0.2,4.2,0.2,8.3,0,12.5c-4.1,0.2-8.1,0.1-12.1-0.3
	C375.7,44.8,375.6,40.8,375.9,36.7z"/>
<path class="st0" d="M401.9,36.7c4.2-0.3,8.2-0.3,12.4,0c0.2,4.2,0.2,8.3,0,12.5c-4.1,0.2-8.1,0.1-12.1-0.3
	C401.8,44.8,401.7,40.8,401.9,36.7z"/>
<path class="st0" d="M428.7,36.7c3.9-0.2,7.8-0.2,11.6,0c0.2,3.9,0.2,7.8,0,11.7c-3.9,0.2-7.8,0.2-11.7,0
	C428.5,44.4,428.5,40.6,428.7,36.7z"/>
<path class="st0" d="M454.7,36.7c4.1-0.3,8.2-0.2,12.4,0c0.1,3.8,0.8,8.2-0.5,11.8c-3.6,1.4-8.1,0.7-11.8,0.6
	C454.5,45,454.5,40.9,454.7,36.7z"/>
<path class="st0" d="M480.8,36.7c4.2-0.3,8.3-0.3,12.5,0c0.1,3.3,0.5,6.9,0,10.2c-0.2,2.5-3.4,2.3-5.2,2.6c-2,0-5.8,0.2-7-1.7
	C480,44.3,480.6,40.3,480.8,36.7z"/>
<path class="st0" d="M372.4,46.2c4.6,4.4,4,10,6,16c3.3,0.2,6.6,0.4,9.9,0.7c0.2,3.6,0.2,7.2,0.1,10.9c-2.1,0.6-4.1,1.1-6.1,1.7
	c-0.4,3.6-0.7,7.2-1,10.8c-1.4-7.4-1.7-14.8-3.9-22C375.2,58.3,374.9,52,372.4,46.2z"/>
<path class="st0" d="M0,49.3c3,0.2,6.1,0.3,9.1,0.5c0,3.5,1,8.4-0.7,11.6c-2.4,1.2-5.8,0.8-8.4,1V49.3z"/>
<path class="st0" d="M22.7,49.7c4.2-0.2,8.3-0.2,12.5,0c0.2,3.6,0.7,7.5-0.2,11c-0.9,1.4-3.5,1.5-5,1.7c-2.2,0-5.5,0-7.1-1.6
	C22.1,57.3,22.6,53.3,22.7,49.7z"/>
<path class="st0" d="M48.8,49.7c4.2-0.3,8.3-0.2,12.5,0c0.2,3.6,0.7,7.6-0.2,11.1c-1.1,1.4-3.4,1.6-5.1,1.7c-2.2,0-5.4,0-7.1-1.7
	C48.1,57.3,48.6,53.3,48.8,49.7z"/>
<path class="st0" d="M74.8,49.7c4.2-0.3,8.3-0.3,12.5,0c0.2,3.6,0.7,7.6-0.2,11.1c-1.7,1.8-4.9,1.7-7.1,1.7c-1.6-0.1-4-0.3-5-1.7
	C74.1,57.3,74.6,53.3,74.8,49.7z"/>
<path class="st0" d="M100.8,49.7c4.2-0.2,8.3-0.2,12.5,0c0.2,4.2,0.2,8.3,0,12.4c-4.1,0.2-8.1,0.2-12.1-0.3
	C100.7,57.8,100.7,53.8,100.8,49.7z"/>
<path class="st0" d="M179.8,49.7c4.2-0.3,8.3-0.3,12.5,0c0.1,3.7,1,8.4-0.7,11.8c-3.3,1.2-8.9,1.7-11.6-0.7
	C179.1,57.3,179.6,53.3,179.8,49.7z"/>
<path class="st0" d="M205.8,49.7c4.2-0.3,8.3-0.3,12.5,0c0.2,3.3,0.5,6.9,0,10.2c-0.2,1.9-1.8,2-3.3,2.3c-2.8,0.4-5.8,0.3-8.5-0.8
	C204.8,58.2,205.8,53.4,205.8,49.7z"/>
<path class="st0" d="M390.2,49.9c3.5-0.8,7.5-0.3,11.1-0.1c0.2,4.1,0.2,8.2,0,12.4c-3.8,0.2-8.2,0.7-11.8-0.6
	C388.3,58.2,387.8,52.8,390.2,49.9z"/>
<path class="st0" d="M415.7,49.7c3.9-0.2,7.8-0.2,11.7,0c0.2,3.9,0.2,7.8,0,11.7c-3.9,0.2-7.8,0.2-11.7,0
	C415.5,57.5,415.5,53.6,415.7,49.7z"/>
<path class="st0" d="M441.7,49.7c4.1-0.2,8.2-0.2,12.4,0c0.1,3.7,0.9,8.3-0.5,11.8c-3.6,1.4-8.1,0.7-11.8,0.6
	C441.4,58,441.4,53.9,441.7,49.7z"/>
<path class="st0" d="M467.7,49.7c4.2-0.3,8.3-0.2,12.5,0c0.1,3.7,0.9,8.3-0.6,11.8c-3.2,1.1-9,1.8-11.7-0.7
	C467,57.3,467.6,53.3,467.7,49.7z"/>
<path class="st0" d="M494.1,50.5c0.9-0.6,1.9-1.2,2.9-1.8v14.9c-1.1-1.3-2.3-2.5-3.3-3.9C493,56.8,493.5,53.4,494.1,50.5z"/>
<path class="st0" d="M9.7,62.7c3.6-0.2,7.6-0.7,11.1,0.2c1.7,1,1.7,4.3,1.8,6c-0.1,1.8,0,5-1.8,6c-3.5,0.9-7.5,0.3-11.1,0.2
	C9.5,71,9.5,66.9,9.7,62.7z"/>
<path class="st0" d="M35.8,62.7c4.2-0.2,8.3-0.3,12.5,0c0.2,4.2,0.2,8.3,0,12.5c-4.2,0.2-8.3,0.2-12.5,0
	C35.5,71,35.5,66.9,35.8,62.7z"/>
<path class="st0" d="M61.8,62.7c4.2-0.3,8.3-0.3,12.4,0c0.2,4.2,0.2,8.3,0,12.5c-3.7,0.1-8.3,0.8-11.8-0.6
	C60.9,71.1,61.8,66.4,61.8,62.7z"/>
<path class="st0" d="M87.9,62.7c4.2-0.2,8.2-0.3,12.4,0c0.3,4.2,0.2,8.3,0,12.5c-3.7,0-8.4,1-11.8-0.7C87.1,71,87.8,66.5,87.9,62.7z
	"/>
<path class="st0" d="M115.2,62.8c3.6-0.7,7.5-0.3,11.1-0.1c0.3,4.2,0.3,8.3,0,12.5c-2.8,0.2-5.6,0.4-8.3,0.2
	c-1.5-0.3-2.9,0.3-3.3-1.7C113.9,70.3,113.8,66.2,115.2,62.8z"/>
<path class="st0" d="M220.2,63c3.5-1,7.5-0.4,11.1-0.2c0.2,4.2,0.2,8.3,0,12.5c-3.6,0.1-8.5,1-11.8-0.7c-1.2-1.7-1.1-4.5-1.1-6.5
	C218.6,66.2,218.5,64,220.2,63z"/>
<path class="st0" d="M401.9,62.7c4.1-0.3,8.2-0.3,12.4,0c0.2,4.2,0.2,8.3,0,12.5c-3.6,0.2-7.5,0.6-11.1-0.1
	C400.7,72.2,402,66.3,401.9,62.7z"/>
<path class="st0" d="M428.7,62.7c3.9-0.2,7.6-0.1,11.5,0.1c0.7,4.1,0.9,8,0.7,12.2c-4.1,0.5-8.1,0.6-12.2,0.3
	C428.5,71,428.4,66.9,428.7,62.7z"/>
<path class="st0" d="M454.7,62.7c3.6-0.2,7.6-0.6,11.1,0.1c1.7,2.1,1.7,5.6,1.5,8.2c-0.2,1.2-0.3,3.3-1.6,4c-3.5,0.9-7.5,0.3-11,0.2
	C454.5,71,454.5,66.9,454.7,62.7z"/>
<path class="st0" d="M480.7,62.7c4.2-0.2,8.3-0.2,12.5,0c0.2,4.2,0.2,8.3,0,12.5c-4.2,0.2-8.3,0.2-12.5,0
	C480.5,71,480.5,66.9,480.7,62.7z"/>
<path class="st0" d="M0,75.3c2.5,0.3,6.3-0.1,8.4,1.3c1.6,3.3,0.7,8,0.7,11.6c-3,0.1-6.1,0.2-9.1,0.4V75.3z"/>
<path class="st0" d="M22.7,75.8c4.2-0.2,8.3-0.2,12.5,0c0,3.6,1.1,8.5-0.7,11.8c-3.3,1.8-8.2,0.7-11.8,0.7
	C22.5,84,22.5,79.9,22.7,75.8z"/>
<path class="st0" d="M48.8,75.8c4.2-0.3,8.3-0.3,12.5,0c0.2,4.2,0.2,8.3,0,12.5c-4.2,0.2-8.3,0.2-12.5,0
	C48.5,84.1,48.5,79.9,48.8,75.8z"/>
<path class="st0" d="M74.8,75.8c4.2-0.2,8.3-0.2,12.5,0c0.3,4.2,0.3,8.3,0,12.5c-4.2,0.2-8.3,0.2-12.5,0
	C74.6,84,74.6,79.9,74.8,75.8z"/>
<path class="st0" d="M102.2,75.9c3.5-0.8,7.5-0.3,11.1-0.2c0.3,4.2,0.3,8.3,0,12.4c-3.6,0.2-7.6,0.7-11-0.2c-1.4-0.9-1.5-3.5-1.7-5
	C100.6,80.8,100.5,77.5,102.2,75.9z"/>
<path class="st0" d="M128.1,76c3.7-1,8-0.4,11.8-0.1c0.2,3.9,0.6,7.8-0.4,11.6c-3.4,1.7-8.1,0.7-11.7,0.6
	C127.4,84.2,126.5,79.7,128.1,76z"/>
<path class="st0" d="M401.3,75.8c0.2,4.2,0.2,8.3,0,12.5c-4.2,0.2-8.3,0.2-12.4,0c-0.1-3.7-0.8-8.3,0.7-11.7
	C392.4,74.6,397.9,75.8,401.3,75.8z"/>
<path class="st0" d="M416.1,75.9c3.6-0.8,8-1,11.4,0.4c1.4,4.1,0.4,7.8-0.3,11.9c-3.8,0.1-7.6,0.1-11.4-0.1
	C415.1,84,413.8,80,416.1,75.9z"/>
<path class="st0" d="M441.7,75.8c3.6-0.2,7.6-0.7,11.1,0.2c2.4,2.7,2,8.4,0.7,11.6c-3,1.9-8.3,0.7-11.8,0.7
	C441.4,84,441.4,79.9,441.7,75.8z"/>
<path class="st0" d="M467.7,75.7c4.2-0.2,8.3-0.2,12.5,0c0,3.6,1,8.5-0.7,11.8c-3.2,1.8-8.2,0.7-11.8,0.7
	C467.5,84,467.5,79.9,467.7,75.7z"/>
<path class="st0" d="M494.1,76.5c0.9-0.6,1.9-1.2,2.9-1.7v15c-1.1-1.3-2.4-2.5-3.3-4C493,82.8,493.5,79.4,494.1,76.5z"/>
<path class="st0" d="M381.3,88.1c2.3,0.3,4.6,0.7,6.9,1c0.3,4.1,0.4,8.1,0.2,12.2c-2.6-0.1-5.2-0.3-7.8-0.4
	C381.3,96.6,381.4,92.4,381.3,88.1z"/>
<path class="st0" d="M9.7,88.8c3.6-0.2,7.6-0.7,11.1,0.2c2.7,2.6,1.3,8.9,1.4,12.3c-4.2,0.2-8.3,0.2-12.5,0
	C9.5,97.1,9.5,92.9,9.7,88.8z"/>
<path class="st0" d="M35.8,88.8c4.2-0.2,8.3-0.2,12.4,0c0.3,4.2,0.3,8.3,0,12.5c-4.2,0.2-8.3,0.2-12.5,0
	C35.5,97.1,35.5,92.9,35.8,88.8z"/>
<path class="st0" d="M61.8,88.8c4.2-0.2,8.3-0.2,12.5,0c0.3,4.2,0.3,8.3,0,12.5c-4.2,0.2-8.3,0.2-12.5,0
	C61.6,97.1,61.6,92.9,61.8,88.8z"/>
<path class="st0" d="M87.9,88.8c4.1-0.3,8.2-0.3,12.4-0.1c0.3,4.2,0.3,8.3,0,12.5c-4.2,0.2-8.2,0.2-12.4,0
	C87.7,97.1,87.7,92.9,87.9,88.8z"/>
<path class="st0" d="M115.1,89c3.6-0.8,7.6-0.4,11.2-0.2c0.3,4.2,0.3,8.3,0,12.6c-4,0.2-7.9,0.2-11.9-0.3
	C114.2,97.1,113.7,92.7,115.1,89z"/>
<path class="st0" d="M403.2,88.9c3.5-0.9,7.5-0.3,11-0.2c0.2,4.2,0.2,8.3,0,12.5c-3.6,0.2-7.5,0.6-11.1-0.2
	c-1.6-1.6-1.6-4.9-1.6-7.1C401.7,92.4,401.8,89.9,403.2,88.9z"/>
<path class="st0" d="M428.7,88.7c3.9-0.1,7.6-0.1,11.5,0.1c0.6,4.1,0.8,8.1,0.7,12.2c-4.1,0.5-8.1,0.6-12.2,0.3
	C428.5,97.1,428.5,92.9,428.7,88.7z"/>
<path class="st0" d="M456.2,89c3-0.9,6.5-0.8,9.6-0.1c1.5,1.4,1.6,4.2,1.6,6.1c0,1.9-0.1,4.7-1.6,6.1c-3.5,0.8-7.5,0.3-11.1,0.2
	c-0.2-2.7-0.4-5.6-0.2-8.3C454.7,91.4,454.6,89.9,456.2,89z"/>
<path class="st0" d="M480.7,88.8c3.6,0,8.6-1.1,11.8,0.7c1.7,3.3,0.7,8.1,0.7,11.8c-4.2,0.2-8.3,0.2-12.4,0
	C480.5,97.1,480.5,92.9,480.7,88.8z"/>
<path class="st0" d="M0,101.3c2.6,0.3,6.1,0,8.5,1.3c1.4,3,1.8,9-0.7,11.5c-2.6,0.5-5.2,0.4-7.8,0.5V101.3z"/>
<path class="st0" d="M22.7,101.8c4.2-0.2,8.3-0.2,12.5,0c0.2,4.2,0.2,8.3,0,12.5c-4.2,0.2-8.3,0.2-12.5,0
	C22.5,110.1,22.5,105.9,22.7,101.8z"/>
<path class="st0" d="M113.3,101.8c0.3,4.2,0.3,8.3,0,12.5c-3.3,0.2-6.9,0.6-10.2,0c-0.8,0-1.4-0.6-1.8-1.6c-1-3.1-0.9-7.1,0.3-10.2
	C104.6,100.7,109.8,101.8,113.3,101.8z"/>
<path class="st0" d="M127.7,101.8c3.7-0.1,8.3-0.9,11.8,0.6c1.2,3.6,0.6,7.9,0.2,11.6c-4.1,0.5-8,0.6-12.1,0.3
	C127.4,110.1,127.4,106,127.7,101.8z"/>
<path class="st0" d="M401.3,101.8c0.3,4.2,0.3,8.3,0,12.5c-4.2,0.2-8.3,0.2-12.5,0c-0.1-3.7-0.8-8.3,0.7-11.8
	C392.7,100.7,397.7,101.8,401.3,101.8z"/>
<path class="st0" d="M416.1,102c3.7-0.9,7.9-0.3,11.6,0.1c0.3,3.7,0.9,8-0.3,11.5c-3.4,1.7-8.1,0.7-11.8,0.7
	C415,110,413.8,106.1,416.1,102z"/>
<path class="st0" d="M441.7,101.8c3.6,0,8.5-1.1,11.8,0.7c1.4,3.5,0.7,8,0.6,11.8c-4.1,0.3-8.2,0.3-12.4,0
	C441.4,110.1,441.5,106,441.7,101.8z"/>
<path class="st0" d="M467.7,101.8c3.5,0,8.6-1.1,11.8,0.7c1.8,3.2,0.7,8.2,0.7,11.8c-4.2,0.2-8.3,0.2-12.5,0
	C467.5,110.1,467.5,106,467.7,101.8z"/>
<path class="st0" d="M494.1,102.5c1-0.6,1.9-1.1,2.9-1.6v14.9c-1.1-1.3-2.4-2.5-3.3-4C493,108.8,493.5,105.5,494.1,102.5z"/>
<path class="st0" d="M379.3,110.7c0.4,1.1,0.8,2.2,1.2,3.4c2.4,0.6,5.6,0.6,7.6,2.2c0.8,3.4,0.4,7.3,0.2,10.8
	c-4.5,0.2-8.8,0.5-12.9,2.4C377,123.2,378.2,117.1,379.3,110.7z"/>
<path class="st0" d="M9.7,114.8c3.7-0.1,8.3-0.9,11.8,0.7c1.1,2.6,1.2,5.7,0.8,8.5c-0.3,1.5-0.6,3.1-2.4,3.3
	c-3.3,0.6-6.9,0.2-10.2,0C9.5,123.1,9.5,119,9.7,114.8z"/>
<path class="st0" d="M39,114.7c3-0.3,6.1-0.1,9.2,0.1c0.2,4.2,0.2,8.3,0,12.4c-4.2,0.2-8.3,0.2-12.5,0c-0.2-3.3-0.6-6.9,0-10.2
	C36.1,115.1,37.4,115.1,39,114.7z"/>
<path class="st0" d="M414.3,114.8c0.3,4.2,0.3,8.3,0,12.5c-3.6,0.2-7.6,0.7-11.1-0.1c-2.2-3-1.9-8.3-0.7-11.7
	C406,114,410.5,114.7,414.3,114.8z"/>
<path class="st0" d="M429.1,115c3.7-0.9,7.9-0.4,11.7,0.1c0.3,4.2,0.1,8.2-0.7,12.3c-3.8,0.1-7.6,0.1-11.4-0.1
	C428.6,123.5,427.7,118.7,429.1,115z"/>
<path class="st0" d="M458,114.7c2.8-0.4,5.9-0.4,8.5,0.8c1.1,3.4,1.7,8.7-0.7,11.7c-3.5,0.8-7.5,0.3-11.1,0.1
	c-0.2-3.3-0.6-6.9,0-10.2C454.9,115.3,456.6,115,458,114.7z"/>
<path class="st0" d="M490.9,114.9c1.4,0.2,2.1,0.9,2.3,2.3c0.6,3.3,0.2,6.8,0,10.1c-4.2,0.3-8.3,0.2-12.4,0c0-3.6-1.1-8.5,0.7-11.8
	C484.3,114.2,487.9,114.3,490.9,114.9z"/>
<path class="st0" d="M0,127.6c2.8,0.2,5.5,0.3,8.2,0.4c1.1,4.1,1.3,8,0.9,12.2c-3.1,0.1-6.1,0.2-9.2,0.4V127.6z"/>
<path class="st0" d="M30,127.6c1.5,0.2,4.2,0.2,5,1.7c0.9,3.4,0.3,7.4,0.2,11c-4.1,0.6-8.1,0.8-12.2,0.6c-0.4-3.7-1.1-8-0.1-11.6
	C24.5,127.5,27.9,127.6,30,127.6z"/>
<path class="st0" d="M48.8,127.9c4.2-0.2,8.3-0.2,12.5-0.1c0.2,4.2,0.3,8.3,0,12.4c-4.2,0.3-8.3,0.3-12.5,0
	C48.5,136.1,48.5,132.1,48.8,127.9z"/>
<path class="st0" d="M401.1,128.1c0.4,4.1,0.4,8.1,0.1,12.2c-4.2,0.2-8.3,0.2-12.5,0c-0.2-4-0.3-8,0.4-12
	C393.2,127.8,397.2,127.8,401.1,128.1z"/>
<path class="st0" d="M416.1,128.1c3.5-0.7,7.4-0.3,11-0.2c0.5,4,0.7,8,0.7,12c-4,0.6-8,0.7-12,0.4
	C415.1,136.1,414.3,132.3,416.1,128.1z"/>
<path class="st0" d="M441.7,127.9c4.1-0.2,8.2-0.2,12.3,0.1c0.2,4.1,0.2,8.2,0.1,12.3c-4.2,0.3-8.3,0.3-12.4,0
	C441.4,136.1,441.5,132.1,441.7,127.9z"/>
<path class="st0" d="M467.7,127.9c3.8-0.1,8.2-0.6,11.8,0.6c1.6,3.4,0.7,8.1,0.7,11.8c-4.3,0.6-8.2,0.6-12.5-0.1
	C467.5,136.1,467.5,132,467.7,127.9z"/>
<path class="st0" d="M497,126.7v15c-1.3-1.5-3.3-2.8-3.5-4.8c-0.3-2.4-0.4-5.1,0.4-7.4C494.9,128.5,496,127.6,497,126.7z"/>
<path class="st0" d="M21.9,141.2c0.5,4,0.6,8,0.3,12c-4.2,0.3-8.3,0.3-12.5,0c-0.2-3.6-0.6-7.5,0.2-11
	C13.3,140.4,18.2,141.2,21.9,141.2z"/>
<path class="st0" d="M47.6,141.5c1.5,3.5,0.7,8.1,0.5,11.8c-4.1,0.4-8.2,0.3-12.4,0c-0.2-3.6-0.7-7.5,0.1-11
	C38.7,139.9,44.3,140.6,47.6,141.5z"/>
<path class="st0" d="M74.1,142.2c0.9,3.5,0.3,7.5,0.2,11.1c-4.2,0.3-8.3,0.2-12.5,0c-0.3-4-0.4-8,0.4-12
	C65.4,140.9,71.6,139.6,74.1,142.2z"/>
<path class="st0" d="M388.1,142.2c0.8,3.5,0.3,7.5,0.2,11.1c-4.2,0.3-8.3,0.2-12.5,0c-0.1-3.8-0.1-7.6,0.2-11.4
	C379.3,141.6,385.5,139.5,388.1,142.2z"/>
<path class="st0" d="M406.2,141.1c2.5-0.3,5.8-0.4,7.9,1.1c0.8,3.6,0.3,7.5,0.1,11.1c-3.6,0.2-7.6,0.6-11.1-0.1
	c-2.1-2.5-1.8-6.9-0.9-9.9C402.6,141.5,404.8,141.4,406.2,141.1z"/>
<path class="st0" d="M429.1,141.3c3.8-0.6,7.7-0.1,11.5,0.2c0.2,3.5,0.7,7.6-0.4,11.1c-3.3,1.7-8,0.8-11.6,0.7
	C428.5,149.5,428,145,429.1,141.3z"/>
<path class="st0" d="M466.8,141.4c0.4,4,0.5,7.9,0.3,11.9c-4.2,0.3-8.3,0.3-12.4,0c-0.3-4.1-0.4-8.1,0.4-12.1
	C459,140.7,462.9,140.9,466.8,141.4z"/>
<path class="st0" d="M492.9,141.2c0.5,4.1,0.5,8,0.3,12.1c-4.2,0.3-8.3,0.3-12.5,0c-0.1-3.7-1.1-8.5,0.7-11.8
	C484.9,140.2,489.3,140.9,492.9,141.2z"/>
<path class="st0" d="M367.1,153c2.7,0.7,5.4,1.6,8,2.3c0.4,3.7,0.4,7.3,0.2,11c-4.9,0.5-9,0.3-13.7-1.4c0.6,4.8,0.7,9.5,0.6,14.4
	c-3.7,0.3-7.4,0.4-11,0.3c2.4-3.7,4.8-7.3,6.7-11.2C360.6,163,364.4,158.4,367.1,153z"/>
<path class="st0" d="M9.2,154.8c0.2,4,0.1,8-0.3,12c-3,0.2-5.9,0.3-8.9,0.5v-13.1C3.1,154.3,6.1,154.4,9.2,154.8z"/>
<path class="st0" d="M24.4,154.5c3.3-0.6,7.6-0.8,10.7,0.8c0.7,3.5,0.4,7.4,0.2,11c-3.6,0.6-9.4,2.3-12.4-0.4
	c-0.6-2.5-0.6-5.3-0.4-7.9C22.8,156.2,22.2,154.9,24.4,154.5z"/>
<path class="st0" d="M60.5,154.6c2.1,3,0.8,8.6,0.4,12.1c-4.1,0.3-8,0.2-12.1-0.4c-0.2-3.5-0.8-7.5,0.1-10.9
	C52.3,153.5,56.9,153.8,60.5,154.6z"/>
<path class="st0" d="M87.4,154.8c0.1,3.8,0.1,7.6-0.1,11.4c-3.5,0.3-9.2,1.8-12.3-0.4c-1.1-3.6-0.5-7.9,0.2-11.5
	C79.3,153.6,83.3,154,87.4,154.8z"/>
<path class="st0" d="M401.2,155.1c0.7,3.6,0.3,7.5,0.1,11.1c-4,0.3-8,0.5-12.1,0.5c-0.4-3.9-0.6-7.8-0.2-11.7
	C392.7,154.2,397.6,153.4,401.2,155.1z"/>
<path class="st0" d="M416.1,154.6c3.6-1.2,8.1-0.1,11.6,0.5c0.1,3.6,0,7.2-0.2,10.7c-3.9,1-7.8,1.3-11.8,1.3
	C415.2,163.2,414.1,158.3,416.1,154.6z"/>
<path class="st0" d="M442.1,154.6c3.8-0.7,7.9-0.2,11.7-0.1c0.5,4,0.6,7.8,0.3,11.8c-4.1,0.5-8.1,0.7-12.3,0.5
	C441.5,162.9,440.9,158.3,442.1,154.6z"/>
<path class="st0" d="M479.8,154.3c0.6,4,0.7,7.8,0.4,11.9c-4.4,0.8-8.2,0.9-12.6,0.1c-0.1-3.8-0.2-7.6,0.1-11.4
	C471.7,153.8,475.7,154,479.8,154.3z"/>
<path class="st0" d="M497,152.7v15.1c-1.1-1.3-2.5-2.5-3.3-4c-0.5-2.1-0.5-4.5-0.1-6.6C494.3,155.5,495.9,154.1,497,152.7z"/>
<path class="st0" d="M9.7,167.7c4.2-0.3,8.3-0.2,12.5,0c0.1,3.9,0.1,7.7,0.1,11.5c-4.5,1.1-8.1,0.9-12.5-0.1
	C9.5,175.4,9.5,171.6,9.7,167.7z"/>
<path class="st0" d="M35.8,167.7c4.2-0.3,8.3-0.3,12.5,0c0.2,4.1,0.2,8.2,0,12.4c-3.8,0.1-8.1,0.5-11.8-0.6
	C34.8,176.1,35.7,171.4,35.8,167.7z"/>
<path class="st0" d="M62,167.7c4.1-0.3,8.2-0.3,12.3,0c0.2,3.7,0.2,7.3,0,11c-2.5,0.9-5,1.8-7.5,2.8c4.4,0,8.8-0.6,13.2-0.9
	c5.4-0.5,9.6,3.1,15,3.2c3.7-0.1,7.3-2.6,11-3.2c2.3-0.2,4.6,0,6.9,0.2c0.2,1.6,0.4,3.2,0.6,4.7c-6.6,0.1-13-0.1-19.5-0.8
	c-9.8-0.2-19.5-0.5-29.1-2.9c-2.4-0.5-4.7-0.5-7.1-0.4c2,2.3,4.2,4.4,6.3,6.7c-2.4,2.4-4.3,5.4-8,5.4c-2,0-5.8,0.3-7-1.7
	c-1-3.3-0.4-7.2-0.2-10.6c4.3-0.6,8.4-1.4,12.6-2.5C61.6,175,61.8,171.4,62,167.7z"/>
<path class="st0" d="M89.2,167.9c3.5-0.8,7.5-0.3,11.1-0.1c0.2,3.6,0.6,7.6-0.1,11.2c-3.6,2.1-8.4,0.8-12.3,0.3
	C87.9,175.9,86.8,170.5,89.2,167.9z"/>
<path class="st0" d="M375.8,167.7c4.2-0.3,8.3-0.3,12.5,0c0.2,3.6,0.7,7.6-0.2,11.1c-2.6,2.8-8.8,0.7-12.2,0.3
	C375.7,175.3,375.6,171.5,375.8,167.7z"/>
<path class="st0" d="M403.1,167.9c3.5-0.8,7.6-0.4,11.2-0.2c0,3.5,1.1,8.6-0.7,11.8c-3.9,1.6-7.8,0.4-11.8-0.3
	C401.8,175.6,401.3,171.2,403.1,167.9z"/>
<path class="st0" d="M428.7,167.7c4.1-0.2,8.2-0.2,12.3,0c0.1,4.1,0.1,8-0.2,12.1c-3.6,0.3-8,1-11.4-0.4
	C427.6,176.4,428.7,171.2,428.7,167.7z"/>
<path class="st0" d="M454.7,167.7c4.2-0.2,8.2-0.2,12.4,0c0.1,3.8,0.1,7.6,0.1,11.4c-3.4,0.6-9.6,2.4-12.2-0.4
	C454,175.3,454.6,171.3,454.7,167.7z"/>
<path class="st0" d="M480.8,167.7c4.2-0.3,8.3-0.3,12.5,0c0.1,3.8,0.2,7.7,0.1,11.5c-2.7,0.5-5.5,1.2-8.3,1.1
	c-1.1-0.2-3.7-0.2-4-1.6C479.9,175.3,480.6,171.2,480.8,167.7z"/>
<path class="st0" d="M0,180.3c3,0.2,6.1,0.4,9.1,0.5c0,3.5,1.1,8.5-0.7,11.6c-2,1.5-5.9,0.8-8.4,1.1V180.3z"/>
<path class="st0" d="M22.7,180.7c4.2-0.3,8.3-0.3,12.5,0c0,3.6,1,8.5-0.7,11.8c-3.5,1.5-8.1,0.8-11.8,0.7
	C22.5,189,22.5,184.9,22.7,180.7z"/>
<path class="st0" d="M362.8,180.7c4.2-0.3,8.3-0.3,12.5,0c0.2,3.3,0.6,6.9,0,10.2c-0.2,1.8-1.8,2.1-3.3,2.4c-2.7,0.3-6,0.5-8.5-0.8
	C361.7,189.3,362.8,184.3,362.8,180.7z"/>
<path class="st0" d="M388.9,180.7c4.2-0.3,8.2-0.3,12.4,0c0.2,3.6,0.7,7.6-0.2,11.1c-2.5,2.4-8.6,2.1-11.6,0.7
	C388.1,189,388.8,184.5,388.9,180.7z"/>
<path class="st0" d="M416.2,180.9c3.6-1.1,7.9-0.3,11.5,0.1c0.1,3.6,0.6,7.9-0.5,11.4c-3.5,1.8-8.4,0.7-12.1,0.4
	C415,189.3,414,184.1,416.2,180.9z"/>
<path class="st0" d="M441.7,180.7c4.2-0.2,8.2-0.2,12.4,0c0.1,3.7,0.8,8.2-0.6,11.8c-3.4,1.6-8.1,0.7-11.8,0.6
	C441.4,189,441.4,184.9,441.7,180.7z"/>
<path class="st0" d="M467.7,180.7c4.2-0.3,8.3-0.3,12.5,0c0.2,4.2,0.2,8.3,0,12.5c-4.2,0.2-8.3,0.2-12.5,0
	C467.5,189,467.5,184.9,467.7,180.7z"/>
<path class="st0" d="M494.1,181.5c1-0.6,1.9-1.1,2.9-1.7v14.9c-1.1-1.3-2.4-2.5-3.3-3.9C493,187.8,493.5,184.4,494.1,181.5z"/>
<path class="st0" d="M66.3,190.8c3.9,5.4,10,7.7,14.1,12.7c3,3.5,6.3,6.6,9.8,9.7c-2.5,2.9-3.6,6.6-8.1,6.4
	c-2.2-0.1-6.9,0.3-7.2-2.7c-0.6-3.1-0.1-6.4,0.1-9.5c1.8-0.5,3.5-1,5.3-1.5c-1.5-1.9-3-3.4-4.9-4.8c-0.9,1.8-1.7,3.5-2.6,5.3
	c-3.9,0.2-7.3-0.1-11.1-1c0-2.9-0.5-6.2,0.2-9.1C62.8,194.1,64.6,192.3,66.3,190.8z"/>
<path class="st0" d="M9.8,193.7c3.6-0.2,7.6-0.7,11,0.2c2.7,2.4,1.9,8.5,0.7,11.6c-3.1,1.3-9.1,1.7-11.6-0.7
	C9,201.3,9.6,197.3,9.8,193.7z"/>
<path class="st0" d="M35.8,193.7c4.2-0.2,8.3-0.2,12.4,0c0.1,3.5,0.8,7.6-0.2,11c-0.4,0.7-1.1,1.2-2.1,1.4
	c-3.3,0.6-6.8,0.2-10.1,0.1C35.5,202,35.5,197.9,35.8,193.7z"/>
<path class="st0" d="M349.8,193.7c4.2-0.2,8.3-0.2,12.5,0c0.1,3.6,0.7,7.6-0.2,11c-0.8,1.5-3.5,1.6-5,1.7c-2.1,0-5.6,0.1-7.1-1.7
	C349.1,201.3,349.6,197.3,349.8,193.7z"/>
<path class="st0" d="M375.9,193.8c4.2-0.2,8.2-0.3,12.4,0c0.2,3.6,0.7,7.6-0.2,11.1c-2.7,2.4-8.5,2-11.6,0.7
	C375,202,375.8,197.5,375.9,193.8z"/>
<path class="st0" d="M403.2,193.9c3.5-0.9,7.5-0.4,11.1-0.2c0.2,4.2,0.2,8.3,0,12.4c-4.1,0.2-8,0.2-12.1-0.2
	C402,202.6,400.6,196.4,403.2,193.9z"/>
<path class="st0" d="M428.7,193.7c3.5,0,8.3-1.1,11.5,0.8c1.3,3.6,0.4,8,0,11.7c-3.8,0.1-7.6,0.1-11.5,0
	C428.4,202,428.4,197.9,428.7,193.7z"/>
<path class="st0" d="M454.7,193.8c3.6-0.2,7.6-0.7,11.1,0.2c2.6,2.6,1.2,8.6,1,12c-3.3,0.2-9.5,1.7-11.9-1.1
	C454,201.3,454.6,197.3,454.7,193.8z"/>
<path class="st0" d="M480.8,193.7c4.2-0.2,8.2-0.2,12.4,0c0.2,3.6,0.7,7.5-0.2,11c-1,1.6-3.4,1.6-5,1.8c-2.2,0-5.6,0.1-7.1-1.7
	C480.1,201.3,480.6,197.3,480.8,193.7z"/>
<path class="st0" d="M0,206.2c2.5,0.4,6.3-0.1,8.4,1.3c1.4,2.9,1.8,9-0.6,11.5c-2.5,0.5-5.2,0.4-7.8,0.6V206.2z"/>
<path class="st0" d="M22.7,206.7c4.2-0.2,8.3-0.2,12.5,0c0.2,4.2,0.2,8.3,0,12.5c-4.2,0.2-8.3,0.2-12.5,0
	C22.5,215.1,22.5,210.9,22.7,206.7z"/>
<path class="st0" d="M48.7,206.7c4.2-0.2,8.3-0.2,12.5,0c0.3,4.2,0.3,8.3,0,12.5c-4.2,0.2-8.3,0.2-12.5,0
	C48.5,215.1,48.5,210.9,48.7,206.7z"/>
<path class="st0" d="M362.8,206.7c4.2-0.2,8.3-0.2,12.5,0c0.2,4.2,0.3,8.3,0,12.5c-4.2,0.2-8.3,0.2-12.5,0
	C362.5,215,362.5,210.9,362.8,206.7z"/>
<path class="st0" d="M388.9,206.7c4.2-0.2,8.2-0.2,12.4,0c0.3,4.2,0.3,8.3,0,12.5c-3.6,0.1-7.6,0.7-11-0.2c-0.7-0.4-1.1-1.2-1.2-2.2
	C388.4,213.6,388.8,210,388.9,206.7z"/>
<path class="st0" d="M416.2,206.9c3.6-1,7.9-0.3,11.7,0.1c0.3,4,0.3,7.9,0,11.9c-3.7,0.4-8,1.2-11.6,0.1c-1.2-0.7-1.4-2.8-1.6-4
	C414.5,212.5,414.4,208.9,416.2,206.9z"/>
<path class="st0" d="M441.7,206.7c3.6-0.2,7.6-0.7,11.1,0.1c2.3,2.7,2.1,8.6,0.7,11.6c-3.1,1.8-8.2,0.7-11.8,0.7
	C441.4,215,441.4,210.9,441.7,206.7z"/>
<path class="st0" d="M467.7,206.7c4.2-0.2,8.3-0.2,12.5,0c0.2,4.2,0.2,8.3,0,12.5c-4.2,0.2-8.3,0.2-12.5,0
	C467.5,215.1,467.5,210.9,467.7,206.7z"/>
<path class="st0" d="M494.1,207.5c1-0.6,1.9-1.1,2.9-1.7v15c-1.1-1.3-2.4-2.5-3.3-4C493,213.8,493.5,210.4,494.1,207.5z"/>
<path class="st0" d="M94.7,217.3c3.7,2.9,7.4,5.9,10.8,9c-1.5-0.3-3.1-0.6-4.6-0.9c-0.8,2-0.5,6.5-3.1,6.7c-3,0.6-6.6,0.8-9.3-0.6
	c-1.3-3.5-0.8-7.3-0.4-10.9C90.3,219.6,92.5,218.5,94.7,217.3z"/>
<path class="st0" d="M9.7,219.8c3.6-0.1,7.6-0.8,11,0.2c0.7,0.4,1.2,1.1,1.3,2.1c0.6,3.3,0.2,6.8,0.1,10.1c-4.2,0.2-8.2,0.2-12.4,0
	C9.5,228,9.5,223.9,9.7,219.8z"/>
<path class="st0" d="M35.8,219.8c4.2-0.2,8.3-0.2,12.4,0c0.2,4.2,0.3,8.3,0,12.5c-4.2,0.2-8.3,0.2-12.5,0
	C35.5,228.1,35.5,223.9,35.8,219.8z"/>
<path class="st0" d="M74.3,219.8c0.2,4.2,0.2,8.3,0,12.5c-4.2,0.2-8.3,0.2-12.4,0c-0.1-3.6-1-8.4,0.7-11.7
	C65.7,218.7,70.7,219.8,74.3,219.8z"/>
<path class="st0" d="M349.8,219.8c4.2-0.2,8.3-0.2,12.5,0c0.2,4.2,0.2,8.3,0,12.5c-3.5,0-8.6,1.1-11.7-0.7
	C348.6,228.4,349.8,223.2,349.8,219.8z"/>
<path class="st0" d="M375.8,219.8c4.2-0.2,8.3-0.2,12.4,0c0.2,4.2,0.2,8.3,0,12.5c-3.4,0-8.8,1.2-11.7-0.7
	C374.9,228.1,375.8,223.4,375.8,219.8z"/>
<path class="st0" d="M403.2,219.9c3.5-0.9,7.5-0.3,11-0.2c0.3,4.2,0.3,8.3,0,12.5c-3.3,0.2-6.9,0.6-10.2,0c-2.4-0.2-2.3-3.4-2.5-5.2
	C401.6,224.9,401.5,221.4,403.2,219.9z"/>
<path class="st0" d="M428.7,219.8c3.7-0.1,8.4-0.9,11.8,0.6c1.4,4.1,0.4,7.9-0.3,11.9c-3.8,0.1-7.7,0.1-11.5-0.1
	C428.4,228.1,428.4,224,428.7,219.8z"/>
<path class="st0" d="M454.7,219.8c3.6-0.2,7.5-0.7,11.1,0.2c1.5,1.4,1.6,4.2,1.7,6.1c-0.1,1.9-0.1,4.8-1.7,6.1
	c-3.5,0.9-7.5,0.3-11,0.2C454.5,228,454.5,223.9,454.7,219.8z"/>
<path class="st0" d="M480.8,219.8c4.2-0.2,8.3-0.2,12.5,0c0.2,4.2,0.2,8.3,0,12.5c-4.2,0.2-8.3,0.2-12.5,0
	C480.5,228,480.5,223.9,480.8,219.8z"/>
<path class="st0" d="M110.5,230c6.2,4.4,13.2,7.5,19.3,12.1c-3.4,3.9-7.8,4.6-12.3,6.3c-12.3,4.5-25.4,6.6-38.5,6.3
	c-7.7,0.4-14.4-2.2-21.9-3.3c2.3,5.7,5.9,10.2,9.5,15c5.1,6.6,11.6,10.3,17.7,15.9c-3.1-1.8-6.3-3.4-9.4-5.2
	c-0.3,2.4-0.5,4.8-0.8,7.2c-4.1,0.3-8.1,0.3-12.2,0c-0.1-3.7-0.2-7.4,0-11.1c2.2-0.6,4.3-1.2,6.4-1.9c-1.9-3.1-3.9-5.7-6.6-8.2
	c-0.2,2.7-0.3,5.5-0.5,8.2c-4.1,0.2-8.2,0.2-12.4,0c-0.1-3.7-1-8.4,0.7-11.8c2.7-0.8,5.6-0.9,8.4-1.2c-0.8-2.5-1.5-5.1-2.1-7.7
	c3.7-1.2,6.8-3.5,10.4-5c2.5-0.3,5.1,0.2,7.6,0.5c0.4,2.2,0.8,4.4,1.2,6.6c4.2,0.3,8.4,0.2,12.6-0.1c0.5-2.1,0.8-4.7,2.1-6.4
	c2.7-1,6.5-1,9.1-0.1c1.3,1.4,2.3,3.1,3.3,4.6c8.4-0.5,16.6-4.7,24.6-7.1c0-0.8,0-1.5,0-2.2c-4.1-2.7-8.3-4.9-12.9-6.5
	c-0.2,3.4-0.4,6.9-0.6,10.3c-3.6,0.2-7.5,0.6-11-0.1c-2.4-2.9-1.2-8.3-1-11.8c2.6-0.4,5.2-0.9,7.8-1.3
	C109.5,231.4,110,230.7,110.5,230z"/>
<path class="st0" d="M0,232.3c2.5,0.2,5.2,0.2,7.7,0.8c0.7,0.3,1.2,1,1.3,2c0.6,3.2,0.2,6.8,0.1,10.1c-3.1,0.1-6.1,0.2-9.1,0.3
	V232.3z"/>
<path class="st0" d="M22.7,232.8c4.2-0.2,8.3-0.2,12.5,0c0.2,4.2,0.2,8.3,0,12.5c-4.2,0.3-8.3,0.3-12.5,0
	C22.5,241.1,22.5,236.9,22.7,232.8z"/>
<path class="st0" d="M48.8,232.8c4.2-0.2,8.3-0.2,12.5,0c0.2,4.2,0.2,8.3,0,12.5c-4.2,0.2-8.3,0.2-12.5,0
	C48.5,241.1,48.5,236.9,48.8,232.8z"/>
<path class="st0" d="M74.8,232.8c4.2-0.2,8.3-0.2,12.5,0c0.2,4.2,0.2,8.3,0,12.5c-4.2,0.2-8.3,0.2-12.5,0
	C74.6,241.1,74.6,236.9,74.8,232.8z"/>
<path class="st0" d="M375.3,232.8c0.2,4.2,0.2,8.3,0,12.5c-4.2,0.2-8.3,0.2-12.5,0c0-3.5-1.1-8.7,0.7-11.8
	C366.6,231.6,371.7,232.8,375.3,232.8z"/>
<path class="st0" d="M401.3,232.8c0.3,4.2,0.2,8.3,0,12.5c-4.1,0.2-8.2,0.2-12.4,0c-0.1-3.7-0.8-8.3,0.6-11.8
	C392.7,231.7,397.7,232.8,401.3,232.8z"/>
<path class="st0" d="M416.2,232.9c3.5-0.8,7.5-0.4,11.1-0.2c0.9,4.4,0.8,8.3,0,12.7c-4,0.2-8,0.1-12-0.2
	C415.1,241.7,413.7,235.7,416.2,232.9z"/>
<path class="st0" d="M441.8,232.8c4.1-0.2,8.2-0.2,12.4,0c0.2,4.2,0.2,8.3,0,12.5c-4.2,0.3-8.3,0.3-12.4,0.1
	C441.2,241.1,441.3,237,441.8,232.8z"/>
<path class="st0" d="M467.7,232.7c4.2-0.2,8.3-0.2,12.5,0c0.2,4.2,0.2,8.3,0,12.5c-4.2,0.2-8.3,0.3-12.5,0
	C467.5,241.1,467.5,236.9,467.7,232.7z"/>
<path class="st0" d="M494.1,233.5c1-0.6,1.9-1.1,2.9-1.7v14.9c-1.1-1.3-2.4-2.5-3.3-4C493,239.8,493.5,236.4,494.1,233.5z"/>
<path class="st1" d="M173.4,238.6c3.1-0.1,6.5-0.4,9.6,0.2c3.3,0.9,6.5,2.3,9.8,3.3c0.4,5.2-2.3,8.6-4.4,13
	c-4.8-1.4-7.8-4.6-11.5-7.9c-1.2-1.2-2.7-2.6-3.3-4.2C173.4,241.6,173.4,240.1,173.4,238.6z"/>
<path class="st0" d="M9.7,245.9c3.8-0.2,8.2-0.8,11.8,0.6c1.4,3.6,0.7,8.1,0.6,11.8c-4.2,0.2-8.2,0.2-12.4,0
	C9.5,254.1,9.5,250,9.7,245.9z"/>
<path class="st0" d="M42,245.4c1.8,0.1,5,0.1,6,1.8c0.9,3.5,0.3,7.5,0.1,11c-4.1,0.2-8.2,0.2-12.4,0c-0.1-3.5-0.8-7.6,0.2-11
	C36.9,245.4,40.2,245.5,42,245.4z"/>
<path class="st0" d="M388.1,247.2c0.9,3.5,0.3,7.5,0.2,11.1c-4.2,0.2-8.3,0.2-12.4,0c-0.1-3.7-1-8.4,0.7-11.8
	C379.5,245.1,385.6,244.7,388.1,247.2z"/>
<path class="st0" d="M414.3,245.8c0.3,4.2,0.3,8.3,0,12.4c-3.4,0-8.8,1.2-11.7-0.8c-1.6-3.2-0.7-7.8-0.3-11.3
	C406.3,245.4,410.2,245.6,414.3,245.8z"/>
<path class="st0" d="M428.7,245.8c3.8-0.2,7.6-0.2,11.4-0.1c0.6,4,1.6,7.9,0.4,11.9c-3.5,1.5-8.1,0.8-11.9,0.6
	C428.4,254.1,428.5,250,428.7,245.8z"/>
<path class="st0" d="M454.7,245.8c4.1-0.3,8-0.2,12.1,0.2c0.1,3.5,1.6,9.2-1,12.1c-3.5,0.8-7.5,0.3-11.1,0.1
	C454.5,254.1,454.5,250,454.7,245.8z"/>
<path class="st0" d="M484,245.7c3-0.4,6.1-0.1,9.2,0.1c0.2,4.2,0.2,8.3,0,12.4c-4.2,0.2-8.3,0.2-12.5,0c-0.2-3.3-0.6-6.9,0-10.2
	C481,246.1,482.4,246.1,484,245.7z"/>
<path class="st0" d="M0,258.3c2.8,0.2,5.9,0.1,8.5,1.2c1.5,3.4,0.7,8,0.6,11.7c-3.1,0.1-6.1,0.2-9.1,0.3V258.3z"/>
<path class="st0" d="M22.8,258.8c4.2-0.2,8.3-0.2,12.5,0c0.2,4.2,0.2,8.3,0,12.5c-4.2,0.3-8.3,0.3-12.5,0
	C22.5,267.1,22.5,263,22.8,258.8z"/>
<path class="st0" d="M368.1,258.8c2.4-0.2,4.9,0.5,7.2,1c0.2,3.6,0.1,7.2-0.2,10.9c-1.8,0.5-3.7,1.1-5.5,1.6c-0.1,1-0.2,2-0.3,3.1
	c-3.3-4.3-6.1-9-9-13.6C362.7,260.6,365.4,259.2,368.1,258.8z"/>
<path class="st0" d="M390.2,259c3.5-0.9,7.5-0.3,11-0.2c0.3,4.2,0.3,8.3,0,12.5c-3.6,0.2-7.6,0.7-11.1-0.2c-1.8-1.5-1.7-5-1.7-7.1
	C388.7,262.5,388.8,259.9,390.2,259z"/>
<path class="st0" d="M416.2,259c3.5-0.9,7.8-0.9,11.3,0.4c1.1,3.6,0.5,7.8,0.3,11.6c-3.7,0.4-8,1.2-11.6,0.1
	c-1.7-1.6-1.6-4.9-1.6-7.1C414.7,262.5,414.9,259.9,416.2,259z"/>
<path class="st0" d="M442,259.2c3.7-0.9,7.9-1.1,11.5,0.3c1.2,3.6,0.7,8.1,0.5,11.8c-4.1,0.3-8.2,0.3-12.3,0
	C441.5,267.4,440.9,262.9,442,259.2z"/>
<path class="st0" d="M467.7,258.8c3.7,0,8.4-1,11.8,0.7c1.8,3.3,0.7,8.2,0.7,11.8c-4.2,0.3-8.3,0.3-12.5,0
	C467.5,267.1,467.5,263,467.7,258.8z"/>
<path class="st0" d="M494.1,259.5c0.9-0.6,1.9-1.1,2.9-1.7v14.9c-1.1-1.2-2.7-2.4-3.3-3.9C493,265.8,493.5,262.5,494.1,259.5z"/>
<path class="st0" d="M310.5,0h13.1c-0.1,2-0.2,4-0.5,5.9c-0.3,1.3-0.4,3.4-2.1,3.4c-3.3,0.5-6.9,0.2-10.2,0
	C310.7,6.2,310.6,3.1,310.5,0z"/>
<path class="st0" d="M336.5,0h13.1c-0.2,3.1-0.3,6.2-0.5,9.3c-4.1,0.3-8.2,0.3-12.3,0C336.7,6.2,336.6,3.1,336.5,0z"/>
<path class="st0" d="M297.7,9.9c4.1-0.2,8.1-0.1,12.2,0.2c0.4,4.1,0.5,8,0.3,12.1c-4.2,0.4-8.3,0.5-12.5,0.1
	C297.4,18.1,297.5,14.1,297.7,9.9z"/>
<path class="st0" d="M336,11.2c0.9,3.5,0.3,7.5,0.1,11c-4.2,0.4-8.2,0.5-12.4,0c-0.1-3.7-1.1-8.4,0.6-11.8
	C327.6,9.5,333.5,8.8,336,11.2z"/>
<path class="st0" d="M310.7,23.7c4.2-0.3,8.3-0.3,12.5,0c0.1,3.9,0.1,7.7,0,11.6c-4.3,0.7-8.2,0.6-12.4-0.1
	C310.5,31.4,310.5,27.6,310.7,23.7z"/>
<path class="st0" d="M336.7,23.7c4.2-0.3,8.4-0.3,12.6,0c0.2,3.8,0.1,7.6-0.1,11.5c-4.1,0.5-8,0.6-12.1,0.4
	C336.5,31.6,336.5,27.7,336.7,23.7z"/>
<path d="M248.2,27.3c1.1,0.4,2.1,0.9,3.2,1.3c8.4,4.1,14.4,10.7,21.8,16.1c7.5,6.2,14.3,13,19.7,21.1c0.5,0.6,0.9,1.3,1.4,1.9
	c2,2.8,4,5.6,5.7,8.6c2.1,3.8,3.7,7.8,5,11.8c1,3.4,1.8,6.8,2.9,10.2c1.4-1.6,3.1-3,3.8-5.1c2.7-7.6,3-15.2,2.9-23.2
	c0.6-0.1,1.2-0.2,1.9-0.4c0.6,1.5,1.2,3,1.8,4.5c1.9,5.1,3.3,10.3,3.1,15.8c-0.2,5,0.4,9.2,2.2,13.8c8.5-8.5,16.2-17.8,23.2-27.5
	c2.8-3.8,4.5-7.8,6.9-11.9c2.8-4.7,5.6-9.4,8.5-14c1.2-2,2.3-4,3.3-6.1c0.9-2.1,1.6-4.3,2.4-6.4c0.5,0.5,1,1,1.5,1.5
	c1.1,2.2,2,4.6,3.1,6.9c2.5,5.8,2.8,12.1,4.9,18.1c2.3,7.2,2.6,14.6,3.9,22l0,1.8c0.1,4.3,0,8.5-0.7,12.8c-0.6,3.3-1.2,6.5-1.3,9.9
	c-1,6.3-2.3,12.5-4,18.7c-1.4,8.3-4.8,15.9-8.2,23.6c-2.6,5.4-6.5,10-9.1,15.4c-2,3.9-4.4,7.5-6.7,11.2c-2.8,4.3-4.9,8.7-7.9,12.8
	c-3.9,5.2-8.3,10.1-13.2,14.5c1.4,2.6,2.8,5.1,4.1,7.8c4.6,8.8,10.1,16.8,14,26c3,7.3,7.4,13.5,11.5,20.1l0.6,1
	c2.9,4.6,5.7,9.3,9,13.6c1.2,1.2,2.4,2.4,3.7,3.4c6.3,3.4,12.7,6.1,20,5.8c5.6,0.1,9.2-3.6,14.2-5c4.4-0.9,7.6,0.9,11.5,2.5
	c1.5,2.7,3.9,5.7,3.8,8.8c0.7,6-3.2,11.4-7.5,15.1c-2.5,2.3-5.4,2.6-8.5,3.7c-2.7,0.9-5,2.2-7.6,3.5c-5.5,2.7-11.3,4.4-16.7,7.3
	c-4.2,2.2-8.4,4.3-12.6,6.5c-4.5,2.3-8.6,5.3-13.1,7.8c-10.4,5.5-20.7,12.1-31.6,16.8c-5.8,2-11,4.5-16.4,7.3
	c-12.8,5.5-28.1,3.7-41.6,2.7c-5.5,0-10.7-1.3-15.9-3c-10.1-3.1-19.9-7.1-28.5-13.3c-3.6,7-7.7,12.6-13.8,17.6
	c0.1-7-0.9-12.6-3.1-19.2c-4.9,2.3-9.2,5.6-14.2,7.8c-4.2,1.9-8.5,3.7-13,5.1c-3.9,1.3-7.8,1-11.9,1c1.8-2.3,3.5-4.5,5.4-6.8
	c2-1.8,4.1-3.7,5.9-5.9c2-2.4,3.5-5.1,5-7.8c-2.2,0.4-4.3,0.8-6.5,1.2c2.8-2.9,5.8-5.6,8.7-8.5c1.9-1.3,3.8-2.4,5.8-3.3
	c-0.9,4.6-3,9-5.2,13.1c-2.7,4.9-7.3,8.1-10.1,13c7.8-0.1,12.7-4.4,19-8.2c3.4-2.2,7.3-4,9.8-7.2c1.6-1.9,3.2-3.6,5-5.3
	c-0.7,3.5-1.4,6.9-0.8,10.5c0.8,4.5,1.4,9,2.2,13.5c3-2.6,5.2-6.2,6.6-10c0.5-2.1,0.7-4.8-0.5-6.6c-8.6-13.7-13.8-29.4-14.6-45.6
	c-1-5.4-0.6-10.8-0.5-16.2c-8.6-3.2-17.4-5.8-25.8-9.6c-5.2-2.4-8.9-6.9-13.9-10c-5-3-8.8-7.4-10.6-12.9c-0.4-4.2-0.9-8.1,1.9-11.7
	c3.2-5.4,8.3-7.1,13.9-8.9c4.4-1.5,9.1-1.2,13.7-1.2c6.9-0.2,14.1,2.5,20.4,5.5c0.6-1.7,1.2-3.5,1.8-5.2c0.5,6.2,1.9,12.2,4.1,18
	c0.7,0.1,1.3,0.1,2,0.2c1.1-4.6,2.2-9,4.2-13.3c2.8-6.2,5.2-12.5,8.6-18.5c1.6-3.2,3.5-6.1,6.3-8.5c1.4,4.7,0.8,9.5,2.1,14.2
	c0.6-0.1,1.1-0.2,1.7-0.3c2.2-6.8,4.6-14.5,8.9-20.3c6.4-8.2,12.6-16.5,20.5-23.4c0.3,5.6-0.7,10.4,0.9,15.6
	c3.2-1.6,5.3-4.3,7.5-7.1c4.2,0.7,8,2.3,11.8,4.1c4.3,2.1,8.7,3.5,12.7,6.2c4.5,2.8,8.3,6.3,12.5,9.5c8,6.5,13.3,15.7,18.8,24.2
	c7,10.8,13.2,22.3,19.5,33.4c2.9,5.1,6.4,9.6,9.4,14.6c3.4,5.7,8.8,10.9,14.3,14.6c7.9,2.9,16.2,4.2,24.7,3.4l-0.2-2.4
	c-5-1.2-9.9-2.6-14.8-4c-3.1-1-5.9-2-8.2-4.3c-4.7-4.4-8.1-10.8-11.8-16.1c-6.2-9.1-11.9-18.6-16.7-28.4
	c-3.8-7.1-7.5-14.3-11.8-21.2c-3.6-6.6-7.4-12.8-12.7-18.3c-2.5-2.5-5.5-4.7-8.4-6.8c-2.2-1.7-4.2-3.7-6.1-5.6
	c2.7,0.9,5.3,1.9,7.9,3.2c6.6,3.8,11.6,8.9,16.2,14.9c7.5-6,11.3-13.7,16.7-21.5c3-4.4,5.8-8.9,8.5-13.5c4.3-7.5,9.6-14.7,11.8-23.2
	c3.1-11.5,7.2-24.1,8.4-36c0.2-11.3,0.7-22.8-0.1-34.1c-1.6-7.8-2.5-15.7-4.2-23.5c-5.3,7.3-8.3,15.8-13.3,23.3
	c-7.5,11.5-17,21.8-26.2,31.9c-3.8,4.6-7.7,8.6-13.5,10.7c0.2-6,3.3-11.3,3.4-17.3c0.1-4.9,0.2-9.9-0.5-14.7c-1.9,6-3.5,12-6,17.8
	c-1.8,4.6-4.7,9.8-4.6,14.8c0,5.4-0.9,10.7-3.7,15.3c-0.4-9.4,0.4-18.9-0.3-28.3c-0.7-4.5-2.7-8.8-4-13.2
	c-3.1-9.9-9.6-19.2-15.6-27.6c-3.8-5.5-8.4-10.2-13.8-14.2c-5.2-5.2-11.2-9.5-16.7-14.4C251.3,31.7,249.7,29.7,248.2,27.3z"/>
<path class="st1" d="M248.2,31.2c7.9,5.5,13.4,12.4,21.9,16.8c5.4,4,9.9,8.7,13.8,14.2c6,8.4,12.5,17.7,15.6,27.6
	c1.3,4.3,3.3,8.7,4,13.2c0.8,9.4-0.1,18.9,0.3,28.3c2.9-4.7,3.7-9.9,3.7-15.3c-0.1-5,2.8-10.2,4.6-14.8c2.6-5.8,4.1-11.8,6-17.8
	c0.7,4.9,0.6,9.8,0.5,14.7c-0.1,5.9-3.2,11.2-3.4,17.3c5.8-2,9.7-6.1,13.5-10.7c9.2-10.1,18.7-20.4,26.2-31.9c5-7.5,8-16,13.3-23.3
	c1.7,7.8,2.6,15.7,4.2,23.5c0.9,11.3,0.4,22.8,0.1,34.1c-1.2,11.9-5.3,24.5-8.4,36c-2.3,8.5-7.5,15.6-11.8,23.2
	c-2.7,4.6-5.4,9.1-8.5,13.5c-5.4,7.8-9.2,15.4-16.7,21.5c-4.6-6.1-9.5-11.1-16.2-14.9c-4.2-2.8-8.6-4.8-13.3-6.6
	c-0.3-0.1-0.7-0.3-1-0.4c4.2,3.1,8.1,6.6,12.5,9.5c2.9,2.1,5.8,4.3,8.4,6.8c5.2,5.5,9,11.7,12.7,18.3c4.2,6.9,8,14.1,11.8,21.2
	c4.9,9.9,10.5,19.3,16.7,28.4c3.6,5.3,7,11.7,11.8,16.1c2.4,2.2,5.2,3.3,8.2,4.3c4.9,1.5,9.9,2.8,14.8,4l0.2,2.4
	c-8.5,0.8-16.8-0.5-24.7-3.4c-5.5-3.7-10.9-8.9-14.3-14.6c-3-5-6.6-9.6-9.4-14.6c-6.3-11.2-12.5-22.7-19.5-33.4
	c-5.5-8.6-10.8-17.7-18.8-24.2c-4.2-3.2-8-6.8-12.5-9.5c-4-2.7-8.4-4.1-12.7-6.2c-3.8-1.8-7.7-3.4-11.8-4.1
	c-2.3,2.8-4.3,5.4-7.5,7.1c-1.6-5.2-0.7-10.1-0.9-15.6c-7.9,7-14.1,15.2-20.5,23.4c-4.3,5.8-6.7,13.5-8.9,20.3
	c-0.6,0.1-1.1,0.2-1.7,0.3c-1.3-4.7-0.7-9.5-2.1-14.2c-2.8,2.4-4.6,5.3-6.3,8.5c-3.4,6-5.8,12.3-8.6,18.5c-1.9,4.3-3.1,8.7-4.2,13.3
	c-0.7-0.1-1.3-0.1-2-0.2c-2.1-5.9-3.5-11.8-4.1-18c-0.6,1.7-1.2,3.5-1.8,5.2c-6.2-2.9-13.4-5.6-20.4-5.5c-4.6,0-9.3-0.3-13.7,1.2
	c-5.6,1.9-10.8,3.6-13.9,8.9c-2.8,3.6-2.3,7.5-1.9,11.7c1.8,5.5,5.6,9.9,10.6,12.9c5,3,8.7,7.6,13.9,10c8.4,3.8,17.2,6.4,25.8,9.6
	c-0.1,5.5-0.4,10.8,0.5,16.2c0.8,16.2,6,32,14.6,45.6c1.2,1.9,1,4.6,0.5,6.6c-1.4,3.8-3.5,7.3-6.6,10c-0.8-4.5-1.4-9-2.2-13.5
	c-0.6-3.6,0.1-7,0.8-10.5c-1.8,1.6-3.5,3.4-5,5.3c-2.5,3.2-6.4,5-9.8,7.2c-6.3,3.8-11.2,8.1-19,8.2c2.8-4.9,7.4-8.1,10.1-13
	c2.2-4.1,4.3-8.5,5.2-13.1c-2,1-3.9,2.1-5.8,3.3c-7.6,4-11.9,10.3-20.5,12.4c4.7-4.9,8.8-10.4,13.1-15.6c1.4-1.8,2.5-3.7,3.6-5.7
	c-8.3,1.7-17.1,5.7-26.4,5.7c-8.7,0-17.4,0-26.1-0.6c-7.2-1.2-17-2.6-21.3-9.3c5.4-1,10.8-2.1,16.2-3.1c13.3-2.8,25.1-9.2,35.7-17.5
	c0-1.2,0.1-2.5,0.1-3.8c-2.2-0.7-4.3-1.3-6.6-0.9c-4.9,0.9-10,1.5-15,1.8c-6.9,0.5-13.1-1.4-20-1.9c-4.4-0.2-8.9-2.2-13.1-3.5
	c-5.8-1.8-11.8-3.6-16.9-7.2c-6.2-4.6-11.8-10.3-17.1-15.9c-1.8-1.9-3-4.1-4.2-6.4c3.8-0.1,7.4,0.2,11.2,0.7
	c7.4,0.4,14.5,0.7,21.8-1c7.2-1.7,14.7-3.2,21.4-6.3c5.7-3.2,11.4-5.8,14.8-11.7c-8.3-3.3-16.2-8.4-23.3-13.8
	c-4.1-2.9-8.3-5.6-12.2-8.9c-6-4.7-10.8-10.6-16.8-15.2C78,197.9,73,193.3,69,187.3c7.5-0.2,14.6,1.1,22,2.1
	c6,0.4,11.9,1.2,17.9,1.3c6.4,1.2,12.7,0.6,19.1,0.8c4.4,0,8.6,1.4,13.1,1.1c-2.5-4.8-6.8-7.6-9.9-11.9c-7.9-9.4-15.7-19-23.6-28.4
	c-4-5-8.1-9.8-12.8-14.1c-5.6-7-12.7-11.5-19.9-16.8c12.7,0.6,25.2,2.6,37.9,2.1c11.1-0.3,22.4,1.6,32.6,5.9
	c7.1,3.1,14.2,6.3,21,9.9c4.9,2.5,9.3,6.3,14.5,8.2l1.3-1.4c-2.5-6.4-6.8-11.9-9.5-18.2c-9.3-17.1-18.6-33.3-25-51.9
	c-2.3-7.3-4.8-14.3-6.2-21.9c5.9,3,11.5,6.6,17.4,9.5c10,4.7,19.5,9.8,29.8,13.3c6.7,2.3,12.6,5.8,18.9,9
	c11.7,6,23.3,12.4,34.1,19.9c5.1,3.3,8.1,7.8,14.4,8.5c-0.8-2.1-1.7-4.1-3.1-5.8c-1.5-2.1-3.3-3.5-2.9-6.3
	c0.8-6.5,2.1-12.8,2.5-19.3c0.8-11.7,1.3-24.2-1.1-35.8C250.9,41.8,249.3,36.6,248.2,31.2z"/>
<path class="st0" d="M297.7,36.7c4.2-0.2,8.3-0.2,12.5,0c0.2,4.1,0.1,8.1-0.3,12.2c-4.1,0.4-8.1,0.5-12.1,0.3
	C297.4,45,297.4,40.9,297.7,36.7z"/>
<path class="st0" d="M323.7,36.7c4.2-0.3,8.3-0.3,12.5,0c0.2,4.2,0.2,8.3-0.1,12.4c-4.2,0.2-8.3,0.2-12.4,0
	C323.5,45,323.5,40.9,323.7,36.7z"/>
<path class="st0" d="M310.7,49.8c3.3-0.2,6.9-0.6,10.2,0c1.8,0.2,2.1,1.8,2.4,3.3c0.4,2.8,0.2,5.8-0.8,8.5c-3.2,1.1-9,1.8-11.6-0.8
	C310.1,57.3,310.6,53.3,310.7,49.8z"/>
<path class="st0" d="M336.8,49.7c4.2-0.3,8.3-0.3,12.5,0c0.1,3.6,0.7,7.6-0.2,11c-1.1,1.6-4.3,1.6-6,1.7c-1.8-0.1-5,0-6-1.8
	C336,57.3,336.6,53.3,336.8,49.7z"/>
<path class="st0" d="M298.4,63.1c3.9-0.9,7.8-0.6,11.7-0.3c0.2,4,0.1,7.9-0.3,11.9c-3.3,0.5-6.6,1.1-9.9,1.8c-1.7-3-3.7-5.8-5.7-8.6
	c0.9-0.2,1.8-0.4,2.7-0.6C297.5,65.8,297.9,64.5,298.4,63.1z"/>
<path class="st0" d="M323.7,62.7c4.2-0.2,8.3-0.2,12.5,0c0.1,3.3,0.6,6.9,0,10.2c-0.2,1.3-1,2.1-2.3,2.3c-3.3,0.6-6.8,0.2-10.1,0.1
	C323.5,71,323.5,66.9,323.7,62.7z"/>
<path class="st0" d="M313.9,67.7c0.6,0.2,1.3,0.4,1.9,0.6c0.3,0.5,0.5,0.9,0.8,1.4c-0.6,0.1-1.2,0.2-1.9,0.4
	c0.1,8-0.3,15.6-2.9,23.2c-0.7,2.1-2.4,3.5-3.8,5.1c-1.1-3.4-1.9-6.8-2.9-10.2c1.9,1.1,3.7,2.1,5.6,3.3c-0.1-4.5-0.3-8.7,0.7-13.2
	C312.1,74.8,313,71.2,313.9,67.7z"/>
<path class="st0" d="M318.3,74.2c1.6,0.9,3.2,1.9,4.8,2.8c0.1,5.3,0.2,10.6-0.1,15.9c0.5-1.2,0.9-2.4,1.4-3.7
	c3.4,0,7.5,0.3,10.7-1.1c1.7-0.8,1.2-2.6,1.4-4.2c0.3-2.5-0.3-6.3,1.5-8.2c2.9-0.3,5.9,0.2,8.8,0.6c-7.1,9.7-14.8,19-23.2,27.5
	c-1.8-4.7-2.4-8.9-2.2-13.8C321.6,84.5,320.2,79.3,318.3,74.2z"/>
<path d="M297.6,179.7c4.7,1.8,9.1,3.9,13.3,6.6c-2.6-1.3-5.2-2.3-7.9-3.2c1.9,2,3.9,3.9,6.1,5.6c-4.4-2.9-8.3-6.4-12.5-9.5
	C297,179.4,297.3,179.6,297.6,179.7z"/>
<path class="st0" d="M337.5,207c3.9-0.8,7.8-0.5,11.7-0.3c0.2,4.1,0.2,8.2,0,12.4c-3.4,0.2-6.8,0.3-10.2,0.5c1.5,3.3,2.8,6.4,5,9.3
	c2.1,2.9,4.4,5.2,5.3,8.8c0.9,2.3,1.3,5.7,3.1,7.4c3.1,1.1,6.6,1.1,9.9,1.6c0.5,5.5,0.2,9.2-2.6,14c-4.1-6.6-8.5-12.9-11.5-20.1
	c-3.9-9.2-9.4-17.2-14-26C336,212.3,336.7,209.8,337.5,207z"/>
<path class="st0" d="M304,212.6c1.9,0,3.6,0.5,5.2,1.3c2.6,0.9,3.2,4.4,4.3,6.7c-2.6,1.8-5.4,3.9-8.6,3.9
	c-5.5,0.2-11.2-0.3-16.7,0.3c-6.2,1-12.2,2.7-18,5.2c-3,1.1-6.5,2.6-9.7,2.4c-2.4-2.1-3.8-5.6-2.8-8.8c1.6-2.9,4.4-3.3,7.3-4.2
	c5.6-1.5,11-3.9,16.6-5.1C289,212.7,296.5,212.5,304,212.6z"/>
<path class="st1" d="M310.6,215.6c0,1.6,0.1,3.3-0.2,4.9c-1.4,2.2-5.1,2.2-7.4,2.4c-7.3,0-14.3-0.3-21.4,1.5
	c-5.2,1.1-9.8,3.6-14.8,5.3c-1.9,0.6-4.8,1.4-6.6,0.1c-1.4-1.5-2.5-4.7-0.8-6.4c1.8-1.6,4.6-2.3,6.9-3c7-2,13.3-4.6,20.7-5.1
	C295.1,214.9,302.5,213.5,310.6,215.6z"/>
<path class="st1" d="M317.8,263.2c0.3,11.4-10.7,21-21.8,20.3c-10-0.1-20.8-9.7-19.8-20.2c2.6,0.1,5.3,0.3,7.9,0.7
	c4.3,0.7,8.8,0.5,13.2,0.6c0.4,3-0.2,5.6,2.2,7.9c2.2,2.7,6.5,2.4,9.5,1.7c4.1-2.4,4.5-6.3,4.9-10.7
	C315.1,263.5,316.5,263.3,317.8,263.2z"/>
<path class="st0" d="M21.9,272.2c0.5,4,0.6,8,0.4,12c-4.2,0.3-8.3,0.3-12.5,0c-0.2-3.6-0.6-7.6,0.1-11.2
	C13.4,271.2,18,272,21.9,272.2z"/>
<path class="st0" d="M36.1,272.3c3.9-0.7,7.8-0.2,11.8,0c0.6,4,0.6,7.9,0.4,12c-4.2,0.2-8.3,0.2-12.5,0
	C35.6,280.4,35.1,276,36.1,272.3z"/>
<path class="st0" d="M428.7,271.9c3.2-0.1,6.9-0.5,10,0.4c1.1,0.2,1.6,0.9,1.7,1.9c0.6,3.1,1,7.1-0.5,10c-3.6,0.7-7.6,0.3-11.2,0.1
	C428.4,280.1,428.5,276,428.7,271.9z"/>
<path class="st0" d="M466.9,272.2c0.4,4.1,0.4,8,0.2,12.1c-4.1,0.3-8.2,0.3-12.4,0c-0.2-3.6-0.7-7.6,0.2-11.1
	C457.7,270.6,463.4,272,466.9,272.2z"/>
<path class="st0" d="M480.8,271.9c3.1-0.1,6.4-0.3,9.4,0.2c0.8,0.2,2.5,0.3,2.7,1.3c1.1,3.3,0.5,7.4,0.4,10.9
	c-4.2,0.3-8.3,0.3-12.5,0C480.5,280.1,480.5,276,480.8,271.9z"/>
<path class="st0" d="M379.1,272.6c2.9-0.5,6-0.1,9,0.1c0.2,2.9,0.2,6,0.9,8.8c0.9,1.6,3.3,1.6,4.9,1.5c2.5-0.3,5.4-1,7.3-2.8
	c1.3-2.2,1.6-5,2.3-7.5c3-0.2,6.5-0.8,9.4,0.1c2.2,3.1,3.4,6.5,6.1,9.3c-3.9-1.6-7.2-3.4-11.5-2.5c-5,1.4-8.6,5.1-14.2,5
	c-7.4,0.3-13.7-2.4-20-5.8C374.9,276.8,376.6,273.8,379.1,272.6z"/>
<path class="st0" d="M418.8,282.1c2.8,1.5,6.1,2.9,8.4,5.1c0.8,2.3,0.8,5.3,0.2,7.6c-1.5,2.2-3.8,3.8-5.6,5.8
	c-2.4,2.5-4.5,5.8-7.3,7.8c-3.1,1.9-7.2,2.1-10.5,3.6c-1.4,0.6-1.7,2-2.1,3.3c-0.6,2.5-0.7,5.1-1,7.7c-2.5,0.3-5.1,0.6-7.6,0.5
	c-2.6-0.3-4.8-2.9-7.3-3.3c-2.7,0.2-4.4,2-6.3,3.6c2.9,0.4,5.7,0.7,8.6,0.9c0.3,4.1,0.2,8.1,0,12.2c-3.7,0.1-8.2,0.8-11.8-0.6
	c-0.9-3.4-0.9-7.1-1.1-10.6c-2.9,1.1-5.9,2.1-8.5,4c-2.3,1.6-4.2,3.8-6.4,5.5c-2.8,1.8-6.4,2.1-9.2,3.8c-1.8,2.9-1.6,6.9-3.3,9.8
	c-1.7,1.3-3.5,1.1-5.5,1c-2.9-0.2-5.7-0.5-8.6-0.7c0.9,1.5,2,3.1,2.5,4.8c0.5,3,0,6.2-0.1,9.1c-4.1,0.2-8.1,0.2-12.2,0
	c-0.2-2.8-0.5-5.6-0.7-8.3c-4.7,1.1-8.7,3.1-12.8,5.7c-4.2,2.6-8.6,2.4-13.1,3.9c-1.2,3.7-0.9,7.9-1.3,11.8
	c-3.8,0.2-7.5,0.2-11.3,0.1c-0.2-3.6-0.5-7.3-0.7-10.9c-4.9-1.3-8.7-1.4-13.7-0.4c-0.1,3.8-0.2,7.5-0.4,11.3
	c-3.8,0.1-7.6,0.1-11.4,0c-0.7-4.6-1-8.9,1.2-13.2c-4.1,0.3-8.7,1.1-12.6,0c-2.4-1.9-4.2-4.9-6.8-6.3c-2.7-1.4-5.9-2-8.8-2.7
	c-0.2,3.1-0.4,6.2-0.6,9.3c-3.6,0.1-8.3,1-11.6-0.7c-0.7-2-1-4.2-1.4-6.3c-2.2,2.1-4.3,4.2-6.5,6.3c2.2,0.8,4.4,1.7,6.7,2.5
	c0.1,3.7,0.1,7.4-0.1,11.2c-3,0.2-6.2,0.5-9.2,0.2c-1.5-0.1-3.2-0.8-3.3-2.5c-0.6-4.4,0.9-9.4,1-13.9c0.1-2.8-0.4-5.3-0.9-8
	c-0.3,3.8-0.4,7.5-0.6,11.3c-3.6,0.1-8.3,1-11.7-0.7c-0.9-2.7-1-5.9-1.3-8.7c-3.4,0.8-7.1,1.5-10.1,3.2c-2.2,1.2-3.3,4.1-4.5,6.1
	c-2.9,0.1-6.5,0.7-9.2-0.3c-1.6-1.4-2.8-3.3-4.1-5c2.3-3.5,4.1-5.3,7.9-7.1c-1.9,2.2-3.6,4.5-5.4,6.8c4,0,8,0.3,11.9-1
	c4.4-1.4,8.8-3.2,13-5.1c5-2.2,9.3-5.5,14.2-7.8c2.2,6.6,3.2,12.2,3.1,19.2c6.1-5,10.2-10.6,13.8-17.6c8.6,6.2,18.4,10.2,28.5,13.3
	c5.2,1.7,10.4,3.1,15.9,3c13.5,1,28.8,2.8,41.6-2.7c5.4-2.8,10.6-5.3,16.4-7.3c10.8-4.7,21.1-11.3,31.6-16.8
	c4.5-2.5,8.6-5.5,13.1-7.8c4.2-2.2,8.4-4.3,12.6-6.5c5.4-2.9,11.2-4.6,16.7-7.3c2.5-1.2,4.9-2.6,7.6-3.5c3.1-1.1,6-1.5,8.5-3.7
	c4.3-3.7,8.2-9.1,7.5-15.1C422.6,287.9,420.2,284.8,418.8,282.1z"/>
<path class="st0" d="M85.7,283.3c6.7,4.8,14.3,6.6,22,9.4c6,2.2,12.1,2.1,18.3,3.6c7.6,1.8,15.8,2.2,23.4,0.3
	c-5.5,6.4-14.4,9.9-22.2,12.4c-5.1,1.6-10.2,4.7-15.6,4.6c-4.5,0-8.9,0.6-13.3,1.2c3.1,3.4,5.9,7,10.2,9c3,1.4,6.1,2.7,9.1,4.1
	c6.5,2.9,14.3,2.9,21.4,3.9c7.6,1.5,15.8,0.9,23.6,0.7c-4.1,1.6-8.3,3.5-12.6,4.6c-3.3,0.8-5.8,1.1-8.5-1.3c-3.8-3.3-8.7-3.7-13.6-3
	c-1.3,1.3-2.3,3-3.3,4.5c-3.1,0.1-6.2,0.1-9.4,0.1c-0.5-3-0.5-6.7-1.9-9.4c-3.1-2.3-7.2-3.2-10.2-5.7c-2.6-2.1-4.7-5-6.8-7.5
	c5.6-4.1,11.5-2.9,18.2-4c0-3.8,0.2-7.6,0.5-11.4c2.7-0.6,5.4-1.1,8.2-1.8c-6.7-1.4-13.2,0.7-19.7-0.2c-2-1.8-3.4-4.5-5.6-6
	c-3-1.8-6.5-2.8-9.7-4c-0.3,3.4-0.6,6.8-1,10.1c-4.1,0.2-8.2,0.2-12.3,0c-0.1-3.8-0.1-7.5,0.1-11.3C78.8,285.7,82,284.9,85.7,283.3z
	"/>
<path class="st1" d="M411,283.4c3.2-0.4,4.2,1.9,6.3,3.7c-1.6,0.9-3.4,2.5-5.4,2.4c-2.2,0.1-4.3-1.4-6.2-2.3
	C407.4,285.8,408.5,283.1,411,283.4z"/>
<path class="st0" d="M0,284.6c3,0.3,5.9,0.5,8.9,0.8c0.4,4,0.5,7.9,0.3,11.9c-3.1,0.1-6.1,0.2-9.2,0.4V284.6z"/>
<path class="st0" d="M35,285.2c0.5,4.1,0.5,8,0.3,12.1c-4.2,0.3-8.3,0.3-12.5,0c-0.2-3.6-0.7-7.6,0.2-11.1
	C25.6,283.7,31.6,285.1,35,285.2z"/>
<path class="st0" d="M61.2,285.8c0.3,3.9,0.3,7.6,0.1,11.5c-4.2,0.3-8.4,0.3-12.6,0c-0.2-3.8-0.3-7.6,0.1-11.4
	C53,284.9,57,285,61.2,285.8z"/>
<path class="st0" d="M442.1,285.3c4.1-0.6,7.9,0,12,0.5c0.2,3.8,0.2,7.6,0,11.4c-4.2,0.3-8.2,0.3-12.4,0
	C441.5,293.5,441,289,442.1,285.3z"/>
<path class="st0" d="M479.9,285.5c0.5,3.9,0.6,7.8,0.4,11.8c-4.2,0.3-8.4,0.3-12.6,0c-0.2-3.6-0.6-7.6,0.1-11.2
	C471.3,284.3,476.2,285.3,479.9,285.5z"/>
<path class="st0" d="M497,283.7v15.1c-1.1-1.3-2.5-2.5-3.3-4c-0.5-2.1-0.5-4.5-0.1-6.6C494.3,286.5,495.9,285.1,497,283.7z"/>
<path class="st0" d="M395.5,295.2c3,3.8,5.9,7.8,8.6,11.9C398.7,305,394.9,301.3,395.5,295.2z"/>
<path class="st0" d="M22.2,298.8c0.1,3.8,0.1,7.6,0.1,11.5c-4.4,0.7-8.1,0.8-12.4-0.1c-0.4-3.9-0.5-7.8,0.2-11.7
	C14.1,298.2,18.1,298.5,22.2,298.8z"/>
<path class="st0" d="M48.3,298.8c0.3,4,0.2,7.9-0.4,11.9c-4.1,0.1-8.1,0-12.1-0.5c-0.2-3.8-0.3-7.6,0-11.3
	C40,298.1,44.1,298.4,48.3,298.8z"/>
<path class="st0" d="M74.2,298.7c0.2,3.9,0.2,7.6,0,11.5c-4.3,0.7-8.1,0.7-12.5,0c-0.2-3.8-0.2-7.6,0-11.5
	C66,298.3,70,298.3,74.2,298.7z"/>
<path class="st0" d="M100.3,298.8c0.2,3.9,0.2,7.7,0.1,11.6c-4.2,0.6-8.3,0.4-12.4-0.2c-0.2-3.8-0.3-7.5,0.1-11.3
	C92.1,298,96.2,298.3,100.3,298.8z"/>
<path class="st0" d="M440.8,299.1c0,4-0.2,8-0.7,12c-4,0.1-7.7-0.1-11.6-0.9c-0.2-4-0.3-7.9,0.5-11.9
	C433,298.1,436.9,298.5,440.8,299.1z"/>
<path class="st0" d="M467.1,298.8c0,3.4,1,8.4-1,11.4c-3,1.8-8,0.4-11.3,0.1c-0.2-3.9-0.3-7.6,0-11.5
	C458.9,298.3,462.9,298.3,467.1,298.8z"/>
<path class="st1" d="M127.2,299.4c5-0.8,10-0.5,14.9,1.1c-4.6,3.5-9.3,5.4-15,6.6C127.1,304.5,127,301.9,127.2,299.4z"/>
<path class="st0" d="M480.7,298.7c4.2-0.3,8.3-0.3,12.5,0c0.2,4.1,0.1,8-0.4,12c-4.1,0.2-8,0-12-0.5
	C480.6,306.4,480.5,302.5,480.7,298.7z"/>
<path class="st0" d="M0,311.3c3.1,0.2,6.1,0.3,9.2,0.5c0.1,3.7,0.8,8.2-0.6,11.7c-2.7,0.8-5.8,0.8-8.5,0.9V311.3z"/>
<path class="st0" d="M22.8,311.7c4.2-0.3,8.3-0.3,12.5,0c0.1,3.5,0.7,7.6-0.2,11c-0.7,1.5-3.5,1.5-5,1.7c-2.1,0-5.7,0.1-7.1-1.7
	C22,319.3,22.6,315.3,22.8,311.7z"/>
<path class="st0" d="M48.8,311.7c4.2-0.3,8.3-0.3,12.5,0c0.2,4.1,0.2,8.2,0,12.4c-3.8,0.1-8.2,0.6-11.8-0.6
	C47.7,320.1,48.7,315.4,48.8,311.7z"/>
<path class="st0" d="M74.8,311.7c4.2-0.3,8.3-0.3,12.5,0c0.2,4.1,0.2,8.2,0,12.4c-3.7,0.1-8.2,0.7-11.8-0.6
	C73.8,320.2,74.8,315.4,74.8,311.7z"/>
<path class="st0" d="M414.9,311.8c4.4-0.3,8.8-0.3,13.2,0c0.1,4.2-0.1,8.2-0.9,12.3c-3.8,0.1-7.6,0.2-11.4,0.1
	C414.8,320,414.6,316,414.9,311.8z"/>
<path class="st0" d="M441.8,311.7c4.1-0.3,8.2-0.2,12.3,0c0.2,4.1,0.2,8.1-0.2,12.1c-3.6,0.3-8,1-11.5-0.3
	C440.5,320.3,441.6,315.3,441.8,311.7z"/>
<path class="st0" d="M467.7,311.7c4.2-0.2,8.3-0.2,12.5,0c0.1,3.7,0.9,8.3-0.6,11.8c-3.4,1-8.9,1.7-11.7-0.7
	C467,319.3,467.5,315.3,467.7,311.7z"/>
<path class="st0" d="M494.1,312.5c1-0.6,1.9-1.2,2.9-1.7v14.7c-1.1-1.5-2.5-3-3.4-4.7C493,318.2,493.5,315.1,494.1,312.5z"/>
<path class="st0" d="M9.7,324.7c4.2-0.3,8.3-0.3,12.5,0c0.1,3.7,0.8,8.3-0.6,11.8c-3.5,1.5-8.1,0.7-11.8,0.6
	C9.5,333,9.5,328.9,9.7,324.7z"/>
<path class="st0" d="M35.8,324.7c4.2-0.3,8.3-0.3,12.5,0c0.2,4.2,0.2,8.3,0,12.5c-4.2,0.2-8.3,0.2-12.5,0
	C35.5,333,35.5,328.9,35.8,324.7z"/>
<path class="st0" d="M61.8,324.7c4.2-0.3,8.3-0.3,12.4,0c0.2,4.2,0.2,8.3,0,12.5c-3.7,0.1-8.3,0.8-11.8-0.6
	C60.8,333.1,61.7,328.4,61.8,324.7z"/>
<path class="st0" d="M87.9,324.7c4.2-0.3,8.2-0.3,12.4,0c0.2,4.2,0.2,8.3,0,12.5c-4.1,0.2-8.1,0.1-12.1-0.3
	C87.8,332.8,87.7,328.8,87.9,324.7z"/>
<path class="st0" d="M403.2,324.9c3.5-0.8,7.5-0.3,11.1-0.1c0.3,4.2,0.2,8.3,0,12.5c-4.1,0.2-8,0.2-12.1-0.3
	C402,333.3,400.7,327.9,403.2,324.9z"/>
<path class="st0" d="M428.7,324.7c3.7-0.1,8.4-1,11.8,0.6c1.1,3.6,0.5,7.8,0.3,11.5c-4,0.4-8,0.5-12.1,0.3
	C428.5,333,428.5,328.9,428.7,324.7z"/>
<path class="st0" d="M454.7,324.7c4.1-0.2,8.2-0.2,12.4,0c0.1,3.8,0.7,8.2-0.6,11.8c-3.5,1.5-8.1,0.7-11.8,0.6
	C454.5,333,454.5,328.9,454.7,324.7z"/>
<path class="st0" d="M480.8,324.7c4.2-0.2,8.3-0.2,12.4,0c0.1,3.8,0.7,8.3-0.6,11.8c-2.7,0.9-5.7,1.1-8.6,0.8
	c-1.6-0.3-3-0.6-3.3-2.4C480.2,331.6,480.6,328,480.8,324.7z"/>
<path class="st0" d="M185.1,329.9c-2.8,2.9-5.8,5.6-8.7,8.5c2.2-0.4,4.3-0.9,6.5-1.2c-1.5,2.7-3,5.4-5,7.8c0.7-1.8,1.3-3.7,1.9-5.6
	c-3.9,2-7.7,3.8-11.2,6.4c-2.1,1.5-4.3,3.4-6.8,4.4c-2.8,0.7-6.1,0.2-9,0.1c0.2-4.1,0.7-8,1.4-12c3.7-0.4,7.4-0.7,11.1-0.8
	c-3.2,4.1-7.3,7.2-10.6,11.2c3.6-0.6,7.2-1.6,10.7-2.5c-0.3-1.3-0.6-2.5-0.8-3.8C173.2,340.3,177.5,333.9,185.1,329.9z"/>
<path class="st0" d="M302,333.5c5.2,0.7,10.7,2.3,15.9,2.8c5.8-0.2,11.7-1.9,17.6-1.7c-1.2,1.7-1.8,3-4,3.3
	c-5.8,1.2-12.4,2.3-18.3,1C309,337.9,305,337.2,302,333.5z"/>
<path class="st0" d="M0,337.2c2.6,0.3,6.2-0.1,8.5,1.3c1.4,2.8,1.5,8.2-0.1,10.9c-1.9,1.5-6,0.8-8.4,1.1V337.2z"/>
<path class="st0" d="M22.7,337.7c4.2-0.3,8.3-0.3,12.5,0c0,3.5,1.1,8.7-0.7,11.7c-3.2,1.8-8.2,0.7-11.8,0.7
	C22.5,346,22.5,341.9,22.7,337.7z"/>
<path class="st0" d="M48.7,337.7c4.2-0.3,8.3-0.3,12.5,0c0.2,4.2,0.2,8.3,0,12.5c-4.2,0.2-8.3,0.3-12.5,0
	C48.5,346,48.5,341.9,48.7,337.7z"/>
<path class="st0" d="M74.8,337.7c4.2-0.2,8.3-0.3,12.5,0c0.3,4.2,0.3,8.3,0,12.5c-3.5,0-8.6,1.1-11.8-0.7
	C73.7,346.2,74.8,341.3,74.8,337.7z"/>
<path class="st0" d="M102.2,337.9c3.5-0.9,7.5-0.3,11.1-0.2c0.2,4.2,0.2,8.3,0,12.5c-4.1,0.2-8,0.2-12.1-0.3
	C101.1,346.6,99.4,340.4,102.2,337.9z"/>
<path class="st0" d="M128,337.9c3.9-1,7.9-0.4,11.8,0.1c0.1,3.6,1.2,8.8-1,12c-3.5,0.8-7.4,0.4-10.9,0.2
	C127.4,346.2,126.6,341.7,128,337.9z"/>
<path class="st0" d="M362.8,337.7c4.2-0.3,8.3-0.3,12.5,0c0.2,3.5,0.8,7.6-0.2,11c-1,1.8-4.3,1.7-6,1.8c-1.7-0.1-5.1-0.1-6-1.8
	C362,345.3,362.6,341.3,362.8,337.7z"/>
<path class="st0" d="M390.2,337.9c3.5-0.9,7.5-0.3,11.1-0.2c0.3,4.2,0.2,8.2,0,12.4c-3.6,0.2-7.5,0.7-11.1-0.1
	c-1.6-1.3-1.6-4.2-1.7-6C388.6,342.1,388.6,339.2,390.2,337.9z"/>
<path class="st0" d="M416.1,337.9c3.5-0.7,7.2-0.8,10.7,0.1c2.3,2.6,1.7,8.4,0.8,11.6c-3.3,1.2-8.7,1.7-11.7-0.2
	C414.7,345.8,414.5,341.4,416.1,337.9z"/>
<path class="st0" d="M442,338c3.8-0.9,8.2-0.5,12.1-0.2c0.2,3.8,0.7,8.2-0.5,11.8c-3.5,1.4-8.1,0.7-11.8,0.5
	C441.4,346.1,440.7,341.9,442,338z"/>
<path class="st0" d="M467.7,337.7c4.2-0.2,8.3-0.2,12.5,0c0,3.5,1.1,8.7-0.7,11.7c-3.2,1.8-8.2,0.7-11.7,0.7
	C467.5,346,467.5,341.9,467.7,337.7z"/>
<path class="st0" d="M494.1,338.5c1-0.6,1.9-1.1,2.9-1.7v14.9c-1.1-1.3-2.4-2.5-3.3-3.9C493,344.8,493.5,341.4,494.1,338.5z"/>
<path class="st1" d="M205.2,346.2c-0.1,1.6-0.2,3.2-0.3,4.8c-2.3-0.4-4.2-0.9-6.2-2.3C200.8,347.9,203,347,205.2,346.2z"/>
<path class="st0" d="M9.7,350.7c4.2-0.2,8.2-0.2,12.4,0c0.1,3.3,0.6,6.8,0,10.1c-0.2,1-0.6,1.7-1.3,2.2c-3.5,0.9-7.5,0.3-11,0.2
	C9.5,359,9.5,354.9,9.7,350.7z"/>
<path class="st0" d="M35.8,350.8c4.2-0.3,8.3-0.3,12.5,0c0.2,4.2,0.2,8.3,0,12.5c-4.2,0.2-8.3,0.2-12.5,0
	C35.5,359.1,35.5,354.9,35.8,350.8z"/>
<path class="st0" d="M61.8,350.7c4.2-0.2,8.3-0.2,12.5,0c0.2,4.2,0.2,8.3,0,12.5c-4.2,0.2-8.3,0.2-12.5,0
	C61.5,359.1,61.5,354.9,61.8,350.7z"/>
<path class="st0" d="M89.2,350.9c3.5-0.8,7.5-0.3,11.1-0.1c0.3,4.2,0.3,8.3,0,12.5c-4.1,0.2-8.2,0.2-12.3,0
	C88,359.7,86.7,353.8,89.2,350.9z"/>
<path class="st0" d="M115.3,350.9c3.5-0.7,7.4-0.3,11-0.2c0.3,4.2,0.3,8.3,0,12.5c-3.9,0.2-7.7,0.2-11.6,0.1
	C114.3,359.4,113.2,354.5,115.3,350.9z"/>
<path class="st0" d="M140.7,350.8c3.6-0.2,7.6-0.7,11.1,0.1c1.5,1.4,1.6,4.2,1.6,6.1c0,1.9-0.2,4.6-1.6,6.1
	c-3.5,0.8-7.5,0.3-11.1,0.1C140.5,359,140.5,354.9,140.7,350.8z"/>
<path class="st0" d="M349.8,350.8c4.2-0.3,8.3-0.3,12.5,0c0.2,4.2,0.2,8.3,0,12.5c-4.2,0.2-8.3,0.2-12.5,0
	C349.5,359,349.5,354.9,349.8,350.8z"/>
<path class="st0" d="M375.8,350.7c4.2-0.2,8.3-0.2,12.5,0c0.2,4.2,0.2,8.3,0,12.5c-4,0.2-8,0.2-12-0.1
	C375.7,359,375.6,354.9,375.8,350.7z"/>
<path class="st0" d="M403.2,350.9c3.5-0.8,7.5-0.3,11.1-0.1c0.3,4.2,0.3,8.3,0,12.5c-3.9,0.2-7.7,0.2-11.5,0.1
	C402.2,359.8,400.4,353.8,403.2,350.9z"/>
<path class="st0" d="M428.7,350.7c4.1-0.3,8-0.2,12.1,0.3c0.1,3.7,0.8,8.1-0.5,11.6c-3.4,1.5-7.9,0.7-11.5,0.6
	C428.4,359,428.4,354.9,428.7,350.7z"/>
<path class="st0" d="M454.7,350.8c3.6-0.2,7.6-0.6,11.1,0.1c1.8,1.9,1.7,5.6,1.5,8.1c-0.2,1.2-0.3,3.4-1.6,4
	c-3.5,0.9-7.5,0.3-11,0.2C454.5,359,454.5,354.9,454.7,350.8z"/>
<path class="st0" d="M480.7,350.8c3.4,0,8.8-1.2,11.7,0.7c1.8,3.2,0.8,8.2,0.7,11.7c-4.2,0.2-8.3,0.2-12.5,0
	C480.5,359.1,480.5,355,480.7,350.8z"/>
<path class="st0" d="M0,363.3c2.6,0.2,5.2,0.2,7.7,0.8c0.7,0.3,1.2,1,1.4,2.1c0.6,3.2,0.2,6.8,0,10c-3,0.1-6.1,0.2-9.1,0.3V363.3z"
	/>
<path class="st0" d="M22.7,363.8c4.2-0.2,8.3-0.2,12.5,0c0.2,4.2,0.2,8.3,0,12.5c-4.2,0.2-8.3,0.2-12.5,0
	C22.5,372.1,22.5,367.9,22.7,363.8z"/>
<path class="st0" d="M48.8,363.8c4.2-0.2,8.3-0.2,12.5,0c0.2,4.2,0.2,8.3,0,12.5c-4.2,0.3-8.3,0.3-12.5,0
	C48.5,372.1,48.5,367.9,48.8,363.8z"/>
<path class="st0" d="M74.8,363.8c4.2-0.2,8.3-0.2,12.5,0c0.3,4.2,0.3,8.3,0,12.5c-4.2,0.2-8.3,0.2-12.5,0
	C74.6,372.1,74.6,368,74.8,363.8z"/>
<path class="st0" d="M113.3,363.8c0.3,4.2,0.3,8.3,0,12.5c-3.3,0.2-6.9,0.6-10.2,0c-1.8-0.2-2-1.8-2.3-3.3c-0.4-2.8-0.3-5.9,0.8-8.5
	C104.6,362.6,109.8,363.8,113.3,363.8z"/>
<path class="st0" d="M128.1,364.1c3.6-0.9,7.9-1.1,11.4,0.3c1.1,3.6,1.2,7.6,0,11.1c-3.2,1.8-8.1,0.7-11.7,0.6
	C127.4,372.2,126.7,367.9,128.1,364.1z"/>
<path class="st0" d="M153.7,363.8c3.4,0,8.8-1.2,11.7,0.7c1.7,3.3,0.7,8.1,0.7,11.7c-4.2,0.3-8.3,0.3-12.4,0
	C153.5,372.1,153.5,368,153.7,363.8z"/>
<path class="st0" d="M192.2,363.8c0.2,4.2,0.2,8.3,0,12.4c-4.2,0.2-8.3,0.2-12.5,0c0-3.6-1.1-8.6,0.7-11.8
	C183.7,362.7,188.6,363.8,192.2,363.8z"/>
<path class="st0" d="M244.3,363.8c0.2,4.2,0.2,8.3,0,12.5c-3.3,0.2-6.9,0.6-10.2,0.1c-0.9,0-1.5-0.6-1.9-1.6c-1-3.2-1-7.1,0.3-10.2
	C235.7,362.7,240.7,363.8,244.3,363.8z"/>
<path class="st0" d="M310.7,363.8c3.3-0.2,6.9-0.6,10.2,0c1.9,0.3,2.1,1.6,2.4,3.3c0.3,3,0,6.2-0.2,9.2c-4.1,0.3-8.2,0.3-12.3,0
	C310.5,372.1,310.5,368,310.7,363.8z"/>
<path class="st0" d="M336.7,363.8c4.2-0.2,8.3-0.2,12.5,0c0.2,4.2,0.2,8.3,0,12.5c-4.2,0.2-8.3,0.2-12.5,0
	C336.5,372,336.5,367.9,336.7,363.8z"/>
<path class="st0" d="M375.3,363.8c0.3,4.2,0.3,8.3,0,12.5c-4.2,0.2-8.3,0.2-12.5,0c0-3.5-1.1-8.6,0.7-11.7
	C366.6,362.6,371.7,363.8,375.3,363.8z"/>
<path class="st0" d="M390.2,363.9c3.5-0.8,7.5-0.3,11.1-0.1c0.3,4.2,0.3,8.3,0,12.5c-4.1,0.2-8.2,0.2-12.4,0
	C389,372.7,387.6,366.7,390.2,363.9z"/>
<path class="st0" d="M417.1,363.8c3.3-0.5,6.8-0.2,10.1-0.1c0.8,4.2,1,8,0.6,12.3c-4.2,0.5-8.2,0.6-12.5,0.2
	c-0.3-3.5-1.1-7.5-0.3-11C415.6,364.3,416.3,363.8,417.1,363.8z"/>
<path class="st0" d="M441.7,363.8c3.5-0.1,7.6-0.7,11,0.2c0.7,0.4,1.1,1.1,1.2,2.2c0.6,3.2,0.2,6.8,0.1,10.1
	c-4.1,0.2-8.2,0.2-12.4,0C441.4,372.1,441.4,368,441.7,363.8z"/>
<path class="st0" d="M467.7,363.8c4.2-0.2,8.3-0.2,12.5,0c0.2,4.2,0.2,8.3,0,12.5c-4.2,0.2-8.3,0.2-12.5,0
	C467.5,372.1,467.5,368,467.7,363.8z"/>
<path class="st0" d="M494.1,364.5c1-0.6,1.9-1.1,2.9-1.7v14.9c-1.1-1.3-2.4-2.5-3.3-4C493,370.8,493.5,367.5,494.1,364.5z"/>
<path class="st0" d="M9.7,376.8c3.3-0.1,6.9-0.6,10.2,0.1c1.4,0.1,2.1,0.9,2.2,2.3c0.6,3.3,0.2,6.8,0,10.1c-4.2,0.3-8.2,0.3-12.4,0
	C9.5,385.1,9.5,381,9.7,376.8z"/>
<path class="st0" d="M41,376.4c2,0,4.9-0.2,6.5,1.1c1.7,3.3,0.8,8.1,0.7,11.8c-4.2,0.3-8.3,0.3-12.4,0c-0.1-3.5-0.7-7.6,0.2-11
	C36.7,376.6,39.5,376.6,41,376.4z"/>
<path class="st0" d="M61.8,376.8c4.2-0.2,8.3-0.2,12.5,0c0.2,4.2,0.2,8.3,0,12.5c-4.2,0.2-8.3,0.2-12.5,0
	C61.5,385.1,61.5,381,61.8,376.8z"/>
<path class="st0" d="M89.2,376.9c3.5-0.8,7.5-0.3,11-0.1c0.4,4.2,0.5,8.2,0.1,12.4c-3.6,0.2-7.6,0.8-11.1-0.1
	c-1.6-1.2-1.6-4.2-1.7-6.1C87.6,381.1,87.7,378.2,89.2,376.9z"/>
<path class="st0" d="M114.8,376.7c3.8-0.1,7.6-0.1,11.4,0.1c0.7,4.3,0.8,8.2,0.1,12.5c-3.9,0.1-7.7,0.1-11.6-0.1
	C114.3,385.1,114.4,380.9,114.8,376.7z"/>
<path class="st0" d="M140.7,376.8c3.6-0.2,7.5-0.6,11.1,0.1c2.3,3,1.9,8.2,0.6,11.6c-3.1,1.9-8.3,0.8-11.8,0.8
	C140.5,385.1,140.4,381,140.7,376.8z"/>
<path class="st0" d="M169.1,376.8c2.9-0.5,6.8-0.8,9.4,0.8c1.8,3.1,0.7,8.2,0.7,11.7c-4.2,0.3-8.3,0.3-12.4,0
	c-0.2-3-0.5-6.2-0.2-9.3C166.8,378.3,167.3,377.1,169.1,376.8z"/>
<path class="st0" d="M192.7,376.8c4.2-0.2,8.3-0.2,12.5,0c0.2,4.2,0.2,8.3,0,12.5c-4.2,0.3-8.3,0.2-12.5,0
	C192.5,385.1,192.5,381,192.7,376.8z"/>
<path class="st0" d="M218.8,376.8c4.2-0.2,8.3-0.2,12.5,0c0.3,4.2,0.3,8.3,0,12.5c-4.2,0.3-8.3,0.3-12.5,0
	C218.6,385.1,218.5,381,218.8,376.8z"/>
<path class="st0" d="M257.3,376.8c0.3,4.2,0.3,8.3,0,12.5c-4.2,0.2-8.3,0.2-12.4,0c-0.1-3.7-0.8-8.2,0.6-11.8
	C248.8,375.8,253.7,376.8,257.3,376.8z"/>
<path class="st0" d="M272.1,376.9c3.6-0.7,7.9-1,11.4,0.5c1.1,3.6,1.1,7.6,0,11.2c-3.5,1.5-7.8,1.2-11.4,0.5
	C270.2,385.7,270.4,380.4,272.1,376.9z"/>
<path class="st0" d="M297.7,376.8c3.7,0,8.4-1,11.8,0.7c1.1,3.2,1.9,9.1-0.7,11.6c-3.5,0.9-7.5,0.3-11.1,0.2
	C297.5,385.1,297.5,381,297.7,376.8z"/>
<path class="st0" d="M323.7,376.8c4.2-0.2,8.3-0.2,12.5,0c0.2,4.2,0.2,8.3,0,12.5c-4.2,0.3-8.3,0.3-12.5,0
	C323.5,385.1,323.5,381,323.7,376.8z"/>
<path class="st0" d="M362.2,376.8c0.2,4.2,0.2,8.3,0,12.5c-4.2,0.3-8.3,0.2-12.5,0c0-3.5-1.1-8.6,0.7-11.8
	C353.7,375.7,358.7,376.8,362.2,376.8z"/>
<path class="st0" d="M388.3,376.8c0.2,4.2,0.2,8.3,0,12.5c-4.2,0.2-8.3,0.2-12.4,0c-0.1-3.7-0.8-8.3,0.6-11.8
	C379.8,375.8,384.6,376.7,388.3,376.8z"/>
<path class="st0" d="M403.2,377c3.5-0.9,7.5-0.3,11-0.2c0.3,4.2,0.3,8.3,0,12.5c-3.9,0.2-7.7,0.2-11.5,0.1
	C402.2,386,400.3,379.6,403.2,377z"/>
<path class="st0" d="M439.8,377c2.5,2.8,1,9,0.4,12.4c-3.8,0.1-7.6,0.1-11.4-0.1c-0.3-4.1-0.6-8.1-0.3-12.2
	C432.1,376.6,436.2,376,439.8,377z"/>
<path class="st0" d="M467.1,376.8c0,3.8,1,9.2-1.3,12.4c-3.6,0.7-7.5,0.3-11.1,0.1c0-3.5-1.2-8.8,0.8-11.8
	C458.7,375.8,463.6,376.8,467.1,376.8z"/>
<path class="st0" d="M480.8,376.8c4.2-0.2,8.3-0.2,12.4,0c0.2,4.2,0.2,8.3,0,12.5c-4.2,0.2-8.3,0.2-12.5,0
	C480.5,385.1,480.5,381,480.8,376.8z"/>
<path class="st0" d="M0,389.5c3,0.3,5.9,0.5,8.9,0.8c0.4,4,0.5,7.9,0.3,11.9c-3.1,0.1-6.1,0.2-9.2,0.3V389.5z"/>
<path class="st0" d="M22.7,389.9c3.7-0.1,8.3-0.7,11.8,0.6c1.7,3.3,0.7,8.2,0.7,11.8c-4.2,0.2-8.3,0.2-12.5,0
	C22.5,398.1,22.5,394,22.7,389.9z"/>
<path class="st0" d="M48.8,389.9c3.7,0,9.3-1.1,12.4,1.3c0.7,3.5,0.3,7.5,0.1,11.1c-4.2,0.3-8.3,0.3-12.5,0
	C48.5,398.1,48.5,394,48.8,389.9z"/>
<path class="st0" d="M87.1,391.2c0.8,3.5,0.3,7.5,0.1,11.1c-4.2,0.2-8.3,0.2-12.5,0c0-3.5-1.1-8.6,0.7-11.7
	C78.8,389.1,84.2,388.9,87.1,391.2z"/>
<path class="st0" d="M113.2,391.1c0.8,3.5,0.3,7.5,0.1,11.1c-4.1,0.2-8.2,0.2-12.3,0c-0.2-3.8-0.6-8.2,0.5-11.8
	C104.9,389.2,110.1,388.9,113.2,391.1z"/>
<path class="st0" d="M127.7,389.9c3.8-0.1,7.7-0.2,11.5-0.1c1.1,4.6,1.1,8,0,12.6c-3.9,0.1-7.7,0.1-11.6-0.1
	C127.4,398.1,127.4,394.1,127.7,389.9z"/>
<path class="st0" d="M153.7,389.8c4.1-0.2,8.1-0.1,12.1,0.3c0.2,3.5,1.7,9.3-1,12c-3.5,0.8-7.5,0.3-11.1,0.1
	C153.5,398.1,153.5,394,153.7,389.8z"/>
<path class="st0" d="M191.6,390.5c1.6,3.4,0.7,8.1,0.7,11.8c-4.2,0.3-8.3,0.3-12.5,0c-0.2-3.6-0.7-7.6,0.1-11.1
	C182.8,388.8,188.2,389.2,191.6,390.5z"/>
<path class="st0" d="M218.1,391.2c0.8,3.5,0.3,7.5,0.1,11.1c-4.2,0.3-8.3,0.3-12.4,0c-0.1-3.7-0.8-8.3,0.6-11.8
	C209.7,389.4,215.3,388.7,218.1,391.2z"/>
<path class="st0" d="M244.1,391.2c0.8,3.5,0.3,7.5,0.1,11.1c-4.2,0.2-8.2,0.2-12.4,0c-0.2-4-0.3-8,0.4-12
	C235.7,389.8,241.3,388.6,244.1,391.2z"/>
<path class="st0" d="M259.1,390.1c3.6-0.7,7.5-0.3,11.1-0.1c0.3,4.1,0.3,8.2,0,12.4c-3.3,0.2-6.9,0.6-10.2,0c-2-0.3-1.9-1.8-2.3-3.4
	C257.4,396,257.7,392.7,259.1,390.1z"/>
<path class="st0" d="M284.8,389.9c3.8-0.1,7.6-0.1,11.4-0.1c0.8,4.2,1.1,8.2,0.9,12.5c-4.3,0.3-8.4,0.3-12.7-0.3
	C284.3,397.9,284.5,393.9,284.8,389.9z"/>
<path class="st0" d="M322.5,390.5c1.3,3.6,0.7,8.1,0.6,11.8c-4.1,0.3-8.2,0.3-12.4,0c-0.2-3.6-0.7-7.6,0.1-11.1
	C313.8,388.8,319.2,389.3,322.5,390.5z"/>
<path class="st0" d="M343,389.5c1.9,0.1,4.8,0.2,6,1.7c0.9,3.5,0.3,7.5,0.2,11c-4.2,0.2-8.3,0.2-12.5,0c-0.2-3.6-0.7-7.6,0.2-11.1
	C338.1,389.5,341.2,389.5,343,389.5z"/>
<path class="st0" d="M368,389.5c2.2,0,5.5,0,7.1,1.7c0.8,3.5,0.3,7.5,0.1,11.1c-4.2,0.2-8.3,0.2-12.5,0c-0.1-3.6-0.7-7.5,0.2-11
	C363.9,389.8,366.4,389.6,368,389.5z"/>
<path class="st0" d="M401.3,389.8c0.3,4.2,0.3,8.3,0,12.5c-4.2,0.2-8.2,0.2-12.4,0c-0.2-4-0.3-8,0.4-12
	C393.2,389.6,397.2,389.6,401.3,389.8z"/>
<path class="st0" d="M427.2,389.9c0.7,4,0.8,7.9,0.6,12c-3.7,0.5-8,1.2-11.6,0.2c-2.5-2.8-1.3-8.4-0.9-11.9
	C419.2,389.5,423.2,389.6,427.2,389.9z"/>
<path class="st0" d="M441.8,389.9c4.1-0.2,8-0.1,12.1,0.2c0.4,4.1,0.4,8.1,0.3,12.1c-4.3,0.3-8.5,0.3-12.8-0.2
	C441.3,397.9,441.5,393.9,441.8,389.9z"/>
<path class="st0" d="M479.5,390.5c1.7,3.3,0.7,8.1,0.7,11.8c-4.2,0.3-8.3,0.3-12.5,0c-0.2-3.6-0.7-7.6,0.1-11.1
	C470.8,388.9,476.2,389.2,479.5,390.5z"/>
<path class="st0" d="M497,388.7v15.1c-1.1-1.3-2.4-2.5-3.3-4c-0.6-2.6-0.6-5.8,0.2-8.3C494.9,390.5,495.9,389.5,497,388.7z"/>
<path class="st0" d="M9.7,402.8c3.8-0.1,8.2-0.7,11.8,0.6c1.1,3.2,1.8,9-0.8,11.7c-3.5,0.9-7.5,0.4-11.1,0.2
	C9.5,411.1,9.5,407,9.7,402.8z"/>
<path class="st0" d="M38.1,402.9c3.2-0.6,6.8-0.2,10.1-0.1c0.2,4.2,0.2,8.2,0,12.4c-4.2,0.3-8.3,0.3-12.5,0
	c-0.1-3.6-0.7-7.6,0.2-11.1C36.4,403.5,37.1,403.1,38.1,402.9z"/>
<path class="st0" d="M73.5,403.5c1.9,3,0.7,8.3,0.7,11.8c-4.2,0.3-8.3,0.3-12.5,0c-0.1-3.7-0.9-8.3,0.7-11.8
	C65.8,402.2,70.2,402,73.5,403.5z"/>
<path class="st0" d="M100.3,402.8c0.3,4.2,0.3,8.3,0,12.5c-4.2,0.3-8.3,0.3-12.4,0c-0.2-4-0.3-8,0.4-12
	C92.2,402.5,96.2,402.6,100.3,402.8z"/>
<path class="st0" d="M115.1,403.1c3.5-0.8,7.5-0.5,11.1-0.3c0.4,4.2,0.5,8.3,0,12.5c-2.8,0.2-5.6,0.4-8.3,0.2
	c-1.7-0.3-2.9,0.2-3.4-1.8C113.7,410.3,114,406.4,115.1,403.1z"/>
<path class="st0" d="M140.7,402.9c4.1-0.2,8.1-0.2,12.1,0.2c0.2,3.6,1.5,9.1-1,12.1c-3.6,0.8-7.5,0.3-11.1,0.1
	C140.4,411.1,140.5,407,140.7,402.9z"/>
<path class="st0" d="M170,402.7c2.8-0.4,5.9-0.3,8.5,0.8c1.7,3.3,0.7,8.2,0.7,11.8c-4.2,0.3-8.3,0.3-12.5,0c-0.2-3.3-0.6-6.9,0-10.2
	C166.9,403.3,168.5,402.9,170,402.7z"/>
<path class="st0" d="M196,402.8c3-0.4,6.2-0.1,9.2,0.1c0.2,4.2,0.2,8.3,0,12.4c-4.2,0.3-8.3,0.3-12.5,0c-0.2-3.3-0.6-6.9,0-10.2
	C193.1,403.1,194.4,403.1,196,402.8z"/>
<path class="st0" d="M230.5,403.5c2.1,3.1,0.7,8.6,0.5,12.1c-4.1,0-8.1-0.1-12.2-0.4c0-3.6-1-8.4,0.7-11.7
	C222.4,402.1,227.6,402,230.5,403.5z"/>
<path class="st0" d="M257.3,402.9c0.3,4.2,0.3,8.3,0,12.4c-4.2,0.2-8.3,0.2-12.4,0c-0.2-3.8-0.7-8.2,0.6-11.8
	C249,402,253.5,402.7,257.3,402.9z"/>
<path class="st0" d="M272.1,403.1c3.6-0.7,7.9-1,11.4,0.4c1.3,3.6,0.6,7.8,0.2,11.6c-4,0.6-7.9,0.6-11.9,0.3
	C271.1,411.1,270,407.2,272.1,403.1z"/>
<path class="st0" d="M297.7,402.9c3.7-0.1,8.3-0.9,11.8,0.6c1.4,3.5,0.7,8.1,0.5,11.8c-4.1,0.4-8.1,0.4-12.2,0
	C297.5,411.1,297.4,407,297.7,402.9z"/>
<path class="st0" d="M336.2,402.9c0.2,4.1,0.2,8.2,0,12.3c-4.1,0.3-8.1,0.5-12.2,0.4c-0.2-3.6-1.6-9,0.5-12.1
	C327.9,401.9,332.6,402.8,336.2,402.9z"/>
<path class="st0" d="M353,402.7c2.8-0.3,5.9-0.3,8.5,0.8c1.8,3.2,0.7,8.2,0.7,11.8c-4.2,0.3-8.3,0.3-12.5,0c-0.2-3.3-0.6-6.9,0-10.2
	C350,403.2,351.5,403,353,402.7z"/>
<path class="st0" d="M385,402.7c1.5,0.3,3.1,0.6,3.3,2.4c0.6,3.3,0.1,6.9,0,10.2c-4.2,0.3-8.2,0.3-12.4,0c-0.1-3.8-0.8-8.3,0.6-11.8
	C379.1,402.4,382.2,402.3,385,402.7z"/>
<path class="st0" d="M414.3,402.8c0.3,4.2,0.3,8.3,0,12.5c-3.6,0.2-7.6,0.7-11.1-0.1c-2.2-3.1-1.2-8.3-0.7-11.8
	C406.4,402.5,410.3,402.6,414.3,402.8z"/>
<path class="st0" d="M428.7,402.8c4-0.2,8-0.2,12,0.4c0.2,4.1,0,8-0.5,12.1c-3.9,0.4-7.7,0.4-11.5,0.1
	C428.4,411.1,428.5,407,428.7,402.8z"/>
<path class="st0" d="M454.7,402.9c3.7-0.1,8.3-0.8,11.8,0.6c1,3.4,1.7,8.8-0.7,11.7c-3.5,0.8-7.5,0.3-11.1,0.1
	C454.5,411.1,454.5,407,454.7,402.9z"/>
<path class="st0" d="M485,402.6c2.5-0.2,5.2-0.1,7.6,0.9c1.6,3.4,0.7,8.1,0.7,11.8c-4.2,0.3-8.3,0.3-12.5,0c-0.1-3.5-0.7-7.6,0.2-11
	C481.5,402.9,483.8,402.8,485,402.6z"/>
<path class="st0" d="M35.3,416.8c0.2,3.8,0.2,7.6,0,11.5c-4.2,0.3-8.3,0.3-12.5,0c-0.2-3.6-0.7-7.6,0.1-11.1
	C25.7,414.5,31.8,416.4,35.3,416.8z"/>
<path class="st0" d="M49,416.6c3.9-0.9,8.3-0.2,12.2,0.1c0.2,3.8,0.2,7.6,0.1,11.5c-4.2,0.3-8.3,0.3-12.5,0
	C48.6,424.5,48.1,420.3,49,416.6z"/>
<path class="st0" d="M87.2,416.2c0.3,4,0.3,8,0.1,12.1c-4.2,0.2-8.3,0.2-12.5,0c-0.2-3.6-0.7-7.5,0.1-11.1
	C78.1,415.2,83.6,416.3,87.2,416.2z"/>
<path class="st0" d="M113.2,416.7c0.2,3.9,0.3,7.7,0.1,11.6c-4.2,0.2-8.3,0.2-12.5,0c-0.1-3.8-0.1-7.7,0.1-11.5
	C105.1,416.3,109.1,416.2,113.2,416.7z"/>
<path class="st0" d="M135.8,416c1.6,0.2,3-0.2,3.7,1.6c1.2,3.1,1,6.8,0,9.9c-3.2,1.9-8.2,0.7-11.7,0.7c-0.5-3.8-0.7-7.6,0.1-11.4
	C130.4,416.3,133.1,415.9,135.8,416z"/>
<path class="st0" d="M165.3,416.9c1.4,3,2.1,8.7-0.5,11.3c-3.5,0.9-7.5,0.3-11.1,0.2c-0.2-3.8-0.3-7.6,0.1-11.3
	C157.3,416.3,161.9,415.4,165.3,416.9z"/>
<path class="st0" d="M192.1,416.8c0.2,3.8,0.3,7.6,0.1,11.4c-4.2,0.3-8.3,0.3-12.5,0c-0.1-3.6-1-8.4,0.8-11.8
	C184.2,415.6,188.4,416.4,192.1,416.8z"/>
<path class="st0" d="M218,416.4c0.4,4,0.5,7.9,0.3,11.9c-4.2,0.3-8.3,0.3-12.5,0c-0.2-3.8-0.3-7.5,0.1-11.3
	C209.9,416.2,213.9,416.3,218,416.4z"/>
<path class="st0" d="M244.1,417.2c0.8,3.5,0.3,7.5,0.2,11.1c-4.2,0.2-8.2,0.2-12.4,0c-0.2-4-0.3-7.9,0.5-11.9
	C236,416.1,240.6,415.6,244.1,417.2z"/>
<path class="st0" d="M270.4,416.8c0.1,3.9,0.1,7.7-0.1,11.6c-3.9,0.2-7.7,0.2-11.6,0c-0.5-3.7-1.2-7.8,0.2-11.4
	C262.2,414.8,266.8,416.2,270.4,416.8z"/>
<path class="st0" d="M285,416.6c3.7-0.9,8.1,0,11.9,0.5c0.2,3.3,0.9,7.3-0.3,10.5c-3.2,1.8-8.2,0.7-11.8,0.7
	C284.5,424.5,284,420.3,285,416.6z"/>
<path class="st0" d="M323.1,416.9c0.2,3.8,0.2,7.6,0.1,11.4c-4.2,0.3-8.3,0.3-12.4,0c0-3.6-1.1-8.5,0.7-11.8
	C315.1,415.7,319.4,416.5,323.1,416.9z"/>
<path class="st0" d="M349.2,416.8c0.2,3.9,0.2,7.7,0.1,11.5c-4.2,0.3-8.3,0.3-12.5,0c-0.3-4-0.4-7.9,0.4-11.8
	C341.2,415.9,345.2,416.2,349.2,416.8z"/>
<path class="st0" d="M375.3,416.8c0.2,3.9,0.2,7.7,0,11.5c-4.2,0.3-8.3,0.3-12.5,0c-0.3-4-0.4-8.1,0.4-12.1
	C367.2,415.6,371.2,416,375.3,416.8z"/>
<path class="st0" d="M401.1,417.2c0.9,3.5,0.4,7.5,0.2,11.1c-4.2,0.2-8.3,0.2-12.4,0c-0.2-4-0.3-7.9,0.4-11.8
	C392.7,416.3,398.2,415.3,401.1,417.2z"/>
<path class="st0" d="M453.8,416.4c0.4,4,0.5,7.9,0.4,11.9c-4.2,0.3-8.3,0.3-12.5,0c-0.2-3.8-0.3-7.6,0.2-11.4
	C445.8,416.2,449.8,416.2,453.8,416.4z"/>
<path class="st0" d="M479.9,416.4c0.5,4,0.6,7.9,0.4,11.9c-4.2,0.2-8.4,0.2-12.6,0c-0.2-3.9-0.2-7.7,0.1-11.5
	C471.8,416.3,475.8,416.1,479.9,416.4z"/>
<path class="st0" d="M493.9,417c1-0.5,2-1,3.1-1.5v14.3c-1.1-1.3-2.4-2.5-3.3-3.9C493.1,423,493.5,419.8,493.9,417z"/>
<path class="st0" d="M0,416.3c3.1,0.2,6.1,0.3,9.2,0.5c0.1,3.8,0.1,7.6,0,11.4c-3,0.1-6.1,0.2-9.1,0.4V416.3z"/>
<path class="st0" d="M416.1,416.9c3.6-0.9,7.6-0.4,11.3-0.2c0.4,3.9,0.4,7.6,0,11.5c-4.1,0.3-8,0.3-12.1,0
	C415.2,424.4,414.9,420.5,416.1,416.9z"/>
<path class="st0" d="M22.1,429.8c0.1,2.1,0.2,4.2,0.3,6.2H9.2c0.2-2.1,0.4-4.2,0.7-6.2C14.3,428.8,17.6,428.8,22.1,429.8z"/>
<path class="st0" d="M48.2,429.7c0.1,2.1,0.2,4.2,0.3,6.3H35.2c0.3-2.1,0.5-4.1,0.8-6.2C40.3,429,43.9,429,48.2,429.7z"/>
<path class="st0" d="M74.1,429.8c0.2,2.1,0.4,4.1,0.5,6.2H61.3c0.2-2.1,0.5-4.2,0.7-6.3C66.2,429,69.9,429,74.1,429.8z"/>
<path class="st0" d="M100.1,429.8c0.2,2.1,0.4,4.1,0.6,6.2H87.3c0.5-2.2,0.8-4.4,1.2-6.6C92.4,429.1,96.2,429.2,100.1,429.8z"/>
<path class="st0" d="M125.9,429.9c0.7,2,1.1,4.1,1.7,6.1H113c0.7-2,1.2-4.1,2.1-6C117.6,428.3,123.4,428.3,125.9,429.9z"/>
<path class="st0" d="M152.6,429.1c0.2,2.3,0.5,4.6,0.7,6.9h-13.2c0.2-2.1,0.4-4.2,0.7-6.3C144.9,428.9,148.5,428.7,152.6,429.1z"/>
<path class="st0" d="M178.8,429.2c0.3,2.3,0.6,4.6,0.9,6.8h-13.5c0.4-2.3,0.8-4.5,1.1-6.8C171.1,428.8,174.9,428.8,178.8,429.2z"/>
<path class="st0" d="M205.2,429.7c0.1,2.1,0.2,4.2,0.3,6.3h-13.4c0.4-2.2,0.8-4.5,1.2-6.7C197.5,428.8,201.1,428.9,205.2,429.7z"/>
<path class="st0" d="M231,429.8c0.2,2.1,0.4,4.2,0.6,6.2h-13.4c0.3-2.1,0.5-4.2,0.8-6.2C223.2,429,226.8,429.1,231,429.8z"/>
<path class="st0" d="M257.2,429.4c0.1,2.2,0.2,4.4,0.4,6.6h-13.2c0.3-2.1,0.6-4.1,0.8-6.2C249.2,429.3,253.2,429.2,257.2,429.4z"/>
<path class="st0" d="M283.9,429.8c0.1,2.1,0.3,4.1,0.5,6.2h-12.9c-0.1-2.1-0.2-4.1-0.2-6.2C275.6,429,279.4,429,283.9,429.8z"/>
<path class="st0" d="M309.8,429.9c0.2,2,0.4,4.1,0.6,6.1h-13.5c0.4-2.1,0.7-4.5,1.7-6.4C302.4,428.6,306,429.4,309.8,429.9z"/>
<path class="st0" d="M335.4,429.6c0.7,2,1,4.3,1.3,6.4h-13.6c0.2-2.1,0.5-4.2,0.7-6.2C327.8,429.2,331.6,428.4,335.4,429.6z"/>
<path class="st0" d="M362.1,429.8c0.1,2.1,0.3,4.1,0.4,6.2h-13.3c0.3-2.1,0.5-4.2,0.8-6.2C354.2,429,358,428.9,362.1,429.8z"/>
<path class="st0" d="M388.2,429.8c0.2,2.1,0.3,4.2,0.4,6.2h-13.4c0.5-2.2,0.9-4.4,1.3-6.5C380.5,429.1,384.2,429.2,388.2,429.8z"/>
<path class="st0" d="M413.4,429.6c1.4,1.3,1,4.5,1.4,6.4h-13.4c0.2-2.1,0.5-4.1,0.7-6.2C405.5,429.2,410.2,427.8,413.4,429.6z"/>
<path class="st0" d="M439.8,430c1.1,1.7,1.4,4.1,2,6h-14.6c0.7-2,1.2-4.1,2.1-6C431.8,428.4,437.2,428.4,439.8,430z"/>
<path class="st0" d="M466.9,429.9c0.2,2,0.4,4,0.6,6.1h-13.3c0.3-2.1,0.5-4.1,0.8-6.2C459,429.4,462.9,429,466.9,429.9z"/>
<path class="st0" d="M492.7,429.2c0.3,2.3,0.7,4.5,1,6.8h-13.5c0.3-2.1,0.6-4.1,0.9-6.2C485,429.2,488.8,429.1,492.7,429.2z"/>
</svg>
