<?xml version="1.0" encoding="utf-8"?>
<!-- Generator: Adobe Illustrator 24.1.2, SVG Export Plug-In . SVG Version: 6.00 Build 0)  -->
<svg version="1.1" id="Layer_1" xmlns="http://www.w3.org/2000/svg" xmlns:xlink="http://www.w3.org/1999/xlink" x="0px" y="0px"
	 viewBox="0 0 363 363" style="enable-background:new 0 0 363 363;" xml:space="preserve">
<style type="text/css">
	.st0{fill:#FFFFFF;}
</style>
<path d="M169.7,62.3c8.6,3.9,15.4,9.5,22.5,15.6c5.2,4.5,9.4,10.4,12.8,16.3c2.6,4.4,3.4,9,4.9,13.8c3-6.3,3.2-12.9,3.7-19.8
	c5.1,6.8,4.1,14.3,5.2,22.4c4.9-5,9-10.9,13.1-16.6c3.9-5.5,6.1-11.6,9.5-17.4c2.5-4.3,4-8.9,5.6-13.5c2.4,10.1,5.5,20.1,7,30.4
	c1.2,7.6-1,14.5-0.7,22.2c6.4-4.6,10.8-10.8,16.3-16.2c1.3,3.9,1.1,8.4,0.7,12.5c-1.9,12.1-4.4,23.5-11.8,33.5
	c-4.2,6.7-9.2,12.7-13.8,19.1c3.9-1.7,7.6-3.8,11.7-5.1c-1.6,5.7-5.8,8.9-9.5,13.4c-4.6,5.6-10.8,8.8-16,14c2,4.8,6.3,7.6,7.9,12.4
	c1.2,3.1,0.3,6.3,0.5,9.6c2.1,7.3,8.9,13.6,16.8,13.4c4.2,0.2,7-2.7,10.9-3c3.8-0.2,7.3-0.2,10.1,2.7c2,2.4,3,5.9,3.3,9
	c-1.1,2.6-3.2,4.6-5.7,5.7c-5.6,2.2-11,5.1-16.5,7.5c-12.7,6.6-24.4,15.1-36.8,22.1c-7.4,3.2-13.4,7.4-21.3,8.1
	c-6.4,0.2-12.8-0.1-19-1.1c-7.6-1.7-14.8-4.6-21.2-9.1c-2.3,4.1-4.8,7.4-8.1,10.6c-0.7-3.9-1.2-7.8-1.5-11.8
	c-7.4,4.4-14.4,9-23.4,8.5c3.5-4,7.1-7.8,9.7-12.5c-5.4,2.9-9.5,6.4-15.9,6.8c3.1-3.5,6.3-6.7,8.9-10.5c-4.4,1-8.6,1.4-13.1,0.9
	c-6-0.8-11.5-0.7-17.1-3.5c-4.2-1.7-6.9-4.9-9.9-8.1c4.1-0.2,7.9,0.2,11.9-1.3c5.6-2.1,11-4.4,16-7.8c-9.2,0.1-18.5-1.5-27-4.8
	c-5.1-1.7-9.5-6.1-13.4-9.6c-4.2-3.6-6.9-8.9-9.4-13.8c13.3,4.6,28.2,1.4,40.2-5.3c-10.5-6-19.5-14.1-27.7-23
	c-4.4-3.9-8.5-7.9-11.7-12.8c4.7-0.2,9.1,1.3,13.8,1.2c4.7,0,9.4,0.1,14.1,0.1c5.3-0.2,10.4,1,15.6,0.8c1,1,1.9,2,2.8,3.1
	c-13.6,0.1-27.2,0.1-40.7-2.1c3.4,3.9,6.9,7.5,10.7,11c7.7,8.2,17,15.2,26.9,20.4c-4.1,5.3-9.8,8.3-16.2,10.1
	c-7.3,2.7-14,1.5-21.6,1.7c3.5,5.2,8,10,13.1,13.7c7,3.8,15.4,5.7,23.3,6.1c5.2,0,9.9-1.7,15.1-0.8c-2.1,4.6-6.3,6.7-10.4,9.2
	c-6.1,3.5-12.5,4.5-19.2,6.1c6.5,5.9,14.2,5.5,22.4,5.6c6.9,0.3,12.6-2.1,19-4.3c-3,5-6.9,9.7-10.2,14.3c6-2.6,10-7.2,15.1-11.1
	c-1.2,6.8-5,11.6-9,16.9c5.5-1.5,9.9-4.8,14.4-8.1c1.7-1.3,3.1-3.3,4.5-5c-3.3-4.5-6.3-9-7.5-14.5c-2-6.6-0.4-13-0.8-19.5
	c-7.5-4.1-14.6-7.1-18.8-15.1c-3.4-5,0-11.2,4.9-13.6c6.7-3.7,14-2.7,20.9,0c0.1,3,0.6,5.7,1.3,8.6c0.8-3.3,1.5-6.5,2.7-9.7
	c2.3-5.9,4.4-12.1,8.6-16.9c0.3,3.3,0.4,6.6,1.5,9.7c1.7-4.6,2.8-9.1,5.4-13.3c3.8-5.9,8.2-11.3,12.6-16.6c-0.1,3-0.2,5.9-0.3,8.9
	c3.3-2.5,6.5-4.9,10.3-6.5c-0.4,1.1-0.8,2.2-1.2,3.3c4.2,1.9,8.2,3.8,11.7,6.8c8.2,6.9,11.4,15.8,15.6,25.3
	c4.4,9.1,8.7,20,15.9,27.3c3.8,4.2,10.1,5.9,15.3,7.6c3.1,1.1,5.7,0.1,8.7-1c-3.9-2.3-8.5-2.1-12.5-4.2c-5.5-2.5-9.2-7.6-12.6-12.4
	c-7.2-11-7.9-22.9-13.5-34.3c-3.5-7.5-8.7-13.2-14-19.4c3.8,1.1,7.8,2.8,10.8,5.4c3.2,2.8,5.6,6.8,8.2,10c1.3,1.9,5.4,1.3,6.3,3.5
	c0.5,2.6,0.3,5.2,0.4,7.8c7.6-5.1,14.3-11.7,19.6-19c-5.6,2.1-10.3,5.6-16,6.6c3.3-4.7,7.5-8.3,11-12.7c3.7-4.7,6.9-9.8,10.2-14.7
	c4.5-6.6,6.4-13.8,8.4-21.4c1.3-5.3,2.4-10.8,2.6-16.3c-4.2,4.4-8.5,8.5-13.4,12.2c-2.6,1.9-3.1,4.4-4,7.3c-2,7-6.1,13.7-9.5,20.2
	c-2,3.7-4.8,6.4-8.3,8.7c1.2-2.1,2.4-4.2,3.7-6.3c3.1-4.8,4.9-10.6,7.2-15.8c3.5-7.8,4.7-17,5.8-25.5c1.3-10.9-1.3-20.4-3-31.4
	c-3.3,5.4-5.5,11.4-8.8,16.8c-4.9,7.8-10.6,14.5-16.4,21.7c-1.9,2.4-4.3,4.4-6.7,6.3c0.1-2.4,0.3-4.7,0.9-7.1
	c1.1-4.6,0.8-9.8,0.1-14.5c-0.6,4.9-1.9,9.1-3.8,13.7c-2.7,5.9-1.9,12-3.8,18.2c-0.2-2.2-0.3-4.4-0.2-6.6c1-11.5-3.1-23.4-9.6-32.8
	c-2.7-4-5.3-7.8-9.1-10.9c-5.2-4.2-10.4-8.5-15.5-12.8c1,4.8,2.3,9.7,3,14.5c0.7,6.2,0.4,12.8,0.1,19.1c-0.1,5-1.5,9.5-1.1,14.6
	c0.8,2,2.2,3.7,3.3,5.6c-4.3-2.7-8.1-6-12.4-8.4c-5.9-3.6-12.2-6.6-18.3-9.7c-5.2-2.8-11-4.1-16.3-6.6c-6.4-2.7-12.4-5.9-18.4-9.3
	c0.6,3.2,1.5,6.3,2.4,9.4c4.1,16.5,13.8,32.2,21.2,47.6c-4.8-3-9.6-5.9-14.8-8.1c-8-3.9-17-6.1-25.9-4.9c-6.7,0.8-13.2-0.3-19.8-0.4
	c3.4,3,7.1,5.6,10.5,8.6c5.8,5.1,9.9,11.1,14.8,17.2c2.6,3.4,5.7,6.7,7.2,10.6c-3.4-1.7-5.7-5.8-8.2-8.5c-7.9-8.3-15-16.7-23.9-24.1
	c-2.2-1.8-4.9-3.1-7.4-4.4c0.2-0.8,0.4-1.5,0.6-2.3c6.8-0.2,13.5-0.2,20.3-0.1c7.6,0,15.8-1.1,23.3,0.8c5.3,1.1,9.9,3.7,15,5.6
	c-2.9-5.9-6.4-11.3-8.8-17.6c-4.1-10.8-8.4-22.8-9.1-34.3c4.9,1.7,9.1,4.6,13.8,6.8c6.4,3,12.6,6.4,19.4,8.5
	c6.6,2.2,11.7,6.3,17.9,9.1c3.7,1.7,7.2,3.8,10.8,5.7c0.2-4.8,0.2-9.6,0.9-14.4c1.2-10.9-2-22.9-4.6-33.5
	C168.6,62.5,169,62.2,169.7,62.3z"/>
<path class="st0" d="M228.1,173.2c0.6,2.1,1.7,4.4,1.6,6.7c-0.2,1.9-1,3.8-1.6,5.6c-0.9-1.1-2.3-2.4-2.6-3.8
	c-0.3-1.7,0.2-3.7,0.7-5.4C226.9,175.3,227.5,174.2,228.1,173.2z"/>
<path class="st0" d="M177.6,187.4c2.1-1.7,5.9-0.7,8.5-0.9c8.5-0.1,15.9,3.1,23.8,6c-0.5,1.5-1,3-1.5,4.4
	c-5.8-0.3-10.7-2.9-16.3-3.7c-4.8-0.9-9.9-0.3-14.8-0.7C177.3,190.8,177.3,189.1,177.6,187.4z"/>
<path class="st0" d="M229.1,190c3.4,2.1,6.6,4.6,7.4,8.8c-1.1,1.8-2.4,3.3-3.5,5C231.3,199.2,229.3,195,229.1,190z"/>
<path class="st0" d="M197.1,196.4c2.6,1,5.9,1.5,8.1,3.3c1.7,4.3,1.6,9.6,1.5,14.2c-0.1,2.9-0.9,5.7-3.2,7.6c-6.6,5-17.5,2.8-21-5
	c-2.7-7.1-1.6-15.7,4.2-21C189.4,192.9,194,195.7,197.1,196.4z"/>
<path class="st0" d="M133.7,199.7c3.9-1.1,7.5,0.5,11,2.2c-1.1,2.7-2.3,5.3-3.6,8c-2.6-1.5-5.9-2.8-7.1-5.8
	C133.5,202.9,132.8,200.8,133.7,199.7z"/>
<path class="st0" d="M235,206.4c1.3-0.6,3.2,0.6,1.9,2C235.7,209.1,233.7,207.5,235,206.4z"/>
<path d="M197.5,207.3c1.2-1.2,3.6,0,5,0.1c0.1,3.1,0.1,6.1-0.2,9.1c-2.5,0-4.7,0.4-6.8-1.2C195.1,212.6,194.7,208.9,197.5,207.3z"/>
<path class="st0" d="M274.5,224.1c-3.1,0.9-5.4,1.3-8.6,0.6c0.3-0.8,0.5-1.6,0.8-2.4C270.2,221,271.8,222.1,274.5,224.1z"/>
<path class="st0" d="M151.7,256.6c1.9,1.7,6.2,4.1,4.8,7.1c-0.8,2.4-2.3,4.7-3.7,6.9C152.7,265.9,151.2,261.2,151.7,256.6z"/>
</svg>
